<?xml version="1.0" encoding="utf-8"?>
<!-- Generator: Adobe Illustrator 18.1.0, SVG Export Plug-In . SVG Version: 6.00 Build 0)  -->
<svg version="1.1" id="Isolation_Mode" xmlns="http://www.w3.org/2000/svg" xmlns:xlink="http://www.w3.org/1999/xlink" x="0px"
	 y="0px" viewBox="0 0 560 560" enable-background="new 0 0 560 560" xml:space="preserve">
<path fill="#750102" enable-background="new    " d="M280.2,3.6c-152.4,0-276,123.6-276,276s123.6,276,276,276s276-123.6,276-276
	S432.7,3.6,280.2,3.6z M431.5,301.3C397.8,335.2,364,369,330.1,402.7c-11.6,11.5-29.5,11.5-40.8,0.3c-11.5-11.4-11.5-29.4,0.3-41.3
	c15.7-15.8,31.5-31.4,47.2-47.1c1.4-1.4,3.3-2.4,3.4-5.9c-3.3,0-6.1,0-9,0c-60.5,0-121,0.1-181.6,0c-21.6-0.1-35.1-17.8-29.1-37.6
	c3.6-11.9,14.6-19.6,28.6-19.8c12.4-0.2,24.9-0.1,37.4-0.1c48.9,0,97.9-0.1,146.8-0.1c2.1,0,4.4,0.7,6.3-1c0.1-2.8-2.2-3.8-3.7-5.3
	c-15.7-15.8-31.5-31.4-47.1-47.3c-12.1-12.4-12.4-29.5-0.9-41.2c11.2-11.4,29.2-11.6,41.3,0.4c34.3,33.9,68.5,68.1,102.4,102.4
	C444.6,271.9,444.2,288.5,431.5,301.3z"/>
</svg>
