<?xml version="1.0" encoding="utf-8"?>
<!-- Generator: Adobe Illustrator 18.1.0, SVG Export Plug-In . SVG Version: 6.00 Build 0)  -->
<svg version="1.1" id="Layer_1" xmlns="http://www.w3.org/2000/svg" xmlns:xlink="http://www.w3.org/1999/xlink" x="0px" y="0px"
	 viewBox="0 0 320 320" enable-background="new 0 0 320 320" xml:space="preserve">
<g id="classic_smash" display="none">
	<rect x="109.7" y="289.98" display="inline" fill="#D9D0BE" width="93.92" height="16.49"/>
	<g display="inline">
		<path fill="#492E1E" d="M165.46,299.57h-2.61v2.28h2.65c1.04,0,1.64-0.41,1.64-1.13v-0.04
			C167.14,300.01,166.61,299.57,165.46,299.57z"/>
		<path fill="#492E1E" d="M166.63,296.09v-0.04c0-0.67-0.53-1.06-1.55-1.06h-2.22v2.17H165
			C166.05,297.17,166.63,296.82,166.63,296.09z"/>
		<path fill="#492E1E" d="M216.68,305.95v-19.86H97.41v19.86c0,2.52,2.05,4.56,4.58,4.56h110.12
			C214.64,310.51,216.68,308.47,216.68,305.95z M125.83,304.6H115.8v-12.35h9.94v2.91h-6.55v1.87h5.93v2.7h-5.93v1.96h6.64V304.6z
			 M139.15,302.94c-1.31,1.08-3.12,1.91-5.36,1.91c-3.85,0-6.72-2.65-6.72-6.39v-0.04c0-3.6,2.82-6.42,6.65-6.42
			c2.17,0,3.71,0.67,5.01,1.8l-2.01,2.42c-0.88-0.74-1.76-1.17-2.98-1.17c-1.78,0-3.16,1.5-3.16,3.39v0.04
			c0,1.99,1.39,3.42,3.35,3.42c0.83,0,1.46-0.18,1.98-0.51v-1.5h-2.44v-2.51h5.68V302.94z M152.72,302.94
			c-1.31,1.08-3.12,1.91-5.37,1.91c-3.85,0-6.72-2.65-6.72-6.39v-0.04c0-3.6,2.82-6.42,6.65-6.42c2.17,0,3.71,0.67,5.01,1.8
			l-2.01,2.42c-0.88-0.74-1.77-1.17-2.98-1.17c-1.78,0-3.16,1.5-3.16,3.39v0.04c0,1.99,1.39,3.42,3.35,3.42
			c0.83,0,1.47-0.18,1.98-0.51v-1.5h-2.44v-2.51h5.68V302.94z M170.56,301.19c0,2.12-1.73,3.41-4.68,3.41h-6.37v-12.35h6.34
			c1.55,0,2.65,0.39,3.37,1.11c0.49,0.49,0.79,1.15,0.79,1.99v0.04c0,1.43-0.81,2.28-1.91,2.75c1.5,0.49,2.45,1.34,2.45,3.02V301.19
			z M183.48,299.09c0,3.99-2.28,5.74-5.79,5.74c-3.51,0-5.72-1.78-5.72-5.65v-6.94h3.48v6.87c0,1.78,0.9,2.63,2.28,2.63
			c1.38,0,2.28-0.81,2.28-2.54v-6.95h3.48V299.09z M197.18,304.6h-3l-5.28-6.78v6.78h-3.39v-12.35h3.19l5.08,6.53v-6.53h3.39V304.6z
			"/>
	</g>
	<path display="inline" fill="#492E1E" d="M176.94,12.6l-11.01,13.74c-0.5,0.62-1.23,0.94-1.96,0.94c-0.55,0-1.1-0.18-1.56-0.55
		c-1.08-0.86-1.26-2.43-0.39-3.5l9.35-11.66c-2.65-0.41-5.36-0.7-8.14-0.88l-12.09,15.09c-0.49,0.62-1.22,0.94-1.96,0.94
		c-0.54,0-1.1-0.18-1.56-0.55c-1.08-0.86-1.26-2.43-0.39-3.51l9.75-12.16c-32.85,0.02-59.46,16.57-59.46,36.99h119.05
		C216.57,31.38,200.03,17.69,176.94,12.6z"/>
	<g display="inline">
		<polygon fill="#D9D0BE" points="113.64,64.65 116.2,64.65 114.92,61.24 		"/>
		<path fill="#D9D0BE" d="M72.19,50.84v24.01h160.15V50.84H72.19z M89.24,65.37c0,2.95-2.43,4.75-6.2,4.75
			c-2.85,0-5.42-0.8-7.2-2.37l2.51-2.99c1.52,1.16,3.27,1.65,4.92,1.65c0.84,0,1.2-0.22,1.2-0.6v-0.04c0-0.4-0.44-0.62-1.95-0.92
			c-3.15-0.64-5.92-1.54-5.92-4.51V60.3c0-2.67,2.09-4.73,5.96-4.73c2.71,0,4.71,0.64,6.34,1.93l-2.29,3.17
			c-1.32-0.96-2.91-1.38-4.21-1.38c-0.7,0-1.02,0.24-1.02,0.58v0.04c0,0.38,0.38,0.62,1.87,0.9c3.59,0.66,6,1.71,6,4.53V65.37z
			 M106.13,69.87h-4.67v-6.96l-3.23,5h-0.08l-3.23-5v6.96h-4.59V55.82h4.9l3.01,4.94l3.01-4.94h4.9V69.87z M118.11,69.87l-0.74-1.89
			h-4.92l-0.72,1.89h-5.02l5.92-14.14h4.65l5.92,14.14H118.11z M135.82,65.37c0,2.95-2.43,4.75-6.2,4.75c-2.85,0-5.42-0.8-7.2-2.37
			l2.51-2.99c1.52,1.16,3.27,1.65,4.92,1.65c0.84,0,1.2-0.22,1.2-0.6v-0.04c0-0.4-0.44-0.62-1.95-0.92
			c-3.15-0.64-5.92-1.54-5.92-4.51V60.3c0-2.67,2.09-4.73,5.96-4.73c2.71,0,4.71,0.64,6.34,1.93l-2.29,3.17
			c-1.32-0.96-2.91-1.38-4.21-1.38c-0.7,0-1.02,0.24-1.02,0.58v0.04c0,0.38,0.38,0.62,1.87,0.9c3.59,0.66,6,1.71,6,4.53V65.37z
			 M150.59,69.87h-4.69v-5.04h-4.29v5.04h-4.69V55.82h4.69v4.96h4.29v-4.96h4.69V69.87z M163.33,70.13c-2.85,0-5.42-0.8-7.2-2.37
			l2.51-2.99c1.52,1.16,3.27,1.65,4.92,1.65c0.84,0,1.2-0.22,1.2-0.6v-0.04c0-0.4-0.44-0.62-1.95-0.92
			c-3.15-0.64-5.92-1.54-5.92-4.51V60.3c0-2.67,2.09-4.73,5.96-4.73c2.71,0,4.71,0.64,6.34,1.93l-2.29,3.17
			c-1.32-0.96-2.91-1.38-4.21-1.38c-0.7,0-1.02,0.24-1.02,0.58v0.04c0,0.38,0.38,0.62,1.87,0.9c3.59,0.66,6,1.71,6,4.53v0.04
			C169.53,68.32,167.1,70.13,163.33,70.13z M180.68,69.87l-0.74-1.89h-4.91l-0.72,1.89h-5.02l5.92-14.14h4.65l5.92,14.14H180.68z
			 M199.52,63.47c0,4.79-2.79,6.68-6.98,6.68s-6.9-1.93-6.9-6.58v-7.74h4.77v7.68c0,1.75,0.9,2.49,2.17,2.49s2.17-0.68,2.17-2.39
			v-7.78h4.77V63.47z M207.97,70.17c-3.89,0-7.28-2.93-7.28-7.28v-0.04c0-4.19,3.27-7.32,7.46-7.32c3.09,0,5.18,1.5,6.36,3.65
			l-3.87,2.27c-0.52-1-1.26-1.71-2.55-1.71c-1.59,0-2.63,1.38-2.63,3.07v0.04c0,1.83,1.08,3.11,2.63,3.11
			c1.32,0,2.07-0.72,2.65-1.77l3.87,2.19C213.42,68.46,211.46,70.17,207.97,70.17z M227.59,69.87h-12.08V55.82h11.98v3.85h-7.36
			v1.42h6.86v3.39h-6.86v1.52h7.46V69.87z"/>
		<polygon fill="#D9D0BE" points="176.21,64.65 178.78,64.65 177.49,61.24 		"/>
	</g>
	<g display="inline">
		<path fill="#D9D0BE" d="M95.02,77.99v20.97h94.17V77.99H95.02z M107.15,94.79l-2.4-3.89l-1.05,1.28v2.61h-4.1V82.53h4.1v4.59
			l3.49-4.59h4.76l-4.27,5.32l4.36,6.94H107.15z M122.93,94.79h-10.54V82.53h10.46v3.36h-6.43v1.24h5.99v2.96h-5.99v1.33h6.52V94.79
			z M134.88,85.99h-3.61v8.79h-4.1v-8.79h-3.61v-3.47h11.31V85.99z M141.36,95.05c-3.4,0-6.36-2.56-6.36-6.36v-0.04
			c0-3.66,2.85-6.39,6.52-6.39c2.7,0,4.52,1.31,5.55,3.19l-3.38,1.98c-0.46-0.88-1.1-1.49-2.22-1.49c-1.38,0-2.29,1.21-2.29,2.68
			v0.03c0,1.59,0.95,2.72,2.29,2.72c1.16,0,1.8-0.63,2.31-1.54l3.38,1.91C146.13,93.56,144.41,95.05,141.36,95.05z M159.89,94.79
			h-4.1v-4.4h-3.75v4.4h-4.1V82.53h4.1v4.33h3.75v-4.33h4.1V94.79z M173.31,89.2c0,4.19-2.43,5.83-6.1,5.83
			c-3.66,0-6.03-1.68-6.03-5.75v-6.76h4.17v6.71c0,1.52,0.79,2.17,1.89,2.17c1.1,0,1.89-0.6,1.89-2.08v-6.8h4.17V89.2z
			 M185.61,86.92c0,2.96-2.26,4.54-5.57,4.54h-1.33v3.33h-4.1V82.53h5.52c3.26,0,5.48,1.45,5.48,4.36V86.92z"/>
		<path fill="#D9D0BE" d="M179.83,85.8h-1.12v2.73h1.1c1.05,0,1.75-0.47,1.75-1.35v-0.04C181.56,86.26,180.92,85.8,179.83,85.8z"/>
	</g>
	<g display="inline">
		<polygon fill="#D9D0BE" points="194.52,225.61 193.31,228.66 195.72,228.66 		"/>
		<path fill="#D9D0BE" d="M216.22,219.59H122.3v33.39h93.92V219.59z M193.11,222.09h2.87l4.57,10.81h-3.19l-0.78-1.92h-4.14
			l-0.77,1.92h-3.13L193.11,222.09z M177.93,227.53c0-3.13,2.41-5.58,5.66-5.58c2.19,0,3.6,0.92,4.55,2.24l-2.24,1.73
			c-0.61-0.77-1.32-1.26-2.35-1.26c-1.5,0-2.56,1.27-2.56,2.84v0.03c0,1.61,1.06,2.87,2.56,2.87c1.12,0,1.78-0.52,2.42-1.3
			l2.24,1.59c-1.01,1.4-2.38,2.42-4.75,2.42c-3.07,0-5.54-2.35-5.54-5.55V227.53z M173.35,222.16h2.99v10.73h-2.99V222.16z
			 M162.26,222.16h5.08c1.64,0,2.78,0.43,3.5,1.17c0.63,0.61,0.95,1.44,0.95,2.5v0.03c0,1.64-0.87,2.73-2.21,3.3l2.56,3.74h-3.43
			l-2.16-3.25h-0.03h-1.27v3.25h-2.97V222.16z M152.03,222.16h8.63v2.53h-5.69v1.62h5.15v2.35h-5.15v1.7h5.77v2.53h-8.71V222.16z
			 M130.24,222.09h2.87l4.57,10.81h-3.19l-0.78-1.92h-4.14l-0.77,1.92h-3.13L130.24,222.09z M133.92,249.78
			c-4.18,0-7.55-3.2-7.55-7.57v-0.04c0-4.27,3.28-7.61,7.72-7.61c2.99,0,4.91,1.25,6.21,3.05l-3.05,2.36
			c-0.84-1.05-1.8-1.71-3.2-1.71c-2.05,0-3.49,1.74-3.49,3.87v0.04c0,2.2,1.44,3.91,3.49,3.91c1.53,0,2.43-0.71,3.3-1.78l3.05,2.17
			C139.03,248.37,137.17,249.78,133.92,249.78z M141.64,232.9h-2.91v-10.73h3.14l2.56,4.15l2.56-4.15h3.14v10.73h-2.96v-6.16
			l-2.74,4.2h-0.06l-2.73-4.17V232.9z M155.46,249.48h-4.06v-5.56h-5.21v5.56h-4.06v-14.64h4.06v5.48h5.21v-5.48h4.06V249.48z
			 M169.93,249.48h-11.88v-14.64h11.77v3.45h-7.76v2.22h7.03v3.2h-7.03v2.32h7.86V249.48z M183.87,249.48H172v-14.64h11.77v3.45
			h-7.76v2.22h7.03v3.2h-7.03v2.32h7.86V249.48z M197.61,244.97c0,2.99-2.36,4.77-5.92,4.77c-2.59,0-5.06-0.82-6.86-2.43l2.26-2.7
			c1.44,1.15,3.05,1.76,4.75,1.76c1.09,0,1.67-0.38,1.67-1v-0.04c0-0.61-0.48-0.94-2.47-1.4c-3.11-0.71-5.52-1.59-5.52-4.6v-0.04
			c0-2.72,2.15-4.68,5.67-4.68c2.49,0,4.43,0.67,6.02,1.94l-2.03,2.86c-1.34-0.94-2.8-1.44-4.1-1.44c-0.98,0-1.46,0.42-1.46,0.94
			v0.04c0,0.67,0.5,0.96,2.53,1.42c3.37,0.73,5.46,1.82,5.46,4.56V244.97z M211.45,249.48h-11.88v-14.64h11.77v3.45h-7.76v2.22h7.03
			v3.2h-7.03v2.32h7.86V249.48z M211.72,232.9h-2.61l-4.58-5.89v5.89h-2.94v-10.73h2.78l4.41,5.67v-5.67h2.94V232.9z"/>
		<polygon fill="#D9D0BE" points="131.65,225.61 130.44,228.66 132.85,228.66 		"/>
		<path fill="#D9D0BE" d="M168.79,226.04v-0.03c0-0.84-0.61-1.27-1.61-1.27h-1.95v2.58h1.96
			C168.21,227.31,168.79,226.82,168.79,226.04z"/>
	</g>
	<g display="inline">
		<path fill="#D9D0BE" d="M97.92,130.53h126.02v-28.4H97.92V130.53z M201.55,107.91h13.29v3.9h-8.76v2.5h7.93v3.61h-7.93v2.62h8.88
			v3.9h-13.41V107.91z M183.75,116.17c0-4.82,3.71-8.6,8.71-8.6c3.38,0,5.55,1.42,7.01,3.45l-3.45,2.67
			c-0.94-1.18-2.03-1.94-3.61-1.94c-2.31,0-3.94,1.96-3.94,4.37v0.05c0,2.48,1.63,4.42,3.94,4.42c1.72,0,2.74-0.8,3.73-2.01
			l3.45,2.46c-1.56,2.15-3.66,3.73-7.32,3.73c-4.72,0-8.52-3.61-8.52-8.55V116.17z M166.2,107.91h4.65v9.19
			c0,2.38,1.21,3.52,3.05,3.52c1.84,0,3.05-1.09,3.05-3.4v-9.3h4.65v9.16c0,5.34-3.05,7.67-7.75,7.67c-4.7,0-7.65-2.38-7.65-7.56
			V107.91z M149.91,107.91h14.5v4.01h-4.96v12.52h-4.58v-12.52h-4.96V107.91z M134.33,107.91h14.5v4.01h-4.96v12.52h-4.58v-12.52
			h-4.96V107.91z M119.5,107.91h13.29v3.9h-8.76v2.5h7.93v3.61h-7.93v2.62h8.88v3.9H119.5V107.91z M104.95,107.91h4.58v12.52h8.01
			v4.01h-12.59V107.91z"/>
	</g>
	<g display="inline">
		<path fill="#D9D0BE" d="M179.01,180.46c1.93,0,3.21-1.55,3.21-3.37v-0.04c0-1.82-1.32-3.41-3.25-3.41c-1.91,0-3.19,1.55-3.19,3.37
			v0.04C175.78,178.87,177.1,180.46,179.01,180.46z"/>
		<path fill="#D9D0BE" d="M124.3,180.46c1.93,0,3.21-1.55,3.21-3.37v-0.04c0-1.82-1.32-3.41-3.25-3.41c-1.91,0-3.19,1.55-3.19,3.37
			v0.04C121.07,178.87,122.39,180.46,124.3,180.46z"/>
		<polygon fill="#D9D0BE" points="154.58,174.8 153.15,178.38 155.98,178.38 		"/>
		<path fill="#D9D0BE" d="M97.52,188.01h96.25v-21.69H97.52V188.01z M172.19,177.05c0-3.63,2.92-6.56,6.82-6.56
			c3.9,0,6.78,2.9,6.78,6.53v0.04c0,3.63-2.92,6.56-6.82,6.56c-3.9,0-6.78-2.9-6.78-6.53V177.05z M160.56,170.74h11.07v3.07h-3.79
			v9.56h-3.5v-9.56h-3.79V170.74z M152.92,170.65h3.37l5.37,12.71h-3.75l-0.92-2.25h-4.87l-0.9,2.25h-3.68L152.92,170.65z
			 M132.9,170.74h3.7l3.01,4.89l3.01-4.89h3.7v12.62h-3.48v-7.25l-3.23,4.94h-0.07l-3.21-4.91v7.21h-3.43V170.74z M117.48,177.05
			c0-3.63,2.92-6.56,6.82-6.56c3.9,0,6.78,2.9,6.78,6.53v0.04c0,3.63-2.92,6.56-6.82,6.56c-3.9,0-6.78-2.9-6.78-6.53V177.05z
			 M105.85,170.74h11.07v3.07h-3.79v9.56h-3.5v-9.56h-3.79V170.74z"/>
	</g>
	<g display="inline">
		<path fill="#D9D0BE" d="M238.47,133.73H124.03v28.58h114.44V133.73z M151.1,148.47c0,6.09-4.91,11.02-11.45,11.02
			c-6.54,0-11.38-4.87-11.38-10.96v-0.06c0-6.09,4.91-11.02,11.45-11.02c6.54,0,11.39,4.88,11.39,10.96V148.47z M174.17,159.06
			h-5.15l-9.05-11.63v11.63h-5.81v-21.2h5.48l8.72,11.2v-11.2h5.81V159.06z M183.95,159.06h-5.9v-21.2h5.9V159.06z M209.93,148.47
			c0,6.09-4.91,11.02-11.45,11.02s-11.39-4.87-11.39-10.96v-0.06c0-6.09,4.91-11.02,11.45-11.02c6.54,0,11.38,4.88,11.38,10.96
			V148.47z M233,159.06h-5.15l-9.05-11.63v11.63h-5.81v-21.2h5.48l8.72,11.2v-11.2H233V159.06z"/>
		<path fill="#D9D0BE" d="M139.65,142.74c-3.21,0-5.36,2.6-5.36,5.66v0.06c0,3.06,2.21,5.72,5.42,5.72c3.24,0,5.39-2.6,5.39-5.66
			v-0.06C145.1,145.41,142.89,142.74,139.65,142.74z"/>
		<path fill="#D9D0BE" d="M198.48,142.74c-3.21,0-5.36,2.6-5.36,5.66v0.06c0,3.06,2.21,5.72,5.42,5.72c3.24,0,5.39-2.6,5.39-5.66
			v-0.06C203.93,145.41,201.72,142.74,198.48,142.74z"/>
	</g>
	<g display="inline">
		<path fill="#D9D0BE" d="M101.1,191.73v24.15h119.29v-24.15H101.1z M121.45,201.2c0,4.22-3.25,6.45-7.7,6.45h-2.46v5.12h-4.96
			v-17.91h7.68c4.53,0,7.44,2.33,7.44,6.29V201.2z M128.64,212.76h-4.99v-17.91h4.99V212.76z M140.54,213.12
			c-5.12,0-9.24-3.91-9.24-9.26v-0.05c0-5.22,4.02-9.31,9.44-9.31c3.66,0,6.01,1.53,7.6,3.74l-3.73,2.89
			c-1.02-1.28-2.2-2.1-3.91-2.1c-2.51,0-4.27,2.12-4.27,4.73v0.05c0,2.69,1.77,4.78,4.27,4.78c1.87,0,2.97-0.87,4.04-2.17l3.74,2.66
			C146.78,211.41,144.51,213.12,140.54,213.12z M161.88,212.76l-4.5-6.65l-1.82,2.02v4.63h-4.96v-17.91h4.96v7.27l6.17-7.27h5.88
			l-6.78,7.7l7.01,10.21H161.88z M182.91,212.76h-13.63v-17.91h4.96v13.56h8.67V212.76z M199.56,212.76h-14.53v-17.91h14.4v4.22
			h-9.49v2.71h8.6v3.91h-8.6v2.84h9.62V212.76z M216.37,207.24c0,3.66-2.89,5.83-7.24,5.83c-3.17,0-6.19-1-8.39-2.97l2.76-3.3
			c1.76,1.41,3.74,2.15,5.81,2.15c1.33,0,2.05-0.46,2.05-1.23v-0.05c0-0.74-0.59-1.15-3.02-1.71c-3.81-0.87-6.75-1.94-6.75-5.63
			v-0.05c0-3.33,2.64-5.73,6.93-5.73c3.05,0,5.42,0.82,7.37,2.38l-2.48,3.5c-1.64-1.15-3.43-1.77-5.01-1.77
			c-1.2,0-1.79,0.51-1.79,1.15v0.05c0,0.82,0.61,1.18,3.1,1.74c4.12,0.9,6.68,2.23,6.68,5.58V207.24z"/>
		<path fill="#D9D0BE" d="M113.63,199.02h-2.33v4.73h2.35c1.77,0,2.84-0.92,2.84-2.33v-0.05
			C116.49,199.84,115.42,199.02,113.63,199.02z"/>
	</g>
	<g display="inline">
		<path fill="#BABABA" d="M247.23,256.81H74.56v25.42h172.67V256.81z M93.85,272.34c0,2.67-2.11,4.25-5.29,4.25
			c-2.32,0-4.53-0.73-6.14-2.16l2.02-2.41c1.29,1.03,2.73,1.57,4.25,1.57c0.97,0,1.5-0.34,1.5-0.9v-0.03c0-0.54-0.43-0.84-2.21-1.25
			c-2.79-0.63-4.94-1.42-4.94-4.11v-0.04c0-2.43,1.93-4.18,5.07-4.18c2.23,0,3.97,0.6,5.39,1.74l-1.81,2.56
			c-1.2-0.84-2.51-1.29-3.67-1.29c-0.88,0-1.31,0.38-1.31,0.84v0.04c0,0.6,0.45,0.86,2.26,1.27c3.01,0.66,4.88,1.62,4.88,4.07
			V272.34z M109.85,276.37h-3.61v-7.5l-3.35,5.12h-0.08l-3.33-5.07v7.46h-3.56V263.3h3.84l3.13,5.06l3.12-5.06h3.84V276.37z
			 M122.03,276.37l-0.95-2.33h-5.05l-0.93,2.33h-3.82l5.57-13.16h3.5l5.57,13.16H122.03z M137.94,272.34c0,2.67-2.11,4.25-5.3,4.25
			c-2.32,0-4.53-0.73-6.14-2.16l2.02-2.41c1.29,1.03,2.73,1.57,4.25,1.57c0.97,0,1.5-0.34,1.5-0.9v-0.03c0-0.54-0.43-0.84-2.21-1.25
			c-2.79-0.63-4.94-1.42-4.94-4.11v-0.04c0-2.43,1.93-4.18,5.07-4.18c2.23,0,3.97,0.6,5.39,1.74l-1.81,2.56
			c-1.2-0.84-2.51-1.29-3.67-1.29c-0.88,0-1.31,0.38-1.31,0.84v0.04c0,0.6,0.45,0.86,2.27,1.27c3.01,0.66,4.88,1.62,4.88,4.07
			V272.34z M151.94,276.37h-3.63v-4.96h-4.66v4.96h-3.63V263.3h3.63v4.89h4.66v-4.89h3.63V276.37z M166.4,272.76
			c0,2.24-1.83,3.6-4.96,3.6h-6.76V263.3h6.72c1.65,0,2.81,0.41,3.57,1.17c0.52,0.53,0.84,1.21,0.84,2.11v0.04
			c0,1.51-0.86,2.4-2.02,2.91c1.59,0.53,2.6,1.42,2.6,3.19V272.76z M180.43,270.55c0,4.22-2.41,6.06-6.14,6.06
			c-3.73,0-6.06-1.89-6.06-5.97v-7.33h3.69v7.26c0,1.89,0.95,2.78,2.41,2.78c1.46,0,2.41-0.86,2.41-2.69v-7.35h3.69V270.55z
			 M190.91,276.37l-2.64-3.95h-0.04h-1.55v3.95h-3.63V263.3h6.2c2,0,3.38,0.52,4.26,1.42c0.77,0.75,1.16,1.76,1.16,3.04v0.04
			c0,2-1.07,3.32-2.7,4.01l3.12,4.55H190.91z M208.93,274.61c-1.39,1.14-3.31,2.02-5.69,2.02c-4.08,0-7.13-2.8-7.13-6.76v-0.04
			c0-3.81,2.99-6.79,7.05-6.79c2.3,0,3.93,0.71,5.31,1.9l-2.13,2.56c-0.94-0.78-1.87-1.23-3.16-1.23c-1.89,0-3.35,1.58-3.35,3.58
			v0.04c0,2.11,1.48,3.62,3.55,3.62c0.88,0,1.55-0.19,2.1-0.54v-1.59h-2.58v-2.64h6.02V274.61z M222.05,276.37h-10.63V263.3h10.53
			v3.08h-6.94v1.98h6.29v2.85h-6.29v2.08h7.04V276.37z M232.3,276.37l-2.64-3.95h-0.04h-1.55v3.95h-3.63V263.3h6.2
			c2,0,3.38,0.52,4.26,1.42c0.77,0.75,1.16,1.76,1.16,3.04v0.04c0,2-1.07,3.32-2.69,4.01l3.12,4.55H232.3z"/>
		<path fill="#BABABA" d="M189.06,266.44h-2.37v3.14h2.39c1.23,0,1.95-0.6,1.95-1.55v-0.04
			C191.02,266.96,190.27,266.44,189.06,266.44z"/>
		<path fill="#BABABA" d="M230.44,266.44h-2.38v3.14h2.4c1.23,0,1.95-0.6,1.95-1.55v-0.04
			C232.41,266.96,231.66,266.44,230.44,266.44z"/>
		<path fill="#BABABA" d="M160.99,271.05h-2.77v2.41h2.81c1.1,0,1.74-0.43,1.74-1.2v-0.04
			C162.77,271.51,162.21,271.05,160.99,271.05z"/>
		<path fill="#BABABA" d="M162.23,267.37v-0.04c0-0.71-0.56-1.12-1.65-1.12h-2.36v2.3h2.28
			C161.61,268.51,162.23,268.14,162.23,267.37z"/>
		<polygon fill="#BABABA" points="117.09,271.21 120.03,271.21 118.57,267.5 		"/>
	</g>
</g>
<g>
	<path fill="#492E1E" d="M179.03,10.49l-11.11,13.86c-0.5,0.62-1.24,0.95-1.97,0.95c-0.55,0-1.11-0.18-1.57-0.55
		c-1.09-0.87-1.27-2.45-0.4-3.54l9.43-11.77c-2.67-0.41-5.41-0.71-8.21-0.89L153,23.76c-0.5,0.62-1.23,0.95-1.97,0.95
		c-0.55,0-1.11-0.18-1.57-0.55c-1.09-0.87-1.27-2.45-0.39-3.54l9.84-12.27c-33.14,0.02-59.99,16.72-59.99,37.32h120.11
		C219.01,29.43,202.33,15.62,179.03,10.49z"/>
	<g>
		<path fill="#BAB9B9" d="M246.87,257.47H72.67v25.64h174.2V257.47z M92.12,273.15c0,2.69-2.13,4.29-5.34,4.29
			c-2.34,0-4.57-0.73-6.19-2.18l2.04-2.43c1.3,1.04,2.75,1.58,4.29,1.58c0.98,0,1.51-0.34,1.51-0.91v-0.03
			c0-0.55-0.43-0.85-2.23-1.26c-2.81-0.64-4.98-1.43-4.98-4.14v-0.04c0-2.45,1.95-4.22,5.12-4.22c2.25,0,4,0.6,5.43,1.75l-1.83,2.58
			c-1.21-0.85-2.53-1.3-3.7-1.3c-0.89,0-1.32,0.38-1.32,0.85v0.04c0,0.6,0.45,0.86,2.28,1.28c3.04,0.66,4.93,1.64,4.93,4.1V273.15z
			 M108.27,277.21h-3.64v-7.57l-3.38,5.16h-0.08l-3.36-5.12v7.53h-3.59v-13.18h3.87l3.15,5.1l3.15-5.1h3.87V277.21z M120.55,277.21
			l-0.96-2.35h-5.1l-0.94,2.35h-3.85l5.62-13.27h3.53l5.62,13.27H120.55z M136.6,273.15c0,2.69-2.13,4.29-5.34,4.29
			c-2.34,0-4.57-0.73-6.19-2.18l2.04-2.43c1.3,1.04,2.76,1.58,4.29,1.58c0.98,0,1.51-0.34,1.51-0.91v-0.03
			c0-0.55-0.43-0.85-2.23-1.26c-2.81-0.64-4.98-1.43-4.98-4.14v-0.04c0-2.45,1.94-4.22,5.11-4.22c2.25,0,4,0.6,5.44,1.75l-1.83,2.58
			c-1.21-0.85-2.53-1.3-3.7-1.3c-0.88,0-1.32,0.38-1.32,0.85v0.04c0,0.6,0.45,0.86,2.29,1.28c3.04,0.66,4.93,1.64,4.93,4.1V273.15z
			 M150.73,277.21h-3.66v-5.01h-4.7v5.01h-3.66v-13.18h3.66v4.94h4.7v-4.94h3.66V277.21z M165.32,273.57c0,2.26-1.85,3.63-5,3.63
			h-6.82v-13.18h6.78c1.66,0,2.83,0.41,3.6,1.19c0.53,0.53,0.85,1.23,0.85,2.13v0.04c0,1.52-0.86,2.42-2.04,2.93
			c1.61,0.53,2.63,1.43,2.63,3.22V273.57z M179.47,271.34c0,4.25-2.44,6.12-6.19,6.12c-3.76,0-6.12-1.9-6.12-6.03v-7.4h3.72v7.32
			c0,1.9,0.96,2.81,2.43,2.81c1.47,0,2.44-0.86,2.44-2.71v-7.42h3.72V271.34z M190.05,277.21l-2.66-3.99h-0.04h-1.57v3.99h-3.66
			v-13.18h6.25c2.02,0,3.41,0.53,4.3,1.43c0.77,0.76,1.17,1.78,1.17,3.07v0.04c0,2.01-1.08,3.35-2.72,4.05l3.15,4.59H190.05z
			 M208.22,275.44c-1.4,1.15-3.34,2.03-5.74,2.03c-4.11,0-7.19-2.82-7.19-6.82v-0.04c0-3.84,3.02-6.85,7.12-6.85
			c2.32,0,3.96,0.71,5.36,1.92l-2.15,2.58c-0.94-0.79-1.89-1.24-3.19-1.24c-1.9,0-3.38,1.6-3.38,3.62v0.04
			c0,2.13,1.49,3.65,3.59,3.65c0.89,0,1.57-0.19,2.12-0.54v-1.61h-2.61v-2.67h6.08V275.44z M221.46,277.21h-10.72v-13.18h10.63v3.11
			h-7v1.99h6.34v2.88h-6.34v2.1h7.1V277.21z M231.8,277.21l-2.66-3.99h-0.04h-1.57v3.99h-3.66v-13.18h6.25
			c2.02,0,3.41,0.53,4.3,1.43c0.77,0.76,1.17,1.78,1.17,3.07v0.04c0,2.01-1.08,3.35-2.72,4.05l3.15,4.59H231.8z"/>
		<path fill="#BAB9B9" d="M188.18,267.19h-2.4v3.16h2.41c1.25,0,1.96-0.6,1.96-1.56v-0.04C190.16,267.72,189.4,267.19,188.18,267.19
			z"/>
		<path fill="#BAB9B9" d="M229.93,267.19h-2.4v3.16h2.42c1.24,0,1.96-0.6,1.96-1.56v-0.04
			C231.91,267.72,231.16,267.19,229.93,267.19z"/>
		<path fill="#BAB9B9" d="M159.86,271.84h-2.79v2.43h2.83c1.11,0,1.75-0.44,1.75-1.21v-0.04
			C161.65,272.31,161.09,271.84,159.86,271.84z"/>
		<path fill="#BAB9B9" d="M161.11,268.13v-0.04c0-0.71-0.56-1.13-1.66-1.13h-2.38v2.32h2.3
			C160.48,269.28,161.11,268.9,161.11,268.13z"/>
		<polygon fill="#BAB9B9" points="115.57,272.01 118.53,272.01 117.06,268.26 		"/>
	</g>
	<g>
		<path fill="#492E1E" d="M216.29,307.05v-20.04H95.97v20.04c0,2.54,2.07,4.6,4.62,4.6h111.1
			C214.23,311.65,216.29,309.6,216.29,307.05z"/>
	</g>
	<g>
		<path fill="#D9D0BE" d="M153.6,240.79h-0.56v4.2h0.56c1.54,0,2.53-0.63,2.53-2.09v-0.03C156.13,241.43,155.14,240.79,153.6,240.79
			z"/>
		<polygon fill="#D9D0BE" points="106.1,244.19 107.94,244.19 107.02,241.74 		"/>
		<path fill="#D9D0BE" d="M165.29,240.68h-1.47v1.97h1.45c0.81,0,1.3-0.36,1.3-0.98v-0.03
			C166.57,240.99,166.07,240.68,165.29,240.68z"/>
		<path fill="#D9D0BE" d="M96.77,240.68H95.3v1.97h1.45c0.81,0,1.3-0.36,1.3-0.98v-0.03C98.05,240.99,97.54,240.68,96.77,240.68z"/>
		<path fill="#D9D0BE" d="M86.72,232.42v20.94h143.5v-20.94H86.72z M109.31,247.93l-0.53-1.35h-3.53l-0.52,1.35h-2.97h-0.63h-3.21
			l-1.9-2.88H95.3v2.88h-3.37v-10.08h4.92c1.79,0,2.92,0.45,3.63,1.15c0.6,0.6,0.92,1.35,0.92,2.39v0.03c0,1.47-0.76,2.49-1.99,3.08
			l1.95,2.85l4.01-9.58h3.34l4.25,10.15H109.31z M123.47,247.93h-3l-3.74-4.65v4.65h-3.34v-10.08h3.15l3.59,4.45v-4.45h3.34V247.93z
			 M129.62,248.15c-2.79,0-5.23-2.1-5.23-5.23v-0.03c0-3.01,2.35-5.26,5.36-5.26c2.22,0,3.72,1.08,4.57,2.62l-2.78,1.63
			c-0.37-0.72-0.91-1.22-1.83-1.22c-1.14,0-1.89,0.99-1.89,2.2v0.03c0,1.31,0.78,2.23,1.89,2.23c0.95,0,1.48-0.52,1.9-1.27
			l2.78,1.57C133.53,246.93,132.12,248.15,129.62,248.15z M144.85,247.93h-3.37v-3.61h-3.08v3.61h-3.37v-10.08h3.37v3.56h3.08v-3.56
			h3.37V247.93z M159.53,242.84c0,2.98-2.04,5.1-6.12,5.1h-3.74v-10.08h3.86c4,0,6,1.97,6,4.95V242.84z M166.44,247.93l-1.9-2.88
			h-0.72v2.88h-3.37v-10.08h4.92c1.79,0,2.92,0.45,3.63,1.15c0.61,0.6,0.92,1.35,0.92,2.39v0.03c0,1.47-0.76,2.49-1.99,3.08
			l2.35,3.43H166.44z M179.42,247.93h-8.67v-10.08h8.6v2.76h-5.28v1.02h4.93v2.43h-4.93v1.09h5.36V247.93z M184.66,248.12
			c-2.04,0-3.89-0.58-5.17-1.7l1.8-2.15c1.09,0.83,2.35,1.18,3.53,1.18c0.6,0,0.86-0.16,0.86-0.43V245c0-0.29-0.32-0.45-1.4-0.66
			c-2.26-0.46-4.25-1.11-4.25-3.24v-0.03c0-1.92,1.5-3.4,4.28-3.4c1.94,0,3.38,0.46,4.55,1.38l-1.64,2.28
			c-0.95-0.69-2.09-0.99-3.02-0.99c-0.5,0-0.73,0.17-0.73,0.42v0.03c0,0.27,0.27,0.45,1.34,0.65c2.58,0.48,4.31,1.22,4.31,3.25v0.03
			C189.11,246.83,187.37,248.12,184.66,248.12z M198.53,244.71c0,2.12-1.74,3.41-4.45,3.41c-2.04,0-3.89-0.58-5.17-1.7l1.8-2.15
			c1.09,0.83,2.35,1.18,3.53,1.18c0.6,0,0.86-0.16,0.86-0.43V245c0-0.29-0.32-0.45-1.4-0.66c-2.26-0.46-4.25-1.11-4.25-3.24v-0.03
			c0-1.92,1.5-3.4,4.28-3.4c1.94,0,3.38,0.46,4.55,1.38l-1.64,2.28c-0.95-0.69-2.09-0.99-3.02-0.99c-0.5,0-0.73,0.17-0.73,0.42v0.03
			c0,0.27,0.27,0.45,1.34,0.65c2.58,0.48,4.31,1.22,4.31,3.25V244.71z M202.71,247.93h-3.37v-10.08h3.37V247.93z M213.97,247.93h-3
			l-3.74-4.65v4.65h-3.34v-10.08h3.15l3.59,4.45v-4.45h3.34V247.93z M225,246.64c-1.09,0.89-2.62,1.51-4.45,1.51
			c-3.14,0-5.66-2.1-5.66-5.23v-0.03c0-3.01,2.38-5.26,5.56-5.26c1.73,0,3.13,0.58,4.22,1.53l-1.89,2.28
			c-0.66-0.56-1.4-0.88-2.23-0.88c-1.31,0-2.26,1.01-2.26,2.38v0.03c0,1.43,0.99,2.4,2.4,2.4c0.58,0,0.89-0.09,1.15-0.23v-1.01
			h-1.73v-2.16H225V246.64z"/>
	</g>
	<g>
		<polygon fill="#D9D0BE" points="152.83,164.67 155.01,164.67 153.92,161.78 		"/>
		<polygon fill="#D9D0BE" points="102.68,164.67 104.85,164.67 103.77,161.78 		"/>
		<path fill="#D9D0BE" d="M91.35,127.94v49.69h101.03v-49.69H91.35z M167.99,136.57h6.1v6.44h5.58v-6.44h6.1v18.24h-6.1v-6.54h-5.58
			v6.54h-6.1V136.57z M157.86,148.29c-4.09-0.83-7.69-2.01-7.69-5.86v-0.05c0-3.47,2.71-6.15,7.74-6.15c3.52,0,6.12,0.83,8.23,2.5
			l-2.97,4.12c-1.72-1.25-3.78-1.8-5.47-1.8c-0.91,0-1.33,0.31-1.33,0.76v0.05c0,0.5,0.5,0.81,2.42,1.17
			c4.66,0.86,7.79,2.21,7.79,5.89v0.05c0,3.83-3.15,6.18-8.05,6.18c-3.7,0-7.04-1.04-9.35-3.07l3.26-3.88
			c1.98,1.51,4.25,2.14,6.38,2.14c1.09,0,1.56-0.29,1.56-0.78v-0.05C160.39,148.97,159.81,148.69,157.86,148.29z M133.37,136.57
			h15.56v5h-9.56v1.85h8.91v4.4h-8.91v1.98h9.69v5h-15.69V136.57z M114.74,136.57h8.91c3.23,0,5.29,0.81,6.57,2.08
			c1.09,1.09,1.67,2.45,1.67,4.33v0.05c0,2.66-1.38,4.51-3.6,5.58l4.25,6.2h-6.96l-3.44-5.21h-1.3v5.21h-6.1V136.57z M98.04,136.57
			h15.27v5.21h-9.17v2.32h8.52v4.74h-8.52v5.97h-6.1V136.57z M106.47,169.09l-0.63-1.6h-4.17l-0.61,1.6h-4.25l5.02-11.99h3.95
			l5.02,11.99H106.47z M113.55,169.18l-4.83-11.99h4.46l2.31,6.69l2.31-6.69h4.39l-4.83,11.99H113.55z M134.65,163.14
			c0,3.45-2.84,6.21-6.52,6.21c-3.67,0-6.48-2.72-6.48-6.18v-0.03c0-3.45,2.84-6.21,6.52-6.21c3.67,0,6.48,2.72,6.48,6.18V163.14z
			 M141.64,169.35c-3.3,0-6.18-2.48-6.18-6.18v-0.03c0-3.56,2.77-6.21,6.33-6.21c2.62,0,4.39,1.28,5.39,3.1l-3.28,1.92
			c-0.44-0.85-1.07-1.45-2.16-1.45c-1.34,0-2.23,1.17-2.23,2.6v0.03c0,1.55,0.92,2.64,2.23,2.64c1.12,0,1.75-0.61,2.25-1.5
			l3.28,1.85C146.27,167.9,144.6,169.35,141.64,169.35z M156.63,169.09l-0.63-1.6h-4.17l-0.61,1.6h-4.25l5.02-11.99h3.95l5.02,11.99
			H156.63z M173.1,163.07c0,3.52-2.42,6.02-7.23,6.02h-4.42v-11.91H166c4.73,0,7.09,2.33,7.09,5.85V163.07z M186.91,163.14
			c0,3.45-2.84,6.21-6.52,6.21c-3.67,0-6.48-2.72-6.48-6.18v-0.03c0-3.45,2.84-6.21,6.52-6.21c3.67,0,6.48,2.72,6.48,6.18V163.14z"
			/>
		<path fill="#D9D0BE" d="M125.81,143.47v-0.05c0-1.17-0.91-1.75-2.32-1.75h-2.66v3.57h2.63
			C124.93,145.25,125.81,144.59,125.81,143.47z"/>
		<path fill="#D9D0BE" d="M128.13,160.45c-1.51,0-2.47,1.26-2.47,2.65v0.03c0,1.41,0.97,2.69,2.5,2.69c1.51,0,2.47-1.26,2.47-2.65
			v-0.03C130.63,161.73,129.66,160.45,128.13,160.45z"/>
		<path fill="#D9D0BE" d="M180.4,160.45c-1.51,0-2.47,1.26-2.47,2.65v0.03c0,1.41,0.97,2.69,2.5,2.69c1.51,0,2.47-1.26,2.47-2.65
			v-0.03C182.9,161.73,181.93,160.45,180.4,160.45z"/>
		<path fill="#D9D0BE" d="M166.09,160.66h-0.66v4.97h0.66c1.82,0,2.99-0.75,2.99-2.47v-0.03
			C169.08,161.4,167.91,160.66,166.09,160.66z"/>
	</g>
	<g>
		<path fill="#D9D0BE" d="M184.7,190.98v-0.02c0-1.26-0.87-1.99-2.17-1.99h-0.89v4h0.89C183.84,192.96,184.7,192.24,184.7,190.98z"
			/>
		<path fill="#D9D0BE" d="M174.11,193.09c1.2,0,2-0.97,2-2.1v-0.02c0-1.13-0.82-2.12-2.02-2.12c-1.19,0-1.99,0.97-1.99,2.1v0.02
			C172.1,192.1,172.92,193.09,174.11,193.09z"/>
		<path fill="#D9D0BE" d="M105.68,228.74h141.65v-46.95H105.68V228.74z M155.51,222.4l-1.81-4.43h-9.57l-1.77,4.43h-7.23
			l10.56-24.99h6.63l10.56,24.99H155.51z M175.63,222.89c-7.09,0-12.8-5.42-12.8-12.83v-0.07c0-7.23,5.57-12.9,13.08-12.9
			c5.07,0,8.33,2.13,10.53,5.17l-5.18,4.01c-1.42-1.77-3.05-2.91-5.42-2.91c-3.47,0-5.92,2.94-5.92,6.56v0.07
			c0,3.72,2.45,6.63,5.92,6.63c2.59,0,4.11-1.21,5.6-3.01l5.18,3.69C184.28,220.52,181.13,222.89,175.63,222.89z M234.72,187.03
			h3.03c2.81,0,4.44,1.62,4.44,3.89v0.02c0,2.27-1.65,3.95-4.48,3.95h-2.99V187.03z M227.23,187.03h6.32v1.85h-4.17v1.19h3.77v1.72
			h-3.77v1.25h4.22v1.85h-6.38V187.03z M219.04,187.03h2.18v3.19l2.71-3.19h2.58l-2.98,3.38l3.08,4.48h-2.62l-1.98-2.92l-0.8,0.89
			v2.03h-2.18V187.03z M218.31,197.58h6.42l10.21,13.11v-13.11h6.81v24.81h-6.03l-10.6-13.61v13.61h-6.81V197.58z M209.44,190.96
			c0-2.26,1.82-4.09,4.25-4.09c2.43,0,4.22,1.81,4.22,4.07v0.02c0,2.26-1.82,4.09-4.25,4.09c-2.43,0-4.22-1.81-4.22-4.07V190.96z
			 M199.96,187.03h2.3l1.88,3.04l1.88-3.04h2.3v7.86h-2.17v-4.52l-2.01,3.08h-0.05l-2-3.06v4.49h-2.13V187.03z M195.38,191.91
			c-1.67-0.38-2.97-0.85-2.97-2.47v-0.02c0-1.46,1.16-2.52,3.04-2.52c1.34,0,2.38,0.36,3.24,1.04l-1.09,1.54
			c-0.72-0.51-1.51-0.77-2.2-0.77c-0.53,0-0.79,0.22-0.79,0.51v0.02c0,0.36,0.27,0.52,1.36,0.76c1.81,0.39,2.93,0.98,2.93,2.45v0.02
			c0,1.61-1.27,2.56-3.18,2.56c-1.39,0-2.72-0.44-3.68-1.3l1.21-1.45c0.77,0.62,1.64,0.94,2.55,0.94c0.58,0,0.9-0.2,0.9-0.54v-0.02
			C196.71,192.33,196.45,192.16,195.38,191.91z M201.4,197.09c7.66,0,13.33,5.71,13.33,12.83v0.07c0,7.12-5.74,12.9-13.4,12.9
			c-7.66,0-13.33-5.71-13.33-12.83v-0.07C188,202.87,193.74,197.09,201.4,197.09z M187.81,190.45h3.68v1.88h-3.68V190.45z
			 M179.47,187.03h3.03c2.81,0,4.44,1.62,4.44,3.89v0.02c0,2.27-1.65,3.95-4.48,3.95h-2.99V187.03z M169.87,190.96
			c0-2.26,1.82-4.09,4.25-4.09c2.43,0,4.22,1.81,4.22,4.07v0.02c0,2.26-1.82,4.09-4.25,4.09c-2.43,0-4.22-1.81-4.22-4.07V190.96z
			 M160.54,190.96c0-2.26,1.82-4.09,4.25-4.09c2.43,0,4.22,1.81,4.22,4.07v0.02c0,2.26-1.82,4.09-4.25,4.09
			c-2.43,0-4.22-1.81-4.22-4.07V190.96z M150.49,187.03l1.37,4.55l1.52-4.57h1.88l1.52,4.57l1.37-4.55h2.26l-2.63,7.92h-1.9
			l-1.58-4.53l-1.57,4.53h-1.9l-2.63-7.92H150.49z M141.23,187.03h6.32v1.85h-4.17v1.19h3.77v1.72h-3.77v1.25h4.22v1.85h-6.38
			V187.03z M134.31,187.03h2.18v5.95h3.81v1.91h-5.99V187.03z M133.96,215.55c0,4.25-3.47,6.84-9.39,6.84h-12.8v-24.81h12.72
			c3.12,0,5.32,0.78,6.77,2.23c0.99,0.99,1.6,2.3,1.6,4.01v0.07c0,2.87-1.63,4.57-3.83,5.53c3.01,0.99,4.93,2.69,4.93,6.06V215.55z
			 M126.75,187.03h3.37c1.99,0,3.27,1.02,3.27,2.76v0.02c0,1.85-1.43,2.83-3.38,2.83h-1.08v2.25h-2.18V187.03z M119.2,187.03h3.37
			c1.99,0,3.27,1.02,3.27,2.76v0.02c0,1.85-1.43,2.83-3.38,2.83h-1.08v2.25h-2.18V187.03z M112.99,186.98h2.1l3.35,7.92h-2.34
			l-0.57-1.4h-3.03l-0.56,1.4h-2.29L112.99,186.98z"/>
		<path fill="#D9D0BE" d="M164.78,193.09c1.2,0,2-0.97,2-2.1v-0.02c0-1.13-0.82-2.12-2.02-2.12c-1.19,0-1.99,0.97-1.99,2.1v0.02
			C162.77,192.1,163.59,193.09,164.78,193.09z"/>
		<polygon fill="#D9D0BE" points="146.15,212.61 151.72,212.61 148.95,205.56 		"/>
		<polygon fill="#D9D0BE" points="114.02,189.56 113.13,191.8 114.9,191.8 		"/>
		<path fill="#D9D0BE" d="M131.21,189.92v-0.02c0-0.67-0.47-1.03-1.26-1.03h-1.02v2.08h1.03
			C130.74,190.94,131.21,190.54,131.21,189.92z"/>
		<path fill="#D9D0BE" d="M126.06,205.31v-0.07c0-1.35-1.06-2.13-3.12-2.13h-4.47v4.36h4.32
			C124.89,207.47,126.06,206.76,126.06,205.31z"/>
		<path fill="#D9D0BE" d="M213.68,193.09c1.2,0,2-0.97,2-2.1v-0.02c0-1.13-0.82-2.12-2.02-2.12c-1.19,0-1.99,0.97-1.99,2.1v0.02
			C211.67,192.1,212.49,193.09,213.68,193.09z"/>
		<path fill="#D9D0BE" d="M123.72,212.29h-5.25v4.57h5.32c2.09,0,3.3-0.81,3.3-2.27v-0.07
			C127.08,213.18,126.02,212.29,123.72,212.29z"/>
		<path fill="#D9D0BE" d="M239.96,190.98v-0.02c0-1.26-0.87-1.99-2.17-1.99h-0.89v4h0.89C239.09,192.96,239.96,192.24,239.96,190.98
			z"/>
		<path fill="#D9D0BE" d="M201.4,216.69c3.79,0,6.31-3.05,6.31-6.63v-0.07c0-3.58-2.59-6.7-6.38-6.7c-3.76,0-6.27,3.05-6.27,6.63
			v0.07C195.06,213.57,197.64,216.69,201.4,216.69z"/>
		<path fill="#D9D0BE" d="M123.66,189.92v-0.02c0-0.67-0.47-1.03-1.26-1.03h-1.02v2.08h1.03
			C123.18,190.94,123.66,190.54,123.66,189.92z"/>
	</g>
	<path fill="#D9D0BE" d="M232.18,78.4H130.94v21.49h101.24V78.4z M145.72,96.01h-10.43v-13.7h3.8v10.37h6.63V96.01z M158.45,96.01
		h-11.11v-13.7h11.02v3.23h-7.26v2.07h6.57v2.99h-6.57v2.17h7.36V96.01z M171.63,85.64h-4.11v10.37h-3.8V85.64h-4.11v-3.33h12.01
		V85.64z M184.55,85.64h-4.11v10.37h-3.8V85.64h-4.11v-3.33h12.01V85.64z M198.79,89.91c0,4.42-2.52,6.36-6.42,6.36
		c-3.89,0-6.34-1.98-6.34-6.26v-7.69h3.85v7.61c0,1.98,1,2.91,2.52,2.91c1.53,0,2.52-0.9,2.52-2.82v-7.71h3.85V89.91z M207.63,96.29
		c-3.91,0-7.06-2.99-7.06-7.08v-0.04c0-3.99,3.07-7.12,7.22-7.12c2.8,0,4.6,1.17,5.81,2.86l-2.86,2.21c-0.78-0.98-1.68-1.6-2.99-1.6
		c-1.92,0-3.27,1.62-3.27,3.62v0.04c0,2.05,1.35,3.66,3.27,3.66c1.43,0,2.27-0.67,3.09-1.66l2.86,2.03
		C212.4,94.98,210.66,96.29,207.63,96.29z M226.43,96.01h-11.11v-13.7h11.01v3.23h-7.26v2.07h6.57v2.99h-6.57v2.17h7.36V96.01z"/>
	<path fill="#D9D0BE" d="M201.15,117.68c2.09,0,3.48-1.68,3.48-3.66v-0.04c0-1.98-1.43-3.7-3.52-3.7c-2.07,0-3.46,1.68-3.46,3.66
		v0.04C197.64,115.96,199.07,117.68,201.15,117.68z"/>
	<polygon fill="#D9D0BE" points="174.64,111.54 173.1,115.43 176.17,115.43 	"/>
	<path fill="#D9D0BE" d="M141.8,117.68c2.09,0,3.48-1.68,3.48-3.66v-0.04c0-1.98-1.43-3.7-3.52-3.7c-2.07,0-3.46,1.68-3.46,3.66
		v0.04C138.29,115.96,139.72,117.68,141.8,117.68z"/>
	<path fill="#D9D0BE" d="M117.08,124.56h97.79V103.6h-97.79V124.56z M193.75,113.99c0-3.93,3.17-7.12,7.4-7.12
		c4.23,0,7.36,3.15,7.36,7.08v0.04c0,3.93-3.17,7.12-7.4,7.12c-4.23,0-7.36-3.15-7.36-7.08V113.99z M181.13,107.14h12.01v3.33h-4.11
		v10.37h-3.8v-10.37h-4.11V107.14z M172.84,107.04h3.66l5.83,13.79h-4.07l-1-2.45h-5.28l-0.98,2.45h-3.99L172.84,107.04z
		 M151.13,107.14h4.01l3.27,5.3l3.27-5.3h4.01v13.7h-3.78v-7.87l-3.5,5.36h-0.08l-3.48-5.32v7.83h-3.72V107.14z M134.4,113.99
		c0-3.93,3.17-7.12,7.4-7.12c4.23,0,7.36,3.15,7.36,7.08v0.04c0,3.93-3.17,7.12-7.4,7.12c-4.23,0-7.36-3.15-7.36-7.08V113.99z
		 M121.78,107.14h12.01v3.33h-4.11v10.37h-3.8v-10.37h-4.11V107.14z"/>
	<g>
		<path fill="#D9D0BE" d="M178.53,57.83c-2.33,0-3.89,1.89-3.89,4.11v0.04c0,2.22,1.6,4.15,3.93,4.15c2.35,0,3.91-1.89,3.91-4.11
			v-0.04C182.49,59.77,180.88,57.83,178.53,57.83z"/>
		<polygon fill="#D9D0BE" points="146.91,63.61 150.36,63.61 148.64,59.24 		"/>
		<path fill="#D9D0BE" d="M115.94,49.05v25.81h77.19V49.05H115.94z M138.58,69.67h-4.24v-8.83l-3.93,6.02h-0.09l-3.91-5.97v8.79
			h-4.17V54.3h4.5l3.67,5.95l3.67-5.95h4.5V69.67z M152.71,69.67l-1.12-2.75h-5.93l-1.1,2.75h-4.48l6.54-15.48h4.11l6.54,15.48
			H152.71z M165.07,69.67h-4.28v-5.75l-5.84-9.62h4.85l3.16,5.6l3.18-5.6h4.77l-5.84,9.55V69.67z M186.84,61.98
			c0,4.41-3.56,7.99-8.3,7.99c-4.74,0-8.26-3.54-8.26-7.95v-0.04c0-4.41,3.56-7.99,8.3-7.99c4.74,0,8.26,3.54,8.26,7.95V61.98z"/>
	</g>
	<text transform="matrix(1 0 0 1 101.7365 303.205)" fill="#D9D0BE" font-family="'GothamHTF-Black'" font-size="11.562">MULTI-GRAIN BUN</text>
</g>
</svg>
