<?xml version="1.0" encoding="utf-8"?>
<!-- Generator: Adobe Illustrator 18.1.0, SVG Export Plug-In . SVG Version: 6.00 Build 0)  -->
<svg version="1.1" id="Layer_1" xmlns="http://www.w3.org/2000/svg" xmlns:xlink="http://www.w3.org/1999/xlink" x="0px" y="0px"
	 viewBox="0 0 560 560" enable-background="new 0 0 560 560" xml:space="preserve">
<g id="classic_smash" display="none">
	<rect x="191.98" y="507.47" display="inline" fill="#D9D0BE" width="164.36" height="28.86"/>
	<g display="inline">
		<path fill="#492E1E" d="M289.56,524.25h-4.57v3.99h4.64c1.82,0,2.87-0.72,2.87-1.98v-0.07
			C292.49,525.02,291.57,524.25,289.56,524.25z"/>
		<path fill="#492E1E" d="M291.6,518.16v-0.07c0-1.17-0.93-1.85-2.71-1.85h-3.89v3.8h3.74C290.59,520.05,291.6,519.43,291.6,518.16z
			"/>
		<path fill="#492E1E" d="M379.19,535.41v-34.76H170.47v34.76c0,4.41,3.59,7.98,8.02,7.98h192.71
			C375.62,543.39,379.19,539.82,379.19,535.41z M220.2,533.05h-17.55v-21.61h17.4v5.09h-11.46v3.27h10.38v4.73h-10.38v3.43h11.62
			V533.05z M243.51,530.15c-2.29,1.89-5.46,3.34-9.38,3.34c-6.74,0-11.76-4.64-11.76-11.18v-0.07c0-6.3,4.94-11.24,11.64-11.24
			c3.8,0,6.49,1.17,8.77,3.15l-3.52,4.24c-1.54-1.29-3.08-2.05-5.21-2.05c-3.11,0-5.53,2.62-5.53,5.93v0.07
			c0,3.48,2.43,5.99,5.86,5.99c1.45,0,2.56-0.32,3.46-0.89v-2.62h-4.27v-4.39h9.94L243.51,530.15L243.51,530.15z M267.26,530.15
			c-2.29,1.89-5.46,3.34-9.4,3.34c-6.74,0-11.76-4.64-11.76-11.18v-0.07c0-6.3,4.94-11.24,11.64-11.24c3.8,0,6.49,1.17,8.77,3.15
			l-3.52,4.24c-1.54-1.29-3.1-2.05-5.21-2.05c-3.11,0-5.53,2.62-5.53,5.93v0.07c0,3.48,2.43,5.99,5.86,5.99
			c1.45,0,2.57-0.32,3.46-0.89v-2.62h-4.27v-4.39h9.94v9.73H267.26z M298.48,527.08c0,3.71-3.03,5.97-8.19,5.97h-11.15v-21.61h11.1
			c2.71,0,4.64,0.68,5.9,1.94c0.86,0.86,1.38,2.01,1.38,3.48v0.07c0,2.5-1.42,3.99-3.34,4.81c2.62,0.86,4.29,2.34,4.29,5.28v0.05
			H298.48z M321.09,523.41c0,6.98-3.99,10.04-10.13,10.04c-6.14,0-10.01-3.11-10.01-9.89v-12.15h6.09v12.02
			c0,3.11,1.57,4.6,3.99,4.6s3.99-1.42,3.99-4.45v-12.16h6.09v11.97H321.09z M345.07,533.05h-5.25l-9.24-11.86v11.86h-5.93v-21.61
			h5.58l8.89,11.43v-11.43h5.93v21.61H345.07z"/>
	</g>
	<path display="inline" fill="#492E1E" d="M309.65,22.05L290.38,46.1c-0.88,1.08-2.15,1.65-3.43,1.65c-0.96,0-1.93-0.32-2.73-0.96
		c-1.89-1.51-2.2-4.25-0.68-6.12l16.36-20.41c-4.64-0.72-9.38-1.23-14.24-1.54L264.5,45.12c-0.86,1.08-2.14,1.65-3.43,1.65
		c-0.94,0-1.92-0.32-2.73-0.96c-1.89-1.51-2.2-4.25-0.68-6.14l17.06-21.28c-57.49,0.03-104.06,29-104.06,64.73H379
		C379,54.91,350.05,30.96,309.65,22.05z"/>
	<g display="inline">
		<polygon fill="#D9D0BE" points="198.87,113.14 203.35,113.14 201.11,107.17 		"/>
		<path fill="#D9D0BE" d="M126.33,88.97v42.02H406.6V88.97H126.33z M156.17,114.4c0,5.16-4.25,8.31-10.85,8.31
			c-4.99,0-9.49-1.4-12.6-4.15l4.39-5.23c2.66,2.03,5.72,2.89,8.61,2.89c1.47,0,2.1-0.39,2.1-1.05v-0.07c0-0.7-0.77-1.08-3.41-1.61
			c-5.51-1.12-10.36-2.69-10.36-7.89v-0.07c0-4.67,3.66-8.28,10.43-8.28c4.74,0,8.24,1.12,11.1,3.38l-4.01,5.55
			c-2.31-1.68-5.09-2.42-7.37-2.42c-1.22,0-1.78,0.42-1.78,1.02v0.07c0,0.67,0.66,1.08,3.27,1.58c6.28,1.15,10.5,2.99,10.5,7.93
			v0.05H156.17z M185.73,122.27h-8.17v-12.18l-5.65,8.75h-0.14l-5.65-8.75v12.18h-8.03V97.68h8.57l5.27,8.64l5.27-8.64h8.57v24.59
			H185.73z M206.69,122.27l-1.29-3.31h-8.61l-1.26,3.31h-8.79l10.36-24.75h8.14l10.36,24.75H206.69z M237.69,114.4
			c0,5.16-4.25,8.31-10.85,8.31c-4.99,0-9.49-1.4-12.6-4.15l4.39-5.23c2.66,2.03,5.72,2.89,8.61,2.89c1.47,0,2.1-0.39,2.1-1.05
			v-0.07c0-0.7-0.77-1.08-3.41-1.61c-5.51-1.12-10.36-2.69-10.36-7.89v-0.07c0-4.67,3.66-8.28,10.43-8.28
			c4.74,0,8.24,1.12,11.09,3.38l-4.01,5.55c-2.31-1.68-5.09-2.42-7.37-2.42c-1.22,0-1.78,0.42-1.78,1.02v0.07
			c0,0.67,0.66,1.08,3.27,1.58c6.28,1.15,10.5,2.99,10.5,7.93v0.05H237.69z M263.53,122.27h-8.21v-8.82h-7.51v8.82h-8.21V97.68h8.21
			v8.68h7.51v-8.68h8.21V122.27z M285.83,122.73c-4.99,0-9.49-1.4-12.6-4.15l4.39-5.23c2.66,2.03,5.72,2.89,8.61,2.89
			c1.47,0,2.1-0.39,2.1-1.05v-0.07c0-0.7-0.77-1.09-3.41-1.61c-5.51-1.12-10.36-2.7-10.36-7.89v-0.09c0-4.67,3.66-8.28,10.43-8.28
			c4.74,0,8.24,1.12,11.1,3.38l-4.01,5.55c-2.31-1.68-5.09-2.42-7.37-2.42c-1.23,0-1.79,0.42-1.79,1.02v0.07
			c0,0.67,0.67,1.08,3.27,1.58c6.28,1.15,10.5,2.99,10.5,7.93v0.07C296.68,119.56,292.43,122.73,285.83,122.73z M316.19,122.27
			l-1.3-3.31h-8.59l-1.26,3.31h-8.79l10.36-24.75h8.14l10.36,24.75H316.19z M349.16,111.07c0,8.38-4.88,11.69-12.21,11.69
			c-7.33,0-12.07-3.38-12.07-11.52V97.7h8.35v13.44c0,3.06,1.57,4.36,3.8,4.36c2.22,0,3.8-1.19,3.8-4.18V97.7h8.35L349.16,111.07
			L349.16,111.07z M363.95,122.8c-6.81,0-12.74-5.13-12.74-12.74v-0.07c0-7.33,5.72-12.81,13.05-12.81c5.41,0,9.07,2.62,11.13,6.39
			l-6.77,3.97c-0.91-1.75-2.2-2.99-4.46-2.99c-2.78,0-4.6,2.42-4.6,5.37v0.07c0,3.2,1.89,5.44,4.6,5.44c2.31,0,3.62-1.26,4.64-3.1
			l6.77,3.83C373.48,119.81,370.06,122.8,363.95,122.8z M398.28,122.27h-21.14V97.68h20.96v6.74h-12.88v2.48h12.01v5.93h-12.01v2.66
			h13.06V122.27z"/>
		<polygon fill="#D9D0BE" points="308.37,113.14 312.86,113.14 310.61,107.17 		"/>
	</g>
	<g display="inline">
		<path fill="#D9D0BE" d="M166.28,136.48v36.7h164.8v-36.7H166.28z M187.51,165.88l-4.2-6.81l-1.84,2.24v4.57h-7.17v-21.46h7.17
			v8.03l6.11-8.03h8.33l-7.47,9.31l7.63,12.15H187.51z M215.13,165.88h-18.45v-21.46h18.31v5.88h-11.25v2.17h10.48v5.18h-10.48v2.33
			h11.41v5.9H215.13z M236.04,150.48h-6.32v15.38h-7.17v-15.38h-6.32v-6.07h19.79v6.07H236.04z M247.38,166.34
			c-5.95,0-11.13-4.48-11.13-11.13v-0.07c0-6.4,4.99-11.18,11.41-11.18c4.73,0,7.91,2.29,9.71,5.58l-5.91,3.47
			c-0.81-1.54-1.93-2.61-3.88-2.61c-2.42,0-4.01,2.12-4.01,4.69v0.05c0,2.78,1.66,4.76,4.01,4.76c2.03,0,3.15-1.1,4.04-2.7
			l5.92,3.34C255.73,163.73,252.72,166.34,247.38,166.34z M279.81,165.88h-7.18v-7.7h-6.56v7.7h-7.17v-21.46h7.17v7.58h6.56v-7.58
			h7.18V165.88z M303.29,156.1c0,7.33-4.25,10.2-10.67,10.2c-6.41,0-10.55-2.94-10.55-10.06v-11.83h7.3v11.74
			c0,2.66,1.38,3.8,3.31,3.8s3.31-1.05,3.31-3.64v-11.9h7.3v11.69H303.29z M324.82,152.11c0,5.18-3.95,7.94-9.75,7.94h-2.33v5.83
			h-7.18v-21.46h9.66c5.7,0,9.59,2.54,9.59,7.63L324.82,152.11L324.82,152.11z"/>
		<path fill="#D9D0BE" d="M314.7,150.15h-1.96v4.78h1.92c1.84,0,3.06-0.82,3.06-2.36v-0.07
			C317.73,150.96,316.61,150.15,314.7,150.15z"/>
	</g>
	<g display="inline">
		<polygon fill="#D9D0BE" points="340.41,394.82 338.29,400.15 342.51,400.15 		"/>
		<path fill="#D9D0BE" d="M378.39,384.28H214.03v58.43h164.36V384.28z M337.94,388.66h5.02l8,18.92h-5.58l-1.36-3.36h-7.24
			l-1.35,3.36h-5.48L337.94,388.66z M311.38,398.18c0-5.48,4.22-9.76,9.9-9.76c3.83,0,6.3,1.61,7.96,3.92l-3.92,3.03
			c-1.07-1.35-2.31-2.2-4.11-2.2c-2.62,0-4.48,2.22-4.48,4.97v0.05c0,2.82,1.85,5.02,4.48,5.02c1.96,0,3.12-0.91,4.24-2.27
			l3.92,2.78c-1.77,2.45-4.17,4.23-8.31,4.23c-5.37,0-9.7-4.11-9.7-9.71v-0.05H311.38z M303.36,388.78h5.23v18.78h-5.23V388.78z
			 M283.95,388.78h8.89c2.87,0,4.86,0.75,6.12,2.05c1.1,1.07,1.66,2.52,1.66,4.38v0.05c0,2.87-1.52,4.78-3.87,5.77l4.48,6.55h-6
			l-3.78-5.69h-0.05h-2.22v5.69h-5.2v-18.8H283.95z M266.05,388.78h15.1v4.43h-9.96v2.83h9.01v4.11h-9.01v2.98h10.1v4.43h-15.24
			V388.78z M227.92,388.66h5.02l8,18.92h-5.58l-1.37-3.36h-7.24l-1.35,3.36h-5.48L227.92,388.66z M234.36,437.11
			c-7.31,0-13.21-5.6-13.21-13.25v-0.07c0-7.47,5.74-13.32,13.51-13.32c5.23,0,8.59,2.19,10.87,5.34l-5.34,4.13
			c-1.47-1.84-3.15-2.99-5.6-2.99c-3.59,0-6.11,3.05-6.11,6.77v0.07c0,3.85,2.52,6.84,6.11,6.84c2.68,0,4.25-1.24,5.78-3.12
			l5.34,3.8C243.3,434.65,240.05,437.11,234.36,437.11z M247.87,407.57h-5.09V388.8h5.49l4.48,7.26l4.48-7.26h5.49v18.78h-5.18
			v-10.78l-4.8,7.35h-0.1l-4.78-7.3L247.87,407.57L247.87,407.57z M272.06,436.59h-7.11v-9.73h-9.12v9.73h-7.1v-25.62h7.1v9.59h9.12
			v-9.59h7.11V436.59z M297.38,436.59h-20.79v-25.62h20.6v6.04H283.6v3.89h12.3v5.6h-12.3v4.06h13.76v6.04H297.38z M321.77,436.59
			H301v-25.62h20.6v6.04h-13.58v3.89h12.3v5.6h-12.3v4.06h13.76L321.77,436.59L321.77,436.59z M345.82,428.7
			c0,5.23-4.13,8.35-10.36,8.35c-4.53,0-8.86-1.44-12.01-4.25l3.95-4.72c2.52,2.01,5.34,3.08,8.31,3.08c1.91,0,2.92-0.67,2.92-1.75
			v-0.07c0-1.07-0.84-1.64-4.32-2.45c-5.44-1.24-9.66-2.78-9.66-8.05v-0.07c0-4.76,3.76-8.19,9.92-8.19c4.36,0,7.75,1.17,10.54,3.39
			l-3.55,5.01c-2.35-1.64-4.9-2.52-7.18-2.52c-1.71,0-2.56,0.73-2.56,1.64v0.07c0,1.17,0.88,1.68,4.43,2.49
			c5.9,1.28,9.56,3.18,9.56,7.98L345.82,428.7L345.82,428.7z M370.04,436.59h-20.79v-25.62h20.6v6.04h-13.58v3.89h12.3v5.6h-12.3
			v4.06h13.76v6.04H370.04z M370.51,407.57h-4.57l-8.02-10.31v10.31h-5.14V388.8h4.86l7.72,9.92v-9.92h5.15V407.57z"/>
		<polygon fill="#D9D0BE" points="230.39,394.82 228.27,400.15 232.49,400.15 		"/>
		<path fill="#D9D0BE" d="M295.38,395.57v-0.05c0-1.47-1.07-2.22-2.82-2.22h-3.41v4.52h3.43
			C294.37,397.79,295.38,396.93,295.38,395.57z"/>
	</g>
	<g display="inline">
		<path fill="#D9D0BE" d="M171.36,228.43H391.9v-49.7H171.36V228.43z M352.71,188.84h23.26v6.83h-15.33v4.38h13.88v6.32h-13.88v4.58
			h15.54v6.83h-23.47V188.84z M321.56,203.3c0-8.43,6.49-15.05,15.24-15.05c5.92,0,9.71,2.49,12.27,6.04l-6.04,4.67
			c-1.64-2.07-3.55-3.4-6.32-3.4c-4.04,0-6.89,3.43-6.89,7.65v0.09c0,4.34,2.85,7.74,6.89,7.74c3.01,0,4.8-1.4,6.53-3.52l6.04,4.31
			c-2.73,3.76-6.4,6.53-12.81,6.53c-8.26,0-14.91-6.32-14.91-14.96L321.56,203.3L321.56,203.3z M290.85,188.84h8.14v16.08
			c0,4.16,2.12,6.16,5.34,6.16s5.34-1.91,5.34-5.95v-16.28h8.14v16.03c0,9.35-5.34,13.42-13.56,13.42
			c-8.23,0-13.39-4.16-13.39-13.23V188.84z M262.34,188.84h25.38v7.02h-8.68v21.91h-8.02v-21.91h-8.68L262.34,188.84L262.34,188.84z
			 M235.08,188.84h25.38v7.02h-8.68v21.91h-8.01v-21.91h-8.68L235.08,188.84L235.08,188.84z M209.12,188.84h23.26v6.83h-15.33v4.38
			h13.88v6.32h-13.88v4.58h15.54v6.83h-23.47V188.84z M183.66,188.84h8.01v21.91h14.02v7.02h-22.03V188.84z"/>
	</g>
	<g display="inline">
		<path fill="#D9D0BE" d="M313.27,315.81c3.38,0,5.62-2.71,5.62-5.9v-0.07c0-3.18-2.31-5.97-5.69-5.97c-3.34,0-5.58,2.71-5.58,5.9
			v0.07C307.61,313.02,309.93,315.81,313.27,315.81z"/>
		<path fill="#D9D0BE" d="M217.53,315.81c3.38,0,5.62-2.71,5.62-5.9v-0.07c0-3.18-2.31-5.97-5.69-5.97c-3.34,0-5.58,2.71-5.58,5.9
			v0.07C211.87,313.02,214.18,315.81,217.53,315.81z"/>
		<polygon fill="#D9D0BE" points="270.52,305.9 268.01,312.17 272.96,312.17 		"/>
		<path fill="#D9D0BE" d="M170.66,329.02H339.1v-37.96H170.66V329.02z M301.33,309.84c0-6.35,5.11-11.48,11.93-11.48
			c6.82,0,11.86,5.07,11.86,11.43v0.07c0,6.35-5.11,11.48-11.93,11.48s-11.86-5.07-11.86-11.43V309.84z M280.98,298.8h19.37v5.37
			h-6.63v16.73h-6.12v-16.73h-6.63v-5.37H280.98z M267.61,298.64h5.9l9.4,22.24h-6.56l-1.61-3.94h-8.52l-1.57,3.94h-6.44
			L267.61,298.64z M232.57,298.8h6.48l5.27,8.56l5.27-8.56h6.48v22.08h-6.09v-12.69l-5.65,8.64h-0.12l-5.62-8.59v12.62h-6
			L232.57,298.8L232.57,298.8z M205.59,309.84c0-6.35,5.11-11.48,11.93-11.48c6.82,0,11.86,5.07,11.86,11.43v0.07
			c0,6.35-5.11,11.48-11.93,11.48s-11.86-5.07-11.86-11.43V309.84z M185.24,298.8h19.37v5.37h-6.63v16.73h-6.12v-16.73h-6.63v-5.37
			H185.24z"/>
	</g>
	<g display="inline">
		<path fill="#D9D0BE" d="M417.32,234.03H217.05v50.01h200.27V234.03z M264.43,259.82c0,10.66-8.59,19.29-20.04,19.29
			c-11.44,0-19.92-8.52-19.92-19.18v-0.1c0-10.66,8.59-19.29,20.04-19.29c11.44,0,19.93,8.54,19.93,19.18v0.11H264.43z
			 M304.8,278.35h-9.01L279.95,258v20.35h-10.17v-37.1h9.59l15.26,19.6v-19.6h10.17V278.35z M321.91,278.35h-10.33v-37.1h10.33
			V278.35z M367.38,259.82c0,10.66-8.59,19.29-20.04,19.29s-19.93-8.52-19.93-19.18v-0.1c0-10.66,8.59-19.29,20.04-19.29
			c11.45,0,19.92,8.54,19.92,19.18v0.11H367.38z M407.75,278.35h-9.01L382.9,258v20.35h-10.17v-37.1h9.59l15.26,19.6v-19.6h10.17
			V278.35z"/>
		<path fill="#D9D0BE" d="M244.39,249.8c-5.62,0-9.38,4.55-9.38,9.9v0.11c0,5.35,3.87,10.01,9.49,10.01c5.67,0,9.43-4.55,9.43-9.9
			v-0.1C253.93,254.47,250.06,249.8,244.39,249.8z"/>
		<path fill="#D9D0BE" d="M347.34,249.8c-5.62,0-9.38,4.55-9.38,9.9v0.11c0,5.35,3.87,10.01,9.48,10.01c5.67,0,9.43-4.55,9.43-9.9
			v-0.1C356.88,254.47,353.01,249.8,347.34,249.8z"/>
	</g>
	<g display="inline">
		<path fill="#D9D0BE" d="M176.93,335.53v42.26h208.76v-42.26H176.93z M212.54,352.1c0,7.38-5.69,11.29-13.47,11.29h-4.3v8.96h-8.68
			V341h13.44c7.93,0,13.02,4.08,13.02,11.01L212.54,352.1L212.54,352.1z M225.12,372.33h-8.73v-31.34h8.73V372.33z M245.94,372.96
			c-8.96,0-16.17-6.84-16.17-16.2v-0.09c0-9.13,7.04-16.29,16.52-16.29c6.4,0,10.52,2.68,13.3,6.55l-6.53,5.06
			c-1.79-2.24-3.85-3.68-6.84-3.68c-4.39,0-7.47,3.71-7.47,8.28v0.09c0,4.71,3.1,8.37,7.47,8.37c3.27,0,5.2-1.52,7.07-3.8l6.55,4.66
			C256.86,369.97,252.89,372.96,245.94,372.96z M283.29,372.33l-7.88-11.64l-3.19,3.54v8.1h-8.68v-31.34h8.68v12.72l10.8-12.72
			h10.29l-11.86,13.47l12.27,17.87L283.29,372.33L283.29,372.33z M320.09,372.33h-23.85v-31.34h8.68v23.73h15.17V372.33z
			 M349.23,372.33H323.8v-31.34H349v7.39h-16.61v4.74h15.05v6.84h-15.05v4.97h16.83V372.33L349.23,372.33z M378.65,362.67
			c0,6.4-5.06,10.2-12.67,10.2c-5.55,0-10.83-1.75-14.68-5.2l4.83-5.78c3.08,2.47,6.55,3.76,10.17,3.76c2.33,0,3.59-0.81,3.59-2.15
			v-0.09c0-1.29-1.03-2.01-5.29-2.99c-6.67-1.52-11.81-3.4-11.81-9.85v-0.09c0-5.83,4.62-10.03,12.13-10.03
			c5.34,0,9.49,1.44,12.9,4.17l-4.34,6.12c-2.87-2.01-6-3.1-8.77-3.1c-2.1,0-3.13,0.89-3.13,2.01v0.09c0,1.44,1.07,2.06,5.43,3.05
			c7.21,1.57,11.69,3.9,11.69,9.77v0.11H378.65z"/>
		<path fill="#D9D0BE" d="M198.85,348.29h-4.08v8.28h4.11c3.1,0,4.97-1.61,4.97-4.08v-0.09
			C203.86,349.72,201.99,348.29,198.85,348.29z"/>
	</g>
	<g display="inline">
		<path fill="#BABABA" d="M432.65,449.42H130.48v44.49h302.17V449.42z M164.24,476.6c0,4.67-3.69,7.44-9.26,7.44
			c-4.06,0-7.93-1.28-10.74-3.78l3.53-4.22c2.26,1.8,4.78,2.75,7.44,2.75c1.7,0,2.62-0.6,2.62-1.57v-0.05
			c0-0.95-0.75-1.47-3.87-2.19c-4.88-1.1-8.65-2.49-8.65-7.19v-0.07c0-4.25,3.38-7.32,8.87-7.32c3.9,0,6.95,1.05,9.43,3.04
			l-3.17,4.48c-2.1-1.47-4.39-2.26-6.42-2.26c-1.54,0-2.29,0.67-2.29,1.47v0.07c0,1.05,0.79,1.5,3.96,2.22
			c5.27,1.15,8.54,2.83,8.54,7.12V476.6z M192.24,483.65h-6.32v-13.12l-5.86,8.96h-0.14l-5.83-8.87v13.05h-6.23v-22.89h6.72
			l5.48,8.86l5.46-8.86h6.72L192.24,483.65L192.24,483.65z M213.55,483.65l-1.66-4.08h-8.84l-1.63,4.08h-6.69l9.75-23.03h6.12
			l9.75,23.03H213.55z M241.4,476.6c0,4.67-3.69,7.44-9.28,7.44c-4.06,0-7.93-1.28-10.74-3.78l3.54-4.22
			c2.26,1.8,4.78,2.75,7.44,2.75c1.7,0,2.62-0.6,2.62-1.57v-0.05c0-0.95-0.75-1.47-3.87-2.19c-4.88-1.1-8.65-2.49-8.65-7.19v-0.07
			c0-4.25,3.38-7.32,8.87-7.32c3.9,0,6.95,1.05,9.43,3.04l-3.17,4.48c-2.1-1.47-4.39-2.26-6.42-2.26c-1.54,0-2.29,0.67-2.29,1.47
			v0.07c0,1.05,0.79,1.5,3.97,2.22c5.27,1.15,8.54,2.83,8.54,7.12L241.4,476.6L241.4,476.6z M265.9,483.65h-6.35v-8.68h-8.15v8.68
			h-6.35v-22.87h6.35v8.56h8.15v-8.56h6.35V483.65z M291.2,477.33c0,3.92-3.2,6.3-8.68,6.3h-11.83v-22.86h11.76
			c2.89,0,4.92,0.72,6.25,2.05c0.91,0.93,1.47,2.12,1.47,3.69v0.07c0,2.64-1.5,4.2-3.54,5.09c2.78,0.93,4.55,2.49,4.55,5.58v0.07
			H291.2z M315.75,473.46c0,7.39-4.22,10.61-10.75,10.61s-10.6-3.31-10.6-10.45v-12.83h6.46v12.71c0,3.31,1.66,4.87,4.22,4.87
			c2.55,0,4.22-1.5,4.22-4.71v-12.86h6.46V473.46L315.75,473.46z M334.09,483.65l-4.62-6.91h-0.07h-2.71v6.91h-6.35v-22.87h10.85
			c3.5,0,5.92,0.91,7.45,2.49c1.35,1.31,2.03,3.08,2.03,5.32v0.07c0,3.5-1.87,5.81-4.72,7.02l5.46,7.96h-7.32V483.65z
			 M365.63,480.57c-2.43,2-5.79,3.53-9.96,3.53c-7.14,0-12.48-4.9-12.48-11.83v-0.07c0-6.67,5.23-11.88,12.34-11.88
			c4.03,0,6.88,1.24,9.29,3.32l-3.73,4.48c-1.65-1.36-3.27-2.15-5.53-2.15c-3.31,0-5.86,2.76-5.86,6.26v0.07
			c0,3.69,2.59,6.33,6.21,6.33c1.54,0,2.71-0.33,3.68-0.95v-2.78h-4.52v-4.62h10.54v10.27H365.63z M388.59,483.65h-18.6v-22.87
			h18.43v5.39h-12.15v3.47h11.01v4.99h-11.01v3.64h12.32L388.59,483.65L388.59,483.65z M406.52,483.65l-4.62-6.91h-0.07h-2.71v6.91
			h-6.35v-22.87h10.85c3.5,0,5.92,0.91,7.45,2.49c1.35,1.31,2.03,3.08,2.03,5.32v0.07c0,3.5-1.87,5.81-4.71,7.02l5.46,7.96h-7.33
			V483.65z"/>
		<path fill="#BABABA" d="M330.85,466.27h-4.15v5.49h4.18c2.15,0,3.41-1.05,3.41-2.71v-0.07
			C334.29,467.18,332.97,466.27,330.85,466.27z"/>
		<path fill="#BABABA" d="M403.27,466.27h-4.17v5.49h4.2c2.15,0,3.41-1.05,3.41-2.71v-0.07
			C406.72,467.18,405.4,466.27,403.27,466.27z"/>
		<path fill="#BABABA" d="M281.73,474.34h-4.85v4.22h4.92c1.93,0,3.05-0.75,3.05-2.1v-0.07
			C284.85,475.14,283.87,474.34,281.73,474.34z"/>
		<path fill="#BABABA" d="M283.9,467.9v-0.07c0-1.24-0.98-1.96-2.89-1.96h-4.13v4.02h3.99C282.82,469.89,283.9,469.25,283.9,467.9z"
			/>
		<polygon fill="#BABABA" points="204.91,474.62 210.05,474.62 207.5,468.12 		"/>
	</g>
</g>
<g>
	<path fill="#492E1E" d="M313.3,18.36l-19.44,24.25c-0.88,1.09-2.17,1.66-3.45,1.66c-0.96,0-1.94-0.31-2.75-0.96
		c-1.91-1.52-2.22-4.29-0.7-6.19l16.5-20.6c-4.67-0.72-9.47-1.24-14.37-1.56l-21.35,26.62c-0.88,1.08-2.15,1.66-3.45,1.66
		c-0.96,0-1.94-0.31-2.75-0.96c-1.91-1.52-2.22-4.29-0.68-6.19l17.22-21.47c-57.99,0.04-104.98,29.26-104.98,65.31H383.3
		C383.27,51.5,354.08,27.33,313.3,18.36z"/>
	<g>
		<path fill="#BAB9B9" d="M432.02,450.57H127.17v44.87h304.85V450.57z M161.21,478.01c0,4.71-3.73,7.51-9.35,7.51
			c-4.09,0-8-1.28-10.83-3.82l3.57-4.25c2.28,1.82,4.81,2.76,7.51,2.76c1.71,0,2.64-0.6,2.64-1.59v-0.05c0-0.96-0.75-1.49-3.9-2.21
			c-4.92-1.12-8.71-2.5-8.71-7.25v-0.07c0-4.29,3.41-7.38,8.96-7.38c3.94,0,7,1.05,9.5,3.06l-3.2,4.51
			c-2.12-1.49-4.43-2.27-6.47-2.27c-1.56,0-2.31,0.67-2.31,1.49v0.07c0,1.05,0.79,1.5,3.99,2.24c5.32,1.16,8.63,2.87,8.63,7.18v0.07
			H161.21z M189.47,485.12h-6.37v-13.25l-5.91,9.03h-0.14l-5.88-8.96v13.18h-6.28v-23.07h6.77l5.51,8.93l5.51-8.93h6.77v23.07
			H189.47z M210.96,485.12l-1.68-4.11h-8.92l-1.65,4.11h-6.74l9.84-23.22h6.18l9.83,23.22H210.96z M239.05,478.01
			c0,4.71-3.73,7.51-9.35,7.51c-4.1,0-8-1.28-10.83-3.82l3.57-4.25c2.27,1.82,4.83,2.76,7.51,2.76c1.71,0,2.64-0.6,2.64-1.59v-0.05
			c0-0.96-0.75-1.49-3.9-2.21c-4.92-1.12-8.72-2.5-8.72-7.25v-0.07c0-4.29,3.4-7.38,8.94-7.38c3.94,0,7,1.05,9.52,3.06l-3.2,4.51
			c-2.12-1.49-4.43-2.27-6.47-2.27c-1.54,0-2.31,0.67-2.31,1.49v0.07c0,1.05,0.79,1.5,4.01,2.24c5.32,1.16,8.63,2.87,8.63,7.18v0.07
			H239.05z M263.78,485.12h-6.4v-8.77h-8.23v8.77h-6.4v-23.07h6.4v8.65h8.23v-8.65h6.4V485.12z M289.31,478.75
			c0,3.96-3.24,6.35-8.75,6.35h-11.93v-23.07h11.86c2.91,0,4.95,0.72,6.3,2.08c0.93,0.93,1.49,2.15,1.49,3.73v0.07
			c0,2.66-1.51,4.24-3.57,5.13c2.82,0.93,4.6,2.5,4.6,5.64L289.31,478.75L289.31,478.75z M314.07,474.85
			c0,7.44-4.27,10.71-10.83,10.71c-6.58,0-10.71-3.33-10.71-10.55v-12.95h6.51v12.81c0,3.32,1.68,4.92,4.25,4.92
			c2.57,0,4.27-1.5,4.27-4.74v-12.99h6.51V474.85z M332.59,485.12l-4.65-6.98h-0.07h-2.75v6.98h-6.4v-23.07h10.94
			c3.54,0,5.97,0.93,7.52,2.5c1.35,1.33,2.05,3.11,2.05,5.37V470c0,3.52-1.89,5.86-4.76,7.09l5.51,8.03H332.59z M364.39,482.02
			c-2.45,2.01-5.85,3.55-10.05,3.55c-7.19,0-12.58-4.94-12.58-11.94v-0.07c0-6.72,5.29-11.99,12.46-11.99
			c4.06,0,6.93,1.24,9.38,3.36l-3.76,4.51c-1.64-1.38-3.31-2.17-5.58-2.17c-3.33,0-5.92,2.8-5.92,6.33v0.07
			c0,3.73,2.61,6.39,6.28,6.39c1.56,0,2.75-0.33,3.71-0.95v-2.82h-4.57v-4.67h10.64v10.38H364.39z M387.56,485.12H368.8v-23.07h18.6
			v5.44h-12.25v3.48h11.1v5.04h-11.1v3.68h12.43v5.43H387.56z M405.65,485.12l-4.65-6.98h-0.07h-2.75v6.98h-6.4v-23.07h10.94
			c3.54,0,5.97,0.93,7.52,2.5c1.35,1.33,2.05,3.11,2.05,5.37V470c0,3.52-1.89,5.86-4.76,7.09l5.51,8.03H405.65z"/>
		<path fill="#BAB9B9" d="M329.32,467.58h-4.2v5.53h4.22c2.19,0,3.43-1.05,3.43-2.73v-0.07
			C332.78,468.51,331.45,467.58,329.32,467.58z"/>
		<path fill="#BAB9B9" d="M402.38,467.58h-4.2v5.53h4.24c2.17,0,3.43-1.05,3.43-2.73v-0.07
			C405.84,468.51,404.53,467.58,402.38,467.58z"/>
		<path fill="#BAB9B9" d="M279.76,475.72h-4.88v4.25h4.95c1.94,0,3.06-0.77,3.06-2.12v-0.07
			C282.89,476.54,281.91,475.72,279.76,475.72z"/>
		<path fill="#BAB9B9" d="M281.94,469.23v-0.07c0-1.24-0.98-1.98-2.9-1.98h-4.17v4.06h4.02
			C280.84,471.24,281.94,470.57,281.94,469.23z"/>
		<polygon fill="#BAB9B9" points="202.25,476.02 207.43,476.02 204.85,469.46 		"/>
	</g>
	<g>
		<path fill="#492E1E" d="M378.51,537.34v-35.07H167.95v35.07c0,4.45,3.62,8.05,8.08,8.05h194.43
			C374.9,545.39,378.51,541.8,378.51,537.34z"/>
	</g>
	<g>
		<path fill="#D9D0BE" d="M268.8,421.38h-0.98v7.35h0.98c2.69,0,4.43-1.1,4.43-3.66v-0.05C273.23,422.5,271.49,421.38,268.8,421.38z
			"/>
		<polygon fill="#D9D0BE" points="185.68,427.33 188.9,427.33 187.28,423.05 		"/>
		<path fill="#D9D0BE" d="M289.26,421.19h-2.57v3.45h2.54c1.42,0,2.28-0.63,2.28-1.71v-0.05
			C291.5,421.73,290.62,421.19,289.26,421.19z"/>
		<path fill="#D9D0BE" d="M169.35,421.19h-2.57v3.45h2.54c1.42,0,2.28-0.63,2.28-1.71v-0.05
			C171.59,421.73,170.7,421.19,169.35,421.19z"/>
		<path fill="#D9D0BE" d="M151.76,406.73v36.65h251.12v-36.65H151.76z M191.29,433.88l-0.93-2.36h-6.18l-0.91,2.36h-5.2h-1.1h-5.62
			l-3.33-5.04h-1.26v5.04h-5.9v-17.64h8.61c3.13,0,5.11,0.79,6.35,2.01c1.05,1.05,1.61,2.36,1.61,4.18v0.05
			c0,2.57-1.33,4.36-3.48,5.39l3.41,4.99l7.02-16.77h5.85l7.44,17.76h-6.39V433.88z M216.07,433.88h-5.25l-6.54-8.14v8.14h-5.85
			v-17.64h5.51l6.28,7.79v-7.79h5.85V433.88z M226.83,434.26c-4.88,0-9.15-3.68-9.15-9.15v-0.05c0-5.27,4.11-9.2,9.38-9.2
			c3.89,0,6.51,1.89,8,4.58l-4.86,2.85c-0.65-1.26-1.59-2.14-3.2-2.14c-2,0-3.31,1.73-3.31,3.85v0.05c0,2.29,1.37,3.9,3.31,3.9
			c1.66,0,2.59-0.91,3.32-2.22l4.86,2.75C233.68,432.13,231.21,434.26,226.83,434.26z M253.49,433.88h-5.9v-6.32h-5.39v6.32h-5.9
			v-17.64h5.9v6.23h5.39v-6.23h5.9V433.88z M279.18,424.97c0,5.21-3.57,8.93-10.71,8.93h-6.55v-17.64h6.76c7,0,10.5,3.45,10.5,8.66
			V424.97z M291.27,433.88l-3.33-5.04h-1.26v5.04h-5.9v-17.64h8.61c3.13,0,5.11,0.79,6.35,2.01c1.07,1.05,1.61,2.36,1.61,4.18v0.05
			c0,2.57-1.33,4.36-3.48,5.39l4.11,6L291.27,433.88L291.27,433.88z M313.98,433.88h-15.17v-17.64h15.05v4.83h-9.24v1.79h8.63v4.25
			h-8.63v1.91H314v4.87H313.98z M323.15,434.21c-3.57,0-6.81-1.02-9.05-2.98l3.15-3.76c1.91,1.45,4.11,2.07,6.18,2.07
			c1.05,0,1.51-0.28,1.51-0.75v-0.04c0-0.51-0.56-0.79-2.45-1.15c-3.95-0.81-7.44-1.94-7.44-5.67v-0.05c0-3.36,2.62-5.95,7.49-5.95
			c3.4,0,5.92,0.81,7.96,2.42l-2.87,3.99c-1.66-1.21-3.66-1.73-5.29-1.73c-0.88,0-1.28,0.3-1.28,0.73v0.05
			c0,0.47,0.47,0.79,2.34,1.14c4.52,0.84,7.54,2.13,7.54,5.69v0.05C330.94,431.95,327.9,434.21,323.15,434.21z M347.43,428.24
			c0,3.71-3.05,5.97-7.79,5.97c-3.57,0-6.81-1.02-9.05-2.98l3.15-3.76c1.91,1.45,4.11,2.07,6.18,2.07c1.05,0,1.51-0.28,1.51-0.75
			v-0.04c0-0.51-0.56-0.79-2.45-1.15c-3.96-0.81-7.44-1.94-7.44-5.67v-0.05c0-3.36,2.62-5.95,7.49-5.95c3.39,0,5.92,0.81,7.96,2.42
			l-2.87,3.99c-1.66-1.21-3.66-1.73-5.29-1.73c-0.88,0-1.28,0.3-1.28,0.73v0.05c0,0.47,0.47,0.79,2.35,1.14
			c4.51,0.84,7.54,2.13,7.54,5.69v0.04H347.43z M354.74,433.88h-5.9v-17.64h5.9V433.88z M374.45,433.88h-5.25l-6.55-8.14v8.14h-5.85
			v-17.64h5.51l6.28,7.79v-7.79h5.85L374.45,433.88L374.45,433.88z M393.75,431.62c-1.91,1.56-4.58,2.64-7.79,2.64
			c-5.49,0-9.9-3.68-9.9-9.15v-0.05c0-5.27,4.17-9.2,9.73-9.2c3.03,0,5.48,1.02,7.38,2.68l-3.31,3.99c-1.15-0.98-2.45-1.54-3.9-1.54
			c-2.29,0-3.95,1.77-3.95,4.17v0.05c0,2.5,1.73,4.2,4.2,4.2c1.01,0,1.56-0.16,2.01-0.4v-1.77h-3.03v-3.78h8.56V431.62z"/>
	</g>
	<g>
		<polygon fill="#D9D0BE" points="267.45,288.17 271.27,288.17 269.36,283.11 		"/>
		<polygon fill="#D9D0BE" points="179.69,288.17 183.49,288.17 181.6,283.11 		"/>
		<path fill="#D9D0BE" d="M159.86,223.9v86.96h176.8V223.9H159.86z M293.98,239h10.68v11.27h9.76V239h10.68v31.92h-10.68v-11.44
			h-9.76v11.44h-10.68V239z M276.26,259.51c-7.16-1.45-13.46-3.52-13.46-10.25v-0.09c0-6.07,4.74-10.76,13.55-10.76
			c6.16,0,10.71,1.45,14.4,4.38l-5.2,7.21c-3.01-2.19-6.61-3.15-9.57-3.15c-1.59,0-2.33,0.54-2.33,1.33v0.09
			c0,0.88,0.88,1.42,4.23,2.05c8.16,1.5,13.63,3.87,13.63,10.31v0.09c0,6.7-5.51,10.81-14.09,10.81c-6.47,0-12.32-1.82-16.36-5.37
			l5.7-6.79c3.46,2.64,7.44,3.74,11.17,3.74c1.91,0,2.73-0.51,2.73-1.36v-0.09C280.68,260.7,279.67,260.21,276.26,259.51z
			 M233.4,239h27.23v8.75H243.9v3.24h15.59v7.7H243.9v3.46h16.96v8.75H233.4V239z M200.79,239h15.59c5.65,0,9.26,1.42,11.5,3.64
			c1.91,1.91,2.92,4.29,2.92,7.58v0.09c0,4.66-2.42,7.89-6.3,9.77l7.44,10.85h-12.18l-6.02-9.12h-2.27v9.12h-10.68L200.79,239
			L200.79,239z M171.57,239h26.72v9.12h-16.05v4.06h14.91v8.29h-14.91v10.45h-10.67V239z M186.32,295.91l-1.1-2.8h-7.3l-1.07,2.8
			h-7.44l8.78-20.98h6.91l8.79,20.98H186.32z M198.71,296.07l-8.45-20.98h7.8l4.04,11.71l4.04-11.71h7.68l-8.45,20.98H198.71z
			 M235.64,285.49c0,6.04-4.97,10.87-11.41,10.87c-6.42,0-11.34-4.76-11.34-10.82v-0.05c0-6.04,4.97-10.87,11.41-10.87
			c6.42,0,11.34,4.76,11.34,10.82L235.64,285.49L235.64,285.49z M247.87,296.36c-5.77,0-10.81-4.34-10.81-10.82v-0.05
			c0-6.23,4.85-10.87,11.08-10.87c4.58,0,7.68,2.24,9.43,5.43l-5.74,3.36c-0.77-1.49-1.87-2.54-3.78-2.54c-2.35,0-3.9,2.05-3.9,4.55
			v0.05c0,2.71,1.61,4.62,3.9,4.62c1.96,0,3.06-1.07,3.94-2.62l5.74,3.24C255.97,293.82,253.05,296.36,247.87,296.36z M274.1,295.91
			l-1.1-2.8h-7.3l-1.07,2.8h-7.44l8.79-20.98h6.91l8.79,20.98H274.1z M302.93,285.37c0,6.16-4.24,10.54-12.65,10.54h-7.73v-20.84
			h7.96c8.28,0,12.41,4.08,12.41,10.24v0.07H302.93z M327.09,285.49c0,6.04-4.97,10.87-11.41,10.87c-6.42,0-11.34-4.76-11.34-10.82
			v-0.05c0-6.04,4.97-10.87,11.41-10.87c6.42,0,11.34,4.76,11.34,10.82V285.49z"/>
		<path fill="#D9D0BE" d="M220.17,251.07v-0.09c0-2.05-1.59-3.06-4.06-3.06h-4.66v6.25h4.6
			C218.63,254.19,220.17,253.03,220.17,251.07z"/>
		<path fill="#D9D0BE" d="M224.23,280.79c-2.64,0-4.32,2.2-4.32,4.64v0.05c0,2.47,1.7,4.71,4.38,4.71c2.64,0,4.32-2.21,4.32-4.64
			v-0.05C228.6,283.03,226.9,280.79,224.23,280.79z"/>
		<path fill="#D9D0BE" d="M315.7,280.79c-2.64,0-4.32,2.2-4.32,4.64v0.05c0,2.47,1.7,4.71,4.38,4.71c2.64,0,4.32-2.21,4.32-4.64
			v-0.05C320.07,283.03,318.38,280.79,315.7,280.79z"/>
		<path fill="#D9D0BE" d="M290.66,281.15h-1.15v8.7h1.15c3.18,0,5.23-1.31,5.23-4.32v-0.05
			C295.89,282.45,293.84,281.15,290.66,281.15z"/>
	</g>
	<g>
		<path fill="#D9D0BE" d="M323.23,334.21v-0.04c0-2.2-1.52-3.48-3.8-3.48h-1.56v7h1.56C321.72,337.68,323.23,336.42,323.23,334.21z"
			/>
		<path fill="#D9D0BE" d="M304.69,337.91c2.1,0,3.5-1.7,3.5-3.68v-0.04c0-1.98-1.44-3.71-3.54-3.71c-2.08,0-3.48,1.7-3.48,3.68v0.04
			C301.18,336.18,302.61,337.91,304.69,337.91z"/>
		<path fill="#D9D0BE" d="M184.94,400.3h247.89v-82.16H184.94V400.3z M272.14,389.2l-3.17-7.75h-16.75l-3.1,7.75h-12.65l18.48-43.73
			h11.6l18.48,43.73H272.14z M307.35,390.06c-12.41,0-22.4-9.48-22.4-22.45v-0.12c0-12.65,9.75-22.57,22.89-22.57
			c8.87,0,14.58,3.73,18.43,9.05l-9.07,7.02c-2.48-3.1-5.34-5.09-9.48-5.09c-6.07,0-10.36,5.14-10.36,11.48v0.12
			c0,6.51,4.29,11.6,10.36,11.6c4.53,0,7.19-2.12,9.8-5.27l9.07,6.46C322.49,385.91,316.98,390.06,307.35,390.06z M410.76,327.3h5.3
			c4.92,0,7.77,2.83,7.77,6.81v0.04c0,3.97-2.89,6.91-7.84,6.91h-5.23V327.3z M397.65,327.3h11.06v3.24h-7.3v2.08h6.6v3.01h-6.6
			v2.19h7.39v3.24h-11.17V327.3H397.65z M383.32,327.3h3.82v5.58l4.74-5.58h4.51l-5.21,5.92l5.39,7.84h-4.58l-3.46-5.11l-1.4,1.56
			v3.55h-3.82V327.3H383.32z M382.04,345.77h11.24l17.87,22.94v-22.94h11.92v43.42h-10.55l-18.55-23.82v23.82h-11.92V345.77z
			 M366.52,334.18c0-3.95,3.18-7.16,7.44-7.16c4.25,0,7.38,3.17,7.38,7.12v0.04c0,3.95-3.18,7.16-7.44,7.16
			c-4.25,0-7.38-3.17-7.38-7.12V334.18z M349.93,327.3h4.02l3.29,5.32l3.29-5.32h4.02v13.76h-3.8v-7.91l-3.52,5.39h-0.09l-3.5-5.36
			v7.86h-3.73L349.93,327.3L349.93,327.3z M341.92,335.84c-2.92-0.67-5.2-1.49-5.2-4.32v-0.04c0-2.55,2.03-4.41,5.32-4.41
			c2.34,0,4.17,0.63,5.67,1.82l-1.91,2.69c-1.26-0.89-2.64-1.35-3.85-1.35c-0.93,0-1.38,0.39-1.38,0.89v0.04
			c0,0.63,0.47,0.91,2.38,1.33c3.17,0.68,5.13,1.71,5.13,4.29v0.04c0,2.82-2.22,4.48-5.56,4.48c-2.43,0-4.76-0.77-6.44-2.27
			l2.12-2.54c1.35,1.09,2.87,1.65,4.46,1.65c1.02,0,1.57-0.35,1.57-0.94v-0.04C344.24,336.58,343.79,336.28,341.92,335.84z
			 M352.45,344.91c13.4,0,23.33,9.99,23.33,22.45v0.12c0,12.46-10.05,22.57-23.45,22.57c-13.41,0-23.33-9.99-23.33-22.45v-0.12
			C329,355.02,339.05,344.91,352.45,344.91z M328.67,333.29h6.44v3.29h-6.44V333.29z M314.07,327.3h5.3c4.92,0,7.77,2.83,7.77,6.81
			v0.04c0,3.97-2.89,6.91-7.84,6.91h-5.23V327.3z M297.27,334.18c0-3.95,3.19-7.16,7.44-7.16s7.39,3.17,7.39,7.12v0.04
			c0,3.95-3.19,7.16-7.44,7.16c-4.25,0-7.39-3.17-7.39-7.12V334.18z M280.94,334.18c0-3.95,3.19-7.16,7.44-7.16
			c4.25,0,7.39,3.17,7.39,7.12v0.04c0,3.95-3.18,7.16-7.44,7.16c-4.25,0-7.39-3.17-7.39-7.12V334.18z M263.36,327.3l2.4,7.96l2.66-8
			h3.29l2.66,8l2.4-7.96h3.95l-4.6,13.86h-3.32l-2.77-7.93l-2.75,7.93h-3.32l-4.6-13.86H263.36z M247.15,327.3h11.06v3.24h-7.3v2.08
			h6.6v3.01h-6.6v2.19h7.39v3.24h-11.17V327.3H247.15z M235.04,327.3h3.81v10.41h6.67v3.34h-10.48L235.04,327.3L235.04,327.3z
			 M234.43,377.21c0,7.44-6.07,11.97-16.43,11.97h-22.4v-43.42h22.26c5.46,0,9.31,1.36,11.85,3.9c1.73,1.73,2.8,4.03,2.8,7.02v0.12
			c0,5.02-2.85,8-6.7,9.68c5.27,1.73,8.63,4.71,8.63,10.61V377.21z M221.81,327.3h5.9c3.48,0,5.72,1.79,5.72,4.83v0.04
			c0,3.24-2.5,4.95-5.92,4.95h-1.89v3.94h-3.82L221.81,327.3L221.81,327.3z M208.6,327.3h5.9c3.48,0,5.72,1.79,5.72,4.83v0.04
			c0,3.24-2.5,4.95-5.92,4.95h-1.89v3.94h-3.82V327.3z M197.73,327.21h3.68l5.86,13.86h-4.09l-1-2.45h-5.3l-0.98,2.45h-4.01
			L197.73,327.21z"/>
		<path fill="#D9D0BE" d="M288.36,337.91c2.1,0,3.5-1.7,3.5-3.68v-0.04c0-1.98-1.43-3.71-3.54-3.71c-2.08,0-3.48,1.7-3.48,3.68v0.04
			C284.85,336.18,286.28,337.91,288.36,337.91z"/>
		<polygon fill="#D9D0BE" points="255.76,372.07 265.51,372.07 260.66,359.73 		"/>
		<polygon fill="#D9D0BE" points="199.53,331.73 197.98,335.65 201.07,335.65 		"/>
		<path fill="#D9D0BE" d="M229.62,332.36v-0.04c0-1.17-0.82-1.8-2.2-1.8h-1.79v3.64h1.8C228.8,334.15,229.62,333.44,229.62,332.36z"
			/>
		<path fill="#D9D0BE" d="M220.6,359.29v-0.12c0-2.36-1.85-3.73-5.46-3.73h-7.82v7.63h7.56C218.56,363.07,220.6,361.83,220.6,359.29
			z"/>
		<path fill="#D9D0BE" d="M373.94,337.91c2.1,0,3.5-1.7,3.5-3.68v-0.04c0-1.98-1.44-3.71-3.54-3.71c-2.08,0-3.48,1.7-3.48,3.68v0.04
			C370.42,336.18,371.86,337.91,373.94,337.91z"/>
		<path fill="#D9D0BE" d="M216.51,371.51h-9.19v8h9.31c3.66,0,5.77-1.42,5.77-3.97v-0.12C222.39,373.07,220.53,371.51,216.51,371.51
			z"/>
		<path fill="#D9D0BE" d="M419.93,334.21v-0.04c0-2.2-1.52-3.48-3.8-3.48h-1.56v7h1.56C418.41,337.68,419.93,336.42,419.93,334.21z"
			/>
		<path fill="#D9D0BE" d="M352.45,379.21c6.63,0,11.04-5.34,11.04-11.6v-0.12c0-6.27-4.53-11.73-11.17-11.73
			c-6.58,0-10.97,5.34-10.97,11.6v0.12C341.35,373.75,345.87,379.21,352.45,379.21z"/>
		<path fill="#D9D0BE" d="M216.4,332.36v-0.04c0-1.17-0.82-1.8-2.21-1.8h-1.78v3.64h1.8C215.57,334.15,216.4,333.44,216.4,332.36z"
			/>
	</g>
	<path fill="#D9D0BE" d="M406.32,137.2H229.15v37.61h177.17V137.2z M255.01,168.02h-18.25v-23.97h6.65v18.15h11.6L255.01,168.02
		L255.01,168.02z M277.29,168.02h-19.44v-23.97h19.29v5.65h-12.7v3.62h11.5v5.23h-11.5v3.8h12.88v5.67H277.29z M300.35,149.87h-7.19
		v18.15h-6.65v-18.15h-7.19v-5.83h21.02v5.83H300.35z M322.96,149.87h-7.19v18.15h-6.65v-18.15h-7.19v-5.83h21.02v5.83H322.96z
		 M347.88,157.34c0,7.74-4.41,11.13-11.23,11.13c-6.81,0-11.1-3.46-11.1-10.96v-13.46h6.74v13.32c0,3.46,1.75,5.09,4.41,5.09
		c2.68,0,4.41-1.57,4.41-4.93v-13.49h6.74v13.3H347.88z M363.35,168.51c-6.84,0-12.36-5.23-12.36-12.39v-0.07
		c0-6.98,5.37-12.46,12.64-12.46c4.9,0,8.05,2.05,10.17,5.01l-5.01,3.87c-1.36-1.72-2.94-2.8-5.23-2.8c-3.36,0-5.72,2.84-5.72,6.34
		v0.07c0,3.59,2.36,6.4,5.72,6.4c2.5,0,3.97-1.17,5.41-2.9l5.01,3.55C371.7,166.22,368.65,168.51,363.35,168.51z M396.25,168.02
		h-19.44v-23.97h19.27v5.65h-12.7v3.62h11.5v5.23h-11.5v3.8h12.88V168.02z"/>
	<path fill="#D9D0BE" d="M352.01,205.94c3.66,0,6.09-2.94,6.09-6.41v-0.07c0-3.47-2.5-6.48-6.16-6.48c-3.62,0-6.06,2.94-6.06,6.41
		v0.07C345.87,202.93,348.37,205.94,352.01,205.94z"/>
	<polygon fill="#D9D0BE" points="305.62,195.2 302.93,202 308.3,202 	"/>
	<path fill="#D9D0BE" d="M248.15,205.94c3.66,0,6.09-2.94,6.09-6.41v-0.07c0-3.47-2.5-6.48-6.16-6.48c-3.62,0-6.06,2.94-6.06,6.41
		v0.07C242.01,202.93,244.51,205.94,248.15,205.94z"/>
	<path fill="#D9D0BE" d="M204.89,217.98h171.13V181.3H204.89L204.89,217.98L204.89,217.98z M339.06,199.48
		c0-6.88,5.55-12.46,12.95-12.46s12.88,5.51,12.88,12.39v0.07c0,6.88-5.55,12.46-12.95,12.46s-12.88-5.51-12.88-12.39V199.48z
		 M316.98,187.49h21.02v5.83h-7.19v18.15h-6.65v-18.15h-7.19v-5.83H316.98z M302.47,187.32h6.4l10.2,24.13h-7.12l-1.75-4.29h-9.24
		l-1.71,4.29h-6.98L302.47,187.32z M264.48,187.49h7.02l5.72,9.28l5.72-9.28h7.02v23.98h-6.62V197.7l-6.12,9.38h-0.14l-6.09-9.31
		v13.7h-6.51V187.49z M235.2,199.48c0-6.88,5.55-12.46,12.95-12.46s12.88,5.51,12.88,12.39v0.07c0,6.88-5.55,12.46-12.95,12.46
		s-12.88-5.51-12.88-12.39V199.48z M213.11,187.49h21.02v5.83h-7.19v18.15h-6.65v-18.15h-7.19v-5.83H213.11z"/>
	<g>
		<path fill="#D9D0BE" d="M312.43,101.2c-4.08,0-6.81,3.31-6.81,7.19v0.07c0,3.89,2.8,7.26,6.88,7.26c4.11,0,6.84-3.31,6.84-7.19
			v-0.07C319.36,104.6,316.54,101.2,312.43,101.2z"/>
		<polygon fill="#D9D0BE" points="257.09,111.32 263.13,111.32 260.12,103.67 		"/>
		<path fill="#D9D0BE" d="M202.9,85.84v45.17h135.08V85.84H202.9z M242.51,121.92h-7.42v-15.45L228.22,117h-0.16l-6.84-10.45v15.38
			h-7.3V95.03h7.88l6.42,10.41l6.42-10.41h7.88V121.92z M267.24,121.92l-1.96-4.81h-10.38l-1.93,4.81h-7.84l11.44-27.09h7.19
			l11.44,27.09H267.24z M288.87,121.92h-7.49v-10.06l-10.22-16.83h8.49l5.53,9.8l5.56-9.8h8.35l-10.22,16.71L288.87,121.92
			L288.87,121.92z M326.97,108.46c0,7.72-6.23,13.98-14.53,13.98s-14.45-6.19-14.45-13.91v-0.07c0-7.72,6.23-13.98,14.53-13.98
			c8.29,0,14.45,6.19,14.45,13.91V108.46z"/>
	</g>
	<g enable-background="new    ">
		<path fill="#D9D0BE" d="M179.29,516.45h4.15l3.38,5.48l3.38-5.48h4.15v14.16h-3.91v-8.13l-3.62,5.54h-0.08l-3.6-5.5v8.09h-3.84
			V516.45z"/>
		<path fill="#D9D0BE" d="M196.67,524.4v-7.95h3.99v7.87c0,2.04,1.03,3.02,2.61,3.02s2.61-0.93,2.61-2.91v-7.97h3.99v7.85
			c0,4.57-2.61,6.58-6.64,6.58S196.67,528.83,196.67,524.4z"/>
		<path fill="#D9D0BE" d="M212.19,516.45h3.93v10.72h6.86v3.44h-10.78V516.45z"/>
		<path fill="#D9D0BE" d="M226.09,519.89h-4.25v-3.44h12.42v3.44h-4.25v10.72h-3.93V519.89z"/>
		<path fill="#D9D0BE" d="M236.07,516.45h3.95v14.16h-3.95V516.45z"/>
		<path fill="#D9D0BE" d="M242.16,522.6h6.64v3.38h-6.64V522.6z"/>
		<path fill="#D9D0BE" d="M250.37,523.57v-0.04c0-4.13,3.24-7.36,7.63-7.36c2.49,0,4.25,0.77,5.75,2.06l-2.31,2.77
			c-1.01-0.85-2.02-1.34-3.42-1.34c-2.04,0-3.62,1.72-3.62,3.88v0.04c0,2.29,1.6,3.92,3.84,3.92c0.95,0,1.68-0.2,2.27-0.59v-1.72
			h-2.79v-2.87h6.52v6.37c-1.5,1.23-3.58,2.19-6.15,2.19C253.67,530.89,250.37,527.86,250.37,523.57z"/>
		<path fill="#D9D0BE" d="M266.42,516.45h6.7c2.17,0,3.66,0.57,4.61,1.54c0.83,0.81,1.25,1.9,1.25,3.3v0.04
			c0,2.17-1.15,3.6-2.91,4.35l3.38,4.94h-4.53l-2.85-4.29h-0.04h-1.68v4.29h-3.93V516.45z M272.93,523.24c1.34,0,2.1-0.65,2.1-1.68
			v-0.04c0-1.11-0.81-1.68-2.12-1.68h-2.57v3.4H272.93z"/>
		<path fill="#D9D0BE" d="M285.61,516.34h3.78l6.03,14.26h-4.21l-1.03-2.53h-5.46l-1.01,2.53h-4.13L285.61,516.34z M289.05,525.03
			l-1.58-4.03l-1.6,4.03H289.05z"/>
		<path fill="#D9D0BE" d="M296.88,516.45h3.95v14.16h-3.95V516.45z"/>
		<path fill="#D9D0BE" d="M303.42,516.45h3.66l5.83,7.49v-7.49h3.88v14.16h-3.44l-6.05-7.77v7.77h-3.88V516.45z"/>
		<path fill="#D9D0BE" d="M324.91,516.45h7.26c1.78,0,3.03,0.45,3.86,1.27c0.57,0.57,0.91,1.32,0.91,2.29v0.04
			c0,1.64-0.93,2.61-2.18,3.16c1.72,0.57,2.81,1.54,2.81,3.46v0.04c0,2.43-1.98,3.91-5.36,3.91h-7.3V516.45z M331.2,522.09
			c1.19,0,1.86-0.4,1.86-1.23v-0.04c0-0.77-0.61-1.21-1.78-1.21h-2.55v2.49H331.2z M331.77,527.45c1.19,0,1.88-0.47,1.88-1.29v-0.04
			c0-0.77-0.61-1.27-1.92-1.27h-3v2.61H331.77z"/>
		<path fill="#D9D0BE" d="M339.19,524.4v-7.95h3.99v7.87c0,2.04,1.03,3.02,2.61,3.02s2.61-0.93,2.61-2.91v-7.97h3.99v7.85
			c0,4.57-2.61,6.58-6.64,6.58S339.19,528.83,339.19,524.4z"/>
		<path fill="#D9D0BE" d="M354.71,516.45h3.66l5.83,7.49v-7.49h3.88v14.16h-3.44l-6.05-7.77v7.77h-3.88V516.45z"/>
	</g>
</g>
</svg>
