<?xml version="1.0" encoding="utf-8"?>
<!-- Generator: Adobe Illustrator 18.1.0, SVG Export Plug-In . SVG Version: 6.00 Build 0)  -->
<svg version="1.1" id="Layer_1" xmlns="http://www.w3.org/2000/svg" xmlns:xlink="http://www.w3.org/1999/xlink" x="0px" y="0px"
	 viewBox="0 0 560 560" enable-background="new 0 0 560 560" xml:space="preserve">
<g id="classic_smash" display="none">
	<rect x="191.98" y="507.47" display="inline" fill="#D9D0BE" width="164.36" height="28.86"/>
	<g display="inline">
		<path fill="#492E1E" d="M289.56,524.25h-4.57v3.99h4.64c1.82,0,2.87-0.72,2.87-1.98v-0.07
			C292.49,525.02,291.57,524.25,289.56,524.25z"/>
		<path fill="#492E1E" d="M291.6,518.16v-0.07c0-1.17-0.93-1.85-2.71-1.85h-3.89v3.8h3.74C290.59,520.05,291.6,519.43,291.6,518.16z
			"/>
		<path fill="#492E1E" d="M379.19,535.41v-34.76H170.47v34.76c0,4.41,3.59,7.98,8.02,7.98h192.71
			C375.62,543.39,379.19,539.82,379.19,535.41z M220.2,533.05h-17.55v-21.61h17.4v5.09h-11.46v3.27h10.38v4.73h-10.38v3.43h11.62
			V533.05z M243.51,530.15c-2.29,1.89-5.46,3.34-9.38,3.34c-6.74,0-11.76-4.64-11.76-11.18v-0.07c0-6.3,4.94-11.24,11.64-11.24
			c3.8,0,6.49,1.17,8.77,3.15l-3.52,4.24c-1.54-1.29-3.08-2.05-5.21-2.05c-3.11,0-5.53,2.62-5.53,5.93v0.07
			c0,3.48,2.43,5.99,5.86,5.99c1.45,0,2.56-0.32,3.46-0.89v-2.62h-4.27v-4.39h9.94L243.51,530.15L243.51,530.15z M267.26,530.15
			c-2.29,1.89-5.46,3.34-9.4,3.34c-6.74,0-11.76-4.64-11.76-11.18v-0.07c0-6.3,4.94-11.24,11.64-11.24c3.8,0,6.49,1.17,8.77,3.15
			l-3.52,4.24c-1.54-1.29-3.1-2.05-5.21-2.05c-3.11,0-5.53,2.62-5.53,5.93v0.07c0,3.48,2.43,5.99,5.86,5.99
			c1.45,0,2.57-0.32,3.46-0.89v-2.62h-4.27v-4.39h9.94v9.73H267.26z M298.48,527.08c0,3.71-3.03,5.97-8.19,5.97h-11.15v-21.61h11.1
			c2.71,0,4.64,0.68,5.9,1.94c0.86,0.86,1.38,2.01,1.38,3.48v0.07c0,2.5-1.42,3.99-3.34,4.81c2.62,0.86,4.29,2.34,4.29,5.28v0.05
			H298.48z M321.09,523.41c0,6.98-3.99,10.04-10.13,10.04c-6.14,0-10.01-3.11-10.01-9.89v-12.15h6.09v12.02
			c0,3.11,1.57,4.6,3.99,4.6s3.99-1.42,3.99-4.45v-12.16h6.09v11.97H321.09z M345.07,533.05h-5.25l-9.24-11.86v11.86h-5.93v-21.61
			h5.58l8.89,11.43v-11.43h5.93v21.61H345.07z"/>
	</g>
	<path display="inline" fill="#492E1E" d="M309.65,22.05L290.38,46.1c-0.88,1.08-2.15,1.65-3.43,1.65c-0.96,0-1.93-0.32-2.73-0.96
		c-1.89-1.51-2.2-4.25-0.68-6.12l16.36-20.41c-4.64-0.72-9.38-1.23-14.24-1.54L264.5,45.12c-0.86,1.08-2.14,1.65-3.43,1.65
		c-0.94,0-1.92-0.32-2.73-0.96c-1.89-1.51-2.2-4.25-0.68-6.14l17.06-21.28c-57.49,0.03-104.06,29-104.06,64.73H379
		C379,54.91,350.05,30.96,309.65,22.05z"/>
	<g display="inline">
		<polygon fill="#D9D0BE" points="198.87,113.14 203.35,113.14 201.11,107.17 		"/>
		<path fill="#D9D0BE" d="M126.33,88.97v42.02H406.6V88.97H126.33z M156.17,114.4c0,5.16-4.25,8.31-10.85,8.31
			c-4.99,0-9.49-1.4-12.6-4.15l4.39-5.23c2.66,2.03,5.72,2.89,8.61,2.89c1.47,0,2.1-0.39,2.1-1.05v-0.07c0-0.7-0.77-1.08-3.41-1.61
			c-5.51-1.12-10.36-2.69-10.36-7.89v-0.07c0-4.67,3.66-8.28,10.43-8.28c4.74,0,8.24,1.12,11.1,3.38l-4.01,5.55
			c-2.31-1.68-5.09-2.42-7.37-2.42c-1.22,0-1.78,0.42-1.78,1.02v0.07c0,0.67,0.66,1.08,3.27,1.58c6.28,1.15,10.5,2.99,10.5,7.93
			v0.05H156.17z M185.73,122.27h-8.17v-12.18l-5.65,8.75h-0.14l-5.65-8.75v12.18h-8.03V97.68h8.57l5.27,8.64l5.27-8.64h8.57v24.59
			H185.73z M206.69,122.27l-1.29-3.31h-8.61l-1.26,3.31h-8.79l10.36-24.75h8.14l10.36,24.75H206.69z M237.69,114.4
			c0,5.16-4.25,8.31-10.85,8.31c-4.99,0-9.49-1.4-12.6-4.15l4.39-5.23c2.66,2.03,5.72,2.89,8.61,2.89c1.47,0,2.1-0.39,2.1-1.05
			v-0.07c0-0.7-0.77-1.08-3.41-1.61c-5.51-1.12-10.36-2.69-10.36-7.89v-0.07c0-4.67,3.66-8.28,10.43-8.28
			c4.74,0,8.24,1.12,11.09,3.38l-4.01,5.55c-2.31-1.68-5.09-2.42-7.37-2.42c-1.22,0-1.78,0.42-1.78,1.02v0.07
			c0,0.67,0.66,1.08,3.27,1.58c6.28,1.15,10.5,2.99,10.5,7.93v0.05H237.69z M263.53,122.27h-8.21v-8.82h-7.51v8.82h-8.21V97.68h8.21
			v8.68h7.51v-8.68h8.21V122.27z M285.83,122.73c-4.99,0-9.49-1.4-12.6-4.15l4.39-5.23c2.66,2.03,5.72,2.89,8.61,2.89
			c1.47,0,2.1-0.39,2.1-1.05v-0.07c0-0.7-0.77-1.09-3.41-1.61c-5.51-1.12-10.36-2.7-10.36-7.89v-0.09c0-4.67,3.66-8.28,10.43-8.28
			c4.74,0,8.24,1.12,11.1,3.38l-4.01,5.55c-2.31-1.68-5.09-2.42-7.37-2.42c-1.23,0-1.79,0.42-1.79,1.02v0.07
			c0,0.67,0.67,1.08,3.27,1.58c6.28,1.15,10.5,2.99,10.5,7.93v0.07C296.68,119.56,292.43,122.73,285.83,122.73z M316.19,122.27
			l-1.3-3.31h-8.59l-1.26,3.31h-8.79l10.36-24.75h8.14l10.36,24.75H316.19z M349.16,111.07c0,8.38-4.88,11.69-12.21,11.69
			c-7.33,0-12.07-3.38-12.07-11.52V97.7h8.35v13.44c0,3.06,1.57,4.36,3.8,4.36c2.22,0,3.8-1.19,3.8-4.18V97.7h8.35L349.16,111.07
			L349.16,111.07z M363.95,122.8c-6.81,0-12.74-5.13-12.74-12.74v-0.07c0-7.33,5.72-12.81,13.05-12.81c5.41,0,9.07,2.62,11.13,6.39
			l-6.77,3.97c-0.91-1.75-2.2-2.99-4.46-2.99c-2.78,0-4.6,2.42-4.6,5.37v0.07c0,3.2,1.89,5.44,4.6,5.44c2.31,0,3.62-1.26,4.64-3.1
			l6.77,3.83C373.48,119.81,370.06,122.8,363.95,122.8z M398.28,122.27h-21.14V97.68h20.96v6.74h-12.88v2.48h12.01v5.93h-12.01v2.66
			h13.06V122.27z"/>
		<polygon fill="#D9D0BE" points="308.37,113.14 312.86,113.14 310.61,107.17 		"/>
	</g>
	<g display="inline">
		<path fill="#D9D0BE" d="M166.28,136.48v36.7h164.8v-36.7H166.28z M187.51,165.88l-4.2-6.81l-1.84,2.24v4.57h-7.17v-21.46h7.17
			v8.03l6.11-8.03h8.33l-7.47,9.31l7.63,12.15H187.51z M215.13,165.88h-18.45v-21.46h18.31v5.88h-11.25v2.17h10.48v5.18h-10.48v2.33
			h11.41v5.9H215.13z M236.04,150.48h-6.32v15.38h-7.17v-15.38h-6.32v-6.07h19.79v6.07H236.04z M247.38,166.34
			c-5.95,0-11.13-4.48-11.13-11.13v-0.07c0-6.4,4.99-11.18,11.41-11.18c4.73,0,7.91,2.29,9.71,5.58l-5.91,3.47
			c-0.81-1.54-1.93-2.61-3.88-2.61c-2.42,0-4.01,2.12-4.01,4.69v0.05c0,2.78,1.66,4.76,4.01,4.76c2.03,0,3.15-1.1,4.04-2.7
			l5.92,3.34C255.73,163.73,252.72,166.34,247.38,166.34z M279.81,165.88h-7.18v-7.7h-6.56v7.7h-7.17v-21.46h7.17v7.58h6.56v-7.58
			h7.18V165.88z M303.29,156.1c0,7.33-4.25,10.2-10.67,10.2c-6.41,0-10.55-2.94-10.55-10.06v-11.83h7.3v11.74
			c0,2.66,1.38,3.8,3.31,3.8s3.31-1.05,3.31-3.64v-11.9h7.3v11.69H303.29z M324.82,152.11c0,5.18-3.95,7.94-9.75,7.94h-2.33v5.83
			h-7.18v-21.46h9.66c5.7,0,9.59,2.54,9.59,7.63L324.82,152.11L324.82,152.11z"/>
		<path fill="#D9D0BE" d="M314.7,150.15h-1.96v4.78h1.92c1.84,0,3.06-0.82,3.06-2.36v-0.07
			C317.73,150.96,316.61,150.15,314.7,150.15z"/>
	</g>
	<g display="inline">
		<polygon fill="#D9D0BE" points="340.41,394.82 338.29,400.15 342.51,400.15 		"/>
		<path fill="#D9D0BE" d="M378.39,384.28H214.03v58.43h164.36V384.28z M337.94,388.66h5.02l8,18.92h-5.58l-1.36-3.36h-7.24
			l-1.35,3.36h-5.48L337.94,388.66z M311.38,398.18c0-5.48,4.22-9.76,9.9-9.76c3.83,0,6.3,1.61,7.96,3.92l-3.92,3.03
			c-1.07-1.35-2.31-2.2-4.11-2.2c-2.62,0-4.48,2.22-4.48,4.97v0.05c0,2.82,1.85,5.02,4.48,5.02c1.96,0,3.12-0.91,4.24-2.27
			l3.92,2.78c-1.77,2.45-4.17,4.23-8.31,4.23c-5.37,0-9.7-4.11-9.7-9.71v-0.05H311.38z M303.36,388.78h5.23v18.78h-5.23V388.78z
			 M283.95,388.78h8.89c2.87,0,4.86,0.75,6.12,2.05c1.1,1.07,1.66,2.52,1.66,4.38v0.05c0,2.87-1.52,4.78-3.87,5.77l4.48,6.55h-6
			l-3.78-5.69h-0.05h-2.22v5.69h-5.2v-18.8H283.95z M266.05,388.78h15.1v4.43h-9.96v2.83h9.01v4.11h-9.01v2.98h10.1v4.43h-15.24
			V388.78z M227.92,388.66h5.02l8,18.92h-5.58l-1.37-3.36h-7.24l-1.35,3.36h-5.48L227.92,388.66z M234.36,437.11
			c-7.31,0-13.21-5.6-13.21-13.25v-0.07c0-7.47,5.74-13.32,13.51-13.32c5.23,0,8.59,2.19,10.87,5.34l-5.34,4.13
			c-1.47-1.84-3.15-2.99-5.6-2.99c-3.59,0-6.11,3.05-6.11,6.77v0.07c0,3.85,2.52,6.84,6.11,6.84c2.68,0,4.25-1.24,5.78-3.12
			l5.34,3.8C243.3,434.65,240.05,437.11,234.36,437.11z M247.87,407.57h-5.09V388.8h5.49l4.48,7.26l4.48-7.26h5.49v18.78h-5.18
			v-10.78l-4.8,7.35h-0.1l-4.78-7.3L247.87,407.57L247.87,407.57z M272.06,436.59h-7.11v-9.73h-9.12v9.73h-7.1v-25.62h7.1v9.59h9.12
			v-9.59h7.11V436.59z M297.38,436.59h-20.79v-25.62h20.6v6.04H283.6v3.89h12.3v5.6h-12.3v4.06h13.76v6.04H297.38z M321.77,436.59
			H301v-25.62h20.6v6.04h-13.58v3.89h12.3v5.6h-12.3v4.06h13.76L321.77,436.59L321.77,436.59z M345.82,428.7
			c0,5.23-4.13,8.35-10.36,8.35c-4.53,0-8.86-1.44-12.01-4.25l3.95-4.72c2.52,2.01,5.34,3.08,8.31,3.08c1.91,0,2.92-0.67,2.92-1.75
			v-0.07c0-1.07-0.84-1.64-4.32-2.45c-5.44-1.24-9.66-2.78-9.66-8.05v-0.07c0-4.76,3.76-8.19,9.92-8.19c4.36,0,7.75,1.17,10.54,3.39
			l-3.55,5.01c-2.35-1.64-4.9-2.52-7.18-2.52c-1.71,0-2.56,0.73-2.56,1.64v0.07c0,1.17,0.88,1.68,4.43,2.49
			c5.9,1.28,9.56,3.18,9.56,7.98L345.82,428.7L345.82,428.7z M370.04,436.59h-20.79v-25.62h20.6v6.04h-13.58v3.89h12.3v5.6h-12.3
			v4.06h13.76v6.04H370.04z M370.51,407.57h-4.57l-8.02-10.31v10.31h-5.14V388.8h4.86l7.72,9.92v-9.92h5.15V407.57z"/>
		<polygon fill="#D9D0BE" points="230.39,394.82 228.27,400.15 232.49,400.15 		"/>
		<path fill="#D9D0BE" d="M295.38,395.57v-0.05c0-1.47-1.07-2.22-2.82-2.22h-3.41v4.52h3.43
			C294.37,397.79,295.38,396.93,295.38,395.57z"/>
	</g>
	<g display="inline">
		<path fill="#D9D0BE" d="M171.36,228.43H391.9v-49.7H171.36V228.43z M352.71,188.84h23.26v6.83h-15.33v4.38h13.88v6.32h-13.88v4.58
			h15.54v6.83h-23.47V188.84z M321.56,203.3c0-8.43,6.49-15.05,15.24-15.05c5.92,0,9.71,2.49,12.27,6.04l-6.04,4.67
			c-1.64-2.07-3.55-3.4-6.32-3.4c-4.04,0-6.89,3.43-6.89,7.65v0.09c0,4.34,2.85,7.74,6.89,7.74c3.01,0,4.8-1.4,6.53-3.52l6.04,4.31
			c-2.73,3.76-6.4,6.53-12.81,6.53c-8.26,0-14.91-6.32-14.91-14.96L321.56,203.3L321.56,203.3z M290.85,188.84h8.14v16.08
			c0,4.16,2.12,6.16,5.34,6.16s5.34-1.91,5.34-5.95v-16.28h8.14v16.03c0,9.35-5.34,13.42-13.56,13.42
			c-8.23,0-13.39-4.16-13.39-13.23V188.84z M262.34,188.84h25.38v7.02h-8.68v21.91h-8.02v-21.91h-8.68L262.34,188.84L262.34,188.84z
			 M235.08,188.84h25.38v7.02h-8.68v21.91h-8.01v-21.91h-8.68L235.08,188.84L235.08,188.84z M209.12,188.84h23.26v6.83h-15.33v4.38
			h13.88v6.32h-13.88v4.58h15.54v6.83h-23.47V188.84z M183.66,188.84h8.01v21.91h14.02v7.02h-22.03V188.84z"/>
	</g>
	<g display="inline">
		<path fill="#D9D0BE" d="M313.27,315.81c3.38,0,5.62-2.71,5.62-5.9v-0.07c0-3.18-2.31-5.97-5.69-5.97c-3.34,0-5.58,2.71-5.58,5.9
			v0.07C307.61,313.02,309.93,315.81,313.27,315.81z"/>
		<path fill="#D9D0BE" d="M217.53,315.81c3.38,0,5.62-2.71,5.62-5.9v-0.07c0-3.18-2.31-5.97-5.69-5.97c-3.34,0-5.58,2.71-5.58,5.9
			v0.07C211.87,313.02,214.18,315.81,217.53,315.81z"/>
		<polygon fill="#D9D0BE" points="270.52,305.9 268.01,312.17 272.96,312.17 		"/>
		<path fill="#D9D0BE" d="M170.66,329.02H339.1v-37.96H170.66V329.02z M301.33,309.84c0-6.35,5.11-11.48,11.93-11.48
			c6.82,0,11.86,5.07,11.86,11.43v0.07c0,6.35-5.11,11.48-11.93,11.48s-11.86-5.07-11.86-11.43V309.84z M280.98,298.8h19.37v5.37
			h-6.63v16.73h-6.12v-16.73h-6.63v-5.37H280.98z M267.61,298.64h5.9l9.4,22.24h-6.56l-1.61-3.94h-8.52l-1.57,3.94h-6.44
			L267.61,298.64z M232.57,298.8h6.48l5.27,8.56l5.27-8.56h6.48v22.08h-6.09v-12.69l-5.65,8.64h-0.12l-5.62-8.59v12.62h-6
			L232.57,298.8L232.57,298.8z M205.59,309.84c0-6.35,5.11-11.48,11.93-11.48c6.82,0,11.86,5.07,11.86,11.43v0.07
			c0,6.35-5.11,11.48-11.93,11.48s-11.86-5.07-11.86-11.43V309.84z M185.24,298.8h19.37v5.37h-6.63v16.73h-6.12v-16.73h-6.63v-5.37
			H185.24z"/>
	</g>
	<g display="inline">
		<path fill="#D9D0BE" d="M417.32,234.03H217.05v50.01h200.27V234.03z M264.43,259.82c0,10.66-8.59,19.29-20.04,19.29
			c-11.44,0-19.92-8.52-19.92-19.18v-0.1c0-10.66,8.59-19.29,20.04-19.29c11.44,0,19.93,8.54,19.93,19.18v0.11H264.43z
			 M304.8,278.35h-9.01L279.95,258v20.35h-10.17v-37.1h9.59l15.26,19.6v-19.6h10.17V278.35z M321.91,278.35h-10.33v-37.1h10.33
			V278.35z M367.38,259.82c0,10.66-8.59,19.29-20.04,19.29s-19.93-8.52-19.93-19.18v-0.1c0-10.66,8.59-19.29,20.04-19.29
			c11.45,0,19.92,8.54,19.92,19.18v0.11H367.38z M407.75,278.35h-9.01L382.9,258v20.35h-10.17v-37.1h9.59l15.26,19.6v-19.6h10.17
			V278.35z"/>
		<path fill="#D9D0BE" d="M244.39,249.8c-5.62,0-9.38,4.55-9.38,9.9v0.11c0,5.35,3.87,10.01,9.49,10.01c5.67,0,9.43-4.55,9.43-9.9
			v-0.1C253.93,254.47,250.06,249.8,244.39,249.8z"/>
		<path fill="#D9D0BE" d="M347.34,249.8c-5.62,0-9.38,4.55-9.38,9.9v0.11c0,5.35,3.87,10.01,9.48,10.01c5.67,0,9.43-4.55,9.43-9.9
			v-0.1C356.88,254.47,353.01,249.8,347.34,249.8z"/>
	</g>
	<g display="inline">
		<path fill="#D9D0BE" d="M176.93,335.53v42.26h208.76v-42.26H176.93z M212.54,352.1c0,7.38-5.69,11.29-13.47,11.29h-4.3v8.96h-8.68
			V341h13.44c7.93,0,13.02,4.08,13.02,11.01L212.54,352.1L212.54,352.1z M225.12,372.33h-8.73v-31.34h8.73V372.33z M245.94,372.96
			c-8.96,0-16.17-6.84-16.17-16.2v-0.09c0-9.13,7.04-16.29,16.52-16.29c6.4,0,10.52,2.68,13.3,6.55l-6.53,5.06
			c-1.79-2.24-3.85-3.68-6.84-3.68c-4.39,0-7.47,3.71-7.47,8.28v0.09c0,4.71,3.1,8.37,7.47,8.37c3.27,0,5.2-1.52,7.07-3.8l6.55,4.66
			C256.86,369.97,252.89,372.96,245.94,372.96z M283.29,372.33l-7.88-11.64l-3.19,3.54v8.1h-8.68v-31.34h8.68v12.72l10.8-12.72
			h10.29l-11.86,13.47l12.27,17.87L283.29,372.33L283.29,372.33z M320.09,372.33h-23.85v-31.34h8.68v23.73h15.17V372.33z
			 M349.23,372.33H323.8v-31.34H349v7.39h-16.61v4.74h15.05v6.84h-15.05v4.97h16.83V372.33L349.23,372.33z M378.65,362.67
			c0,6.4-5.06,10.2-12.67,10.2c-5.55,0-10.83-1.75-14.68-5.2l4.83-5.78c3.08,2.47,6.55,3.76,10.17,3.76c2.33,0,3.59-0.81,3.59-2.15
			v-0.09c0-1.29-1.03-2.01-5.29-2.99c-6.67-1.52-11.81-3.4-11.81-9.85v-0.09c0-5.83,4.62-10.03,12.13-10.03
			c5.34,0,9.49,1.44,12.9,4.17l-4.34,6.12c-2.87-2.01-6-3.1-8.77-3.1c-2.1,0-3.13,0.89-3.13,2.01v0.09c0,1.44,1.07,2.06,5.43,3.05
			c7.21,1.57,11.69,3.9,11.69,9.77v0.11H378.65z"/>
		<path fill="#D9D0BE" d="M198.85,348.29h-4.08v8.28h4.11c3.1,0,4.97-1.61,4.97-4.08v-0.09
			C203.86,349.72,201.99,348.29,198.85,348.29z"/>
	</g>
	<g display="inline">
		<path fill="#BABABA" d="M432.65,449.42H130.48v44.49h302.17V449.42z M164.24,476.6c0,4.67-3.69,7.44-9.26,7.44
			c-4.06,0-7.93-1.28-10.74-3.78l3.53-4.22c2.26,1.8,4.78,2.75,7.44,2.75c1.7,0,2.62-0.6,2.62-1.57v-0.05
			c0-0.95-0.75-1.47-3.87-2.19c-4.88-1.1-8.65-2.49-8.65-7.19v-0.07c0-4.25,3.38-7.32,8.87-7.32c3.9,0,6.95,1.05,9.43,3.04
			l-3.17,4.48c-2.1-1.47-4.39-2.26-6.42-2.26c-1.54,0-2.29,0.67-2.29,1.47v0.07c0,1.05,0.79,1.5,3.96,2.22
			c5.27,1.15,8.54,2.83,8.54,7.12V476.6z M192.24,483.65h-6.32v-13.12l-5.86,8.96h-0.14l-5.83-8.87v13.05h-6.23v-22.89h6.72
			l5.48,8.86l5.46-8.86h6.72L192.24,483.65L192.24,483.65z M213.55,483.65l-1.66-4.08h-8.84l-1.63,4.08h-6.69l9.75-23.03h6.12
			l9.75,23.03H213.55z M241.4,476.6c0,4.67-3.69,7.44-9.28,7.44c-4.06,0-7.93-1.28-10.74-3.78l3.54-4.22
			c2.26,1.8,4.78,2.75,7.44,2.75c1.7,0,2.62-0.6,2.62-1.57v-0.05c0-0.95-0.75-1.47-3.87-2.19c-4.88-1.1-8.65-2.49-8.65-7.19v-0.07
			c0-4.25,3.38-7.32,8.87-7.32c3.9,0,6.95,1.05,9.43,3.04l-3.17,4.48c-2.1-1.47-4.39-2.26-6.42-2.26c-1.54,0-2.29,0.67-2.29,1.47
			v0.07c0,1.05,0.79,1.5,3.97,2.22c5.27,1.15,8.54,2.83,8.54,7.12L241.4,476.6L241.4,476.6z M265.9,483.65h-6.35v-8.68h-8.15v8.68
			h-6.35v-22.87h6.35v8.56h8.15v-8.56h6.35V483.65z M291.2,477.33c0,3.92-3.2,6.3-8.68,6.3h-11.83v-22.86h11.76
			c2.89,0,4.92,0.72,6.25,2.05c0.91,0.93,1.47,2.12,1.47,3.69v0.07c0,2.64-1.5,4.2-3.54,5.09c2.78,0.93,4.55,2.49,4.55,5.58v0.07
			H291.2z M315.75,473.46c0,7.39-4.22,10.61-10.75,10.61s-10.6-3.31-10.6-10.45v-12.83h6.46v12.71c0,3.31,1.66,4.87,4.22,4.87
			c2.55,0,4.22-1.5,4.22-4.71v-12.86h6.46V473.46L315.75,473.46z M334.09,483.65l-4.62-6.91h-0.07h-2.71v6.91h-6.35v-22.87h10.85
			c3.5,0,5.92,0.91,7.45,2.49c1.35,1.31,2.03,3.08,2.03,5.32v0.07c0,3.5-1.87,5.81-4.72,7.02l5.46,7.96h-7.32V483.65z
			 M365.63,480.57c-2.43,2-5.79,3.53-9.96,3.53c-7.14,0-12.48-4.9-12.48-11.83v-0.07c0-6.67,5.23-11.88,12.34-11.88
			c4.03,0,6.88,1.24,9.29,3.32l-3.73,4.48c-1.65-1.36-3.27-2.15-5.53-2.15c-3.31,0-5.86,2.76-5.86,6.26v0.07
			c0,3.69,2.59,6.33,6.21,6.33c1.54,0,2.71-0.33,3.68-0.95v-2.78h-4.52v-4.62h10.54v10.27H365.63z M388.59,483.65h-18.6v-22.87
			h18.43v5.39h-12.15v3.47h11.01v4.99h-11.01v3.64h12.32L388.59,483.65L388.59,483.65z M406.52,483.65l-4.62-6.91h-0.07h-2.71v6.91
			h-6.35v-22.87h10.85c3.5,0,5.92,0.91,7.45,2.49c1.35,1.31,2.03,3.08,2.03,5.32v0.07c0,3.5-1.87,5.81-4.71,7.02l5.46,7.96h-7.33
			V483.65z"/>
		<path fill="#BABABA" d="M330.85,466.27h-4.15v5.49h4.18c2.15,0,3.41-1.05,3.41-2.71v-0.07
			C334.29,467.18,332.97,466.27,330.85,466.27z"/>
		<path fill="#BABABA" d="M403.27,466.27h-4.17v5.49h4.2c2.15,0,3.41-1.05,3.41-2.71v-0.07
			C406.72,467.18,405.4,466.27,403.27,466.27z"/>
		<path fill="#BABABA" d="M281.73,474.34h-4.85v4.22h4.92c1.93,0,3.05-0.75,3.05-2.1v-0.07
			C284.85,475.14,283.87,474.34,281.73,474.34z"/>
		<path fill="#BABABA" d="M283.9,467.9v-0.07c0-1.24-0.98-1.96-2.89-1.96h-4.13v4.02h3.99C282.82,469.89,283.9,469.25,283.9,467.9z"
			/>
		<polygon fill="#BABABA" points="204.91,474.62 210.05,474.62 207.5,468.12 		"/>
	</g>
</g>
<g display="none">
	<path display="inline" fill="#492E1E" d="M313.3,18.36l-19.44,24.25c-0.88,1.09-2.17,1.66-3.45,1.66c-0.96,0-1.94-0.31-2.75-0.96
		c-1.91-1.52-2.22-4.29-0.7-6.19l16.5-20.6c-4.67-0.72-9.47-1.24-14.37-1.56l-21.35,26.62c-0.88,1.08-2.15,1.66-3.45,1.66
		c-0.96,0-1.94-0.31-2.75-0.96c-1.91-1.52-2.22-4.29-0.68-6.19l17.22-21.47c-57.99,0.04-104.98,29.26-104.98,65.31H383.3
		C383.27,51.5,354.08,27.33,313.3,18.36z"/>
	<g display="inline">
		<path fill="#BAB9B9" d="M432.02,450.57H127.17v44.87h304.85V450.57z M161.21,478.01c0,4.71-3.73,7.51-9.35,7.51
			c-4.09,0-8-1.28-10.83-3.82l3.57-4.25c2.28,1.82,4.81,2.76,7.51,2.76c1.71,0,2.64-0.6,2.64-1.59v-0.05c0-0.96-0.75-1.49-3.9-2.21
			c-4.92-1.12-8.71-2.5-8.71-7.25v-0.07c0-4.29,3.41-7.38,8.96-7.38c3.94,0,7,1.05,9.5,3.06l-3.2,4.51
			c-2.12-1.49-4.43-2.27-6.47-2.27c-1.56,0-2.31,0.67-2.31,1.49v0.07c0,1.05,0.79,1.5,3.99,2.24c5.32,1.16,8.63,2.87,8.63,7.18v0.07
			H161.21z M189.47,485.12h-6.37v-13.25l-5.91,9.03h-0.14l-5.88-8.96v13.18h-6.28v-23.07h6.77l5.51,8.93l5.51-8.93h6.77v23.07
			H189.47z M210.96,485.12l-1.68-4.11h-8.92l-1.65,4.11h-6.74l9.84-23.22h6.18l9.83,23.22H210.96z M239.05,478.01
			c0,4.71-3.73,7.51-9.35,7.51c-4.1,0-8-1.28-10.83-3.82l3.57-4.25c2.27,1.82,4.83,2.76,7.51,2.76c1.71,0,2.64-0.6,2.64-1.59v-0.05
			c0-0.96-0.75-1.49-3.9-2.21c-4.92-1.12-8.72-2.5-8.72-7.25v-0.07c0-4.29,3.4-7.38,8.94-7.38c3.94,0,7,1.05,9.52,3.06l-3.2,4.51
			c-2.12-1.49-4.43-2.27-6.47-2.27c-1.54,0-2.31,0.67-2.31,1.49v0.07c0,1.05,0.79,1.5,4.01,2.24c5.32,1.16,8.63,2.87,8.63,7.18v0.07
			H239.05z M263.78,485.12h-6.4v-8.77h-8.23v8.77h-6.4v-23.07h6.4v8.65h8.23v-8.65h6.4V485.12z M289.31,478.75
			c0,3.96-3.24,6.35-8.75,6.35h-11.93v-23.07h11.86c2.91,0,4.95,0.72,6.3,2.08c0.93,0.93,1.49,2.15,1.49,3.73v0.07
			c0,2.66-1.51,4.24-3.57,5.13c2.82,0.93,4.6,2.5,4.6,5.64L289.31,478.75L289.31,478.75z M314.07,474.85
			c0,7.44-4.27,10.71-10.83,10.71c-6.58,0-10.71-3.33-10.71-10.55v-12.95h6.51v12.81c0,3.32,1.68,4.92,4.25,4.92
			c2.57,0,4.27-1.5,4.27-4.74v-12.99h6.51V474.85z M332.59,485.12l-4.65-6.98h-0.07h-2.75v6.98h-6.4v-23.07h10.94
			c3.54,0,5.97,0.93,7.52,2.5c1.35,1.33,2.05,3.11,2.05,5.37V470c0,3.52-1.89,5.86-4.76,7.09l5.51,8.03H332.59z M364.39,482.02
			c-2.45,2.01-5.85,3.55-10.05,3.55c-7.19,0-12.58-4.94-12.58-11.94v-0.07c0-6.72,5.29-11.99,12.46-11.99
			c4.06,0,6.93,1.24,9.38,3.36l-3.76,4.51c-1.64-1.38-3.31-2.17-5.58-2.17c-3.33,0-5.92,2.8-5.92,6.33v0.07
			c0,3.73,2.61,6.39,6.28,6.39c1.56,0,2.75-0.33,3.71-0.95v-2.82h-4.57v-4.67h10.64v10.38H364.39z M387.56,485.12H368.8v-23.07h18.6
			v5.44h-12.25v3.48h11.1v5.04h-11.1v3.68h12.43v5.43H387.56z M405.65,485.12l-4.65-6.98h-0.07h-2.75v6.98h-6.4v-23.07h10.94
			c3.54,0,5.97,0.93,7.52,2.5c1.35,1.33,2.05,3.11,2.05,5.37V470c0,3.52-1.89,5.86-4.76,7.09l5.51,8.03H405.65z"/>
		<path fill="#BAB9B9" d="M329.32,467.58h-4.2v5.53h4.22c2.19,0,3.43-1.05,3.43-2.73v-0.07
			C332.78,468.51,331.45,467.58,329.32,467.58z"/>
		<path fill="#BAB9B9" d="M402.38,467.58h-4.2v5.53h4.24c2.17,0,3.43-1.05,3.43-2.73v-0.07
			C405.84,468.51,404.53,467.58,402.38,467.58z"/>
		<path fill="#BAB9B9" d="M279.76,475.72h-4.88v4.25h4.95c1.94,0,3.06-0.77,3.06-2.12v-0.07
			C282.89,476.54,281.91,475.72,279.76,475.72z"/>
		<path fill="#BAB9B9" d="M281.94,469.23v-0.07c0-1.24-0.98-1.98-2.9-1.98h-4.17v4.06h4.02
			C280.84,471.24,281.94,470.57,281.94,469.23z"/>
		<polygon fill="#BAB9B9" points="202.25,476.02 207.43,476.02 204.85,469.46 		"/>
	</g>
	<g display="inline">
		<path fill="#492E1E" d="M378.51,537.34v-35.07H167.95v35.07c0,4.45,3.62,8.05,8.08,8.05h194.43
			C374.9,545.39,378.51,541.8,378.51,537.34z"/>
	</g>
	<g display="inline">
		<path fill="#D9D0BE" d="M268.8,421.38h-0.98v7.35h0.98c2.69,0,4.43-1.1,4.43-3.66v-0.05C273.23,422.5,271.49,421.38,268.8,421.38z
			"/>
		<polygon fill="#D9D0BE" points="185.68,427.33 188.9,427.33 187.28,423.05 		"/>
		<path fill="#D9D0BE" d="M289.26,421.19h-2.57v3.45h2.54c1.42,0,2.28-0.63,2.28-1.71v-0.05
			C291.5,421.73,290.62,421.19,289.26,421.19z"/>
		<path fill="#D9D0BE" d="M169.35,421.19h-2.57v3.45h2.54c1.42,0,2.28-0.63,2.28-1.71v-0.05
			C171.59,421.73,170.7,421.19,169.35,421.19z"/>
		<path fill="#D9D0BE" d="M151.76,406.73v36.65h251.12v-36.65H151.76z M191.29,433.88l-0.93-2.36h-6.18l-0.91,2.36h-5.2h-1.1h-5.62
			l-3.33-5.04h-1.26v5.04h-5.9v-17.64h8.61c3.13,0,5.11,0.79,6.35,2.01c1.05,1.05,1.61,2.36,1.61,4.18v0.05
			c0,2.57-1.33,4.36-3.48,5.39l3.41,4.99l7.02-16.77h5.85l7.44,17.76h-6.39V433.88z M216.07,433.88h-5.25l-6.54-8.14v8.14h-5.85
			v-17.64h5.51l6.28,7.79v-7.79h5.85V433.88z M226.83,434.26c-4.88,0-9.15-3.68-9.15-9.15v-0.05c0-5.27,4.11-9.2,9.38-9.2
			c3.89,0,6.51,1.89,8,4.58l-4.86,2.85c-0.65-1.26-1.59-2.14-3.2-2.14c-2,0-3.31,1.73-3.31,3.85v0.05c0,2.29,1.37,3.9,3.31,3.9
			c1.66,0,2.59-0.91,3.32-2.22l4.86,2.75C233.68,432.13,231.21,434.26,226.83,434.26z M253.49,433.88h-5.9v-6.32h-5.39v6.32h-5.9
			v-17.64h5.9v6.23h5.39v-6.23h5.9V433.88z M279.18,424.97c0,5.21-3.57,8.93-10.71,8.93h-6.55v-17.64h6.76c7,0,10.5,3.45,10.5,8.66
			V424.97z M291.27,433.88l-3.33-5.04h-1.26v5.04h-5.9v-17.64h8.61c3.13,0,5.11,0.79,6.35,2.01c1.07,1.05,1.61,2.36,1.61,4.18v0.05
			c0,2.57-1.33,4.36-3.48,5.39l4.11,6L291.27,433.88L291.27,433.88z M313.98,433.88h-15.17v-17.64h15.05v4.83h-9.24v1.79h8.63v4.25
			h-8.63v1.91H314v4.87H313.98z M323.15,434.21c-3.57,0-6.81-1.02-9.05-2.98l3.15-3.76c1.91,1.45,4.11,2.07,6.18,2.07
			c1.05,0,1.51-0.28,1.51-0.75v-0.04c0-0.51-0.56-0.79-2.45-1.15c-3.95-0.81-7.44-1.94-7.44-5.67v-0.05c0-3.36,2.62-5.95,7.49-5.95
			c3.4,0,5.92,0.81,7.96,2.42l-2.87,3.99c-1.66-1.21-3.66-1.73-5.29-1.73c-0.88,0-1.28,0.3-1.28,0.73v0.05
			c0,0.47,0.47,0.79,2.34,1.14c4.52,0.84,7.54,2.13,7.54,5.69v0.05C330.94,431.95,327.9,434.21,323.15,434.21z M347.43,428.24
			c0,3.71-3.05,5.97-7.79,5.97c-3.57,0-6.81-1.02-9.05-2.98l3.15-3.76c1.91,1.45,4.11,2.07,6.18,2.07c1.05,0,1.51-0.28,1.51-0.75
			v-0.04c0-0.51-0.56-0.79-2.45-1.15c-3.96-0.81-7.44-1.94-7.44-5.67v-0.05c0-3.36,2.62-5.95,7.49-5.95c3.39,0,5.92,0.81,7.96,2.42
			l-2.87,3.99c-1.66-1.21-3.66-1.73-5.29-1.73c-0.88,0-1.28,0.3-1.28,0.73v0.05c0,0.47,0.47,0.79,2.35,1.14
			c4.51,0.84,7.54,2.13,7.54,5.69v0.04H347.43z M354.74,433.88h-5.9v-17.64h5.9V433.88z M374.45,433.88h-5.25l-6.55-8.14v8.14h-5.85
			v-17.64h5.51l6.28,7.79v-7.79h5.85L374.45,433.88L374.45,433.88z M393.75,431.62c-1.91,1.56-4.58,2.64-7.79,2.64
			c-5.49,0-9.9-3.68-9.9-9.15v-0.05c0-5.27,4.17-9.2,9.73-9.2c3.03,0,5.48,1.02,7.38,2.68l-3.31,3.99c-1.15-0.98-2.45-1.54-3.9-1.54
			c-2.29,0-3.95,1.77-3.95,4.17v0.05c0,2.5,1.73,4.2,4.2,4.2c1.01,0,1.56-0.16,2.01-0.4v-1.77h-3.03v-3.78h8.56V431.62z"/>
	</g>
	<g display="inline">
		<polygon fill="#D9D0BE" points="267.45,288.17 271.27,288.17 269.36,283.11 		"/>
		<polygon fill="#D9D0BE" points="179.69,288.17 183.49,288.17 181.6,283.11 		"/>
		<path fill="#D9D0BE" d="M159.86,223.9v86.96h176.8V223.9H159.86z M293.98,239h10.68v11.27h9.76V239h10.68v31.92h-10.68v-11.44
			h-9.76v11.44h-10.68V239z M276.26,259.51c-7.16-1.45-13.46-3.52-13.46-10.25v-0.09c0-6.07,4.74-10.76,13.55-10.76
			c6.16,0,10.71,1.45,14.4,4.38l-5.2,7.21c-3.01-2.19-6.61-3.15-9.57-3.15c-1.59,0-2.33,0.54-2.33,1.33v0.09
			c0,0.88,0.88,1.42,4.23,2.05c8.16,1.5,13.63,3.87,13.63,10.31v0.09c0,6.7-5.51,10.81-14.09,10.81c-6.47,0-12.32-1.82-16.36-5.37
			l5.7-6.79c3.46,2.64,7.44,3.74,11.17,3.74c1.91,0,2.73-0.51,2.73-1.36v-0.09C280.68,260.7,279.67,260.21,276.26,259.51z
			 M233.4,239h27.23v8.75H243.9v3.24h15.59v7.7H243.9v3.46h16.96v8.75H233.4V239z M200.79,239h15.59c5.65,0,9.26,1.42,11.5,3.64
			c1.91,1.91,2.92,4.29,2.92,7.58v0.09c0,4.66-2.42,7.89-6.3,9.77l7.44,10.85h-12.18l-6.02-9.12h-2.27v9.12h-10.68L200.79,239
			L200.79,239z M171.57,239h26.72v9.12h-16.05v4.06h14.91v8.29h-14.91v10.45h-10.67V239z M186.32,295.91l-1.1-2.8h-7.3l-1.07,2.8
			h-7.44l8.78-20.98h6.91l8.79,20.98H186.32z M198.71,296.07l-8.45-20.98h7.8l4.04,11.71l4.04-11.71h7.68l-8.45,20.98H198.71z
			 M235.64,285.49c0,6.04-4.97,10.87-11.41,10.87c-6.42,0-11.34-4.76-11.34-10.82v-0.05c0-6.04,4.97-10.87,11.41-10.87
			c6.42,0,11.34,4.76,11.34,10.82L235.64,285.49L235.64,285.49z M247.87,296.36c-5.77,0-10.81-4.34-10.81-10.82v-0.05
			c0-6.23,4.85-10.87,11.08-10.87c4.58,0,7.68,2.24,9.43,5.43l-5.74,3.36c-0.77-1.49-1.87-2.54-3.78-2.54c-2.35,0-3.9,2.05-3.9,4.55
			v0.05c0,2.71,1.61,4.62,3.9,4.62c1.96,0,3.06-1.07,3.94-2.62l5.74,3.24C255.97,293.82,253.05,296.36,247.87,296.36z M274.1,295.91
			l-1.1-2.8h-7.3l-1.07,2.8h-7.44l8.79-20.98h6.91l8.79,20.98H274.1z M302.93,285.37c0,6.16-4.24,10.54-12.65,10.54h-7.73v-20.84
			h7.96c8.28,0,12.41,4.08,12.41,10.24v0.07H302.93z M327.09,285.49c0,6.04-4.97,10.87-11.41,10.87c-6.42,0-11.34-4.76-11.34-10.82
			v-0.05c0-6.04,4.97-10.87,11.41-10.87c6.42,0,11.34,4.76,11.34,10.82V285.49z"/>
		<path fill="#D9D0BE" d="M220.17,251.07v-0.09c0-2.05-1.59-3.06-4.06-3.06h-4.66v6.25h4.6
			C218.63,254.19,220.17,253.03,220.17,251.07z"/>
		<path fill="#D9D0BE" d="M224.23,280.79c-2.64,0-4.32,2.2-4.32,4.64v0.05c0,2.47,1.7,4.71,4.38,4.71c2.64,0,4.32-2.21,4.32-4.64
			v-0.05C228.6,283.03,226.9,280.79,224.23,280.79z"/>
		<path fill="#D9D0BE" d="M315.7,280.79c-2.64,0-4.32,2.2-4.32,4.64v0.05c0,2.47,1.7,4.71,4.38,4.71c2.64,0,4.32-2.21,4.32-4.64
			v-0.05C320.07,283.03,318.38,280.79,315.7,280.79z"/>
		<path fill="#D9D0BE" d="M290.66,281.15h-1.15v8.7h1.15c3.18,0,5.23-1.31,5.23-4.32v-0.05
			C295.89,282.45,293.84,281.15,290.66,281.15z"/>
	</g>
	<g display="inline">
		<path fill="#D9D0BE" d="M323.23,334.21v-0.04c0-2.2-1.52-3.48-3.8-3.48h-1.56v7h1.56C321.72,337.68,323.23,336.42,323.23,334.21z"
			/>
		<path fill="#D9D0BE" d="M304.69,337.91c2.1,0,3.5-1.7,3.5-3.68v-0.04c0-1.98-1.44-3.71-3.54-3.71c-2.08,0-3.48,1.7-3.48,3.68v0.04
			C301.18,336.18,302.61,337.91,304.69,337.91z"/>
		<path fill="#D9D0BE" d="M184.94,400.3h247.89v-82.16H184.94V400.3z M272.14,389.2l-3.17-7.75h-16.75l-3.1,7.75h-12.65l18.48-43.73
			h11.6l18.48,43.73H272.14z M307.35,390.06c-12.41,0-22.4-9.48-22.4-22.45v-0.12c0-12.65,9.75-22.57,22.89-22.57
			c8.87,0,14.58,3.73,18.43,9.05l-9.07,7.02c-2.48-3.1-5.34-5.09-9.48-5.09c-6.07,0-10.36,5.14-10.36,11.48v0.12
			c0,6.51,4.29,11.6,10.36,11.6c4.53,0,7.19-2.12,9.8-5.27l9.07,6.46C322.49,385.91,316.98,390.06,307.35,390.06z M410.76,327.3h5.3
			c4.92,0,7.77,2.83,7.77,6.81v0.04c0,3.97-2.89,6.91-7.84,6.91h-5.23V327.3z M397.65,327.3h11.06v3.24h-7.3v2.08h6.6v3.01h-6.6
			v2.19h7.39v3.24h-11.17V327.3H397.65z M383.32,327.3h3.82v5.58l4.74-5.58h4.51l-5.21,5.92l5.39,7.84h-4.58l-3.46-5.11l-1.4,1.56
			v3.55h-3.82V327.3H383.32z M382.04,345.77h11.24l17.87,22.94v-22.94h11.92v43.42h-10.55l-18.55-23.82v23.82h-11.92V345.77z
			 M366.52,334.18c0-3.95,3.18-7.16,7.44-7.16c4.25,0,7.38,3.17,7.38,7.12v0.04c0,3.95-3.18,7.16-7.44,7.16
			c-4.25,0-7.38-3.17-7.38-7.12V334.18z M349.93,327.3h4.02l3.29,5.32l3.29-5.32h4.02v13.76h-3.8v-7.91l-3.52,5.39h-0.09l-3.5-5.36
			v7.86h-3.73L349.93,327.3L349.93,327.3z M341.92,335.84c-2.92-0.67-5.2-1.49-5.2-4.32v-0.04c0-2.55,2.03-4.41,5.32-4.41
			c2.34,0,4.17,0.63,5.67,1.82l-1.91,2.69c-1.26-0.89-2.64-1.35-3.85-1.35c-0.93,0-1.38,0.39-1.38,0.89v0.04
			c0,0.63,0.47,0.91,2.38,1.33c3.17,0.68,5.13,1.71,5.13,4.29v0.04c0,2.82-2.22,4.48-5.56,4.48c-2.43,0-4.76-0.77-6.44-2.27
			l2.12-2.54c1.35,1.09,2.87,1.65,4.46,1.65c1.02,0,1.57-0.35,1.57-0.94v-0.04C344.24,336.58,343.79,336.28,341.92,335.84z
			 M352.45,344.91c13.4,0,23.33,9.99,23.33,22.45v0.12c0,12.46-10.05,22.57-23.45,22.57c-13.41,0-23.33-9.99-23.33-22.45v-0.12
			C329,355.02,339.05,344.91,352.45,344.91z M328.67,333.29h6.44v3.29h-6.44V333.29z M314.07,327.3h5.3c4.92,0,7.77,2.83,7.77,6.81
			v0.04c0,3.97-2.89,6.91-7.84,6.91h-5.23V327.3z M297.27,334.18c0-3.95,3.19-7.16,7.44-7.16s7.39,3.17,7.39,7.12v0.04
			c0,3.95-3.19,7.16-7.44,7.16c-4.25,0-7.39-3.17-7.39-7.12V334.18z M280.94,334.18c0-3.95,3.19-7.16,7.44-7.16
			c4.25,0,7.39,3.17,7.39,7.12v0.04c0,3.95-3.18,7.16-7.44,7.16c-4.25,0-7.39-3.17-7.39-7.12V334.18z M263.36,327.3l2.4,7.96l2.66-8
			h3.29l2.66,8l2.4-7.96h3.95l-4.6,13.86h-3.32l-2.77-7.93l-2.75,7.93h-3.32l-4.6-13.86H263.36z M247.15,327.3h11.06v3.24h-7.3v2.08
			h6.6v3.01h-6.6v2.19h7.39v3.24h-11.17V327.3H247.15z M235.04,327.3h3.81v10.41h6.67v3.34h-10.48L235.04,327.3L235.04,327.3z
			 M234.43,377.21c0,7.44-6.07,11.97-16.43,11.97h-22.4v-43.42h22.26c5.46,0,9.31,1.36,11.85,3.9c1.73,1.73,2.8,4.03,2.8,7.02v0.12
			c0,5.02-2.85,8-6.7,9.68c5.27,1.73,8.63,4.71,8.63,10.61V377.21z M221.81,327.3h5.9c3.48,0,5.72,1.79,5.72,4.83v0.04
			c0,3.24-2.5,4.95-5.92,4.95h-1.89v3.94h-3.82L221.81,327.3L221.81,327.3z M208.6,327.3h5.9c3.48,0,5.72,1.79,5.72,4.83v0.04
			c0,3.24-2.5,4.95-5.92,4.95h-1.89v3.94h-3.82V327.3z M197.73,327.21h3.68l5.86,13.86h-4.09l-1-2.45h-5.3l-0.98,2.45h-4.01
			L197.73,327.21z"/>
		<path fill="#D9D0BE" d="M288.36,337.91c2.1,0,3.5-1.7,3.5-3.68v-0.04c0-1.98-1.43-3.71-3.54-3.71c-2.08,0-3.48,1.7-3.48,3.68v0.04
			C284.85,336.18,286.28,337.91,288.36,337.91z"/>
		<polygon fill="#D9D0BE" points="255.76,372.07 265.51,372.07 260.66,359.73 		"/>
		<polygon fill="#D9D0BE" points="199.53,331.73 197.98,335.65 201.07,335.65 		"/>
		<path fill="#D9D0BE" d="M229.62,332.36v-0.04c0-1.17-0.82-1.8-2.2-1.8h-1.79v3.64h1.8C228.8,334.15,229.62,333.44,229.62,332.36z"
			/>
		<path fill="#D9D0BE" d="M220.6,359.29v-0.12c0-2.36-1.85-3.73-5.46-3.73h-7.82v7.63h7.56C218.56,363.07,220.6,361.83,220.6,359.29
			z"/>
		<path fill="#D9D0BE" d="M373.94,337.91c2.1,0,3.5-1.7,3.5-3.68v-0.04c0-1.98-1.44-3.71-3.54-3.71c-2.08,0-3.48,1.7-3.48,3.68v0.04
			C370.42,336.18,371.86,337.91,373.94,337.91z"/>
		<path fill="#D9D0BE" d="M216.51,371.51h-9.19v8h9.31c3.66,0,5.77-1.42,5.77-3.97v-0.12C222.39,373.07,220.53,371.51,216.51,371.51
			z"/>
		<path fill="#D9D0BE" d="M419.93,334.21v-0.04c0-2.2-1.52-3.48-3.8-3.48h-1.56v7h1.56C418.41,337.68,419.93,336.42,419.93,334.21z"
			/>
		<path fill="#D9D0BE" d="M352.45,379.21c6.63,0,11.04-5.34,11.04-11.6v-0.12c0-6.27-4.53-11.73-11.17-11.73
			c-6.58,0-10.97,5.34-10.97,11.6v0.12C341.35,373.75,345.87,379.21,352.45,379.21z"/>
		<path fill="#D9D0BE" d="M216.4,332.36v-0.04c0-1.17-0.82-1.8-2.21-1.8h-1.78v3.64h1.8C215.57,334.15,216.4,333.44,216.4,332.36z"
			/>
	</g>
	<path display="inline" fill="#D9D0BE" d="M406.32,137.2H229.15v37.61h177.17V137.2z M255.01,168.02h-18.25v-23.97h6.65v18.15h11.6
		L255.01,168.02L255.01,168.02z M277.29,168.02h-19.44v-23.97h19.29v5.65h-12.7v3.62h11.5v5.23h-11.5v3.8h12.88v5.67H277.29z
		 M300.35,149.87h-7.19v18.15h-6.65v-18.15h-7.19v-5.83h21.02v5.83H300.35z M322.96,149.87h-7.19v18.15h-6.65v-18.15h-7.19v-5.83
		h21.02v5.83H322.96z M347.88,157.34c0,7.74-4.41,11.13-11.23,11.13c-6.81,0-11.1-3.46-11.1-10.96v-13.46h6.74v13.32
		c0,3.46,1.75,5.09,4.41,5.09c2.68,0,4.41-1.57,4.41-4.93v-13.49h6.74v13.3H347.88z M363.35,168.51c-6.84,0-12.36-5.23-12.36-12.39
		v-0.07c0-6.98,5.37-12.46,12.64-12.46c4.9,0,8.05,2.05,10.17,5.01l-5.01,3.87c-1.36-1.72-2.94-2.8-5.23-2.8
		c-3.36,0-5.72,2.84-5.72,6.34v0.07c0,3.59,2.36,6.4,5.72,6.4c2.5,0,3.97-1.17,5.41-2.9l5.01,3.55
		C371.7,166.22,368.65,168.51,363.35,168.51z M396.25,168.02h-19.44v-23.97h19.27v5.65h-12.7v3.62h11.5v5.23h-11.5v3.8h12.88V168.02
		z"/>
	<path display="inline" fill="#D9D0BE" d="M352.01,205.94c3.66,0,6.09-2.94,6.09-6.41v-0.07c0-3.47-2.5-6.48-6.16-6.48
		c-3.62,0-6.06,2.94-6.06,6.41v0.07C345.87,202.93,348.37,205.94,352.01,205.94z"/>
	<polygon display="inline" fill="#D9D0BE" points="305.62,195.2 302.93,202 308.3,202 	"/>
	<path display="inline" fill="#D9D0BE" d="M248.15,205.94c3.66,0,6.09-2.94,6.09-6.41v-0.07c0-3.47-2.5-6.48-6.16-6.48
		c-3.62,0-6.06,2.94-6.06,6.41v0.07C242.01,202.93,244.51,205.94,248.15,205.94z"/>
	<path display="inline" fill="#D9D0BE" d="M204.89,217.98h171.13V181.3H204.89L204.89,217.98L204.89,217.98z M339.06,199.48
		c0-6.88,5.55-12.46,12.95-12.46s12.88,5.51,12.88,12.39v0.07c0,6.88-5.55,12.46-12.95,12.46s-12.88-5.51-12.88-12.39V199.48z
		 M316.98,187.49h21.02v5.83h-7.19v18.15h-6.65v-18.15h-7.19v-5.83H316.98z M302.47,187.32h6.4l10.2,24.13h-7.12l-1.75-4.29h-9.24
		l-1.71,4.29h-6.98L302.47,187.32z M264.48,187.49h7.02l5.72,9.28l5.72-9.28h7.02v23.98h-6.62V197.7l-6.12,9.38h-0.14l-6.09-9.31
		v13.7h-6.51V187.49z M235.2,199.48c0-6.88,5.55-12.46,12.95-12.46s12.88,5.51,12.88,12.39v0.07c0,6.88-5.55,12.46-12.95,12.46
		s-12.88-5.51-12.88-12.39V199.48z M213.11,187.49h21.02v5.83h-7.19v18.15h-6.65v-18.15h-7.19v-5.83H213.11z"/>
	<g display="inline">
		<path fill="#D9D0BE" d="M312.43,101.2c-4.08,0-6.81,3.31-6.81,7.19v0.07c0,3.89,2.8,7.26,6.88,7.26c4.11,0,6.84-3.31,6.84-7.19
			v-0.07C319.36,104.6,316.54,101.2,312.43,101.2z"/>
		<polygon fill="#D9D0BE" points="257.09,111.32 263.13,111.32 260.12,103.67 		"/>
		<path fill="#D9D0BE" d="M202.9,85.84v45.17h135.08V85.84H202.9z M242.51,121.92h-7.42v-15.45L228.22,117h-0.16l-6.84-10.45v15.38
			h-7.3V95.03h7.88l6.42,10.41l6.42-10.41h7.88V121.92z M267.24,121.92l-1.96-4.81h-10.38l-1.93,4.81h-7.84l11.44-27.09h7.19
			l11.44,27.09H267.24z M288.87,121.92h-7.49v-10.06l-10.22-16.83h8.49l5.53,9.8l5.56-9.8h8.35l-10.22,16.71L288.87,121.92
			L288.87,121.92z M326.97,108.46c0,7.72-6.23,13.98-14.53,13.98s-14.45-6.19-14.45-13.91v-0.07c0-7.72,6.23-13.98,14.53-13.98
			c8.29,0,14.45,6.19,14.45,13.91V108.46z"/>
	</g>
	
		<text transform="matrix(1 0 0 1 178.0392 530.6094)" display="inline" fill="#D9D0BE" font-family="'GothamHTF-Black'" font-size="20.2335">MULTI-GRAIN BUN</text>
</g>
<g display="none">
	<rect x="175.91" y="500.27" display="inline" fill="#D9D0BE" width="179.25" height="36.66"/>
	<path display="inline" fill="#492E1E" d="M303.54,21.67l-22.03,27.49c-1,1.24-2.45,1.87-3.92,1.87c-1.1,0-2.19-0.35-3.11-1.1
		c-2.15-1.72-2.52-4.87-0.79-7.02l18.71-23.34c-5.3-0.81-10.73-1.4-16.29-1.77l-24.18,30.19c-0.98,1.23-2.45,1.87-3.92,1.87
		c-1.08,0-2.2-0.35-3.11-1.08c-2.15-1.72-2.52-4.87-0.79-7.02l19.51-24.34c-65.73,0.03-119,33.16-119,74.03h238.23
		C382.85,59.24,349.76,31.85,303.54,21.67z"/>
	<g display="inline">
		<path fill="#D9D0BE" d="M193.18,101.03v41.95h188.44v-41.95H193.18z M217.46,134.63l-4.79-7.79l-2.1,2.56v5.22h-8.21v-24.52h8.21
			v9.19l6.98-9.19h9.54l-8.58,10.66l8.73,13.88H217.46z M249.04,134.63h-21.1v-24.54h20.93v6.74h-12.86v2.49h11.99v5.91h-11.99v2.66
			h13.04V134.63z M272.95,117.04h-7.23v17.59h-8.21v-17.59h-7.23v-6.95h22.65v6.95H272.95z M285.92,135.15
			c-6.81,0-12.72-5.11-12.72-12.72v-0.07c0-7.33,5.7-12.79,13.04-12.79c5.39,0,9.05,2.62,11.11,6.39l-6.77,3.96
			c-0.91-1.75-2.2-2.97-4.44-2.97c-2.77,0-4.58,2.41-4.58,5.35v0.07c0,3.19,1.89,5.42,4.58,5.42c2.31,0,3.6-1.26,4.62-3.08
			l6.77,3.82C295.45,132.18,292.01,135.15,285.92,135.15z M323,134.63h-8.21v-8.8h-7.51v8.8h-8.21v-24.54h8.21v8.66h7.51v-8.66H323
			V134.63z M349.86,123.44c0,8.38-4.86,11.67-12.2,11.67c-7.33,0-12.06-3.36-12.06-11.5v-13.53h8.35v13.42
			c0,3.04,1.57,4.34,3.78,4.34c2.2,0,3.78-1.19,3.78-4.16v-13.6h8.35L349.86,123.44L349.86,123.44z M374.46,118.9
			c0,5.91-4.52,9.08-11.15,9.08h-2.66v6.67h-8.21v-24.55h11.04c6.53,0,10.97,2.9,10.97,8.73V118.9z"/>
		<path fill="#D9D0BE" d="M362.9,116.66h-2.24v5.46h2.2c2.1,0,3.5-0.94,3.5-2.69v-0.07C366.36,117.57,365.07,116.66,362.9,116.66z"
			/>
	</g>
	<g display="inline">
		<polygon fill="#D9D0BE" points="325.48,376.7 323.26,382.29 327.67,382.29 		"/>
		<path fill="#D9D0BE" d="M365.23,365.66H193.18v61.16h172.04V365.66z M322.89,370.23h5.25l8.36,19.79h-5.84l-1.44-3.52h-7.58
			l-1.4,3.52h-5.72L322.89,370.23z M295.08,380.2c0-5.72,4.41-10.22,10.36-10.22c4.01,0,6.6,1.68,8.35,4.1l-4.09,3.17
			c-1.12-1.4-2.42-2.31-4.31-2.31c-2.75,0-4.69,2.33-4.69,5.2v0.05c0,2.96,1.94,5.25,4.69,5.25c2.05,0,3.26-0.96,4.44-2.38l4.1,2.92
			c-1.85,2.55-4.36,4.44-8.7,4.44c-5.62,0-10.13-4.31-10.13-10.17v-0.05H295.08z M286.68,370.37h5.48v19.65h-5.48V370.37z
			 M266.39,370.37h9.29c3.01,0,5.08,0.79,6.41,2.14c1.15,1.12,1.73,2.64,1.73,4.58v0.05c0,3.01-1.61,5.01-4.04,6.04l4.69,6.86h-6.3
			l-3.95-5.95h-0.05h-2.33v5.95h-5.44V370.37z M247.64,370.37h15.82v4.64h-10.41v2.98h9.43v4.31h-9.43v3.11h10.55v4.64h-15.96
			V370.37z M207.74,370.23h5.25l8.37,19.79h-5.85l-1.43-3.52h-7.58l-1.4,3.52h-5.72L207.74,370.23z M214.48,420.96
			c-7.66,0-13.82-5.86-13.82-13.86v-0.07c0-7.81,6.02-13.95,14.14-13.95c5.48,0,8.99,2.29,11.37,5.6l-5.6,4.32
			c-1.54-1.91-3.29-3.15-5.86-3.15c-3.74,0-6.4,3.18-6.4,7.09v0.07c0,4.02,2.64,7.16,6.4,7.16c2.8,0,4.45-1.29,6.05-3.26l5.6,3.99
			C223.82,418.39,220.41,420.96,214.48,420.96z M228.6,390.04h-5.34v-19.65h5.76l4.69,7.61l4.69-7.61h5.76v19.65h-5.43v-11.29
			l-5.02,7.7h-0.1l-5.01-7.65L228.6,390.04L228.6,390.04z M253.93,420.42h-7.44v-10.19h-9.54v10.19h-7.44v-26.81h7.44v10.03h9.54
			v-10.03h7.44V420.42z M280.44,420.42h-21.75v-26.81h21.56v6.32h-14.21v4.06h12.86v5.86h-12.86v4.25h14.4L280.44,420.42
			L280.44,420.42z M305.97,420.42h-21.75v-26.81h21.56v6.32h-14.21v4.06h12.86v5.86h-12.86v4.25h14.4L305.97,420.42L305.97,420.42z
			 M331.14,412.14c0,5.48-4.32,8.73-10.83,8.73c-4.74,0-9.27-1.49-12.56-4.44l4.13-4.94c2.64,2.1,5.58,3.22,8.7,3.22
			c1.99,0,3.06-0.68,3.06-1.84v-0.07c0-1.1-0.88-1.71-4.51-2.57c-5.7-1.29-10.12-2.9-10.12-8.42v-0.07c0-4.99,3.94-8.57,10.38-8.57
			c4.55,0,8.12,1.23,11.02,3.57l-3.71,5.25c-2.45-1.71-5.13-2.64-7.51-2.64c-1.8,0-2.68,0.77-2.68,1.71v0.07
			c0,1.22,0.93,1.77,4.64,2.61c6.16,1.35,9.99,3.32,9.99,8.35L331.14,412.14L331.14,412.14z M356.49,420.42h-21.75v-26.81h21.56
			v6.32h-14.21v4.06h12.86v5.86h-12.86v4.25h14.4V420.42z M356.98,390.04h-4.78l-8.4-10.78v10.78h-5.39v-19.65h5.09l8.08,10.4v-10.4
			h5.39V390.04z"/>
		<polygon fill="#D9D0BE" points="210.32,376.7 208.09,382.29 212.5,382.29 		"/>
		<path fill="#D9D0BE" d="M278.35,377.49v-0.05c0-1.54-1.12-2.33-2.96-2.33h-3.57v4.72h3.59
			C277.29,379.82,278.35,378.91,278.35,377.49z"/>
	</g>
	<g display="inline">
		<path fill="#D9D0BE" d="M434.05,206.47h-229v57.19h229V206.47z M259.21,235.95c0,12.18-9.82,22.05-22.91,22.05
			s-22.79-9.75-22.79-21.93v-0.12c0-12.18,9.82-22.05,22.91-22.05s22.79,9.75,22.79,21.93V235.95z M305.38,257.15h-10.31
			l-18.11-23.28v23.28h-11.64v-42.42h10.97l17.45,22.42v-22.42h11.64V257.15z M324.94,257.15h-11.81v-42.42h11.81V257.15z
			 M376.93,235.95c0,12.18-9.82,22.05-22.91,22.05s-22.79-9.75-22.79-21.93v-0.12c0-12.18,9.82-22.05,22.91-22.05
			s22.79,9.75,22.79,21.93V235.95z M423.1,257.15h-10.31l-18.11-23.28v23.28h-11.64v-42.42h10.97l17.45,22.42v-22.42h11.64V257.15z"
			/>
		<path fill="#D9D0BE" d="M236.3,224.49c-6.42,0-10.73,5.21-10.73,11.32v0.12c0,6.12,4.43,11.44,10.85,11.44
			c6.47,0,10.78-5.21,10.78-11.32v-0.12C247.2,229.83,242.78,224.49,236.3,224.49z"/>
		<path fill="#D9D0BE" d="M354.02,224.49c-6.42,0-10.73,5.21-10.73,11.32v0.12c0,6.12,4.43,11.44,10.85,11.44
			c6.48,0,10.78-5.21,10.78-11.32v-0.12C364.93,229.83,360.52,224.49,354.02,224.49z"/>
	</g>
	<g display="inline">
		<path fill="#D9D0BE" d="M119.35,149.78v48.32h238.72v-48.32H119.35z M160.09,168.72c0,8.45-6.51,12.9-15.42,12.9h-4.92v10.24
			h-9.94v-35.84h15.36c9.07,0,14.89,4.66,14.89,12.6v0.1H160.09z M174.47,191.85h-9.97v-35.84h9.97V191.85z M198.28,192.57
			c-10.24,0-18.48-7.84-18.48-18.53v-0.1c0-10.45,8.03-18.64,18.88-18.64c7.32,0,12.02,3.08,15.21,7.47l-7.47,5.79
			c-2.05-2.55-4.41-4.2-7.84-4.2c-5.02,0-8.56,4.25-8.56,9.47v0.1c0,5.37,3.54,9.57,8.56,9.57c3.75,0,5.93-1.73,8.09-4.36l7.47,5.32
			C210.77,189.14,206.22,192.57,198.28,192.57z M240.97,191.85l-9.01-13.32l-3.64,4.04v9.26h-9.92v-35.82h9.92v14.54l12.34-14.54
			h11.78l-13.56,15.42l14.04,20.42H240.97z M283.06,191.85h-27.28v-35.84h9.92v27.12h17.36V191.85z M316.38,191.85H287.3v-35.84
			h28.82v8.45h-18.99v5.42h17.2v7.84h-17.2v5.69h19.25V191.85z M350.02,180.79c0,7.32-5.79,11.67-14.49,11.67
			c-6.35,0-12.39-1.99-16.8-5.93l5.53-6.6c3.54,2.82,7.47,4.3,11.62,4.3c2.66,0,4.09-0.93,4.09-2.45v-0.1
			c0-1.49-1.17-2.31-6.04-3.43c-7.63-1.73-13.51-3.89-13.51-11.27v-0.1c0-6.65,5.27-11.46,13.88-11.46c6.09,0,10.85,1.65,14.75,4.76
			l-4.97,7.02c-3.27-2.31-6.86-3.54-10.03-3.54c-2.42,0-3.59,1.03-3.59,2.31v0.1c0,1.65,1.22,2.36,6.19,3.48
			c8.24,1.79,13.35,4.45,13.35,11.16V180.79z"/>
		<path fill="#D9D0BE" d="M144.43,164.36h-4.65v9.47h4.71c3.53,0,5.69-1.84,5.69-4.65v-0.1
			C150.15,166.01,148.01,164.36,144.43,164.36z"/>
	</g>
	<g display="inline">
		<path fill="#BAB9B9" d="M452.76,435.1H107.24v50.86h345.52V435.1z M145.83,466.18c0,5.34-4.24,8.5-10.59,8.5
			c-4.64,0-9.06-1.45-12.28-4.32l4.04-4.81c2.59,2.07,5.46,3.13,8.51,3.13c1.94,0,2.99-0.68,2.99-1.8v-0.07
			c0-1.08-0.86-1.68-4.41-2.5c-5.58-1.28-9.89-2.83-9.89-8.23v-0.07c0-4.85,3.85-8.37,10.15-8.37c4.46,0,7.93,1.19,10.78,3.48
			l-3.64,5.11c-2.4-1.68-5.02-2.57-7.33-2.57c-1.77,0-2.62,0.75-2.62,1.68v0.07c0,1.19,0.89,1.72,4.53,2.54
			c6.04,1.31,9.76,3.25,9.76,8.14V466.18z M177.85,474.25h-7.23v-15.01l-6.7,10.24h-0.16l-6.67-10.15v14.93h-7.12V448.1h7.68
			l6.25,10.12l6.25-10.12h7.68v26.15H177.85z M202.23,474.25l-1.91-4.67h-10.12l-1.87,4.67h-7.63l11.15-26.32h7L210,474.25H202.23z
			 M234.05,466.18c0,5.34-4.24,8.5-10.6,8.5c-4.64,0-9.07-1.45-12.29-4.32l4.04-4.81c2.59,2.07,5.46,3.13,8.51,3.13
			c1.94,0,2.99-0.68,2.99-1.8v-0.07c0-1.08-0.86-1.68-4.41-2.5c-5.58-1.28-9.89-2.83-9.89-8.23v-0.07c0-4.85,3.85-8.37,10.15-8.37
			c4.46,0,7.94,1.19,10.78,3.48l-3.64,5.11c-2.4-1.68-5.02-2.57-7.35-2.57c-1.75,0-2.62,0.75-2.62,1.68v0.07
			c0,1.19,0.89,1.72,4.53,2.54c6.02,1.31,9.76,3.25,9.76,8.14v0.09H234.05z M262.06,474.25h-7.26v-9.92h-9.33v9.92h-7.26V448.1h7.26
			v9.8h9.33v-9.8h7.26V474.25z M291.01,467.04c0,4.48-3.67,7.21-9.92,7.21h-13.51V448.1h13.44c3.29,0,5.62,0.82,7.16,2.35
			c1.05,1.05,1.68,2.43,1.68,4.22v0.09c0,3.03-1.71,4.81-4.04,5.83c3.18,1.05,5.21,2.83,5.21,6.39v0.07H291.01z M319.08,462.6
			c0,8.43-4.83,12.13-12.29,12.13c-7.45,0-12.13-3.78-12.13-11.95V448.1h7.39v14.52c0,3.78,1.91,5.56,4.83,5.56s4.83-1.71,4.83-5.39
			v-14.72h7.39v14.51H319.08z M340.06,474.25l-5.27-7.91h-0.07h-3.11v7.91h-7.26V448.1h12.41c4.01,0,6.77,1.05,8.52,2.84
			c1.54,1.5,2.33,3.52,2.33,6.09v0.07c0,3.99-2.14,6.63-5.39,8.03l6.25,9.12H340.06z M376.11,470.73
			c-2.76,2.27-6.63,4.04-11.38,4.04c-8.15,0-14.26-5.6-14.26-13.53v-0.07c0-7.61,5.99-13.58,14.12-13.58c4.6,0,7.86,1.42,10.64,3.82
			l-4.27,5.11c-1.87-1.56-3.74-2.47-6.33-2.47c-3.78,0-6.7,3.17-6.7,7.17v0.07c0,4.22,2.96,7.25,7.11,7.25
			c1.77,0,3.11-0.39,4.2-1.08v-3.19h-5.16v-5.28h12.06v11.74H376.11z M402.38,474.25h-21.26V448.1h21.07v6.16h-13.9v3.96h12.58v5.71
			h-12.58v4.15h14.09V474.25z M422.87,474.25l-5.29-7.91h-0.09h-3.12v7.91h-7.26V448.1h12.41c4.01,0,6.77,1.05,8.54,2.84
			c1.54,1.5,2.33,3.52,2.33,6.09v0.07c0,3.99-2.14,6.63-5.39,8.03l6.25,9.12H422.87z"/>
		<path fill="#BAB9B9" d="M336.35,454.37h-4.76v6.28h4.8c2.47,0,3.9-1.19,3.9-3.1v-0.09C340.27,455.44,338.78,454.37,336.35,454.37z
			"/>
		<path fill="#BAB9B9" d="M419.16,454.37h-4.76v6.28h4.8c2.47,0,3.9-1.19,3.9-3.1v-0.09C423.1,455.44,421.59,454.37,419.16,454.37z"
			/>
		<path fill="#BAB9B9" d="M280.19,463.59h-5.55v4.83h5.62c2.2,0,3.48-0.86,3.48-2.4v-0.07
			C283.74,464.54,282.62,463.59,280.19,463.59z"/>
		<path fill="#BAB9B9" d="M282.66,456.24v-0.07c0-1.42-1.12-2.24-3.29-2.24h-4.72v4.6h4.57
			C281.42,458.53,282.66,457.78,282.66,456.24z"/>
		<polygon fill="#BAB9B9" points="192.34,463.94 198.21,463.94 195.3,456.5 		"/>
	</g>
	<g display="inline">
		<path fill="#492E1E" d="M280.58,520.68h-5.23v4.55h5.3c2.08,0,3.29-0.8,3.29-2.26v-0.07
			C283.94,521.57,282.87,520.68,280.58,520.68z"/>
		<path fill="#492E1E" d="M282.9,513.73v-0.07c0-1.35-1.07-2.12-3.11-2.12h-4.44v4.34h4.3C281.75,515.88,282.9,515.17,282.9,513.73z
			"/>
		<path fill="#492E1E" d="M383.07,533.43v-39.74H144.39v39.74c0,5.04,4.1,9.14,9.15,9.14H373.9
			C378.98,542.57,383.07,538.49,383.07,533.43z M201.27,530.74h-20.05v-24.73h19.88v5.83h-13.11v3.74h11.86v5.41h-11.86v3.92h13.28
			L201.27,530.74L201.27,530.74z M227.92,527.43c-2.61,2.15-6.25,3.82-10.73,3.82c-7.7,0-13.46-5.3-13.46-12.79v-0.07
			c0-7.21,5.65-12.86,13.32-12.86c4.34,0,7.42,1.35,10.03,3.61l-4.03,4.83c-1.77-1.49-3.53-2.33-5.97-2.33
			c-3.57,0-6.32,3.01-6.32,6.77v0.07c0,3.99,2.78,6.86,6.7,6.86c1.66,0,2.92-0.35,3.96-1.03v-3.01h-4.86v-5.02h11.37v11.16H227.92z
			 M255.08,527.43c-2.61,2.15-6.25,3.82-10.74,3.82c-7.7,0-13.46-5.3-13.46-12.79v-0.07c0-7.21,5.65-12.86,13.32-12.86
			c4.34,0,7.42,1.35,10.03,3.61l-4.02,4.83c-1.77-1.49-3.54-2.33-5.97-2.33c-3.57,0-6.32,3.01-6.32,6.77v0.07
			c0,3.99,2.78,6.86,6.7,6.86c1.66,0,2.94-0.35,3.95-1.03v-3.01h-4.87v-5.02h11.38L255.08,527.43L255.08,527.43z M290.78,523.93
			c0,4.24-3.46,6.81-9.36,6.81h-12.76v-24.73h12.69c3.11,0,5.3,0.77,6.76,2.22c0.98,1,1.59,2.29,1.59,3.99v0.07
			c0,2.85-1.63,4.55-3.81,5.51c3.01,1,4.9,2.68,4.9,6.04L290.78,523.93L290.78,523.93z M316.65,519.73
			c0,7.98-4.55,11.48-11.59,11.48s-11.44-3.57-11.44-11.3v-13.88h6.96v13.74c0,3.57,1.8,5.27,4.55,5.27c2.75,0,4.55-1.63,4.55-5.09
			v-13.91h6.96V519.73L316.65,519.73z M344.05,530.74h-6l-10.55-13.56v13.56h-6.79v-24.73h6.39l10.17,13.07v-13.07h6.77v24.73
			H344.05z"/>
	</g>
	<g display="inline">
		<path fill="#D9D0BE" d="M274.82,288.82v-0.04c0-2.27-1.56-3.6-3.92-3.6h-1.61v7.24h1.61
			C273.24,292.43,274.82,291.11,274.82,288.82z"/>
		<path fill="#D9D0BE" d="M255.64,292.64c2.17,0,3.62-1.75,3.62-3.8v-0.04c0-2.05-1.49-3.85-3.66-3.85c-2.15,0-3.6,1.75-3.6,3.8
			v0.04C252,290.85,253.49,292.64,255.64,292.64z"/>
		<path fill="#D9D0BE" d="M131.74,357.19H388.2v-85H131.74V357.19z M221.95,345.71l-3.27-8.01h-17.32l-3.2,8.01h-13.09l19.13-45.24
			h12.01l19.13,45.24H221.95z M258.39,346.6c-12.83,0-23.17-9.82-23.17-23.22v-0.12c0-13.09,10.08-23.36,23.68-23.36
			c9.17,0,15.08,3.85,19.06,9.36l-9.36,7.24c-2.57-3.2-5.51-5.27-9.82-5.27c-6.28,0-10.71,5.32-10.71,11.86v0.12
			c0,6.74,4.43,12,10.71,12c4.69,0,7.44-2.19,10.13-5.46l9.36,6.67C274.05,342.3,268.35,346.6,258.39,346.6z M365.36,281.68h5.49
			c5.09,0,8.03,2.92,8.03,7.04v0.04c0,4.11-2.99,7.16-8.12,7.16h-5.41V281.68z M351.82,281.68h11.45v3.36h-7.54v2.15h6.83v3.11
			h-6.83v2.26h7.65v3.36h-11.55L351.82,281.68L351.82,281.68z M336.98,281.68h3.94v5.77l4.9-5.77h4.67l-5.39,6.12l5.56,8.12h-4.74
			l-3.59-5.29l-1.45,1.61v3.68h-3.94v-14.24H336.98z M335.65,300.79h11.62l18.48,23.73v-23.75h12.32v44.92h-10.9l-19.18-24.64v24.64
			h-12.32v-44.9H335.65z M319.6,288.8c0-4.09,3.29-7.4,7.68-7.4s7.65,3.27,7.65,7.37v0.04c0,4.1-3.29,7.4-7.68,7.4
			s-7.65-3.27-7.65-7.37V288.8z M302.43,281.68h4.17l3.39,5.51l3.39-5.51h4.17v14.23h-3.92v-8.17L310,293.3h-0.09l-3.62-5.53v8.14
			h-3.87v-14.23H302.43z M294.14,290.5c-3.03-0.68-5.37-1.54-5.37-4.48v-0.04c0-2.64,2.1-4.55,5.51-4.55c2.42,0,4.31,0.65,5.86,1.89
			l-1.98,2.78c-1.3-0.91-2.73-1.4-3.99-1.4c-0.96,0-1.42,0.4-1.42,0.91v0.04c0,0.65,0.49,0.94,2.47,1.38
			c3.27,0.72,5.3,1.77,5.3,4.43v0.04c0,2.9-2.29,4.64-5.76,4.64c-2.52,0-4.92-0.79-6.67-2.36l2.2-2.62c1.4,1.12,2.98,1.71,4.62,1.71
			c1.05,0,1.63-0.37,1.63-0.98v-0.04C296.54,291.29,296.08,290.95,294.14,290.5z M305.04,299.88c13.86,0,24.13,10.32,24.13,23.22
			v0.12c0,12.9-10.4,23.36-24.26,23.36s-24.13-10.32-24.13-23.22v-0.12C280.79,310.35,291.18,299.88,305.04,299.88z M280.44,287.86
			h6.67v3.39h-6.67V287.86z M265.33,281.68h5.49c5.09,0,8.03,2.92,8.03,7.04v0.04c0,4.11-2.99,7.16-8.12,7.16h-5.41V281.68z
			 M247.96,288.8c0-4.09,3.29-7.4,7.68-7.4c4.39,0,7.65,3.27,7.65,7.37v0.04c0,4.1-3.29,7.4-7.68,7.4c-4.39,0-7.65-3.27-7.65-7.37
			V288.8z M231.07,288.8c0-4.09,3.29-7.4,7.68-7.4s7.65,3.27,7.65,7.37v0.04c0,4.1-3.29,7.4-7.68,7.4c-4.39,0-7.65-3.27-7.65-7.37
			V288.8z M212.87,281.68l2.49,8.24l2.75-8.28h3.4l2.75,8.28l2.49-8.24h4.09l-4.76,14.33h-3.43l-2.87-8.19l-2.85,8.19h-3.43
			l-4.76-14.33H212.87z M196.1,281.68h11.45v3.36h-7.54v2.15h6.82v3.11h-6.82v2.26h7.65v3.36h-11.55L196.1,281.68L196.1,281.68z
			 M183.57,281.68h3.94v10.78h6.9v3.46h-10.83V281.68z M182.95,333.32c0,7.7-6.28,12.39-17.01,12.39h-23.15v-44.92h23.03
			c5.65,0,9.62,1.42,12.25,4.04c1.8,1.8,2.89,4.16,2.89,7.24v0.12c0,5.2-2.96,8.28-6.93,10.01c5.46,1.8,8.93,4.88,8.93,10.97V333.32
			z M169.89,281.68H176c3.6,0,5.91,1.85,5.91,5v0.04c0,3.36-2.59,5.13-6.12,5.13h-1.96v4.06h-3.94L169.89,281.68L169.89,281.68z
			 M156.22,281.68h6.11c3.6,0,5.91,1.85,5.91,5v0.04c0,3.36-2.59,5.13-6.12,5.13h-1.96v4.06h-3.94L156.22,281.68L156.22,281.68z
			 M144.97,281.57h3.8l6.06,14.33h-4.24l-1.03-2.54h-5.49l-1.01,2.54h-4.15L144.97,281.57z"/>
		<path fill="#D9D0BE" d="M238.75,292.64c2.17,0,3.62-1.75,3.62-3.8v-0.04c0-2.05-1.49-3.85-3.66-3.85c-2.15,0-3.6,1.75-3.6,3.8
			v0.04C235.11,290.85,236.6,292.64,238.75,292.64z"/>
		<polygon fill="#D9D0BE" points="205.01,327.98 215.09,327.98 210.09,315.23 		"/>
		<polygon fill="#D9D0BE" points="146.84,286.25 145.25,290.31 148.43,290.31 		"/>
		<path fill="#D9D0BE" d="M177.97,286.91v-0.04c0-1.23-0.86-1.87-2.28-1.87h-1.85v3.76h1.87
			C177.12,288.77,177.97,288.03,177.97,286.91z"/>
		<path fill="#D9D0BE" d="M168.63,314.77v-0.12c0-2.43-1.93-3.85-5.65-3.85h-8.09v7.89h7.82
			C166.51,318.69,168.63,317.4,168.63,314.77z"/>
		<path fill="#D9D0BE" d="M327.29,292.64c2.17,0,3.62-1.75,3.62-3.8v-0.04c0-2.05-1.49-3.85-3.66-3.85c-2.15,0-3.61,1.75-3.61,3.8
			v0.04C323.65,290.85,325.13,292.64,327.29,292.64z"/>
		<path fill="#D9D0BE" d="M164.4,327.41h-9.5v8.28h9.62c3.78,0,5.97-1.47,5.97-4.11v-0.12C170.5,329.02,168.58,327.41,164.4,327.41z
			"/>
		<path fill="#D9D0BE" d="M374.85,288.82v-0.04c0-2.27-1.56-3.6-3.92-3.6h-1.61v7.24h1.61
			C373.27,292.43,374.85,291.11,374.85,288.82z"/>
		<path fill="#D9D0BE" d="M305.04,335.37c6.86,0,11.43-5.51,11.43-12.01v-0.12c0-6.48-4.69-12.13-11.55-12.13
			c-6.81,0-11.36,5.51-11.36,12.01v0.12C293.56,329.72,298.23,335.37,305.04,335.37z"/>
		<path fill="#D9D0BE" d="M164.29,286.91v-0.04c0-1.23-0.86-1.87-2.28-1.87h-1.85v3.76h1.87
			C163.43,288.77,164.29,288.03,164.29,286.91z"/>
	</g>
</g>
<g display="none">
	<rect x="207.03" y="493.85" display="inline" fill="#D9D0BE" width="204.36" height="43.91"/>
	<path display="inline" fill="#492E1E" d="M348.29,22.05l-23.03,28.73c-1.05,1.3-2.57,1.96-4.1,1.96c-1.15,0-2.29-0.37-3.26-1.15
		c-2.26-1.8-2.62-5.09-0.82-7.33l19.55-24.39c-5.53-0.84-11.22-1.47-17.03-1.84l-25.29,31.55c-1.03,1.29-2.55,1.96-4.09,1.96
		c-1.14,0-2.29-0.37-3.26-1.14c-2.26-1.8-2.62-5.09-0.82-7.33l20.4-25.44c-68.72,0.03-124.39,34.67-124.39,77.39h249.03
		C431.18,61.32,396.58,32.69,348.29,22.05z"/>
	<g display="inline">
		<path fill="#BAB9B9" d="M486.4,430.06h-361.2v53.17h361.2V430.06z M165.53,462.54c0,5.58-4.43,8.89-11.08,8.89
			c-4.85,0-9.47-1.52-12.84-4.53l4.22-5.04c2.7,2.15,5.71,3.27,8.89,3.27c2.03,0,3.13-0.7,3.13-1.89v-0.07
			c0-1.14-0.89-1.77-4.62-2.62c-5.83-1.33-10.34-2.98-10.34-8.59v-0.07c0-5.07,4.03-8.75,10.6-8.75c4.66,0,8.29,1.24,11.27,3.64
			l-3.76,5.39c-2.5-1.77-5.25-2.7-7.66-2.7c-1.84,0-2.75,0.79-2.75,1.77v0.07c0,1.24,0.94,1.78,4.74,2.64
			c6.3,1.36,10.22,3.39,10.22,8.5v0.09H165.53z M199.01,470.98h-7.56v-15.7l-7,10.69h-0.16l-6.97-10.62v15.61h-7.44v-27.32h8.01
			l6.54,10.59l6.54-10.59h8.02V470.98z M224.49,470.98l-1.99-4.88h-10.57l-1.96,4.88h-7.98l11.65-27.51h7.32l11.65,27.51H224.49z
			 M257.76,462.54c0,5.58-4.43,8.89-11.08,8.89c-4.85,0-9.47-1.52-12.83-4.53l4.24-5.04c2.69,2.15,5.72,3.27,8.89,3.27
			c2.03,0,3.13-0.7,3.13-1.89v-0.07c0-1.14-0.89-1.77-4.62-2.62c-5.83-1.33-10.32-2.98-10.32-8.59v-0.07c0-5.07,4.03-8.75,10.6-8.75
			c4.66,0,8.3,1.24,11.27,3.64l-3.8,5.36c-2.5-1.77-5.25-2.7-7.68-2.7c-1.84,0-2.75,0.79-2.75,1.77v0.07c0,1.24,0.94,1.78,4.74,2.64
			c6.3,1.36,10.22,3.39,10.22,8.5v0.12H257.76z M287.05,470.98h-7.59V460.6h-9.75v10.38h-7.6v-27.32h7.6v10.24h9.75v-10.24h7.59
			V470.98z M317.29,463.43c0,4.69-3.83,7.54-10.38,7.54h-14.12v-27.32h14.05c3.45,0,5.86,0.86,7.47,2.45
			c1.1,1.1,1.75,2.54,1.75,4.41v0.09c0,3.15-1.79,5.02-4.22,6.09c3.32,1.1,5.44,2.98,5.44,6.68V463.43z M346.66,458.8
			c0,8.82-5.06,12.69-12.83,12.69c-7.79,0-12.69-3.94-12.69-12.5v-15.33h7.72v15.19c0,3.94,1.99,5.83,5.04,5.83
			c3.06,0,5.06-1.78,5.06-5.62v-15.38h7.72v15.12H346.66z M368.57,470.98l-5.51-8.26h-0.09h-3.26v8.26h-7.59v-27.32h12.97
			c4.18,0,7.07,1.1,8.93,2.96c1.61,1.58,2.43,3.67,2.43,6.37v0.07c0,4.18-2.24,6.95-5.64,8.4l6.53,9.52H368.57z M406.26,467.3
			c-2.9,2.38-6.93,4.22-11.9,4.22c-8.54,0-14.91-5.86-14.91-14.14v-0.07c0-7.96,6.26-14.21,14.75-14.21c4.81,0,8.23,1.47,11.11,3.99
			l-4.46,5.34c-1.96-1.64-3.92-2.57-6.62-2.57c-3.95,0-7,3.31-7,7.49v0.07c0,4.41,3.1,7.58,7.44,7.58c1.84,0,3.26-0.4,4.39-1.12
			v-3.32h-5.41v-5.53h12.6L406.26,467.3L406.26,467.3z M433.7,470.98h-22.23v-27.32h22.03v6.44h-14.53v4.13h13.14v5.97h-13.14v4.34
			h14.72V470.98z M455.14,470.98l-5.51-8.26h-0.09h-3.26v8.26h-7.6v-27.32h12.97c4.18,0,7.07,1.1,8.93,2.96
			c1.61,1.58,2.43,3.67,2.43,6.37v0.07c0,4.18-2.24,6.95-5.63,8.4l6.53,9.52H455.14z"/>
		<path fill="#BAB9B9" d="M364.7,450.21h-4.97v6.56h5.01c2.59,0,4.08-1.24,4.08-3.24v-0.09C368.8,451.31,367.24,450.21,364.7,450.21
			z"/>
		<path fill="#BAB9B9" d="M451.25,450.21h-4.97v6.56h5c2.57,0,4.08-1.24,4.08-3.24v-0.09C455.39,451.31,453.81,450.21,451.25,450.21
			z"/>
		<path fill="#BAB9B9" d="M305.99,459.85h-5.79v5.04h5.86c2.31,0,3.64-0.91,3.64-2.5v-0.07
			C309.7,460.83,308.52,459.85,305.99,459.85z"/>
		<path fill="#BAB9B9" d="M308.58,452.17v-0.07c0-1.49-1.17-2.35-3.45-2.35h-4.94v4.81h4.78
			C307.28,454.54,308.58,453.76,308.58,452.17z"/>
		<polygon fill="#BAB9B9" points="214.15,460.2 220.29,460.2 217.24,452.43 		"/>
	</g>
	<g display="inline">
		<path fill="#492E1E" d="M324.27,519.51h-5.46v4.76h5.53c2.17,0,3.43-0.86,3.43-2.36v-0.07
			C327.79,520.43,326.67,519.51,324.27,519.51z"/>
		<path fill="#492E1E" d="M326.71,512.24v-0.07c0-1.4-1.1-2.22-3.26-2.22h-4.66v4.55h4.5C325.5,514.48,326.71,513.75,326.71,512.24z
			"/>
		<path fill="#492E1E" d="M431.41,532.86v-41.54H181.93v41.54c0,5.27,4.29,9.54,9.57,9.54h230.35
			C427.14,542.4,431.41,538.12,431.41,532.86z M241.36,530.02H220.4v-25.85h20.79v6.09h-13.7v3.92h12.41v5.65h-12.41v4.09h13.88
			V530.02z M269.24,526.56c-2.73,2.26-6.53,3.99-11.22,3.99c-8.05,0-14.07-5.53-14.07-13.37v-0.07c0-7.52,5.92-13.44,13.91-13.44
			c4.53,0,7.75,1.4,10.48,3.76l-4.2,5.06c-1.84-1.56-3.69-2.43-6.25-2.43c-3.73,0-6.62,3.13-6.62,7.09v0.07
			c0,4.17,2.92,7.16,7.02,7.16c1.73,0,3.06-0.37,4.13-1.07v-3.13h-5.09v-5.25h11.88v11.64H269.24z M297.62,526.56
			c-2.73,2.26-6.53,3.99-11.22,3.99c-8.05,0-14.07-5.53-14.07-13.37v-0.07c0-7.52,5.92-13.44,13.91-13.44
			c4.55,0,7.75,1.4,10.48,3.76l-4.2,5.06c-1.84-1.56-3.69-2.43-6.25-2.43c-3.73,0-6.62,3.13-6.62,7.09v0.07
			c0,4.17,2.92,7.16,7.02,7.16c1.73,0,3.06-0.37,4.13-1.07v-3.13h-5.09v-5.25h11.88v11.64H297.62z M334.95,522.9
			c0,4.43-3.62,7.12-9.78,7.12h-13.33v-25.85h13.25c3.26,0,5.53,0.8,7.05,2.33c1.03,1.03,1.66,2.4,1.66,4.16v0.07
			c0,2.99-1.7,4.76-3.99,5.76c3.13,1.03,5.13,2.8,5.13,6.32v0.09H334.95z M361.97,518.51c0,8.35-4.76,12.01-12.11,12.01
			c-7.35,0-11.97-3.73-11.97-11.81v-14.51h7.28v14.37c0,3.73,1.87,5.5,4.76,5.5c2.89,0,4.76-1.7,4.76-5.32v-14.54h7.28
			L361.97,518.51L361.97,518.51z M390.62,530.02h-6.28l-11.04-14.17v14.17h-7.09v-25.85h6.68l10.64,13.67v-13.67h7.09L390.62,530.02
			L390.62,530.02z"/>
	</g>
	<g display="inline">
		<path fill="#D9D0BE" d="M349.7,252.16v-0.04c0-2.15-1.49-3.41-3.71-3.41h-1.52v6.86h1.52C348.21,255.57,349.7,254.33,349.7,252.16
			z"/>
		<path fill="#D9D0BE" d="M331.54,255.78c2.06,0,3.43-1.66,3.43-3.6v-0.04c0-1.94-1.4-3.64-3.46-3.64c-2.05,0-3.41,1.66-3.41,3.6
			v0.04C328.09,254.08,329.49,255.78,331.54,255.78z"/>
		<path fill="#D9D0BE" d="M214.15,316.94h242.97v-80.54H214.15V316.94z M299.62,306.06l-3.1-7.6H280.1l-3.04,7.6h-12.41l18.11-42.86
			h11.38l18.11,42.86H299.62z M334.15,306.9c-12.16,0-21.95-9.31-21.95-22.02v-0.12c0-12.41,9.54-22.14,22.43-22.14
			c8.7,0,14.28,3.64,18.06,8.87l-8.87,6.88c-2.43-3.05-5.23-4.99-9.31-4.99c-5.95,0-10.15,5.04-10.15,11.25v0.12
			c0,6.39,4.2,11.38,10.15,11.38c4.45,0,7.05-2.07,9.61-5.16l8.87,6.32C348.98,302.84,343.56,306.9,334.15,306.9z M435.49,245.4h5.2
			c4.81,0,7.61,2.76,7.61,6.67v0.04c0,3.88-2.83,6.79-7.68,6.79h-5.13L435.49,245.4L435.49,245.4z M422.64,245.4h10.85v3.19h-7.14
			v2.05h6.48v2.94h-6.48v2.14h7.24v3.19h-10.94V245.4H422.64z M408.59,245.4h3.74v5.48l4.64-5.48h4.43l-5.11,5.79l5.29,7.68h-4.48
			l-3.4-5.01l-1.36,1.52v3.48h-3.74V245.4z M407.33,263.5h11.01l17.52,22.49V263.5h11.67v42.56h-10.34L419,282.71v23.35h-11.67
			L407.33,263.5L407.33,263.5z M392.12,252.14c0-3.87,3.12-7.02,7.28-7.02s7.24,3.1,7.24,6.98v0.04c0,3.87-3.11,7.02-7.28,7.02
			s-7.25-3.1-7.25-6.96V252.14z M375.86,245.4h3.95l3.22,5.21l3.22-5.21h3.95v13.49h-3.71v-7.75l-3.45,5.29h-0.07l-3.43-5.25v7.7
			h-3.66V245.4H375.86z M368.01,253.75c-2.87-0.65-5.09-1.47-5.09-4.24v-0.04c0-2.5,1.98-4.32,5.21-4.32c2.29,0,4.08,0.61,5.55,1.79
			l-1.87,2.64c-1.23-0.88-2.59-1.33-3.78-1.33c-0.91,0-1.35,0.38-1.35,0.88v0.04c0,0.61,0.46,0.89,2.33,1.31
			c3.1,0.68,5.02,1.68,5.02,4.2v0.04c0,2.75-2.17,4.39-5.46,4.39c-2.38,0-4.65-0.75-6.32-2.24l2.08-2.48
			c1.33,1.07,2.82,1.63,4.38,1.63c1,0,1.54-0.35,1.54-0.93v-0.04C370.28,254.49,369.85,254.19,368.01,253.75z M378.33,262.64
			c13.12,0,22.85,9.78,22.85,22.01v0.12c0,12.21-9.85,22.14-22.98,22.14s-22.86-9.78-22.86-22.02v-0.12
			C355.35,272.55,365.21,262.64,378.33,262.64z M355.02,251.25h6.32v3.22h-6.32V251.25z M340.73,245.4h5.2
			c4.81,0,7.61,2.76,7.61,6.67v0.04c0,3.88-2.83,6.79-7.68,6.79h-5.13L340.73,245.4L340.73,245.4z M324.26,252.14
			c0-3.87,3.12-7.02,7.28-7.02s7.24,3.1,7.24,6.98v0.04c0,3.87-3.12,7.02-7.28,7.02c-4.17,0-7.25-3.1-7.25-6.96V252.14z
			 M308.24,252.14c0-3.87,3.11-7.02,7.28-7.02s7.25,3.1,7.25,6.98v0.04c0,3.87-3.12,7.02-7.28,7.02s-7.24-3.1-7.24-6.96V252.14z
			 M291.01,245.4l2.35,7.81l2.61-7.84h3.22l2.61,7.84l2.34-7.81H308l-4.52,13.58h-3.26l-2.71-7.77l-2.69,7.77h-3.26l-4.52-13.58
			H291.01z M275.12,245.4h10.85v3.19h-7.14v2.05h6.47v2.94h-6.47v2.14h7.24v3.19h-10.94V245.4H275.12z M263.25,245.4H267v10.2h6.53
			v3.27h-10.27V245.4z M262.66,294.32c0,7.3-5.95,11.74-16.12,11.74H224.6V263.5h21.82c5.35,0,9.12,1.33,11.62,3.83
			c1.7,1.7,2.73,3.95,2.73,6.88v0.12c0,4.92-2.8,7.84-6.56,9.48c5.16,1.7,8.45,4.62,8.45,10.4V294.32z M250.3,245.4h5.78
			c3.41,0,5.6,1.75,5.6,4.74v0.04c0,3.19-2.45,4.85-5.79,4.85h-1.86v3.85h-3.74V245.4H250.3z M237.33,245.4h5.78
			c3.41,0,5.6,1.75,5.6,4.74v0.04c0,3.19-2.45,4.85-5.79,4.85h-1.85v3.85h-3.74V245.4H237.33z M226.69,245.3h3.6l5.74,13.58h-4.01
			l-0.98-2.42h-5.2l-0.96,2.42h-3.94L226.69,245.3z"/>
		<path fill="#D9D0BE" d="M315.52,255.78c2.07,0,3.43-1.66,3.43-3.6v-0.04c0-1.94-1.4-3.64-3.46-3.64c-2.05,0-3.41,1.66-3.41,3.6
			v0.04C312.08,254.08,313.49,255.78,315.52,255.78z"/>
		<polygon fill="#D9D0BE" points="283.57,289.27 293.12,289.27 288.38,277.17 		"/>
		<polygon fill="#D9D0BE" points="228.46,249.72 226.94,253.56 229.97,253.56 		"/>
		<path fill="#D9D0BE" d="M257.95,250.35v-0.04c0-1.16-0.8-1.77-2.15-1.77h-1.75v3.57h1.77C257.15,252.1,257.95,251.4,257.95,250.35
			z"/>
		<path fill="#D9D0BE" d="M249.1,276.74v-0.12c0-2.31-1.82-3.64-5.36-3.64h-7.67v7.47h7.42C247.1,280.45,249.1,279.25,249.1,276.74z
			"/>
		<path fill="#D9D0BE" d="M399.4,255.78c2.06,0,3.43-1.66,3.43-3.6v-0.04c0-1.94-1.4-3.64-3.46-3.64c-2.05,0-3.41,1.66-3.41,3.6
			v0.04C395.95,254.08,397.35,255.78,399.4,255.78z"/>
		<path fill="#D9D0BE" d="M245.09,288.73h-9v7.84h9.12c3.59,0,5.65-1.4,5.65-3.89v-0.12C250.86,290.24,249.04,288.73,245.09,288.73z
			"/>
		<path fill="#D9D0BE" d="M444.46,252.16v-0.04c0-2.15-1.49-3.41-3.71-3.41h-1.52v6.86h1.52
			C442.99,255.57,444.46,254.33,444.46,252.16z"/>
		<path fill="#D9D0BE" d="M378.33,296.26c6.51,0,10.81-5.23,10.81-11.38v-0.12c0-6.14-4.44-11.5-10.94-11.5
			c-6.44,0-10.76,5.23-10.76,11.38v0.12C367.45,290.92,371.89,296.26,378.33,296.26z"/>
		<path fill="#D9D0BE" d="M244.98,250.35v-0.04c0-1.16-0.81-1.77-2.15-1.77h-1.75v3.57h1.77
			C244.18,252.1,244.98,251.4,244.98,250.35z"/>
	</g>
	<g display="inline">
		<path fill="#D9D0BE" d="M298.99,122.45c-4.74,0-7.89,3.9-7.89,8.38v0.09c0,4.48,3.18,8.42,7.98,8.42c1.1,0,2.17-0.23,3.1-0.58
			l-4.3-3.68l4.34-4.88l4.22,3.85c0.35-0.98,0.52-2,0.52-3.1v-0.09C306.97,126.4,303.73,122.45,298.99,122.45z"/>
		<path fill="#D9D0BE" d="M266.56,133.72H260v5.72h6.65c2.66,0,4.13-1.01,4.13-2.84v-0.1C270.78,134.82,269.45,133.72,266.56,133.72
			z"/>
		<path fill="#D9D0BE" d="M237.82,124.97v-0.09c0-1.73-1.38-2.66-3.9-2.66h-5.64v5.46h5.41
			C236.32,127.68,237.82,126.79,237.82,124.97z"/>
		<path fill="#D9D0BE" d="M234.85,133.72h-6.56v5.72h6.65c2.66,0,4.13-1.01,4.13-2.84v-0.1
			C239.07,134.82,237.74,133.72,234.85,133.72z"/>
		<path fill="#D9D0BE" d="M269.54,124.97v-0.09c0-1.73-1.38-2.66-3.9-2.66H260v5.46h5.41C268.03,127.68,269.54,126.79,269.54,124.97
			z"/>
		<polygon fill="#D9D0BE" points="372.02,134.07 378.98,134.07 375.52,125.28 		"/>
		<path fill="#D9D0BE" d="M209.7,102.86v56.21h287.54v-56.21H209.7z M247.66,137.79c0,5.32-4.34,8.56-11.74,8.56H219.9v-31.04h15.92
			c3.9,0,6.65,0.98,8.47,2.75c1.24,1.29,1.99,2.92,1.99,5.06v0.09c0,3.59-2.05,5.72-4.8,6.91c3.76,1.24,6.16,3.38,6.16,7.58
			L247.66,137.79L247.66,137.79z M279.37,137.79c0,5.32-4.34,8.56-11.74,8.56h-16.01v-31.04h15.93c3.9,0,6.65,0.98,8.47,2.75
			c1.24,1.29,1.99,2.92,1.99,5.06v0.09c0,3.59-2.05,5.72-4.8,6.91c3.76,1.24,6.16,3.38,6.16,7.58V137.79z M311.83,147.28l-3.41-3.06
			c-2.66,1.77-5.9,2.75-9.45,2.75c-9.57,0-16.68-7.14-16.68-16.05v-0.09c0-8.91,7.18-16.14,16.77-16.14
			c9.57,0,16.68,7.14,16.68,16.05v0.09c0,3.29-1.01,6.34-2.75,8.91l3.18,2.71L311.83,147.28z M357.21,136.76
			c0,6.34-5.01,10.12-12.55,10.12c-5.5,0-10.69-1.73-14.54-5.15l4.8-5.72c3.1,2.43,6.48,3.73,10.06,3.73c2.35,0,3.59-0.81,3.59-2.14
			v-0.09c0-1.33-1.01-1.99-5.29-3.01c-6.61-1.51-11.71-3.38-11.71-9.71v-0.09c0-5.76,4.57-9.94,12.02-9.94
			c5.29,0,9.4,1.42,12.77,4.13l-4.3,6.07c-2.84-2.05-5.95-3.06-8.7-3.06c-2.08,0-3.1,0.84-3.1,1.99v0.09c0,1.42,1.07,2.05,5.41,3.01
			c7.09,1.56,11.53,3.85,11.53,9.66L357.21,136.76L357.21,136.76z M383.72,146.35l-2.22-5.6h-12.02l-2.22,5.58h-8.99l13.18-31.26
			h8.3l13.21,31.26h-9.22V146.35z M423.24,132.51c0,9.97-5.72,14.4-14.54,14.4c-8.79,0-14.31-4.48-14.31-14.19v-17.43h8.7v17.26
			c0,4.48,2.26,6.61,5.72,6.61c3.5,0,5.76-2.05,5.76-6.39v-17.46h8.7v17.2H423.24z M443.33,146.97c-8.87,0-16.01-6.79-16.01-16.05
			v-0.09c0-9.05,6.91-16.14,16.31-16.14c6.33,0,10.41,2.66,13.18,6.42l-6.48,5c-1.77-2.17-3.82-3.64-6.79-3.64
			c-4.34,0-7.4,3.73-7.4,8.24v0.09c0,4.65,3.06,8.29,7.4,8.29c3.24,0,5.14-1.51,7-3.76l6.48,4.6
			C454.11,143.99,450.15,146.97,443.33,146.97z M485.94,146.35h-25.18v-31.04h24.97v7.28h-16.45v4.74h14.89v6.79h-14.89v4.92h16.68
			v7.32H485.94z"/>
	</g>
	<g display="inline">
		<path fill="#D9D0BE" d="M263.85,351.33v-0.07c0-1.86-1.36-2.78-3.48-2.78h-4.25v5.62h4.29
			C262.55,354.1,263.85,353.03,263.85,351.33z"/>
		<path fill="#D9D0BE" d="M155.07,324.1v98.26h217.28V324.1H155.07z M334.9,342.93h6l9.56,12.29v-12.29h6.37v23.24h-5.62
			l-9.96-12.74v12.74h-6.37v-23.24H334.9z M316.54,342.77h6.21l9.89,23.4h-6.91l-1.66-4.18h-8.99l-1.66,4.18h-6.74L316.54,342.77z
			 M283.66,354.55c0-6.77,5.18-12.09,12.21-12.09c4.74,0,7.8,1.99,9.85,4.81l-4.85,3.74c-1.33-1.63-2.85-2.73-5.08-2.73
			c-3.26,0-5.55,2.78-5.55,6.18v0.07c0,3.48,2.29,6.21,5.55,6.21c2.42,0,3.85-1.12,5.25-2.82l4.85,3.45
			c-2.19,3.03-5.14,5.25-10.25,5.25c-6.63,0-11.99-5.07-11.99-12.02V354.55z M273.72,342.93h6.44v23.24h-6.44V342.93z
			 M249.67,342.93h10.99c3.55,0,6,0.93,7.56,2.48c1.36,1.36,2.07,3.11,2.07,5.41v0.07c0,3.59-1.89,5.95-4.78,7.18l5.55,8.1h-7.4
			l-4.69-7.04h-2.85v7.04h-6.44L249.67,342.93L249.67,342.93z M227.48,342.93h18.69v5.44h-12.32v3.55H245V357h-11.15v3.69h12.48
			v5.48h-18.87v-23.24H227.48z M180.28,342.77h6.21l9.89,23.4h-6.91l-1.66-4.18h-8.99l-1.66,4.18h-6.74L180.28,342.77z
			 M187.93,404.01c-9.12,0-16.45-6.96-16.45-16.48v-0.09c0-9.29,7.1-16.59,16.76-16.59c6.51,0,10.71,2.73,13.53,6.6l-6.65,5.15
			c-1.82-2.24-3.92-3.74-6.97-3.74c-4.46,0-7.61,3.83-7.61,8.47v0.09c0,4.78,3.15,8.52,7.61,8.52c3.33,0,5.29-1.54,7.19-3.87
			l6.65,4.74C198.99,400.96,194.95,404.01,187.93,404.01z M204.96,366.17h-6.32v-23.24h6.81l5.55,8.99l5.55-8.99h6.81v23.24h-6.4
			v-13.35l-5.95,9.1h-0.14l-5.91-9.06v13.32H204.96z M234.87,403.38h-8.84v-12.11h-11.34v12.11h-8.84v-31.89h8.84v11.94h11.34
			v-11.94h8.84V403.38z M266.4,403.38h-25.88v-31.89h25.66v7.47h-16.91v4.88h15.31v6.96h-15.31v5.06h17.13V403.38z M296.85,403.38
			h-25.88v-31.89h25.65v7.47h-16.9v4.88h15.31v6.96h-15.31v5.06h17.13V403.38z M326.85,393.52c0,6.51-5.14,10.39-12.9,10.39
			c-5.65,0-10.97-1.79-14.94-5.29l4.92-5.88c3.19,2.5,6.65,3.83,10.34,3.83c2.42,0,3.69-0.82,3.69-2.19v-0.09
			c0-1.37-1.05-2.05-5.42-3.1c-6.79-1.54-12.02-3.46-12.02-9.97v-0.09c0-5.91,4.69-10.2,12.34-10.2c5.43,0,9.66,1.45,13.12,4.23
			l-4.41,6.25c-2.92-2.1-6.11-3.15-8.93-3.15c-2.14,0-3.18,0.86-3.18,2.05v0.09c0,1.45,1.1,2.1,5.55,3.1
			c7.28,1.59,11.85,3.95,11.85,9.92V393.52z M357.02,403.38h-25.88v-31.89h25.65v7.47h-16.9v4.88h15.31v6.96h-15.31v5.06h17.13
			V403.38z"/>
		<polygon fill="#D9D0BE" points="183.33,350.4 180.72,356.98 185.92,356.98 		"/>
		<polygon fill="#D9D0BE" points="319.58,350.4 316.96,356.98 322.18,356.98 		"/>
	</g>
	<g display="inline">
		<path fill="#D9D0BE" d="M430.13,188.65c-5.04,0-8.4,4.06-8.4,8.82v0.09c0,4.76,3.45,8.93,8.49,8.93c5.01,0,8.35-4.06,8.35-8.82
			v-0.09C438.57,192.74,435.17,188.65,430.13,188.65z"/>
		<path fill="#D9D0BE" d="M338.4,188.65c-5.04,0-8.4,4.06-8.4,8.82v0.09c0,4.76,3.45,8.93,8.49,8.93c5.01,0,8.35-4.06,8.35-8.82
			v-0.09C346.85,192.74,343.45,188.65,338.4,188.65z"/>
		<polygon fill="#D9D0BE" points="216.34,201.01 223.74,201.01 220.06,191.66 		"/>
		<path fill="#D9D0BE" d="M32.53,166.74v62.16h494.92v-62.16H32.53z M76.88,214.08h-9.15v-12.55H55.98v12.55h-9.15v-33.02h9.15
			v12.35h11.74v-12.35h9.15V214.08z M107.22,214.08l-2.36-5.95H92.07l-2.36,5.95h-9.56l14.02-33.27h8.82l14.05,33.27H107.22z
			 M133.8,214.08h-9.15v-12.35l-12.6-20.67h10.43l6.79,12.04l6.84-12.04h10.24l-12.55,20.53V214.08z M173.88,203.89
			c0,6.74-5.34,10.76-13.35,10.76c-5.85,0-11.38-1.84-15.47-5.48l5.09-6.09c3.31,2.59,6.9,3.97,10.71,3.97
			c2.5,0,3.82-0.86,3.82-2.26v-0.09c0-1.42-1.09-2.12-5.62-3.2c-7.03-1.61-12.46-3.59-12.46-10.34v-0.09
			c0-6.14,4.87-10.57,12.79-10.57c5.62,0,10.01,1.5,13.58,4.39l-4.58,6.46c-3.03-2.17-6.32-3.26-9.24-3.26
			c-2.22,0-3.31,0.89-3.31,2.12v0.09c0,1.51,1.14,2.17,5.76,3.2c7.54,1.65,12.27,4.11,12.27,10.29v0.09H173.88z M194.62,214.08
			h-9.15v-25.01h-9.87v-8.02h28.93v8.02h-9.9V214.08L194.62,214.08z M228.78,214.08l-2.36-5.95h-12.79l-2.36,5.95h-9.57l14.02-33.27
			h8.82l14.05,33.27H228.78z M255.66,214.74c-9.43,0-17.03-7.21-17.03-17.08v-0.09c0-9.62,7.37-17.18,17.36-17.18
			c6.76,0,11.1,2.84,14.02,6.84l-6.89,5.34c-1.89-2.31-4.06-3.87-7.21-3.87c-4.62,0-7.88,3.96-7.88,8.77v0.09
			c0,4.95,3.26,8.82,7.88,8.82c3.45,0,5.48-1.61,7.45-4.01l6.9,4.92C267.12,211.57,262.92,214.74,255.66,214.74z M295.07,214.08
			l-8.35-12.27l-3.34,3.68v8.59h-9.15v-33.02h9.15v13.4l11.41-13.4h10.8l-12.49,14.16l12.93,18.87L295.07,214.08L295.07,214.08z
			 M356.23,197.56c0,9.49-7.65,17.17-17.83,17.17s-17.74-7.59-17.74-17.08v-0.09c0-9.48,7.65-17.18,17.83-17.18
			c10.19,0,17.74,7.6,17.74,17.08V197.56z M392.16,214.08h-7.98l-14.16-18.11v18.11h-9.07v-33.02h8.54l13.58,17.47v-17.46h9.07
			v33.02H392.16z M407.42,214.08h-9.15v-33.02h9.15V214.08z M447.96,197.56c0,9.49-7.65,17.17-17.83,17.17
			c-10.18,0-17.74-7.59-17.74-17.08v-0.09c0-9.48,7.65-17.18,17.83-17.18c10.18,0,17.74,7.6,17.74,17.08V197.56z M483.89,214.08
			h-7.98l-14.16-18.11v18.11h-9.07v-33.02h8.54l13.58,17.47v-17.46h9.07v33.02H483.89z M516.08,203.89
			c0,6.74-5.32,10.76-13.35,10.76c-5.84,0-11.38-1.84-15.47-5.48l5.09-6.09c3.31,2.59,6.89,3.97,10.71,3.97
			c2.5,0,3.81-0.86,3.81-2.26v-0.09c0-1.42-1.08-2.12-5.62-3.2c-7.04-1.61-12.46-3.59-12.46-10.34v-0.09
			c0-6.14,4.87-10.57,12.79-10.57c5.62,0,10.01,1.5,13.58,4.39l-4.57,6.46c-3.03-2.17-6.32-3.26-9.24-3.26
			c-2.22,0-3.31,0.89-3.31,2.12v0.09c0,1.51,1.14,2.17,5.76,3.2c7.54,1.65,12.27,4.11,12.27,10.29L516.08,203.89L516.08,203.89z"/>
		<polygon fill="#D9D0BE" points="94.76,201.01 102.18,201.01 98.49,191.66 		"/>
	</g>
</g>
<g>
	<rect x="206.17" y="494.84" fill="#D8D0BD" width="206.1" height="44.28"/>
	<path fill="#4B2E1F" d="M348.61,19.05l-23.23,28.98c-1.05,1.3-2.59,1.98-4.13,1.98c-1.16,0-2.31-0.37-3.29-1.16
		c-2.27-1.81-2.65-5.13-0.83-7.39l19.72-24.61c-5.58-0.85-11.31-1.48-17.17-1.86l-25.5,31.82c-1.04,1.3-2.58,1.98-4.13,1.98
		c-1.15,0-2.32-0.37-3.29-1.15c-2.28-1.81-2.65-5.13-0.82-7.4l20.58-25.66c-69.29,0.04-125.44,34.96-125.44,78.03h251.13
		C432.21,58.65,397.32,29.78,348.61,19.05z"/>
	<g>
		<path fill="#4B2E1F" d="M324.4,520.71h-5.51v4.8h5.58c2.2,0,3.46-0.86,3.46-2.38v-0.07C327.94,521.64,326.82,520.71,324.4,520.71z
			"/>
		<path fill="#4B2E1F" d="M326.86,513.38v-0.07c0-1.41-1.12-2.23-3.28-2.23h-4.69v4.58h4.54
			C325.63,515.65,326.86,514.9,326.86,513.38z"/>
		<path fill="#4B2E1F" d="M432.44,534.17v-41.9H180.85v41.9c0,5.32,4.32,9.62,9.65,9.62H422.8
			C428.13,543.79,432.44,539.49,432.44,534.17z M240.79,531.32h-21.15v-26.06h20.96v6.14h-13.81v3.95h12.51v5.7h-12.51v4.13h14
			V531.32z M268.89,527.82c-2.75,2.27-6.59,4.02-11.32,4.02c-8.12,0-14.18-5.58-14.18-13.48v-0.07c0-7.59,5.96-13.55,14.03-13.55
			c4.58,0,7.82,1.41,10.57,3.8l-4.24,5.1c-1.86-1.56-3.72-2.46-6.29-2.46c-3.76,0-6.66,3.16-6.66,7.15v0.07
			c0,4.21,2.94,7.22,7.07,7.22c1.75,0,3.09-0.37,4.17-1.08v-3.16h-5.14v-5.29h11.99V527.82z M297.52,527.82
			c-2.75,2.27-6.59,4.02-11.32,4.02c-8.12,0-14.18-5.58-14.18-13.48v-0.07c0-7.59,5.96-13.55,14.03-13.55
			c4.58,0,7.82,1.41,10.57,3.8l-4.24,5.1c-1.86-1.56-3.72-2.46-6.29-2.46c-3.76,0-6.66,3.16-6.66,7.15v0.07
			c0,4.21,2.94,7.22,7.07,7.22c1.75,0,3.09-0.37,4.17-1.08v-3.16h-5.14v-5.29h11.99V527.82z M335.16,524.14
			c0,4.47-3.65,7.18-9.86,7.18h-13.44v-26.06h13.37c3.28,0,5.58,0.82,7.11,2.35c1.04,1.04,1.68,2.42,1.68,4.21v0.08
			c0,3.01-1.71,4.8-4.02,5.81c3.16,1.04,5.17,2.83,5.17,6.37V524.14z M362.41,519.71c0,8.41-4.8,12.1-12.21,12.1
			c-7.41,0-12.06-3.76-12.06-11.91v-14.63h7.34v14.48c0,3.76,1.9,5.55,4.8,5.55c2.9,0,4.8-1.71,4.8-5.36v-14.67h7.33V519.71z
			 M391.3,531.32h-6.33l-11.13-14.3v14.3h-7.15v-26.06h6.74l10.72,13.77v-13.77h7.15V531.32z"/>
	</g>
	<g>
		<path fill="#D8D0BD" d="M350.04,251.11v-0.04c0-2.18-1.5-3.44-3.75-3.44h-1.53v6.92h1.53
			C348.54,254.54,350.04,253.3,350.04,251.11z"/>
		<path fill="#D8D0BD" d="M331.72,254.76c2.08,0,3.46-1.67,3.46-3.63v-0.04c0-1.96-1.42-3.67-3.5-3.67c-2.06,0-3.44,1.67-3.44,3.63
			v0.04C328.24,253.05,329.66,254.76,331.72,254.76z"/>
		<path fill="#D8D0BD" d="M213.35,316.43h245.02v-81.21H213.35V316.43z M299.54,305.45l-3.13-7.66h-16.55l-3.07,7.66h-12.51
			l18.27-43.22h11.47l18.27,43.22H299.54z M334.35,306.31c-12.26,0-22.13-9.38-22.13-22.19V284c0-12.51,9.63-22.32,22.62-22.32
			c8.77,0,14.41,3.68,18.21,8.95l-8.95,6.93c-2.45-3.07-5.27-5.03-9.38-5.03c-6.01,0-10.24,5.09-10.24,11.34V284
			c0,6.44,4.23,11.46,10.24,11.46c4.48,0,7.11-2.09,9.69-5.21l8.95,6.38C349.31,302.21,343.85,306.31,334.35,306.31z M436.56,244.29
			h5.25c4.86,0,7.67,2.8,7.67,6.72v0.04c0,3.92-2.86,6.84-7.75,6.84h-5.17V244.29z M423.6,244.29h10.94v3.2h-7.21v2.06h6.53v2.97
			h-6.53v2.16h7.3v3.21H423.6V244.29z M409.42,244.29h3.77v5.52l4.68-5.52h4.47l-5.15,5.85l5.32,7.75h-4.53l-3.42-5.05l-1.38,1.54
			v3.52h-3.77V244.29z M408.16,262.54h11.1l17.66,22.68v-22.68h11.77v42.92h-10.42l-18.33-23.54v23.54h-11.77V262.54z
			 M392.82,251.09c0-3.9,3.15-7.07,7.34-7.07c4.2,0,7.3,3.13,7.3,7.03v0.04c0,3.91-3.15,7.07-7.34,7.07c-4.2,0-7.3-3.13-7.3-7.03
			V251.09z M376.43,244.29h3.98l3.25,5.27l3.24-5.27h3.98v13.6h-3.75v-7.81l-3.48,5.32h-0.08l-3.46-5.29v7.77h-3.69V244.29z
			 M368.5,252.72c-2.9-0.66-5.13-1.48-5.13-4.27v-0.04c0-2.53,2-4.35,5.27-4.35c2.31,0,4.12,0.62,5.6,1.81l-1.88,2.66
			c-1.24-0.87-2.6-1.34-3.81-1.34c-0.91,0-1.36,0.39-1.36,0.87v0.04c0,0.62,0.47,0.89,2.35,1.32c3.13,0.68,5.07,1.69,5.07,4.24v0.04
			c0,2.78-2.2,4.43-5.5,4.43c-2.41,0-4.7-0.76-6.37-2.25l2.1-2.51c1.34,1.07,2.84,1.63,4.41,1.63c1.01,0,1.55-0.35,1.55-0.93v-0.04
			C370.8,253.46,370.35,253.15,368.5,252.72z M378.92,261.68c13.24,0,23.05,9.87,23.05,22.19V284c0,12.32-9.93,22.32-23.18,22.32
			c-13.24,0-23.05-9.87-23.05-22.19V284C355.74,271.67,365.67,261.68,378.92,261.68z M355.41,250.19h6.37v3.24h-6.37V250.19z
			 M340.98,244.29h5.25c4.86,0,7.67,2.8,7.67,6.72v0.04c0,3.92-2.86,6.84-7.75,6.84h-5.17V244.29z M324.38,251.09
			c0-3.9,3.15-7.07,7.34-7.07c4.2,0,7.31,3.13,7.31,7.03v0.04c0,3.91-3.15,7.07-7.34,7.07c-4.2,0-7.31-3.13-7.31-7.03V251.09z
			 M308.24,251.09c0-3.9,3.15-7.07,7.34-7.07s7.31,3.13,7.31,7.03v0.04c0,3.91-3.15,7.07-7.34,7.07c-4.2,0-7.31-3.13-7.31-7.03
			V251.09z M290.86,244.29l2.37,7.87l2.62-7.91h3.24l2.62,7.91l2.37-7.87h3.91l-4.55,13.7h-3.28l-2.74-7.83l-2.72,7.83h-3.28
			l-4.55-13.7H290.86z M274.83,244.29h10.94v3.2h-7.21v2.06h6.53v2.97h-6.53v2.16h7.31v3.21h-11.04V244.29z M262.87,244.29h3.77
			v10.3h6.59v3.3h-10.36V244.29z M262.26,293.62c0,7.36-6.01,11.83-16.25,11.83h-22.13v-42.92h22.01c5.4,0,9.2,1.35,11.71,3.86
			c1.72,1.72,2.76,3.99,2.76,6.93v0.12c0,4.97-2.82,7.91-6.62,9.56c5.21,1.71,8.52,4.66,8.52,10.48V293.62z M249.8,244.29h5.83
			c3.44,0,5.65,1.77,5.65,4.78v0.04c0,3.2-2.47,4.9-5.85,4.9h-1.87v3.89h-3.77V244.29z M236.73,244.29h5.83
			c3.44,0,5.65,1.77,5.65,4.78v0.04c0,3.2-2.47,4.9-5.85,4.9h-1.87v3.89h-3.77V244.29z M225.99,244.19h3.63l5.79,13.7h-4.04
			l-0.99-2.43h-5.25l-0.97,2.43h-3.96L225.99,244.19z"/>
		<path fill="#D8D0BD" d="M315.58,254.76c2.08,0,3.46-1.67,3.46-3.63v-0.04c0-1.96-1.42-3.67-3.5-3.67c-2.06,0-3.44,1.67-3.44,3.63
			v0.04C312.1,253.05,313.52,254.76,315.58,254.76z"/>
		<polygon fill="#D8D0BD" points="283.35,288.53 292.98,288.53 288.2,276.33 		"/>
		<polygon fill="#D8D0BD" points="227.78,248.66 226.24,252.52 229.29,252.52 		"/>
		<path fill="#D8D0BD" d="M257.51,249.28v-0.04c0-1.17-0.82-1.79-2.18-1.79h-1.77v3.6h1.79
			C256.7,251.05,257.51,250.35,257.51,249.28z"/>
		<path fill="#D8D0BD" d="M248.59,275.9v-0.12c0-2.33-1.84-3.68-5.4-3.68h-7.72v7.54h7.48C246.57,279.64,248.59,278.42,248.59,275.9
			z"/>
		<path fill="#D8D0BD" d="M400.16,254.76c2.08,0,3.46-1.67,3.46-3.63v-0.04c0-1.96-1.42-3.67-3.5-3.67c-2.06,0-3.44,1.67-3.44,3.63
			v0.04C396.68,253.05,398.1,254.76,400.16,254.76z"/>
		<path fill="#D8D0BD" d="M244.55,287.98h-9.07v7.91h9.2c3.62,0,5.7-1.41,5.7-3.92v-0.12C250.37,289.51,248.53,287.98,244.55,287.98
			z"/>
		<path fill="#D8D0BD" d="M445.61,251.11v-0.04c0-2.18-1.5-3.44-3.75-3.44h-1.53v6.92h1.53
			C444.11,254.54,445.61,253.3,445.61,251.11z"/>
		<path fill="#D8D0BD" d="M378.92,295.58c6.56,0,10.91-5.27,10.91-11.46V284c0-6.19-4.48-11.59-11.04-11.59
			c-6.5,0-10.85,5.27-10.85,11.46V284C367.94,290.19,372.42,295.58,378.92,295.58z"/>
		<path fill="#D8D0BD" d="M244.44,249.28v-0.04c0-1.17-0.82-1.79-2.18-1.79h-1.77v3.6h1.79
			C243.62,251.05,244.44,250.35,244.44,249.28z"/>
	</g>
	<g>
		<path fill="#D8D0BD" d="M298.89,120.3c-4.79,0-7.96,3.93-7.96,8.45v0.09c0,4.52,3.22,8.5,8.05,8.5c1.12,0,2.19-0.22,3.13-0.58
			l-4.34-3.71l4.38-4.92l4.25,3.89c0.36-0.98,0.54-2.01,0.54-3.13v-0.09C306.94,124.28,303.67,120.3,298.89,120.3z"/>
		<path fill="#D8D0BD" d="M266.2,131.66h-6.62v5.77h6.71c2.68,0,4.16-1.03,4.16-2.86v-0.09C270.45,132.78,269.1,131.66,266.2,131.66
			z"/>
		<path fill="#D8D0BD" d="M237.22,122.85v-0.09c0-1.74-1.39-2.68-3.93-2.68h-5.68v5.5h5.46
			C235.7,125.58,237.22,124.68,237.22,122.85z"/>
		<path fill="#D8D0BD" d="M234.22,131.66h-6.62v5.77h6.71c2.68,0,4.16-1.03,4.16-2.86v-0.09
			C238.47,132.78,237.13,131.66,234.22,131.66z"/>
		<path fill="#D8D0BD" d="M269.19,122.85v-0.09c0-1.74-1.39-2.68-3.93-2.68h-5.68v5.5h5.46
			C267.67,125.58,269.19,124.68,269.19,122.85z"/>
		<polygon fill="#D8D0BD" points="372.55,132.01 379.57,132.01 376.08,123.16 		"/>
		<path fill="#D8D0BD" d="M208.86,100.56v56.67h289.98v-56.67H208.86z M247.14,135.77c0,5.37-4.38,8.63-11.85,8.63h-16.14v-31.3
			h16.05c3.93,0,6.71,0.98,8.54,2.77c1.25,1.3,2.01,2.95,2.01,5.1v0.09c0,3.62-2.06,5.77-4.83,6.98c3.8,1.25,6.22,3.4,6.22,7.65
			V135.77z M279.12,135.77c0,5.37-4.38,8.63-11.85,8.63h-16.14v-31.3h16.05c3.93,0,6.71,0.98,8.54,2.77c1.25,1.3,2.01,2.95,2.01,5.1
			v0.09c0,3.62-2.06,5.77-4.83,6.98c3.8,1.25,6.22,3.4,6.22,7.65V135.77z M311.86,145.34l-3.44-3.09c-2.68,1.79-5.95,2.77-9.52,2.77
			c-9.66,0-16.81-7.2-16.81-16.19v-0.09c0-8.99,7.24-16.28,16.9-16.28c9.66,0,16.81,7.2,16.81,16.19v0.09
			c0,3.31-1.03,6.39-2.77,8.99l3.22,2.73L311.86,145.34z M357.61,134.74c0,6.39-5.05,10.2-12.65,10.2c-5.54,0-10.78-1.74-14.67-5.19
			l4.83-5.77c3.13,2.46,6.53,3.76,10.15,3.76c2.37,0,3.62-0.8,3.62-2.15v-0.09c0-1.34-1.03-2.01-5.32-3.04
			c-6.66-1.52-11.81-3.4-11.81-9.79v-0.09c0-5.81,4.61-10.02,12.12-10.02c5.32,0,9.48,1.43,12.88,4.16l-4.34,6.13
			c-2.86-2.06-5.99-3.09-8.76-3.09c-2.1,0-3.13,0.85-3.13,2.01v0.09c0,1.43,1.07,2.06,5.46,3.04c7.15,1.56,11.63,3.89,11.63,9.75
			V134.74z M384.35,144.4l-2.24-5.63H370l-2.24,5.63h-9.08l13.28-31.53h8.36l13.33,31.53H384.35z M424.2,130.45
			c0,10.06-5.77,14.53-14.67,14.53c-8.85,0-14.44-4.52-14.44-14.31V113.1h8.76v17.39c0,4.52,2.28,6.66,5.77,6.66
			c3.53,0,5.81-2.06,5.81-6.44V113.1h8.77V130.45z M444.46,145.03c-8.94,0-16.14-6.84-16.14-16.19v-0.09
			c0-9.12,6.98-16.28,16.46-16.28c6.39,0,10.51,2.68,13.28,6.48l-6.53,5.05c-1.79-2.19-3.85-3.67-6.84-3.67
			c-4.38,0-7.47,3.76-7.47,8.32v0.09c0,4.7,3.09,8.36,7.47,8.36c3.26,0,5.19-1.52,7.06-3.8l6.53,4.65
			C455.33,142.03,451.35,145.03,444.46,145.03z M487.43,144.4h-25.4v-31.3h25.18v7.33h-16.59v4.78h15.03v6.84h-15.03v4.96h16.81
			V144.4z"/>
	</g>
	<g>
		<path fill="#D8D0BD" d="M431.14,187.06c-5.09,0-8.47,4.09-8.47,8.9v0.1c0,4.8,3.47,8.99,8.56,8.99c5.04,0,8.42-4.09,8.42-8.9
			v-0.09C439.66,191.2,436.23,187.06,431.14,187.06z"/>
		<path fill="#D8D0BD" d="M338.65,187.06c-5.09,0-8.47,4.09-8.47,8.9v0.1c0,4.8,3.47,8.99,8.56,8.99c5.04,0,8.42-4.09,8.42-8.9
			v-0.09C347.16,191.2,343.74,187.06,338.65,187.06z"/>
		<polygon fill="#D8D0BD" points="215.54,199.52 223.01,199.52 219.3,190.1 		"/>
		<path fill="#D8D0BD" d="M30.2,164.96v62.68h499.1v-62.68H30.2z M74.9,212.7h-9.23v-12.66H53.83v12.66H44.6V179.4h9.23v12.47h11.85
			V179.4h9.23V212.7z M105.52,212.7l-2.38-5.99h-12.9l-2.38,5.99h-9.66l14.13-33.54h8.9l14.18,33.54H105.52z M132.32,212.7h-9.23
			v-12.47l-12.7-20.84h10.51l6.85,12.13l6.9-12.13h10.32l-12.66,20.7V212.7z M172.74,202.42c0,6.8-5.38,10.85-13.46,10.85
			c-5.9,0-11.47-1.86-15.61-5.52l5.14-6.14c3.33,2.62,6.95,4,10.8,4c2.52,0,3.85-0.86,3.85-2.28v-0.1c0-1.43-1.09-2.14-5.66-3.23
			c-7.09-1.62-12.56-3.61-12.56-10.42v-0.09c0-6.19,4.9-10.66,12.89-10.66c5.66,0,10.09,1.52,13.7,4.42l-4.62,6.52
			c-3.05-2.18-6.37-3.28-9.33-3.28c-2.24,0-3.33,0.9-3.33,2.14v0.09c0,1.52,1.14,2.19,5.81,3.23c7.61,1.67,12.37,4.14,12.37,10.37
			V202.42z M193.64,212.7h-9.23v-25.22h-9.95v-8.09h29.17v8.09h-9.99V212.7z M228.1,212.7l-2.38-5.99h-12.89l-2.38,5.99h-9.66
			l14.13-33.54h8.9L238,212.7H228.1z M255.2,213.37c-9.52,0-17.18-7.28-17.18-17.22v-0.09c0-9.71,7.42-17.32,17.51-17.32
			c6.81,0,11.18,2.86,14.13,6.9l-6.95,5.38c-1.9-2.33-4.09-3.9-7.28-3.9c-4.66,0-7.95,3.99-7.95,8.85v0.1c0,4.99,3.28,8.9,7.95,8.9
			c3.47,0,5.52-1.62,7.52-4.04l6.95,4.95C266.76,210.18,262.52,213.37,255.2,213.37z M294.94,212.7l-8.42-12.37l-3.38,3.71v8.66
			h-9.23V179.4h9.23v13.51l11.51-13.51h10.89l-12.61,14.28l13.04,19.03H294.94z M356.63,196.05c0,9.56-7.71,17.32-17.98,17.32
			c-10.28,0-17.89-7.66-17.89-17.22v-0.09c0-9.57,7.71-17.32,17.98-17.32c10.28,0,17.89,7.66,17.89,17.22V196.05z M392.86,212.7
			h-8.04l-14.28-18.27v18.27h-9.14V179.4h8.61l13.7,17.6v-17.6h9.14V212.7z M408.25,212.7h-9.23V179.4h9.23V212.7z M449.13,196.05
			c0,9.56-7.71,17.32-17.98,17.32c-10.28,0-17.89-7.66-17.89-17.22v-0.09c0-9.57,7.71-17.32,17.98-17.32
			c10.28,0,17.89,7.66,17.89,17.22V196.05z M485.36,212.7h-8.04l-14.28-18.27v18.27h-9.14V179.4h8.61l13.7,17.6v-17.6h9.14V212.7z
			 M517.83,202.42c0,6.8-5.37,10.85-13.46,10.85c-5.9,0-11.47-1.86-15.6-5.52l5.14-6.14c3.33,2.62,6.95,4,10.8,4
			c2.52,0,3.85-0.86,3.85-2.28v-0.1c0-1.43-1.1-2.14-5.66-3.23c-7.09-1.62-12.56-3.61-12.56-10.42v-0.09
			c0-6.19,4.9-10.66,12.89-10.66c5.66,0,10.09,1.52,13.7,4.42l-4.61,6.52c-3.05-2.18-6.38-3.28-9.33-3.28
			c-2.24,0-3.33,0.9-3.33,2.14v0.09c0,1.52,1.14,2.19,5.8,3.23c7.61,1.67,12.37,4.14,12.37,10.37V202.42z"/>
		<polygon fill="#D8D0BD" points="92.96,199.52 100.43,199.52 96.72,190.1 		"/>
	</g>
	<g>
		<path fill="#D8D0BD" d="M290.85,344.27h-3.44v15.51h3.44c5.06,0,8.41-2.79,8.41-7.71v-0.09
			C299.27,347.1,295.91,344.27,290.85,344.27z"/>
		<path fill="#D8D0BD" d="M170.1,324.93v99.77h249.83v-99.77H170.1z M362.15,336.55l12.99,30.72h-9.06l-2.22-5.45h-11.77l-2.18,5.45
			h-8.89L354,336.55H362.15z M312.3,336.77h11.77c10.89,0,17.21,6.28,17.21,15.08v0.09c0,8.8-6.41,15.34-17.39,15.34H312.3V336.77z
			 M249.89,336.77h24.53v7.19h-16.17v4.62h14.64v6.67h-14.64v4.84h16.39v7.19h-24.75V336.77z M183.86,352.02
			c0-8.89,6.84-15.86,16.08-15.86c6.23,0,10.24,2.61,12.94,6.36l-6.36,4.92c-1.74-2.18-3.75-3.57-6.67-3.57
			c-4.27,0-7.28,3.62-7.28,8.06v0.09c0,4.58,3.01,8.15,7.28,8.15c3.18,0,5.05-1.48,6.89-3.7l6.36,4.53
			c-2.88,3.97-6.75,6.89-13.51,6.89c-8.72,0-15.73-6.67-15.73-15.78V352.02z M204.21,413.47c-11.03,0-19.91-8.44-19.91-19.96v-0.11
			c0-11.25,8.66-20.07,20.35-20.07c7.89,0,12.96,3.31,16.38,8.05l-8.05,6.23c-2.21-2.76-4.74-4.52-8.44-4.52
			c-5.4,0-9.21,4.58-9.21,10.2v0.11c0,5.79,3.81,10.31,9.21,10.31c4.03,0,6.4-1.87,8.71-4.69l8.05,5.74
			C217.67,409.78,212.76,413.47,204.21,413.47z M225.18,367.28h-8.45v-30.5h8.45v11.42h10.85v-11.42h8.45v30.5h-8.45v-11.59h-10.85
			V367.28z M261.02,412.7h-10.7v-14.67h-13.73v14.67h-10.7v-38.61h10.7v14.45h13.73v-14.45h10.7V412.7z M299.19,412.7h-31.33v-38.61
			h31.05v9.1h-20.46v5.85h18.53v8.44h-18.53v6.12h20.74V412.7z M290.55,367.28h-11.59v-30.5h11.77c10.89,0,17.21,6.28,17.21,15.08
			v0.09C307.94,360.74,301.53,367.28,290.55,367.28z M334.87,412.7h-31.33v-38.61h31.05v9.1h-20.46v5.85h18.53v8.44h-18.53v6.12
			h20.74V412.7z M370.01,400.79c0,7.89-6.23,12.57-15.61,12.57c-6.84,0-13.35-2.15-18.09-6.4l5.96-7.11
			c3.81,3.03,8.05,4.63,12.52,4.63c2.87,0,4.41-0.99,4.41-2.65v-0.11c0-1.6-1.27-2.48-6.51-3.69c-8.22-1.88-14.56-4.19-14.56-12.13
			v-0.11c0-7.17,5.68-12.35,14.95-12.35c6.56,0,11.69,1.76,15.88,5.13l-5.35,7.56c-3.53-2.48-7.39-3.81-10.81-3.81
			c-2.59,0-3.86,1.1-3.86,2.48v0.11c0,1.76,1.32,2.54,6.67,3.75c8.88,1.93,14.39,4.8,14.39,12.02V400.79z M404.31,412.7h-31.33
			v-38.61h31.05v9.1h-20.46v5.85h18.53v8.44h-18.53v6.12h20.74V412.7z M396.41,367.28l-6.14-9.24h-0.09h-3.62v9.24h-8.45v-30.5
			h14.42c4.66,0,7.89,1.22,9.94,3.31c1.79,1.74,2.7,4.1,2.7,7.1v0.09c0,4.66-2.48,7.76-6.28,9.37l7.28,10.63H396.41z"/>
		<path fill="#D8D0BD" d="M332.61,352.07v-0.09c0-4.88-3.36-7.71-8.41-7.71h-3.44v15.51h3.44
			C329.25,359.78,332.61,356.99,332.61,352.07z"/>
		<path fill="#D8D0BD" d="M392.1,344.09h-5.53v7.32h5.58c2.88,0,4.53-1.39,4.53-3.62v-0.09
			C396.67,345.31,394.93,344.09,392.1,344.09z"/>
		<polygon fill="#D8D0BD" points="358.01,346.58 354.57,355.25 361.41,355.25 		"/>
	</g>
	<g>
		<path fill="#B9B9B9" d="M485.3,430.98H121.06v53.62H485.3V430.98z M161.74,463.75c0,5.62-4.46,8.96-11.17,8.96
			c-4.89,0-9.55-1.53-12.95-4.56l4.26-5.08c2.72,2.17,5.76,3.31,8.96,3.31c2.05,0,3.16-0.71,3.16-1.9v-0.07
			c0-1.15-0.9-1.78-4.66-2.64c-5.88-1.34-10.42-2.99-10.42-8.66v-0.08c0-5.12,4.07-8.82,10.7-8.82c4.7,0,8.37,1.26,11.36,3.66
			l-3.83,5.4c-2.53-1.78-5.29-2.72-7.73-2.72c-1.86,0-2.76,0.8-2.76,1.78v0.08c0,1.26,0.95,1.81,4.78,2.67
			c6.36,1.38,10.3,3.43,10.3,8.58V463.75z M195.5,472.24h-7.62v-15.83l-7.06,10.79h-0.16l-7.02-10.7v15.74h-7.5v-27.56h8.09
			l6.59,10.67l6.59-10.67h8.09V472.24z M221.19,472.24l-2.01-4.92h-10.66l-1.97,4.92h-8.05l11.76-27.75h7.38l11.76,27.75H221.19z
			 M254.75,463.75c0,5.62-4.46,8.96-11.17,8.96c-4.89,0-9.55-1.53-12.94-4.56l4.26-5.08c2.72,2.17,5.76,3.31,8.96,3.31
			c2.05,0,3.15-0.71,3.15-1.9v-0.07c0-1.15-0.91-1.78-4.66-2.64c-5.88-1.34-10.42-2.99-10.42-8.66v-0.08
			c0-5.12,4.06-8.82,10.69-8.82c4.7,0,8.37,1.26,11.37,3.66l-3.83,5.4c-2.53-1.78-5.29-2.72-7.74-2.72c-1.85,0-2.76,0.8-2.76,1.78
			v0.08c0,1.26,0.95,1.81,4.78,2.67c6.35,1.38,10.3,3.43,10.3,8.58V463.75z M284.28,472.24h-7.66v-10.47h-9.83v10.47h-7.65v-27.56
			h7.65v10.32h9.83v-10.32h7.66V472.24z M314.79,464.64c0,4.73-3.87,7.6-10.46,7.6h-14.25v-27.56h14.17c3.47,0,5.92,0.86,7.54,2.48
			c1.1,1.11,1.77,2.56,1.77,4.45v0.09c0,3.18-1.81,5.07-4.26,6.14c3.36,1.11,5.49,2.99,5.49,6.74V464.64z M344.39,459.97
			c0,8.9-5.09,12.79-12.94,12.79c-7.86,0-12.79-3.98-12.79-12.6v-15.47h7.78V460c0,3.98,2.01,5.87,5.09,5.87
			c3.08,0,5.09-1.81,5.09-5.67v-15.51h7.78V459.97z M366.49,472.24l-5.56-8.34h-0.08h-3.28v8.34h-7.66v-27.56h13.07
			c4.22,0,7.13,1.1,8.99,2.99c1.62,1.58,2.45,3.71,2.45,6.42v0.08c0,4.21-2.25,7-5.69,8.46l6.59,9.6H366.49z M404.5,468.54
			c-2.92,2.4-6.98,4.25-12,4.25c-8.6,0-15.04-5.9-15.04-14.25v-0.08c0-8.03,6.31-14.32,14.88-14.32c4.85,0,8.29,1.49,11.21,4.02
			l-4.5,5.39c-1.97-1.65-3.95-2.6-6.67-2.6c-3.98,0-7.06,3.34-7.06,7.56v0.08c0,4.45,3.12,7.64,7.5,7.64c1.86,0,3.28-0.4,4.43-1.14
			v-3.36h-5.45v-5.58h12.71V468.54z M432.18,472.24h-22.42v-27.56h22.22v6.5h-14.64v4.17h13.26v6.02h-13.26v4.38h14.84V472.24z
			 M453.8,472.24l-5.56-8.34h-0.08h-3.28v8.34h-7.66v-27.56h13.07c4.22,0,7.14,1.1,9,2.99c1.62,1.58,2.45,3.71,2.45,6.42v0.08
			c0,4.21-2.25,7-5.68,8.46l6.59,9.6H453.8z"/>
		<path fill="#B9B9B9" d="M362.58,451.3h-5.01v6.62h5.05c2.6,0,4.1-1.26,4.1-3.26v-0.09C366.73,452.41,365.14,451.3,362.58,451.3z"
			/>
		<path fill="#B9B9B9" d="M449.88,451.3h-5.01v6.62h5.05c2.6,0,4.11-1.26,4.11-3.26v-0.09C454.03,452.41,452.45,451.3,449.88,451.3z
			"/>
		<path fill="#B9B9B9" d="M303.38,461.02h-5.84v5.08h5.92c2.33,0,3.67-0.91,3.67-2.52v-0.08
			C307.13,462.01,305.94,461.02,303.38,461.02z"/>
		<path fill="#B9B9B9" d="M305.99,453.27v-0.08c0-1.49-1.18-2.37-3.47-2.37h-4.97v4.85h4.81
			C304.68,455.68,305.99,454.88,305.99,453.27z"/>
		<polygon fill="#B9B9B9" points="210.77,461.38 216.97,461.38 213.89,453.55 		"/>
	</g>
</g>
</svg>
