<?xml version="1.0" encoding="utf-8"?>
<!-- Generator: Adobe Illustrator 18.1.0, SVG Export Plug-In . SVG Version: 6.00 Build 0)  -->
<svg version="1.1" id="Layer_1" xmlns="http://www.w3.org/2000/svg" xmlns:xlink="http://www.w3.org/1999/xlink" x="0px" y="0px"
	 viewBox="0 0 560 560" enable-background="new 0 0 560 560" xml:space="preserve">
<g id="classic_smash" display="none">
	<rect x="192" y="507.5" display="inline" fill="#D9D0BE" width="164.4" height="28.9"/>
	<g display="inline">
		<path fill="#492E1E" d="M289.6,524.2H285v4h4.6c1.8,0,2.9-0.7,2.9-2v-0.1C292.5,525,291.6,524.2,289.6,524.2z"/>
		<path fill="#492E1E" d="M291.6,518.2L291.6,518.2c0-1.2-0.9-1.9-2.7-1.9H285v3.8h3.7C290.6,520,291.6,519.4,291.6,518.2z"/>
		<path fill="#492E1E" d="M379.2,535.4v-34.8H170.5v34.8c0,4.4,3.6,8,8,8h192.7C375.6,543.4,379.2,539.8,379.2,535.4z M220.2,533
			h-17.6v-21.6H220v5.1h-11.5v3.3H219v4.7h-10.4v3.4h11.6L220.2,533L220.2,533z M243.5,530.2c-2.3,1.9-5.5,3.3-9.4,3.3
			c-6.7,0-11.8-4.6-11.8-11.2v-0.1c0-6.3,4.9-11.2,11.6-11.2c3.8,0,6.5,1.2,8.8,3.2l-3.5,4.2c-1.5-1.3-3.1-2-5.2-2
			c-3.1,0-5.5,2.6-5.5,5.9v0.1c0,3.5,2.4,6,5.9,6c1.4,0,2.6-0.3,3.5-0.9v-2.6h-4.3v-4.4h9.9V530.2L243.5,530.2z M267.3,530.2
			c-2.3,1.9-5.5,3.3-9.4,3.3c-6.7,0-11.8-4.6-11.8-11.2v-0.1c0-6.3,4.9-11.2,11.6-11.2c3.8,0,6.5,1.2,8.8,3.2l-3.5,4.2
			c-1.5-1.3-3.1-2-5.2-2c-3.1,0-5.5,2.6-5.5,5.9v0.1c0,3.5,2.4,6,5.9,6c1.5,0,2.6-0.3,3.5-0.9v-2.6h-4.3v-4.4h9.9L267.3,530.2
			L267.3,530.2L267.3,530.2z M298.5,527.1c0,3.7-3,6-8.2,6h-11.1v-21.6h11.1c2.7,0,4.6,0.7,5.9,1.9c0.9,0.9,1.4,2,1.4,3.5v0.1
			c0,2.5-1.4,4-3.3,4.8C296.8,522.6,298.5,524.1,298.5,527.1L298.5,527.1L298.5,527.1L298.5,527.1z M321.1,523.4c0,7-4,10-10.1,10
			s-10-3.1-10-9.9v-12.1h6.1v12c0,3.1,1.6,4.6,4,4.6s4-1.4,4-4.5v-12.2h6.1L321.1,523.4L321.1,523.4L321.1,523.4z M345.1,533h-5.2
			l-9.2-11.9V533h-5.9v-21.6h5.6l8.9,11.4v-11.4h5.9L345.1,533L345.1,533z"/>
	</g>
	<path display="inline" fill="#492E1E" d="M309.6,22l-19.3,24c-0.9,1.1-2.1,1.7-3.4,1.7c-1,0-1.9-0.3-2.7-1
		c-1.9-1.5-2.2-4.2-0.7-6.1l16.4-20.4c-4.6-0.7-9.4-1.2-14.2-1.5l-21.2,26.4c-0.9,1.1-2.1,1.7-3.4,1.7c-0.9,0-1.9-0.3-2.7-1
		c-1.9-1.5-2.2-4.2-0.7-6.1l17.1-21.3c-57.5,0-104.1,29-104.1,64.7H379C379,54.9,350,31,309.6,22z"/>
	<g display="inline">
		<polygon fill="#D9D0BE" points="198.9,113.1 203.4,113.1 201.1,107.2 		"/>
		<path fill="#D9D0BE" d="M126.3,89v42h280.3V89H126.3z M156.2,114.4c0,5.2-4.2,8.3-10.9,8.3c-5,0-9.5-1.4-12.6-4.2l4.4-5.2
			c2.7,2,5.7,2.9,8.6,2.9c1.5,0,2.1-0.4,2.1-1.1v-0.1c0-0.7-0.8-1.1-3.4-1.6c-5.5-1.1-10.4-2.7-10.4-7.9v-0.1
			c0-4.7,3.7-8.3,10.4-8.3c4.7,0,8.2,1.1,11.1,3.4l-4,5.6c-2.3-1.7-5.1-2.4-7.4-2.4c-1.2,0-1.8,0.4-1.8,1v0.1c0,0.7,0.7,1.1,3.3,1.6
			C152,107.6,156.2,109.4,156.2,114.4L156.2,114.4L156.2,114.4L156.2,114.4z M185.7,122.3h-8.2v-12.2l-5.6,8.8h-0.1l-5.6-8.8v12.2
			h-8V97.7h8.6l5.3,8.6l5.3-8.6h8.6L185.7,122.3C185.8,122.3,185.7,122.3,185.7,122.3z M206.7,122.3l-1.3-3.3h-8.6l-1.3,3.3h-8.8
			l10.4-24.8h8.1l10.4,24.8H206.7z M237.7,114.4c0,5.2-4.2,8.3-10.9,8.3c-5,0-9.5-1.4-12.6-4.2l4.4-5.2c2.7,2,5.7,2.9,8.6,2.9
			c1.5,0,2.1-0.4,2.1-1.1v-0.1c0-0.7-0.8-1.1-3.4-1.6c-5.5-1.1-10.4-2.7-10.4-7.9v-0.1c0-4.7,3.7-8.3,10.4-8.3
			c4.7,0,8.2,1.1,11.1,3.4l-4,5.6c-2.3-1.7-5.1-2.4-7.4-2.4c-1.2,0-1.8,0.4-1.8,1v0.1c0,0.7,0.7,1.1,3.3,1.6
			C233.5,107.6,237.7,109.4,237.7,114.4L237.7,114.4L237.7,114.4L237.7,114.4z M263.5,122.3h-8.2v-8.8h-7.5v8.8h-8.2V97.7h8.2v8.7
			h7.5v-8.7h8.2V122.3z M285.8,122.7c-5,0-9.5-1.4-12.6-4.2l4.4-5.2c2.7,2,5.7,2.9,8.6,2.9c1.5,0,2.1-0.4,2.1-1.1v-0.1
			c0-0.7-0.8-1.1-3.4-1.6c-5.5-1.1-10.4-2.7-10.4-7.9v-0.1c0-4.7,3.7-8.3,10.4-8.3c4.7,0,8.2,1.1,11.1,3.4l-4,5.6
			c-2.3-1.7-5.1-2.4-7.4-2.4c-1.2,0-1.8,0.4-1.8,1v0.1c0,0.7,0.7,1.1,3.3,1.6c6.3,1.2,10.5,3,10.5,7.9v0.1
			C296.7,119.6,292.4,122.7,285.8,122.7z M316.2,122.3l-1.3-3.3h-8.6l-1.3,3.3h-8.8l10.4-24.8h8.1l10.4,24.8H316.2z M349.2,111.1
			c0,8.4-4.9,11.7-12.2,11.7s-12.1-3.4-12.1-11.5V97.7h8.4v13.4c0,3.1,1.6,4.4,3.8,4.4c2.2,0,3.8-1.2,3.8-4.2V97.7h8.4L349.2,111.1
			L349.2,111.1z M364,122.8c-6.8,0-12.7-5.1-12.7-12.7V110c0-7.3,5.7-12.8,13-12.8c5.4,0,9.1,2.6,11.1,6.4l-6.8,4
			c-0.9-1.8-2.2-3-4.5-3c-2.8,0-4.6,2.4-4.6,5.4v0.1c0,3.2,1.9,5.4,4.6,5.4c2.3,0,3.6-1.3,4.6-3.1l6.8,3.8
			C373.5,119.8,370.1,122.8,364,122.8z M398.3,122.3h-21.1V97.7h21v6.7h-12.9v2.5h12v5.9h-12v2.7h13.1V122.3z"/>
		<polygon fill="#D9D0BE" points="308.4,113.1 312.9,113.1 310.6,107.2 		"/>
	</g>
	<g display="inline">
		<path fill="#D9D0BE" d="M166.3,136.5v36.7h164.8v-36.7H166.3z M187.5,165.9l-4.2-6.8l-1.8,2.2v4.6h-7.2v-21.5h7.2v8l6.1-8h8.3
			l-7.5,9.3l7.6,12.1H187.5z M215.1,165.9h-18.4v-21.5H215v5.9h-11.2v2.2h10.5v5.2h-10.5v2.3h11.4L215.1,165.9L215.1,165.9z
			 M236,150.5h-6.3v15.4h-7.2v-15.4h-6.3v-6.1H236L236,150.5L236,150.5z M247.4,166.3c-5.9,0-11.1-4.5-11.1-11.1v-0.1
			c0-6.4,5-11.2,11.4-11.2c4.7,0,7.9,2.3,9.7,5.6l-5.9,3.5c-0.8-1.5-1.9-2.6-3.9-2.6c-2.4,0-4,2.1-4,4.7v0.1c0,2.8,1.7,4.8,4,4.8
			c2,0,3.1-1.1,4-2.7l5.9,3.3C255.7,163.7,252.7,166.3,247.4,166.3z M279.8,165.9h-7.2v-7.7h-6.6v7.7h-7.2v-21.5h7.2v7.6h6.6v-7.6
			h7.2V165.9z M303.3,156.1c0,7.3-4.2,10.2-10.7,10.2c-6.4,0-10.5-2.9-10.5-10.1v-11.8h7.3v11.7c0,2.7,1.4,3.8,3.3,3.8
			s3.3-1.1,3.3-3.6v-11.9h7.3L303.3,156.1L303.3,156.1L303.3,156.1z M324.8,152.1c0,5.2-4,7.9-9.8,7.9h-2.3v5.8h-7.2v-21.5h9.7
			C320.9,144.4,324.8,147,324.8,152.1L324.8,152.1L324.8,152.1z"/>
		<path fill="#D9D0BE" d="M314.7,150.1h-2v4.8h1.9c1.8,0,3.1-0.8,3.1-2.4v-0.1C317.7,151,316.6,150.1,314.7,150.1z"/>
	</g>
	<g display="inline">
		<polygon fill="#D9D0BE" points="340.4,394.8 338.3,400.1 342.5,400.1 		"/>
		<path fill="#D9D0BE" d="M378.4,384.3H214v58.4h164.4V384.3z M337.9,388.7h5l8,18.9h-5.6l-1.4-3.4h-7.2l-1.4,3.4H330L337.9,388.7z
			 M311.4,398.2c0-5.5,4.2-9.8,9.9-9.8c3.8,0,6.3,1.6,8,3.9l-3.9,3c-1.1-1.4-2.3-2.2-4.1-2.2c-2.6,0-4.5,2.2-4.5,5v0
			c0,2.8,1.9,5,4.5,5c2,0,3.1-0.9,4.2-2.3l3.9,2.8c-1.8,2.5-4.2,4.2-8.3,4.2C315.7,407.9,311.4,403.8,311.4,398.2L311.4,398.2
			L311.4,398.2L311.4,398.2z M303.4,388.8h5.2v18.8h-5.2V388.8z M284,388.8h8.9c2.9,0,4.9,0.8,6.1,2c1.1,1.1,1.7,2.5,1.7,4.4v0
			c0,2.9-1.5,4.8-3.9,5.8l4.5,6.5h-6l-3.8-5.7h0h-2.2v5.7H284L284,388.8L284,388.8L284,388.8z M266,388.8h15.1v4.4h-10v2.8h9v4.1h-9
			v3h10.1v4.4h-15.2L266,388.8L266,388.8z M227.9,388.7h5l8,18.9h-5.6l-1.4-3.4h-7.2l-1.4,3.4h-5.5L227.9,388.7z M234.4,437.1
			c-7.3,0-13.2-5.6-13.2-13.2v-0.1c0-7.5,5.7-13.3,13.5-13.3c5.2,0,8.6,2.2,10.9,5.3l-5.3,4.1c-1.5-1.8-3.1-3-5.6-3
			c-3.6,0-6.1,3-6.1,6.8v0.1c0,3.9,2.5,6.8,6.1,6.8c2.7,0,4.2-1.2,5.8-3.1l5.3,3.8C243.3,434.6,240.1,437.1,234.4,437.1z
			 M247.9,407.6h-5.1v-18.8h5.5l4.5,7.3l4.5-7.3h5.5v18.8h-5.2v-10.8l-4.8,7.4h-0.1l-4.8-7.3L247.9,407.6L247.9,407.6z M272.1,436.6
			H265v-9.7h-9.1v9.7h-7.1V411h7.1v9.6h9.1V411h7.1V436.6z M297.4,436.6h-20.8V411h20.6v6h-13.6v3.9h12.3v5.6h-12.3v4.1h13.8
			L297.4,436.6L297.4,436.6L297.4,436.6z M321.8,436.6H301V411h20.6v6H308v3.9h12.3v5.6H308v4.1h13.8L321.8,436.6L321.8,436.6z
			 M345.8,428.7c0,5.2-4.1,8.4-10.4,8.4c-4.5,0-8.9-1.4-12-4.2l4-4.7c2.5,2,5.3,3.1,8.3,3.1c1.9,0,2.9-0.7,2.9-1.8v-0.1
			c0-1.1-0.8-1.6-4.3-2.5c-5.4-1.2-9.7-2.8-9.7-8v-0.1c0-4.8,3.8-8.2,9.9-8.2c4.4,0,7.8,1.2,10.5,3.4l-3.5,5
			c-2.4-1.6-4.9-2.5-7.2-2.5c-1.7,0-2.6,0.7-2.6,1.6v0.1c0,1.2,0.9,1.7,4.4,2.5C342.2,421.9,345.8,423.8,345.8,428.7L345.8,428.7
			L345.8,428.7z M370,436.6h-20.8V411h20.6v6h-13.6v3.9h12.3v5.6h-12.3v4.1H370L370,436.6L370,436.6L370,436.6z M370.5,407.6h-4.6
			l-8-10.3v10.3h-5.1v-18.8h4.9l7.7,9.9v-9.9h5.1L370.5,407.6L370.5,407.6z"/>
		<polygon fill="#D9D0BE" points="230.4,394.8 228.3,400.1 232.5,400.1 		"/>
		<path fill="#D9D0BE" d="M295.4,395.6L295.4,395.6c0-1.5-1.1-2.3-2.8-2.3h-3.4v4.5h3.4C294.4,397.8,295.4,396.9,295.4,395.6z"/>
	</g>
	<g display="inline">
		<path fill="#D9D0BE" d="M171.4,228.4h220.5v-49.7H171.4V228.4z M352.7,188.8H376v6.8h-15.3v4.4h13.9v6.3h-13.9v4.6h15.5v6.8h-23.5
			L352.7,188.8L352.7,188.8z M321.6,203.3c0-8.4,6.5-15.1,15.2-15.1c5.9,0,9.7,2.5,12.3,6l-6,4.7c-1.6-2.1-3.5-3.4-6.3-3.4
			c-4,0-6.9,3.4-6.9,7.6v0.1c0,4.3,2.9,7.7,6.9,7.7c3,0,4.8-1.4,6.5-3.5l6,4.3c-2.7,3.8-6.4,6.5-12.8,6.5
			C328.2,218.4,321.6,212,321.6,203.3L321.6,203.3L321.6,203.3z M290.9,188.8h8.1v16.1c0,4.2,2.1,6.2,5.3,6.2s5.3-1.9,5.3-5.9v-16.3
			h8.1v16c0,9.4-5.3,13.4-13.6,13.4c-8.2,0-13.4-4.2-13.4-13.2L290.9,188.8L290.9,188.8z M262.3,188.8h25.4v7H279v21.9h-8v-21.9
			h-8.7L262.3,188.8L262.3,188.8z M235.1,188.8h25.4v7h-8.7v21.9h-8v-21.9h-8.7L235.1,188.8L235.1,188.8z M209.1,188.8h23.3v6.8H217
			v4.4h13.9v6.3H217v4.6h15.5v6.8h-23.5L209.1,188.8L209.1,188.8z M183.7,188.8h8v21.9h14v7h-22V188.8z"/>
	</g>
	<g display="inline">
		<path fill="#D9D0BE" d="M313.3,315.8c3.4,0,5.6-2.7,5.6-5.9v-0.1c0-3.2-2.3-6-5.7-6c-3.3,0-5.6,2.7-5.6,5.9v0.1
			C307.6,313,309.9,315.8,313.3,315.8z"/>
		<path fill="#D9D0BE" d="M217.5,315.8c3.4,0,5.6-2.7,5.6-5.9v-0.1c0-3.2-2.3-6-5.7-6c-3.3,0-5.6,2.7-5.6,5.9v0.1
			C211.9,313,214.2,315.8,217.5,315.8z"/>
		<polygon fill="#D9D0BE" points="270.5,305.9 268,312.2 273,312.2 		"/>
		<path fill="#D9D0BE" d="M170.7,329h168.4v-38H170.7V329z M301.3,309.8c0-6.4,5.1-11.5,11.9-11.5s11.9,5.1,11.9,11.4v0.1
			c0,6.4-5.1,11.5-11.9,11.5S301.3,316.3,301.3,309.8L301.3,309.8z M281,298.8h19.4v5.4h-6.6v16.7h-6.1v-16.7H281L281,298.8
			L281,298.8z M267.6,298.6h5.9l9.4,22.2h-6.6l-1.6-3.9h-8.5l-1.6,3.9h-6.4L267.6,298.6z M232.6,298.8h6.5l5.3,8.6l5.3-8.6h6.5v22.1
			H250v-12.7l-5.6,8.6h-0.1l-5.6-8.6v12.6h-6L232.6,298.8L232.6,298.8z M205.6,309.8c0-6.4,5.1-11.5,11.9-11.5
			c6.8,0,11.9,5.1,11.9,11.4v0.1c0,6.4-5.1,11.5-11.9,11.5S205.6,316.3,205.6,309.8L205.6,309.8L205.6,309.8z M185.2,298.8h19.4v5.4
			H198v16.7h-6.1v-16.7h-6.6L185.2,298.8L185.2,298.8z"/>
	</g>
	<g display="inline">
		<path fill="#D9D0BE" d="M417.3,234H217.1v50h200.3V234z M264.4,259.8c0,10.7-8.6,19.3-20,19.3c-11.4,0-19.9-8.5-19.9-19.2v-0.1
			c0-10.7,8.6-19.3,20-19.3c11.4,0,19.9,8.5,19.9,19.2L264.4,259.8L264.4,259.8L264.4,259.8z M304.8,278.4h-9L280,258v20.4h-10.2
			v-37.1h9.6l15.3,19.6v-19.6h10.2L304.8,278.4L304.8,278.4z M321.9,278.4h-10.3v-37.1h10.3V278.4z M367.4,259.8
			c0,10.7-8.6,19.3-20,19.3s-19.9-8.5-19.9-19.2v-0.1c0-10.7,8.6-19.3,20-19.3s19.9,8.5,19.9,19.2L367.4,259.8L367.4,259.8
			L367.4,259.8z M407.8,278.4h-9L382.9,258v20.4h-10.2v-37.1h9.6l15.3,19.6v-19.6h10.2V278.4z"/>
		<path fill="#D9D0BE" d="M244.4,249.8c-5.6,0-9.4,4.6-9.4,9.9v0.1c0,5.4,3.9,10,9.5,10c5.7,0,9.4-4.5,9.4-9.9v-0.1
			C253.9,254.5,250.1,249.8,244.4,249.8z"/>
		<path fill="#D9D0BE" d="M347.3,249.8c-5.6,0-9.4,4.6-9.4,9.9v0.1c0,5.4,3.9,10,9.5,10c5.7,0,9.4-4.5,9.4-9.9v-0.1
			C356.9,254.5,353,249.8,347.3,249.8z"/>
	</g>
	<g display="inline">
		<path fill="#D9D0BE" d="M176.9,335.5v42.3h208.8v-42.3H176.9z M212.5,352.1c0,7.4-5.7,11.3-13.5,11.3h-4.3v9h-8.7V341h13.4
			C207.5,341,212.6,345.1,212.5,352.1L212.5,352.1L212.5,352.1z M225.1,372.3h-8.7V341h8.7V372.3z M245.9,373
			c-9,0-16.2-6.8-16.2-16.2v-0.1c0-9.1,7-16.3,16.5-16.3c6.4,0,10.5,2.7,13.3,6.5l-6.5,5.1c-1.8-2.2-3.9-3.7-6.8-3.7
			c-4.4,0-7.5,3.7-7.5,8.3v0.1c0,4.7,3.1,8.4,7.5,8.4c3.3,0,5.2-1.5,7.1-3.8l6.5,4.7C256.9,370,252.9,373,245.9,373z M283.3,372.3
			l-7.9-11.6l-3.2,3.5v8.1h-8.7V341h8.7v12.7L283,341h10.3l-11.9,13.5l12.3,17.9H283.3L283.3,372.3z M320.1,372.3h-23.9V341h8.7
			v23.7h15.2V372.3z M349.2,372.3h-25.4V341H349v7.4h-16.6v4.7h15v6.8h-15v5h16.8L349.2,372.3L349.2,372.3z M378.6,362.7
			c0,6.4-5.1,10.2-12.7,10.2c-5.5,0-10.8-1.8-14.7-5.2l4.8-5.8c3.1,2.5,6.5,3.8,10.2,3.8c2.3,0,3.6-0.8,3.6-2.1v-0.1
			c0-1.3-1-2-5.3-3c-6.7-1.5-11.8-3.4-11.8-9.9v-0.1c0-5.8,4.6-10,12.1-10c5.3,0,9.5,1.4,12.9,4.2l-4.3,6.1c-2.9-2-6-3.1-8.8-3.1
			c-2.1,0-3.1,0.9-3.1,2v0.1c0,1.4,1.1,2.1,5.4,3c7.2,1.6,11.7,3.9,11.7,9.8L378.6,362.7L378.6,362.7z"/>
		<path fill="#D9D0BE" d="M198.9,348.3h-4.1v8.3h4.1c3.1,0,5-1.6,5-4.1v-0.1C203.9,349.7,202,348.3,198.9,348.3z"/>
	</g>
	<g display="inline">
		<path fill="#BABABA" d="M432.6,449.4H130.5v44.5h302.2L432.6,449.4L432.6,449.4z M164.2,476.6c0,4.7-3.7,7.4-9.3,7.4
			c-4.1,0-7.9-1.3-10.7-3.8l3.5-4.2c2.3,1.8,4.8,2.8,7.4,2.8c1.7,0,2.6-0.6,2.6-1.6v0c0-1-0.8-1.5-3.9-2.2c-4.9-1.1-8.6-2.5-8.6-7.2
			v-0.1c0-4.2,3.4-7.3,8.9-7.3c3.9,0,6.9,1,9.4,3l-3.2,4.5c-2.1-1.5-4.4-2.3-6.4-2.3c-1.5,0-2.3,0.7-2.3,1.5v0.1c0,1,0.8,1.5,4,2.2
			C161,470.6,164.2,472.2,164.2,476.6L164.2,476.6L164.2,476.6z M192.2,483.6h-6.3v-13.1l-5.9,9h-0.1l-5.8-8.9v13h-6.2v-22.9h6.7
			l5.5,8.9l5.5-8.9h6.7V483.6L192.2,483.6z M213.6,483.6l-1.7-4.1h-8.8l-1.6,4.1h-6.7l9.8-23h6.1l9.8,23H213.6z M241.4,476.6
			c0,4.7-3.7,7.4-9.3,7.4c-4.1,0-7.9-1.3-10.7-3.8l3.5-4.2c2.3,1.8,4.8,2.8,7.4,2.8c1.7,0,2.6-0.6,2.6-1.6v0c0-1-0.8-1.5-3.9-2.2
			c-4.9-1.1-8.6-2.5-8.6-7.2v-0.1c0-4.2,3.4-7.3,8.9-7.3c3.9,0,6.9,1,9.4,3l-3.2,4.5c-2.1-1.5-4.4-2.3-6.4-2.3
			c-1.5,0-2.3,0.7-2.3,1.5v0.1c0,1,0.8,1.5,4,2.2C238.1,470.6,241.4,472.2,241.4,476.6L241.4,476.6L241.4,476.6z M265.9,483.6h-6.4
			V475h-8.1v8.7H245v-22.9h6.4v8.6h8.1v-8.6h6.4V483.6z M291.2,477.3c0,3.9-3.2,6.3-8.7,6.3h-11.8v-22.9h11.8c2.9,0,4.9,0.7,6.2,2
			c0.9,0.9,1.5,2.1,1.5,3.7v0.1c0,2.6-1.5,4.2-3.5,5.1C289.4,472.6,291.2,474.2,291.2,477.3L291.2,477.3L291.2,477.3L291.2,477.3z
			 M315.8,473.5c0,7.4-4.2,10.6-10.8,10.6s-10.6-3.3-10.6-10.5v-12.8h6.5v12.7c0,3.3,1.7,4.9,4.2,4.9c2.5,0,4.2-1.5,4.2-4.7v-12.9
			h6.5L315.8,473.5L315.8,473.5z M334.1,483.6l-4.6-6.9h-0.1h-2.7v6.9h-6.4v-22.9h10.9c3.5,0,5.9,0.9,7.5,2.5c1.4,1.3,2,3.1,2,5.3
			v0.1c0,3.5-1.9,5.8-4.7,7l5.5,8L334.1,483.6L334.1,483.6z M365.6,480.6c-2.4,2-5.8,3.5-10,3.5c-7.1,0-12.5-4.9-12.5-11.8v-0.1
			c0-6.7,5.2-11.9,12.3-11.9c4,0,6.9,1.2,9.3,3.3l-3.7,4.5c-1.6-1.4-3.3-2.1-5.5-2.1c-3.3,0-5.9,2.8-5.9,6.3v0.1
			c0,3.7,2.6,6.3,6.2,6.3c1.5,0,2.7-0.3,3.7-1v-2.8h-4.5v-4.6h10.5L365.6,480.6L365.6,480.6L365.6,480.6z M388.6,483.6H370v-22.9
			h18.4v5.4h-12.1v3.5h11v5h-11v3.6h12.3V483.6L388.6,483.6z M406.5,483.6l-4.6-6.9h-0.1h-2.7v6.9h-6.4v-22.9h10.9
			c3.5,0,5.9,0.9,7.5,2.5c1.4,1.3,2,3.1,2,5.3v0.1c0,3.5-1.9,5.8-4.7,7l5.5,8L406.5,483.6L406.5,483.6L406.5,483.6z"/>
		<path fill="#BABABA" d="M330.9,466.3h-4.1v5.5h4.2c2.1,0,3.4-1,3.4-2.7V469C334.3,467.2,333,466.3,330.9,466.3z"/>
		<path fill="#BABABA" d="M403.3,466.3h-4.2v5.5h4.2c2.1,0,3.4-1,3.4-2.7V469C406.7,467.2,405.4,466.3,403.3,466.3z"/>
		<path fill="#BABABA" d="M281.7,474.3h-4.9v4.2h4.9c1.9,0,3-0.8,3-2.1v-0.1C284.9,475.1,283.9,474.3,281.7,474.3z"/>
		<path fill="#BABABA" d="M283.9,467.9L283.9,467.9c0-1.3-1-2-2.9-2h-4.1v4h4C282.8,469.9,283.9,469.2,283.9,467.9z"/>
		<polygon fill="#BABABA" points="204.9,474.6 210.1,474.6 207.5,468.1 		"/>
	</g>
</g>
<g display="none">
	<path display="inline" fill="#492E1E" d="M313.3,18.4l-19.4,24.2c-0.9,1.1-2.2,1.7-3.5,1.7c-1,0-1.9-0.3-2.8-1
		c-1.9-1.5-2.2-4.3-0.7-6.2l16.5-20.6c-4.7-0.7-9.5-1.2-14.4-1.6l-21.4,26.6c-0.9,1.1-2.1,1.7-3.5,1.7c-1,0-1.9-0.3-2.8-1
		c-1.9-1.5-2.2-4.3-0.7-6.2l17.2-21.5c-58,0-105,29.3-105,65.3h210.2C383.3,51.5,354.1,27.3,313.3,18.4z"/>
	<g display="inline">
		<path fill="#BAB9B9" d="M432,450.6H127.2v44.9H432L432,450.6L432,450.6z M161.2,478c0,4.7-3.7,7.5-9.4,7.5c-4.1,0-8-1.3-10.8-3.8
			l3.6-4.2c2.3,1.8,4.8,2.8,7.5,2.8c1.7,0,2.6-0.6,2.6-1.6v0c0-1-0.8-1.5-3.9-2.2c-4.9-1.1-8.7-2.5-8.7-7.2V469c0-4.3,3.4-7.4,9-7.4
			c3.9,0,7,1,9.5,3.1l-3.2,4.5c-2.1-1.5-4.4-2.3-6.5-2.3c-1.6,0-2.3,0.7-2.3,1.5v0.1c0,1,0.8,1.5,4,2.2
			C157.9,471.9,161.2,473.6,161.2,478L161.2,478L161.2,478L161.2,478z M189.5,485.1h-6.4v-13.2l-5.9,9h-0.1l-5.9-9v13.2h-6.3V462
			h6.8l5.5,8.9l5.5-8.9h6.8L189.5,485.1L189.5,485.1z M211,485.1l-1.7-4.1h-8.9l-1.6,4.1H192l9.8-23.2h6.2l9.8,23.2H211z M239.1,478
			c0,4.7-3.7,7.5-9.4,7.5c-4.1,0-8-1.3-10.8-3.8l3.6-4.2c2.3,1.8,4.8,2.8,7.5,2.8c1.7,0,2.6-0.6,2.6-1.6v0c0-1-0.8-1.5-3.9-2.2
			c-4.9-1.1-8.7-2.5-8.7-7.2V469c0-4.3,3.4-7.4,8.9-7.4c3.9,0,7,1,9.5,3.1l-3.2,4.5c-2.1-1.5-4.4-2.3-6.5-2.3
			c-1.5,0-2.3,0.7-2.3,1.5v0.1c0,1,0.8,1.5,4,2.2C235.8,471.9,239.1,473.6,239.1,478L239.1,478L239.1,478L239.1,478z M263.8,485.1
			h-6.4v-8.8h-8.2v8.8h-6.4V462h6.4v8.6h8.2V462h6.4V485.1z M289.3,478.8c0,4-3.2,6.4-8.8,6.4h-11.9V462h11.9c2.9,0,5,0.7,6.3,2.1
			c0.9,0.9,1.5,2.1,1.5,3.7v0.1c0,2.7-1.5,4.2-3.6,5.1C287.5,474,289.3,475.5,289.3,478.8L289.3,478.8L289.3,478.8z M314.1,474.9
			c0,7.4-4.3,10.7-10.8,10.7c-6.6,0-10.7-3.3-10.7-10.5v-13h6.5v12.8c0,3.3,1.7,4.9,4.2,4.9s4.3-1.5,4.3-4.7v-13h6.5L314.1,474.9
			L314.1,474.9z M332.6,485.1l-4.6-7h-0.1h-2.8v7h-6.4V462h10.9c3.5,0,6,0.9,7.5,2.5c1.4,1.3,2,3.1,2,5.4v0.1c0,3.5-1.9,5.9-4.8,7.1
			l5.5,8H332.6z M364.4,482c-2.5,2-5.9,3.5-10,3.5c-7.2,0-12.6-4.9-12.6-11.9v-0.1c0-6.7,5.3-12,12.5-12c4.1,0,6.9,1.2,9.4,3.4
			l-3.8,4.5c-1.6-1.4-3.3-2.2-5.6-2.2c-3.3,0-5.9,2.8-5.9,6.3v0.1c0,3.7,2.6,6.4,6.3,6.4c1.6,0,2.8-0.3,3.7-1v-2.8h-4.6v-4.7h10.6
			L364.4,482L364.4,482L364.4,482z M387.6,485.1h-18.8V462h18.6v5.4h-12.2v3.5h11.1v5h-11.1v3.7h12.4L387.6,485.1L387.6,485.1z
			 M405.6,485.1l-4.6-7h-0.1h-2.8v7h-6.4V462h10.9c3.5,0,6,0.9,7.5,2.5c1.4,1.3,2,3.1,2,5.4v0.1c0,3.5-1.9,5.9-4.8,7.1l5.5,8H405.6z
			"/>
		<path fill="#BAB9B9" d="M329.3,467.6h-4.2v5.5h4.2c2.2,0,3.4-1,3.4-2.7v-0.1C332.8,468.5,331.5,467.6,329.3,467.6z"/>
		<path fill="#BAB9B9" d="M402.4,467.6h-4.2v5.5h4.2c2.2,0,3.4-1,3.4-2.7v-0.1C405.8,468.5,404.5,467.6,402.4,467.6z"/>
		<path fill="#BAB9B9" d="M279.8,475.7h-4.9v4.2h5c1.9,0,3.1-0.8,3.1-2.1v-0.1C282.9,476.5,281.9,475.7,279.8,475.7z"/>
		<path fill="#BAB9B9" d="M281.9,469.2L281.9,469.2c0-1.3-1-2.1-2.9-2.1h-4.2v4.1h4C280.8,471.2,281.9,470.6,281.9,469.2z"/>
		<polygon fill="#BAB9B9" points="202.2,476 207.4,476 204.9,469.5 		"/>
	</g>
	<g display="inline">
		<path fill="#492E1E" d="M378.5,537.3v-35.1H167.9v35.1c0,4.5,3.6,8,8.1,8h194.4C374.9,545.4,378.5,541.8,378.5,537.3z"/>
	</g>
	<g display="inline">
		<path fill="#D9D0BE" d="M268.8,421.4h-1v7.4h1c2.7,0,4.4-1.1,4.4-3.7v0C273.2,422.5,271.5,421.4,268.8,421.4z"/>
		<polygon fill="#D9D0BE" points="185.7,427.3 188.9,427.3 187.3,423 		"/>
		<path fill="#D9D0BE" d="M289.3,421.2h-2.6v3.5h2.5c1.4,0,2.3-0.6,2.3-1.7v0C291.5,421.7,290.6,421.2,289.3,421.2z"/>
		<path fill="#D9D0BE" d="M169.4,421.2h-2.6v3.5h2.5c1.4,0,2.3-0.6,2.3-1.7v0C171.6,421.7,170.7,421.2,169.4,421.2z"/>
		<path fill="#D9D0BE" d="M151.8,406.7v36.6h251.1v-36.6H151.8z M191.3,433.9l-0.9-2.4h-6.2l-0.9,2.4h-5.2H177h-5.6l-3.3-5h-1.3v5
			h-5.9v-17.6h8.6c3.1,0,5.1,0.8,6.4,2c1.1,1,1.6,2.4,1.6,4.2v0c0,2.6-1.3,4.4-3.5,5.4l3.4,5l7-16.8h5.9l7.4,17.8L191.3,433.9
			L191.3,433.9L191.3,433.9z M216.1,433.9h-5.2l-6.5-8.1v8.1h-5.9v-17.6h5.5l6.3,7.8v-7.8h5.9V433.9z M226.8,434.3
			c-4.9,0-9.1-3.7-9.1-9.1v0c0-5.3,4.1-9.2,9.4-9.2c3.9,0,6.5,1.9,8,4.6l-4.9,2.9c-0.6-1.3-1.6-2.1-3.2-2.1c-2,0-3.3,1.7-3.3,3.9v0
			c0,2.3,1.4,3.9,3.3,3.9c1.7,0,2.6-0.9,3.3-2.2l4.9,2.8C233.7,432.1,231.2,434.3,226.8,434.3z M253.5,433.9h-5.9v-6.3h-5.4v6.3
			h-5.9v-17.6h5.9v6.2h5.4v-6.2h5.9V433.9z M279.2,425c0,5.2-3.6,8.9-10.7,8.9h-6.5v-17.6h6.8C275.7,416.3,279.2,419.7,279.2,425
			L279.2,425L279.2,425z M291.3,433.9l-3.3-5h-1.3v5h-5.9v-17.6h8.6c3.1,0,5.1,0.8,6.4,2c1.1,1,1.6,2.4,1.6,4.2v0
			c0,2.6-1.3,4.4-3.5,5.4l4.1,6L291.3,433.9L291.3,433.9z M314,433.9h-15.2v-17.6h15v4.8h-9.2v1.8h8.6v4.2h-8.6v1.9h9.4L314,433.9
			L314,433.9L314,433.9z M323.1,434.2c-3.6,0-6.8-1-9-3l3.1-3.8c1.9,1.5,4.1,2.1,6.2,2.1c1,0,1.5-0.3,1.5-0.8v0
			c0-0.5-0.6-0.8-2.5-1.1c-4-0.8-7.4-1.9-7.4-5.7v0c0-3.4,2.6-6,7.5-6c3.4,0,5.9,0.8,8,2.4l-2.9,4c-1.7-1.2-3.7-1.7-5.3-1.7
			c-0.9,0-1.3,0.3-1.3,0.7v0c0,0.5,0.5,0.8,2.3,1.1c4.5,0.8,7.5,2.1,7.5,5.7v0C330.9,432,327.9,434.2,323.1,434.2z M347.4,428.2
			c0,3.7-3,6-7.8,6c-3.6,0-6.8-1-9-3l3.1-3.8c1.9,1.5,4.1,2.1,6.2,2.1c1,0,1.5-0.3,1.5-0.8v0c0-0.5-0.6-0.8-2.5-1.1
			c-4-0.8-7.4-1.9-7.4-5.7v0c0-3.4,2.6-6,7.5-6c3.4,0,5.9,0.8,8,2.4l-2.9,4c-1.7-1.2-3.7-1.7-5.3-1.7c-0.9,0-1.3,0.3-1.3,0.7v0
			c0,0.5,0.5,0.8,2.4,1.1C344.4,423.4,347.4,424.7,347.4,428.2L347.4,428.2L347.4,428.2L347.4,428.2z M354.7,433.9h-5.9v-17.6h5.9
			V433.9z M374.5,433.9h-5.2l-6.5-8.1v8.1h-5.9v-17.6h5.5l6.3,7.8v-7.8h5.9L374.5,433.9L374.5,433.9z M393.8,431.6
			c-1.9,1.6-4.6,2.6-7.8,2.6c-5.5,0-9.9-3.7-9.9-9.1v0c0-5.3,4.2-9.2,9.7-9.2c3,0,5.5,1,7.4,2.7l-3.3,4c-1.1-1-2.5-1.5-3.9-1.5
			c-2.3,0-4,1.8-4,4.2v0c0,2.5,1.7,4.2,4.2,4.2c1,0,1.6-0.2,2-0.4v-1.8h-3v-3.8h8.6L393.8,431.6L393.8,431.6z"/>
	</g>
	<g display="inline">
		<polygon fill="#D9D0BE" points="267.5,288.2 271.3,288.2 269.4,283.1 		"/>
		<polygon fill="#D9D0BE" points="179.7,288.2 183.5,288.2 181.6,283.1 		"/>
		<path fill="#D9D0BE" d="M159.9,223.9v87h176.8v-87H159.9z M294,239h10.7v11.3h9.8V239h10.7v31.9h-10.7v-11.4h-9.8v11.4H294V239z
			 M276.3,259.5c-7.2-1.5-13.5-3.5-13.5-10.2v-0.1c0-6.1,4.7-10.8,13.5-10.8c6.2,0,10.7,1.4,14.4,4.4l-5.2,7.2
			c-3-2.2-6.6-3.1-9.6-3.1c-1.6,0-2.3,0.5-2.3,1.3v0.1c0,0.9,0.9,1.4,4.2,2.1c8.2,1.5,13.6,3.9,13.6,10.3v0.1
			c0,6.7-5.5,10.8-14.1,10.8c-6.5,0-12.3-1.8-16.4-5.4l5.7-6.8c3.5,2.6,7.4,3.7,11.2,3.7c1.9,0,2.7-0.5,2.7-1.4v-0.1
			C280.7,260.7,279.7,260.2,276.3,259.5z M233.4,239h27.2v8.8h-16.7v3.2h15.6v7.7h-15.6v3.5h17v8.8h-27.5V239z M200.8,239h15.6
			c5.6,0,9.3,1.4,11.5,3.6c1.9,1.9,2.9,4.3,2.9,7.6v0.1c0,4.7-2.4,7.9-6.3,9.8l7.4,10.9h-12.2l-6-9.1h-2.3v9.1h-10.7L200.8,239
			L200.8,239z M171.6,239h26.7v9.1h-16.1v4.1h14.9v8.3h-14.9v10.5h-10.7V239z M186.3,295.9l-1.1-2.8h-7.3l-1.1,2.8h-7.4l8.8-21h6.9
			l8.8,21H186.3z M198.7,296.1l-8.4-21h7.8l4,11.7l4-11.7h7.7l-8.4,21H198.7z M235.6,285.5c0,6-5,10.9-11.4,10.9
			c-6.4,0-11.3-4.8-11.3-10.8v0c0-6,5-10.9,11.4-10.9C230.7,274.6,235.6,279.4,235.6,285.5L235.6,285.5L235.6,285.5z M247.9,296.4
			c-5.8,0-10.8-4.3-10.8-10.8v0c0-6.2,4.9-10.9,11.1-10.9c4.6,0,7.7,2.2,9.4,5.4l-5.7,3.4c-0.8-1.5-1.9-2.5-3.8-2.5
			c-2.4,0-3.9,2-3.9,4.5v0c0,2.7,1.6,4.6,3.9,4.6c2,0,3.1-1.1,3.9-2.6l5.7,3.2C256,293.8,253.1,296.4,247.9,296.4z M274.1,295.9
			l-1.1-2.8h-7.3l-1.1,2.8h-7.4l8.8-21h6.9l8.8,21H274.1z M302.9,285.4c0,6.2-4.2,10.5-12.6,10.5h-7.7v-20.8h8
			C298.8,275.1,302.9,279.1,302.9,285.4L302.9,285.4L302.9,285.4L302.9,285.4z M327.1,285.5c0,6-5,10.9-11.4,10.9
			c-6.4,0-11.3-4.8-11.3-10.8v0c0-6,5-10.9,11.4-10.9C322.2,274.6,327.1,279.4,327.1,285.5L327.1,285.5z"/>
		<path fill="#D9D0BE" d="M220.2,251.1L220.2,251.1c0-2.1-1.6-3.1-4.1-3.1h-4.7v6.2h4.6C218.6,254.2,220.2,253,220.2,251.1z"/>
		<path fill="#D9D0BE" d="M224.2,280.8c-2.6,0-4.3,2.2-4.3,4.6v0c0,2.5,1.7,4.7,4.4,4.7c2.6,0,4.3-2.2,4.3-4.6v0
			C228.6,283,226.9,280.8,224.2,280.8z"/>
		<path fill="#D9D0BE" d="M315.7,280.8c-2.6,0-4.3,2.2-4.3,4.6v0c0,2.5,1.7,4.7,4.4,4.7c2.6,0,4.3-2.2,4.3-4.6v0
			C320.1,283,318.4,280.8,315.7,280.8z"/>
		<path fill="#D9D0BE" d="M290.7,281.1h-1.1v8.7h1.1c3.2,0,5.2-1.3,5.2-4.3v0C295.9,282.5,293.8,281.1,290.7,281.1z"/>
	</g>
	<g display="inline">
		<path fill="#D9D0BE" d="M323.2,334.2L323.2,334.2c0-2.2-1.5-3.5-3.8-3.5h-1.6v7h1.6C321.7,337.7,323.2,336.4,323.2,334.2z"/>
		<path fill="#D9D0BE" d="M304.7,337.9c2.1,0,3.5-1.7,3.5-3.7v0c0-2-1.4-3.7-3.5-3.7c-2.1,0-3.5,1.7-3.5,3.7v0
			C301.2,336.2,302.6,337.9,304.7,337.9z"/>
		<path fill="#D9D0BE" d="M184.9,400.3h247.9v-82.2H184.9V400.3z M272.1,389.2l-3.2-7.8h-16.8l-3.1,7.8h-12.6l18.5-43.7h11.6
			l18.5,43.7H272.1z M307.4,390.1c-12.4,0-22.4-9.5-22.4-22.5v-0.1c0-12.6,9.8-22.6,22.9-22.6c8.9,0,14.6,3.7,18.4,9l-9.1,7
			c-2.5-3.1-5.3-5.1-9.5-5.1c-6.1,0-10.4,5.1-10.4,11.5v0.1c0,6.5,4.3,11.6,10.4,11.6c4.5,0,7.2-2.1,9.8-5.3l9.1,6.5
			C322.5,385.9,317,390.1,307.4,390.1z M410.8,327.3h5.3c4.9,0,7.8,2.8,7.8,6.8v0c0,4-2.9,6.9-7.8,6.9h-5.2L410.8,327.3L410.8,327.3
			z M397.6,327.3h11.1v3.2h-7.3v2.1h6.6v3h-6.6v2.2h7.4v3.2h-11.2L397.6,327.3L397.6,327.3z M383.3,327.3h3.8v5.6l4.7-5.6h4.5
			l-5.2,5.9l5.4,7.8H392l-3.5-5.1l-1.4,1.6v3.5h-3.8L383.3,327.3L383.3,327.3z M382,345.8h11.2l17.9,22.9v-22.9h11.9v43.4h-10.5
			L394,365.4v23.8h-11.9L382,345.8L382,345.8z M366.5,334.2c0-4,3.2-7.2,7.4-7.2c4.2,0,7.4,3.2,7.4,7.1v0c0,4-3.2,7.2-7.4,7.2
			C369.6,341.3,366.5,338.2,366.5,334.2L366.5,334.2z M349.9,327.3h4l3.3,5.3l3.3-5.3h4v13.8h-3.8v-7.9l-3.5,5.4h-0.1l-3.5-5.4v7.9
			h-3.7L349.9,327.3L349.9,327.3z M341.9,335.8c-2.9-0.7-5.2-1.5-5.2-4.3v0c0-2.5,2-4.4,5.3-4.4c2.3,0,4.2,0.6,5.7,1.8l-1.9,2.7
			c-1.3-0.9-2.6-1.4-3.9-1.4c-0.9,0-1.4,0.4-1.4,0.9v0c0,0.6,0.5,0.9,2.4,1.3c3.2,0.7,5.1,1.7,5.1,4.3v0c0,2.8-2.2,4.5-5.6,4.5
			c-2.4,0-4.8-0.8-6.4-2.3l2.1-2.5c1.4,1.1,2.9,1.6,4.5,1.6c1,0,1.6-0.4,1.6-0.9v0C344.2,336.6,343.8,336.3,341.9,335.8z
			 M352.5,344.9c13.4,0,23.3,10,23.3,22.5v0.1c0,12.5-10,22.6-23.5,22.6c-13.4,0-23.3-10-23.3-22.5v-0.1
			C329,355,339,344.9,352.5,344.9z M328.7,333.3h6.4v3.3h-6.4V333.3z M314.1,327.3h5.3c4.9,0,7.8,2.8,7.8,6.8v0c0,4-2.9,6.9-7.8,6.9
			h-5.2L314.1,327.3L314.1,327.3z M297.3,334.2c0-4,3.2-7.2,7.4-7.2s7.4,3.2,7.4,7.1v0c0,4-3.2,7.2-7.4,7.2S297.3,338.2,297.3,334.2
			L297.3,334.2z M280.9,334.2c0-4,3.2-7.2,7.4-7.2s7.4,3.2,7.4,7.1v0c0,4-3.2,7.2-7.4,7.2C284.1,341.3,280.9,338.2,280.9,334.2
			L280.9,334.2z M263.4,327.3l2.4,8l2.7-8h3.3l2.7,8l2.4-8h4l-4.6,13.9h-3.3l-2.8-7.9l-2.8,7.9H264l-4.6-13.9H263.4z M247.1,327.3
			h11.1v3.2h-7.3v2.1h6.6v3h-6.6v2.2h7.4v3.2h-11.2L247.1,327.3L247.1,327.3z M235,327.3h3.8v10.4h6.7v3.3H235V327.3L235,327.3z
			 M234.4,377.2c0,7.4-6.1,12-16.4,12h-22.4v-43.4h22.3c5.5,0,9.3,1.4,11.9,3.9c1.7,1.7,2.8,4,2.8,7v0.1c0,5-2.9,8-6.7,9.7
			c5.3,1.7,8.6,4.7,8.6,10.6L234.4,377.2L234.4,377.2z M221.8,327.3h5.9c3.5,0,5.7,1.8,5.7,4.8v0c0,3.2-2.5,5-5.9,5h-1.9v3.9h-3.8
			L221.8,327.3L221.8,327.3z M208.6,327.3h5.9c3.5,0,5.7,1.8,5.7,4.8v0c0,3.2-2.5,5-5.9,5h-1.9v3.9h-3.8L208.6,327.3L208.6,327.3z
			 M197.7,327.2h3.7l5.9,13.9h-4.1l-1-2.5h-5.3l-1,2.5h-4L197.7,327.2z"/>
		<path fill="#D9D0BE" d="M288.4,337.9c2.1,0,3.5-1.7,3.5-3.7v0c0-2-1.4-3.7-3.5-3.7c-2.1,0-3.5,1.7-3.5,3.7v0
			C284.9,336.2,286.3,337.9,288.4,337.9z"/>
		<polygon fill="#D9D0BE" points="255.8,372.1 265.5,372.1 260.7,359.7 		"/>
		<polygon fill="#D9D0BE" points="199.5,331.7 198,335.6 201.1,335.6 		"/>
		<path fill="#D9D0BE" d="M229.6,332.4L229.6,332.4c0-1.2-0.8-1.8-2.2-1.8h-1.8v3.6h1.8C228.8,334.1,229.6,333.4,229.6,332.4z"/>
		<path fill="#D9D0BE" d="M220.6,359.3v-0.1c0-2.4-1.9-3.7-5.5-3.7h-7.8v7.6h7.6C218.6,363.1,220.6,361.8,220.6,359.3z"/>
		<path fill="#D9D0BE" d="M373.9,337.9c2.1,0,3.5-1.7,3.5-3.7v0c0-2-1.4-3.7-3.5-3.7c-2.1,0-3.5,1.7-3.5,3.7v0
			C370.4,336.2,371.9,337.9,373.9,337.9z"/>
		<path fill="#D9D0BE" d="M216.5,371.5h-9.2v8h9.3c3.7,0,5.8-1.4,5.8-4v-0.1C222.4,373.1,220.5,371.5,216.5,371.5z"/>
		<path fill="#D9D0BE" d="M419.9,334.2L419.9,334.2c0-2.2-1.5-3.5-3.8-3.5h-1.6v7h1.6C418.4,337.7,419.9,336.4,419.9,334.2z"/>
		<path fill="#D9D0BE" d="M352.5,379.2c6.6,0,11-5.3,11-11.6v-0.1c0-6.3-4.5-11.7-11.2-11.7c-6.6,0-11,5.3-11,11.6v0.1
			C341.4,373.8,345.9,379.2,352.5,379.2z"/>
		<path fill="#D9D0BE" d="M216.4,332.4L216.4,332.4c0-1.2-0.8-1.8-2.2-1.8h-1.8v3.6h1.8C215.6,334.1,216.4,333.4,216.4,332.4z"/>
	</g>
	<path display="inline" fill="#D9D0BE" d="M406.3,137.2H229.1v37.6h177.2V137.2z M255,168h-18.2v-24h6.6v18.1H255V168L255,168z
		 M277.3,168h-19.4v-24h19.3v5.6h-12.7v3.6h11.5v5.2h-11.5v3.8h12.9L277.3,168L277.3,168L277.3,168z M300.4,149.9h-7.2V168h-6.6
		v-18.1h-7.2V144h21L300.4,149.9L300.4,149.9z M323,149.9h-7.2V168h-6.6v-18.1h-7.2V144h21L323,149.9L323,149.9z M347.9,157.3
		c0,7.7-4.4,11.1-11.2,11.1c-6.8,0-11.1-3.5-11.1-11V144h6.7v13.3c0,3.5,1.8,5.1,4.4,5.1c2.7,0,4.4-1.6,4.4-4.9V144h6.7L347.9,157.3
		L347.9,157.3z M363.4,168.5c-6.8,0-12.4-5.2-12.4-12.4V156c0-7,5.4-12.5,12.6-12.5c4.9,0,8,2.1,10.2,5l-5,3.9
		c-1.4-1.7-2.9-2.8-5.2-2.8c-3.4,0-5.7,2.8-5.7,6.3v0.1c0,3.6,2.4,6.4,5.7,6.4c2.5,0,4-1.2,5.4-2.9l5,3.6
		C371.7,166.2,368.6,168.5,363.4,168.5z M396.2,168h-19.4v-24h19.3v5.6h-12.7v3.6h11.5v5.2h-11.5v3.8h12.9L396.2,168L396.2,168z"/>
	<path display="inline" fill="#D9D0BE" d="M352,205.9c3.7,0,6.1-2.9,6.1-6.4v-0.1c0-3.5-2.5-6.5-6.2-6.5c-3.6,0-6.1,2.9-6.1,6.4v0.1
		C345.9,202.9,348.4,205.9,352,205.9z"/>
	<polygon display="inline" fill="#D9D0BE" points="305.6,195.2 302.9,202 308.3,202 	"/>
	<path display="inline" fill="#D9D0BE" d="M248.1,205.9c3.7,0,6.1-2.9,6.1-6.4v-0.1c0-3.5-2.5-6.5-6.2-6.5c-3.6,0-6.1,2.9-6.1,6.4
		v0.1C242,202.9,244.5,205.9,248.1,205.9z"/>
	<path display="inline" fill="#D9D0BE" d="M204.9,218H376v-36.7H204.9V218L204.9,218z M339.1,199.5c0-6.9,5.5-12.5,13-12.5
		s12.9,5.5,12.9,12.4v0.1c0,6.9-5.5,12.5-13,12.5S339.1,206.4,339.1,199.5L339.1,199.5z M317,187.5h21v5.8h-7.2v18.1h-6.6v-18.1H317
		L317,187.5L317,187.5z M302.5,187.3h6.4l10.2,24.1H312l-1.8-4.3H301l-1.7,4.3h-7L302.5,187.3z M264.5,187.5h7l5.7,9.3l5.7-9.3h7v24
		h-6.6v-13.8l-6.1,9.4h-0.1l-6.1-9.3v13.7h-6.5L264.5,187.5L264.5,187.5z M235.2,199.5c0-6.9,5.6-12.5,12.9-12.5s12.9,5.5,12.9,12.4
		v0.1c0,6.9-5.6,12.5-12.9,12.5S235.2,206.4,235.2,199.5L235.2,199.5z M213.1,187.5h21v5.8h-7.2v18.1h-6.6v-18.1h-7.2L213.1,187.5
		L213.1,187.5z"/>
	<g display="inline">
		<path fill="#D9D0BE" d="M312.4,101.2c-4.1,0-6.8,3.3-6.8,7.2v0.1c0,3.9,2.8,7.3,6.9,7.3c4.1,0,6.8-3.3,6.8-7.2v-0.1
			C319.4,104.6,316.5,101.2,312.4,101.2z"/>
		<polygon fill="#D9D0BE" points="257.1,111.3 263.1,111.3 260.1,103.7 		"/>
		<path fill="#D9D0BE" d="M202.9,85.8V131H338V85.8H202.9z M242.5,121.9h-7.4v-15.4l-6.9,10.5h-0.2l-6.8-10.4v15.4h-7.3V95h7.9
			l6.4,10.4l6.4-10.4h7.9L242.5,121.9L242.5,121.9z M267.2,121.9l-2-4.8h-10.4l-1.9,4.8h-7.8l11.4-27.1h7.2l11.4,27.1H267.2z
			 M288.9,121.9h-7.5v-10.1L271.2,95h8.5l5.5,9.8l5.6-9.8h8.4l-10.2,16.7V121.9L288.9,121.9z M327,108.5c0,7.7-6.2,14-14.5,14
			s-14.5-6.2-14.5-13.9v-0.1c0-7.7,6.2-14,14.5-14C320.8,94.5,327,100.7,327,108.5L327,108.5z"/>
	</g>
	
		<text transform="matrix(1 0 0 1 178.0392 530.6094)" display="inline" fill="#D9D0BE" font-family="'GothamHTF-Black'" font-size="20.2335">MULTI-GRAIN BUN</text>
</g>
<g display="none">
	<rect x="175.9" y="500.3" display="inline" fill="#D9D0BE" width="179.2" height="36.7"/>
	<path display="inline" fill="#492E1E" d="M303.5,21.7l-22,27.5c-1,1.2-2.5,1.9-3.9,1.9c-1.1,0-2.2-0.3-3.1-1.1
		c-2.1-1.7-2.5-4.9-0.8-7l18.7-23.3c-5.3-0.8-10.7-1.4-16.3-1.8L251.9,48c-1,1.2-2.4,1.9-3.9,1.9c-1.1,0-2.2-0.3-3.1-1.1
		c-2.1-1.7-2.5-4.9-0.8-7l19.5-24.3c-65.7,0-119,33.2-119,74h238.2C382.9,59.2,349.8,31.9,303.5,21.7z"/>
	<g display="inline">
		<path fill="#D9D0BE" d="M193.2,101V143h188.4V101H193.2z M217.5,134.6l-4.8-7.8l-2.1,2.6v5.2h-8.2v-24.5h8.2v9.2l7-9.2h9.5
			l-8.6,10.7l8.7,13.9L217.5,134.6L217.5,134.6z M249,134.6h-21.1v-24.5h20.9v6.7H236v2.5h12v5.9h-12v2.7h13L249,134.6L249,134.6z
			 M273,117h-7.2v17.6h-8.2V117h-7.2v-6.9h22.7L273,117C272.9,117,273,117,273,117z M285.9,135.1c-6.8,0-12.7-5.1-12.7-12.7v-0.1
			c0-7.3,5.7-12.8,13-12.8c5.4,0,9,2.6,11.1,6.4l-6.8,4c-0.9-1.8-2.2-3-4.4-3c-2.8,0-4.6,2.4-4.6,5.3v0.1c0,3.2,1.9,5.4,4.6,5.4
			c2.3,0,3.6-1.3,4.6-3.1l6.8,3.8C295.5,132.2,292,135.1,285.9,135.1z M323,134.6h-8.2v-8.8h-7.5v8.8h-8.2v-24.5h8.2v8.7h7.5v-8.7
			h8.2V134.6z M349.9,123.4c0,8.4-4.9,11.7-12.2,11.7c-7.3,0-12.1-3.4-12.1-11.5v-13.5h8.4v13.4c0,3,1.6,4.3,3.8,4.3
			c2.2,0,3.8-1.2,3.8-4.2v-13.6h8.4V123.4L349.9,123.4z M374.5,118.9c0,5.9-4.5,9.1-11.1,9.1h-2.7v6.7h-8.2v-24.6h11
			C370,110.1,374.5,113,374.5,118.9L374.5,118.9L374.5,118.9z"/>
		<path fill="#D9D0BE" d="M362.9,116.7h-2.2v5.5h2.2c2.1,0,3.5-0.9,3.5-2.7v-0.1C366.4,117.6,365.1,116.7,362.9,116.7z"/>
	</g>
	<g display="inline">
		<polygon fill="#D9D0BE" points="325.5,376.7 323.3,382.3 327.7,382.3 		"/>
		<path fill="#D9D0BE" d="M365.2,365.7H193.2v61.2h172L365.2,365.7L365.2,365.7z M322.9,370.2h5.2l8.4,19.8h-5.8l-1.4-3.5h-7.6
			l-1.4,3.5h-5.7L322.9,370.2z M295.1,380.2c0-5.7,4.4-10.2,10.4-10.2c4,0,6.6,1.7,8.4,4.1l-4.1,3.2c-1.1-1.4-2.4-2.3-4.3-2.3
			c-2.8,0-4.7,2.3-4.7,5.2v0c0,3,1.9,5.2,4.7,5.2c2,0,3.3-1,4.4-2.4l4.1,2.9c-1.9,2.5-4.4,4.4-8.7,4.4
			C299.6,390.4,295.1,386.1,295.1,380.2L295.1,380.2L295.1,380.2L295.1,380.2z M286.7,370.4h5.5V390h-5.5V370.4z M266.4,370.4h9.3
			c3,0,5.1,0.8,6.4,2.1c1.1,1.1,1.7,2.6,1.7,4.6v0c0,3-1.6,5-4,6l4.7,6.9h-6.3l-4-6h0h-2.3v6h-5.4L266.4,370.4L266.4,370.4z
			 M247.6,370.4h15.8v4.6H253v3h9.4v4.3H253v3.1h10.5v4.6h-16L247.6,370.4L247.6,370.4z M207.7,370.2h5.2l8.4,19.8h-5.9l-1.4-3.5
			h-7.6l-1.4,3.5h-5.7L207.7,370.2z M214.5,421c-7.7,0-13.8-5.9-13.8-13.9V407c0-7.8,6-14,14.1-14c5.5,0,9,2.3,11.4,5.6l-5.6,4.3
			c-1.5-1.9-3.3-3.1-5.9-3.1c-3.7,0-6.4,3.2-6.4,7.1v0.1c0,4,2.6,7.2,6.4,7.2c2.8,0,4.4-1.3,6.1-3.3l5.6,4
			C223.8,418.4,220.4,421,214.5,421z M228.6,390h-5.3v-19.6h5.8l4.7,7.6l4.7-7.6h5.8V390h-5.4v-11.3l-5,7.7h-0.1l-5-7.6V390
			L228.6,390z M253.9,420.4h-7.4v-10.2h-9.5v10.2h-7.4v-26.8h7.4v10h9.5v-10h7.4V420.4z M280.4,420.4h-21.8v-26.8h21.6v6.3H266v4.1
			h12.9v5.9H266v4.2h14.4V420.4L280.4,420.4z M306,420.4h-21.8v-26.8h21.6v6.3h-14.2v4.1h12.9v5.9h-12.9v4.2H306V420.4L306,420.4z
			 M331.1,412.1c0,5.5-4.3,8.7-10.8,8.7c-4.7,0-9.3-1.5-12.6-4.4l4.1-4.9c2.6,2.1,5.6,3.2,8.7,3.2c2,0,3.1-0.7,3.1-1.8v-0.1
			c0-1.1-0.9-1.7-4.5-2.6c-5.7-1.3-10.1-2.9-10.1-8.4v-0.1c0-5,3.9-8.6,10.4-8.6c4.5,0,8.1,1.2,11,3.6l-3.7,5.2
			c-2.5-1.7-5.1-2.6-7.5-2.6c-1.8,0-2.7,0.8-2.7,1.7v0.1c0,1.2,0.9,1.8,4.6,2.6C327.3,405.1,331.1,407.1,331.1,412.1L331.1,412.1
			L331.1,412.1z M356.5,420.4h-21.8v-26.8h21.6v6.3h-14.2v4.1h12.9v5.9h-12.9v4.2h14.4V420.4z M357,390h-4.8l-8.4-10.8V390h-5.4
			v-19.6h5.1l8.1,10.4v-10.4h5.4L357,390L357,390z"/>
		<polygon fill="#D9D0BE" points="210.3,376.7 208.1,382.3 212.5,382.3 		"/>
		<path fill="#D9D0BE" d="M278.4,377.5L278.4,377.5c0-1.6-1.1-2.4-3-2.4h-3.6v4.7h3.6C277.3,379.8,278.4,378.9,278.4,377.5z"/>
	</g>
	<g display="inline">
		<path fill="#D9D0BE" d="M434,206.5H205v57.2h229V206.5z M259.2,235.9c0,12.2-9.8,22.1-22.9,22.1s-22.8-9.8-22.8-21.9V236
			c0-12.2,9.8-22.1,22.9-22.1s22.8,9.8,22.8,21.9V235.9z M305.4,257.1h-10.3L277,233.9v23.3h-11.6v-42.4h11l17.5,22.4v-22.4h11.6
			L305.4,257.1L305.4,257.1z M324.9,257.1h-11.8v-42.4h11.8V257.1z M376.9,235.9c0,12.2-9.8,22.1-22.9,22.1s-22.8-9.8-22.8-21.9V236
			c0-12.2,9.8-22.1,22.9-22.1s22.8,9.8,22.8,21.9V235.9z M423.1,257.1h-10.3l-18.1-23.3v23.3H383v-42.4h11l17.5,22.4v-22.4h11.6
			V257.1z"/>
		<path fill="#D9D0BE" d="M236.3,224.5c-6.4,0-10.7,5.2-10.7,11.3v0.1c0,6.1,4.4,11.4,10.9,11.4c6.5,0,10.8-5.2,10.8-11.3v-0.1
			C247.2,229.8,242.8,224.5,236.3,224.5z"/>
		<path fill="#D9D0BE" d="M354,224.5c-6.4,0-10.7,5.2-10.7,11.3v0.1c0,6.1,4.4,11.4,10.9,11.4c6.5,0,10.8-5.2,10.8-11.3v-0.1
			C364.9,229.8,360.5,224.5,354,224.5z"/>
	</g>
	<g display="inline">
		<path fill="#D9D0BE" d="M119.3,149.8v48.3h238.7v-48.3H119.3z M160.1,168.7c0,8.4-6.5,12.9-15.4,12.9h-4.9v10.2h-9.9V156h15.4
			C154.2,156,160.1,160.7,160.1,168.7L160.1,168.7L160.1,168.7L160.1,168.7z M174.5,191.9h-10V156h10V191.9z M198.3,192.6
			c-10.2,0-18.5-7.8-18.5-18.5v-0.1c0-10.4,8-18.6,18.9-18.6c7.3,0,12,3.1,15.2,7.5l-7.5,5.8c-2.1-2.6-4.4-4.2-7.8-4.2
			c-5,0-8.6,4.2-8.6,9.5v0.1c0,5.4,3.5,9.6,8.6,9.6c3.8,0,5.9-1.7,8.1-4.4l7.5,5.3C210.8,189.1,206.2,192.6,198.3,192.6z M241,191.9
			l-9-13.3l-3.6,4v9.3h-9.9V156h9.9v14.5l12.3-14.5h11.8l-13.6,15.4l14,20.4L241,191.9L241,191.9z M283.1,191.9h-27.3V156h9.9v27.1
			h17.4V191.9z M316.4,191.9h-29.1V156h28.8v8.4h-19v5.4h17.2v7.8h-17.2v5.7h19.2V191.9z M350,180.8c0,7.3-5.8,11.7-14.5,11.7
			c-6.4,0-12.4-2-16.8-5.9l5.5-6.6c3.5,2.8,7.5,4.3,11.6,4.3c2.7,0,4.1-0.9,4.1-2.4v-0.1c0-1.5-1.2-2.3-6-3.4
			c-7.6-1.7-13.5-3.9-13.5-11.3v-0.1c0-6.6,5.3-11.5,13.9-11.5c6.1,0,10.9,1.6,14.8,4.8l-5,7c-3.3-2.3-6.9-3.5-10-3.5
			c-2.4,0-3.6,1-3.6,2.3v0.1c0,1.6,1.2,2.4,6.2,3.5C344.9,171.3,350,174,350,180.8L350,180.8L350,180.8z"/>
		<path fill="#D9D0BE" d="M144.4,164.4h-4.6v9.5h4.7c3.5,0,5.7-1.8,5.7-4.6v-0.1C150.1,166,148,164.4,144.4,164.4z"/>
	</g>
	<g display="inline">
		<path fill="#BAB9B9" d="M452.8,435.1H107.2V486h345.5L452.8,435.1L452.8,435.1z M145.8,466.2c0,5.3-4.2,8.5-10.6,8.5
			c-4.6,0-9.1-1.5-12.3-4.3l4-4.8c2.6,2.1,5.5,3.1,8.5,3.1c1.9,0,3-0.7,3-1.8v-0.1c0-1.1-0.9-1.7-4.4-2.5c-5.6-1.3-9.9-2.8-9.9-8.2
			V456c0-4.9,3.9-8.4,10.1-8.4c4.5,0,7.9,1.2,10.8,3.5l-3.6,5.1c-2.4-1.7-5-2.6-7.3-2.6c-1.8,0-2.6,0.8-2.6,1.7v0.1
			c0,1.2,0.9,1.7,4.5,2.5C142.1,459.3,145.8,461.2,145.8,466.2L145.8,466.2z M177.9,474.2h-7.2v-15l-6.7,10.2h-0.2l-6.7-10.1v14.9
			H150v-26.2h7.7l6.2,10.1l6.2-10.1h7.7L177.9,474.2L177.9,474.2z M202.2,474.2l-1.9-4.7h-10.1l-1.9,4.7h-7.6l11.1-26.3h7l11.2,26.3
			H202.2z M234.1,466.2c0,5.3-4.2,8.5-10.6,8.5c-4.6,0-9.1-1.5-12.3-4.3l4-4.8c2.6,2.1,5.5,3.1,8.5,3.1c1.9,0,3-0.7,3-1.8v-0.1
			c0-1.1-0.9-1.7-4.4-2.5c-5.6-1.3-9.9-2.8-9.9-8.2V456c0-4.9,3.9-8.4,10.1-8.4c4.5,0,7.9,1.2,10.8,3.5l-3.6,5.1
			c-2.4-1.7-5-2.6-7.4-2.6c-1.8,0-2.6,0.8-2.6,1.7v0.1c0,1.2,0.9,1.7,4.5,2.5C230.3,459.3,234,461.2,234.1,466.2L234.1,466.2
			L234.1,466.2z M262.1,474.2h-7.3v-9.9h-9.3v9.9h-7.3v-26.1h7.3v9.8h9.3v-9.8h7.3V474.2z M291,467c0,4.5-3.7,7.2-9.9,7.2h-13.5
			v-26.1H281c3.3,0,5.6,0.8,7.2,2.4c1,1,1.7,2.4,1.7,4.2v0.1c0,3-1.7,4.8-4,5.8C289,461.6,291,463.4,291,467L291,467L291,467
			L291,467z M319.1,462.6c0,8.4-4.8,12.1-12.3,12.1c-7.5,0-12.1-3.8-12.1-12v-14.7h7.4v14.5c0,3.8,1.9,5.6,4.8,5.6s4.8-1.7,4.8-5.4
			v-14.7h7.4L319.1,462.6L319.1,462.6L319.1,462.6z M340.1,474.2l-5.3-7.9h-0.1h-3.1v7.9h-7.3v-26.1h12.4c4,0,6.8,1,8.5,2.8
			c1.5,1.5,2.3,3.5,2.3,6.1v0.1c0,4-2.1,6.6-5.4,8l6.2,9.1H340.1z M376.1,470.7c-2.8,2.3-6.6,4-11.4,4c-8.1,0-14.3-5.6-14.3-13.5
			v-0.1c0-7.6,6-13.6,14.1-13.6c4.6,0,7.9,1.4,10.6,3.8l-4.3,5.1c-1.9-1.6-3.7-2.5-6.3-2.5c-3.8,0-6.7,3.2-6.7,7.2v0.1
			c0,4.2,3,7.2,7.1,7.2c1.8,0,3.1-0.4,4.2-1.1v-3.2h-5.2V459h12.1L376.1,470.7L376.1,470.7L376.1,470.7z M402.4,474.2h-21.3v-26.1
			h21.1v6.2h-13.9v4h12.6v5.7h-12.6v4.1h14.1V474.2z M422.9,474.2l-5.3-7.9h-0.1h-3.1v7.9h-7.3v-26.1h12.4c4,0,6.8,1,8.5,2.8
			c1.5,1.5,2.3,3.5,2.3,6.1v0.1c0,4-2.1,6.6-5.4,8l6.2,9.1H422.9z"/>
		<path fill="#BAB9B9" d="M336.4,454.4h-4.8v6.3h4.8c2.5,0,3.9-1.2,3.9-3.1v-0.1C340.3,455.4,338.8,454.4,336.4,454.4z"/>
		<path fill="#BAB9B9" d="M419.2,454.4h-4.8v6.3h4.8c2.5,0,3.9-1.2,3.9-3.1v-0.1C423.1,455.4,421.6,454.4,419.2,454.4z"/>
		<path fill="#BAB9B9" d="M280.2,463.6h-5.5v4.8h5.6c2.2,0,3.5-0.9,3.5-2.4v-0.1C283.7,464.5,282.6,463.6,280.2,463.6z"/>
		<path fill="#BAB9B9" d="M282.7,456.2L282.7,456.2c0-1.5-1.1-2.3-3.3-2.3h-4.7v4.6h4.6C281.4,458.5,282.7,457.8,282.7,456.2z"/>
		<polygon fill="#BAB9B9" points="192.3,463.9 198.2,463.9 195.3,456.5 		"/>
	</g>
	<g display="inline">
		<path fill="#492E1E" d="M280.6,520.7h-5.2v4.5h5.3c2.1,0,3.3-0.8,3.3-2.3v-0.1C283.9,521.6,282.9,520.7,280.6,520.7z"/>
		<path fill="#492E1E" d="M282.9,513.7L282.9,513.7c0-1.4-1.1-2.2-3.1-2.2h-4.4v4.3h4.3C281.8,515.9,282.9,515.2,282.9,513.7z"/>
		<path fill="#492E1E" d="M383.1,533.4v-39.7H144.4v39.7c0,5,4.1,9.1,9.1,9.1h220.4C379,542.6,383.1,538.5,383.1,533.4z
			 M201.3,530.7h-20.1V506h19.9v5.8H188v3.7h11.9v5.4H188v3.9h13.3V530.7L201.3,530.7z M227.9,527.4c-2.6,2.2-6.2,3.8-10.7,3.8
			c-7.7,0-13.5-5.3-13.5-12.8v-0.1c0-7.2,5.6-12.9,13.3-12.9c4.3,0,7.4,1.4,10,3.6l-4,4.8c-1.8-1.5-3.5-2.3-6-2.3
			c-3.6,0-6.3,3-6.3,6.8v0.1c0,4,2.8,6.9,6.7,6.9c1.7,0,2.9-0.3,4-1v-3h-4.9v-5h11.4L227.9,527.4L227.9,527.4L227.9,527.4z
			 M255.1,527.4c-2.6,2.2-6.2,3.8-10.7,3.8c-7.7,0-13.5-5.3-13.5-12.8v-0.1c0-7.2,5.6-12.9,13.3-12.9c4.3,0,7.4,1.4,10,3.6l-4,4.8
			c-1.8-1.5-3.5-2.3-6-2.3c-3.6,0-6.3,3-6.3,6.8v0.1c0,4,2.8,6.9,6.7,6.9c1.7,0,2.9-0.3,3.9-1v-3h-4.9v-5h11.4L255.1,527.4
			L255.1,527.4z M290.8,523.9c0,4.2-3.5,6.8-9.4,6.8h-12.8V506h12.7c3.1,0,5.3,0.8,6.8,2.2c1,1,1.6,2.3,1.6,4v0.1
			c0,2.8-1.6,4.5-3.8,5.5C288.9,518.8,290.8,520.5,290.8,523.9L290.8,523.9L290.8,523.9z M316.6,519.7c0,8-4.5,11.5-11.6,11.5
			s-11.4-3.6-11.4-11.3V506h7v13.7c0,3.6,1.8,5.3,4.5,5.3s4.5-1.6,4.5-5.1V506h7L316.6,519.7L316.6,519.7z M344,530.7h-6l-10.5-13.6
			v13.6h-6.8V506h6.4l10.2,13.1V506h6.8L344,530.7L344,530.7L344,530.7z"/>
	</g>
	<g display="inline">
		<path fill="#D9D0BE" d="M274.8,288.8L274.8,288.8c0-2.3-1.6-3.6-3.9-3.6h-1.6v7.2h1.6C273.2,292.4,274.8,291.1,274.8,288.8z"/>
		<path fill="#D9D0BE" d="M255.6,292.6c2.2,0,3.6-1.8,3.6-3.8v0c0-2-1.5-3.9-3.7-3.9c-2.1,0-3.6,1.8-3.6,3.8v0
			C252,290.9,253.5,292.6,255.6,292.6z"/>
		<path fill="#D9D0BE" d="M131.7,357.2h256.5v-85H131.7V357.2z M221.9,345.7l-3.3-8h-17.3l-3.2,8h-13.1l19.1-45.2h12l19.1,45.2
			H221.9z M258.4,346.6c-12.8,0-23.2-9.8-23.2-23.2v-0.1c0-13.1,10.1-23.4,23.7-23.4c9.2,0,15.1,3.9,19.1,9.4l-9.4,7.2
			c-2.6-3.2-5.5-5.3-9.8-5.3c-6.3,0-10.7,5.3-10.7,11.9v0.1c0,6.7,4.4,12,10.7,12c4.7,0,7.4-2.2,10.1-5.5l9.4,6.7
			C274,342.3,268.4,346.6,258.4,346.6z M365.4,281.7h5.5c5.1,0,8,2.9,8,7v0c0,4.1-3,7.2-8.1,7.2h-5.4L365.4,281.7L365.4,281.7z
			 M351.8,281.7h11.5v3.4h-7.5v2.1h6.8v3.1h-6.8v2.3h7.6v3.4h-11.5L351.8,281.7L351.8,281.7z M337,281.7h3.9v5.8l4.9-5.8h4.7
			l-5.4,6.1l5.6,8.1h-4.7l-3.6-5.3l-1.5,1.6v3.7h-3.9L337,281.7L337,281.7L337,281.7z M335.6,300.8h11.6l18.5,23.7v-23.8h12.3v44.9
			h-10.9L348,321v24.6h-12.3L335.6,300.8L335.6,300.8z M319.6,288.8c0-4.1,3.3-7.4,7.7-7.4s7.6,3.3,7.6,7.4v0c0,4.1-3.3,7.4-7.7,7.4
			S319.6,292.9,319.6,288.8L319.6,288.8z M302.4,281.7h4.2l3.4,5.5l3.4-5.5h4.2v14.2h-3.9v-8.2l-3.6,5.6h-0.1l-3.6-5.5v8.1h-3.9
			L302.4,281.7L302.4,281.7z M294.1,290.5c-3-0.7-5.4-1.5-5.4-4.5v0c0-2.6,2.1-4.5,5.5-4.5c2.4,0,4.3,0.6,5.9,1.9l-2,2.8
			c-1.3-0.9-2.7-1.4-4-1.4c-1,0-1.4,0.4-1.4,0.9v0c0,0.6,0.5,0.9,2.5,1.4c3.3,0.7,5.3,1.8,5.3,4.4v0c0,2.9-2.3,4.6-5.8,4.6
			c-2.5,0-4.9-0.8-6.7-2.4l2.2-2.6c1.4,1.1,3,1.7,4.6,1.7c1,0,1.6-0.4,1.6-1v0C296.5,291.3,296.1,291,294.1,290.5z M305,299.9
			c13.9,0,24.1,10.3,24.1,23.2v0.1c0,12.9-10.4,23.4-24.3,23.4s-24.1-10.3-24.1-23.2v-0.1C280.8,310.4,291.2,299.9,305,299.9z
			 M280.4,287.9h6.7v3.4h-6.7V287.9z M265.3,281.7h5.5c5.1,0,8,2.9,8,7v0c0,4.1-3,7.2-8.1,7.2h-5.4L265.3,281.7L265.3,281.7z
			 M248,288.8c0-4.1,3.3-7.4,7.7-7.4s7.7,3.3,7.7,7.4v0c0,4.1-3.3,7.4-7.7,7.4C251.2,296.2,248,292.9,248,288.8L248,288.8L248,288.8
			z M231.1,288.8c0-4.1,3.3-7.4,7.7-7.4s7.6,3.3,7.6,7.4v0c0,4.1-3.3,7.4-7.7,7.4S231.1,292.9,231.1,288.8L231.1,288.8z
			 M212.9,281.7l2.5,8.2l2.8-8.3h3.4l2.8,8.3l2.5-8.2h4.1l-4.8,14.3h-3.4l-2.9-8.2l-2.9,8.2h-3.4l-4.8-14.3H212.9z M196.1,281.7
			h11.4v3.4H200v2.1h6.8v3.1H200v2.3h7.6v3.4h-11.6L196.1,281.7L196.1,281.7z M183.6,281.7h3.9v10.8h6.9v3.5h-10.8L183.6,281.7
			L183.6,281.7z M182.9,333.3c0,7.7-6.3,12.4-17,12.4h-23.1v-44.9h23c5.6,0,9.6,1.4,12.2,4c1.8,1.8,2.9,4.2,2.9,7.2v0.1
			c0,5.2-3,8.3-6.9,10c5.5,1.8,8.9,4.9,8.9,11L182.9,333.3L182.9,333.3z M169.9,281.7h6.1c3.6,0,5.9,1.9,5.9,5v0
			c0,3.4-2.6,5.1-6.1,5.1h-2v4.1h-3.9V281.7L169.9,281.7z M156.2,281.7h6.1c3.6,0,5.9,1.9,5.9,5v0c0,3.4-2.6,5.1-6.1,5.1h-2v4.1
			h-3.9V281.7L156.2,281.7z M145,281.6h3.8l6.1,14.3h-4.2l-1-2.5h-5.5l-1,2.5h-4.1L145,281.6z"/>
		<path fill="#D9D0BE" d="M238.8,292.6c2.2,0,3.6-1.8,3.6-3.8v0c0-2-1.5-3.9-3.7-3.9c-2.1,0-3.6,1.8-3.6,3.8v0
			C235.1,290.9,236.6,292.6,238.8,292.6z"/>
		<polygon fill="#D9D0BE" points="205,328 215.1,328 210.1,315.2 		"/>
		<polygon fill="#D9D0BE" points="146.8,286.2 145.2,290.3 148.4,290.3 		"/>
		<path fill="#D9D0BE" d="M178,286.9L178,286.9c0-1.3-0.9-1.9-2.3-1.9h-1.9v3.8h1.9C177.1,288.8,178,288,178,286.9z"/>
		<path fill="#D9D0BE" d="M168.6,314.8v-0.1c0-2.4-1.9-3.9-5.6-3.9h-8.1v7.9h7.8C166.5,318.7,168.6,317.4,168.6,314.8z"/>
		<path fill="#D9D0BE" d="M327.3,292.6c2.2,0,3.6-1.8,3.6-3.8v0c0-2-1.5-3.9-3.7-3.9c-2.1,0-3.6,1.8-3.6,3.8v0
			C323.6,290.9,325.1,292.6,327.3,292.6z"/>
		<path fill="#D9D0BE" d="M164.4,327.4h-9.5v8.3h9.6c3.8,0,6-1.5,6-4.1v-0.1C170.5,329,168.6,327.4,164.4,327.4z"/>
		<path fill="#D9D0BE" d="M374.9,288.8L374.9,288.8c0-2.3-1.6-3.6-3.9-3.6h-1.6v7.2h1.6C373.3,292.4,374.9,291.1,374.9,288.8z"/>
		<path fill="#D9D0BE" d="M305,335.4c6.9,0,11.4-5.5,11.4-12v-0.1c0-6.5-4.7-12.1-11.5-12.1c-6.8,0-11.4,5.5-11.4,12v0.1
			C293.6,329.7,298.2,335.4,305,335.4z"/>
		<path fill="#D9D0BE" d="M164.3,286.9L164.3,286.9c0-1.3-0.9-1.9-2.3-1.9h-1.9v3.8h1.9C163.4,288.8,164.3,288,164.3,286.9z"/>
	</g>
</g>
<g display="none">
	<rect x="207" y="493.9" display="inline" fill="#D9D0BE" width="204.4" height="43.9"/>
	<path display="inline" fill="#492E1E" d="M348.3,22l-23,28.7c-1,1.3-2.6,2-4.1,2c-1.1,0-2.3-0.4-3.3-1.2c-2.3-1.8-2.6-5.1-0.8-7.3
		l19.5-24.4c-5.5-0.8-11.2-1.5-17-1.8l-25.3,31.5c-1,1.3-2.5,2-4.1,2c-1.1,0-2.3-0.4-3.3-1.1c-2.3-1.8-2.6-5.1-0.8-7.3l20.4-25.4
		c-68.7,0-124.4,34.7-124.4,77.4h249C431.2,61.3,396.6,32.7,348.3,22z"/>
	<g display="inline">
		<path fill="#BAB9B9" d="M486.4,430.1H125.2v53.2h361.2V430.1z M165.5,462.5c0,5.6-4.4,8.9-11.1,8.9c-4.9,0-9.5-1.5-12.8-4.5l4.2-5
			c2.7,2.1,5.7,3.3,8.9,3.3c2,0,3.1-0.7,3.1-1.9v-0.1c0-1.1-0.9-1.8-4.6-2.6c-5.8-1.3-10.3-3-10.3-8.6v-0.1c0-5.1,4-8.8,10.6-8.8
			c4.7,0,8.3,1.2,11.3,3.6l-3.8,5.4c-2.5-1.8-5.2-2.7-7.7-2.7c-1.8,0-2.8,0.8-2.8,1.8v0.1c0,1.2,0.9,1.8,4.7,2.6
			C161.6,455.3,165.6,457.3,165.5,462.5L165.5,462.5L165.5,462.5z M199,471h-7.6v-15.7l-7,10.7h-0.2l-7-10.6V471h-7.4v-27.3h8
			l6.5,10.6l6.5-10.6h8L199,471L199,471z M224.5,471l-2-4.9h-10.6l-2,4.9h-8l11.6-27.5h7.3l11.6,27.5H224.5z M257.8,462.5
			c0,5.6-4.4,8.9-11.1,8.9c-4.9,0-9.5-1.5-12.8-4.5l4.2-5c2.7,2.1,5.7,3.3,8.9,3.3c2,0,3.1-0.7,3.1-1.9v-0.1c0-1.1-0.9-1.8-4.6-2.6
			c-5.8-1.3-10.3-3-10.3-8.6v-0.1c0-5.1,4-8.8,10.6-8.8c4.7,0,8.3,1.2,11.3,3.6l-3.8,5.4c-2.5-1.8-5.2-2.7-7.7-2.7
			c-1.8,0-2.8,0.8-2.8,1.8v0.1c0,1.2,0.9,1.8,4.7,2.6c6.3,1.4,10.2,3.4,10.2,8.5L257.8,462.5L257.8,462.5L257.8,462.5z M287,471
			h-7.6v-10.4h-9.8V471h-7.6v-27.3h7.6v10.2h9.8v-10.2h7.6V471z M317.3,463.4c0,4.7-3.8,7.5-10.4,7.5h-14.1v-27.3h14
			c3.5,0,5.9,0.9,7.5,2.5c1.1,1.1,1.8,2.5,1.8,4.4v0.1c0,3.1-1.8,5-4.2,6.1C315.2,457.8,317.3,459.7,317.3,463.4L317.3,463.4
			L317.3,463.4z M346.7,458.8c0,8.8-5.1,12.7-12.8,12.7c-7.8,0-12.7-3.9-12.7-12.5v-15.3h7.7v15.2c0,3.9,2,5.8,5,5.8
			c3.1,0,5.1-1.8,5.1-5.6v-15.4h7.7L346.7,458.8L346.7,458.8z M368.6,471l-5.5-8.3H363h-3.3v8.3h-7.6v-27.3h13c4.2,0,7.1,1.1,8.9,3
			c1.6,1.6,2.4,3.7,2.4,6.4v0.1c0,4.2-2.2,7-5.6,8.4l6.5,9.5L368.6,471L368.6,471z M406.3,467.3c-2.9,2.4-6.9,4.2-11.9,4.2
			c-8.5,0-14.9-5.9-14.9-14.1v-0.1c0-8,6.3-14.2,14.8-14.2c4.8,0,8.2,1.5,11.1,4l-4.5,5.3c-2-1.6-3.9-2.6-6.6-2.6c-4,0-7,3.3-7,7.5
			v0.1c0,4.4,3.1,7.6,7.4,7.6c1.8,0,3.3-0.4,4.4-1.1v-3.3h-5.4V455h12.6L406.3,467.3L406.3,467.3z M433.7,471h-22.2v-27.3h22v6.4
			H419v4.1h13.1v6H419v4.3h14.7L433.7,471L433.7,471z M455.1,471l-5.5-8.3h-0.1h-3.3v8.3h-7.6v-27.3h13c4.2,0,7.1,1.1,8.9,3
			c1.6,1.6,2.4,3.7,2.4,6.4v0.1c0,4.2-2.2,7-5.6,8.4l6.5,9.5L455.1,471L455.1,471z"/>
		<path fill="#BAB9B9" d="M364.7,450.2h-5v6.6h5c2.6,0,4.1-1.2,4.1-3.2v-0.1C368.8,451.3,367.2,450.2,364.7,450.2z"/>
		<path fill="#BAB9B9" d="M451.2,450.2h-5v6.6h5c2.6,0,4.1-1.2,4.1-3.2v-0.1C455.4,451.3,453.8,450.2,451.2,450.2z"/>
		<path fill="#BAB9B9" d="M306,459.9h-5.8v5h5.9c2.3,0,3.6-0.9,3.6-2.5v-0.1C309.7,460.8,308.5,459.9,306,459.9z"/>
		<path fill="#BAB9B9" d="M308.6,452.2L308.6,452.2c0-1.6-1.2-2.4-3.5-2.4h-4.9v4.8h4.8C307.3,454.5,308.6,453.8,308.6,452.2z"/>
		<polygon fill="#BAB9B9" points="214.1,460.2 220.3,460.2 217.2,452.4 		"/>
	</g>
	<g display="inline">
		<path fill="#492E1E" d="M324.3,519.5h-5.5v4.8h5.5c2.2,0,3.4-0.9,3.4-2.4v-0.1C327.8,520.4,326.7,519.5,324.3,519.5z"/>
		<path fill="#492E1E" d="M326.7,512.2L326.7,512.2c0-1.5-1.1-2.3-3.3-2.3h-4.7v4.6h4.5C325.5,514.5,326.7,513.8,326.7,512.2z"/>
		<path fill="#492E1E" d="M431.4,532.9v-41.5H181.9v41.5c0,5.3,4.3,9.5,9.6,9.5h230.4C427.1,542.4,431.4,538.1,431.4,532.9z
			 M241.4,530h-21v-25.9h20.8v6.1h-13.7v3.9h12.4v5.7h-12.4v4.1h13.9L241.4,530L241.4,530z M269.2,526.6c-2.7,2.3-6.5,4-11.2,4
			c-8.1,0-14.1-5.5-14.1-13.4v-0.1c0-7.5,5.9-13.4,13.9-13.4c4.5,0,7.8,1.4,10.5,3.8l-4.2,5.1c-1.8-1.6-3.7-2.4-6.2-2.4
			c-3.7,0-6.6,3.1-6.6,7.1v0.1c0,4.2,2.9,7.2,7,7.2c1.7,0,3.1-0.4,4.1-1.1v-3.1h-5.1v-5.2h11.9L269.2,526.6L269.2,526.6L269.2,526.6
			z M297.6,526.6c-2.7,2.3-6.5,4-11.2,4c-8,0-14.1-5.5-14.1-13.4v-0.1c0-7.5,5.9-13.4,13.9-13.4c4.5,0,7.8,1.4,10.5,3.8l-4.2,5.1
			c-1.8-1.6-3.7-2.4-6.2-2.4c-3.7,0-6.6,3.1-6.6,7.1v0.1c0,4.2,2.9,7.2,7,7.2c1.7,0,3.1-0.4,4.1-1.1v-3.1h-5.1v-5.2h11.9
			L297.6,526.6L297.6,526.6L297.6,526.6z M335,522.9c0,4.4-3.6,7.1-9.8,7.1h-13.3v-25.9h13.2c3.3,0,5.5,0.8,7,2.3
			c1,1,1.7,2.4,1.7,4.2v0.1c0,3-1.7,4.8-4,5.8C332.9,517.5,334.9,519.3,335,522.9L335,522.9L335,522.9z M362,518.5
			c0,8.3-4.8,12-12.1,12c-7.4,0-12-3.7-12-11.8v-14.5h7.3v14.4c0,3.7,1.9,5.5,4.8,5.5s4.8-1.7,4.8-5.3v-14.5h7.3L362,518.5
			L362,518.5z M390.6,530h-6.3l-11-14.2V530h-7.1v-25.9h6.7l10.6,13.7v-13.7h7.1V530L390.6,530z"/>
	</g>
	<g display="inline">
		<path fill="#D9D0BE" d="M349.7,252.2L349.7,252.2c0-2.2-1.5-3.4-3.7-3.4h-1.5v6.9h1.5C348.2,255.6,349.7,254.3,349.7,252.2z"/>
		<path fill="#D9D0BE" d="M331.5,255.8c2.1,0,3.4-1.7,3.4-3.6v0c0-1.9-1.4-3.6-3.5-3.6c-2,0-3.4,1.7-3.4,3.6v0
			C328.1,254.1,329.5,255.8,331.5,255.8z"/>
		<path fill="#D9D0BE" d="M214.1,316.9h243v-80.5h-243V316.9z M299.6,306.1l-3.1-7.6h-16.4l-3,7.6h-12.4l18.1-42.9h11.4l18.1,42.9
			H299.6z M334.1,306.9c-12.2,0-22-9.3-22-22v-0.1c0-12.4,9.5-22.1,22.4-22.1c8.7,0,14.3,3.6,18.1,8.9l-8.9,6.9c-2.4-3-5.2-5-9.3-5
			c-6,0-10.1,5-10.1,11.2v0.1c0,6.4,4.2,11.4,10.1,11.4c4.5,0,7-2.1,9.6-5.2l8.9,6.3C349,302.8,343.6,306.9,334.1,306.9z
			 M435.5,245.4h5.2c4.8,0,7.6,2.8,7.6,6.7v0c0,3.9-2.8,6.8-7.7,6.8h-5.1V245.4L435.5,245.4z M422.6,245.4h10.9v3.2h-7.1v2.1h6.5
			v2.9h-6.5v2.1h7.2v3.2h-10.9L422.6,245.4L422.6,245.4z M408.6,245.4h3.7v5.5l4.6-5.5h4.4l-5.1,5.8l5.3,7.7h-4.5l-3.4-5l-1.4,1.5
			v3.5h-3.7L408.6,245.4L408.6,245.4z M407.3,263.5h11l17.5,22.5v-22.5h11.7v42.6h-10.3L419,282.7v23.4h-11.7V263.5L407.3,263.5z
			 M392.1,252.1c0-3.9,3.1-7,7.3-7s7.2,3.1,7.2,7v0c0,3.9-3.1,7-7.3,7S392.1,256.1,392.1,252.1L392.1,252.1L392.1,252.1z
			 M375.9,245.4h4l3.2,5.2l3.2-5.2h4v13.5h-3.7v-7.8l-3.5,5.3H383l-3.4-5.2v7.7h-3.7L375.9,245.4L375.9,245.4z M368,253.8
			c-2.9-0.6-5.1-1.5-5.1-4.2v0c0-2.5,2-4.3,5.2-4.3c2.3,0,4.1,0.6,5.5,1.8l-1.9,2.6c-1.2-0.9-2.6-1.3-3.8-1.3
			c-0.9,0-1.4,0.4-1.4,0.9v0c0,0.6,0.5,0.9,2.3,1.3c3.1,0.7,5,1.7,5,4.2v0c0,2.8-2.2,4.4-5.5,4.4c-2.4,0-4.6-0.8-6.3-2.2l2.1-2.5
			c1.3,1.1,2.8,1.6,4.4,1.6c1,0,1.5-0.4,1.5-0.9v0C370.3,254.5,369.9,254.2,368,253.8z M378.3,262.6c13.1,0,22.9,9.8,22.9,22v0.1
			c0,12.2-9.9,22.1-23,22.1s-22.9-9.8-22.9-22v-0.1C355.4,272.5,365.2,262.6,378.3,262.6z M355,251.2h6.3v3.2H355V251.2z
			 M340.7,245.4h5.2c4.8,0,7.6,2.8,7.6,6.7v0c0,3.9-2.8,6.8-7.7,6.8h-5.1V245.4L340.7,245.4z M324.3,252.1c0-3.9,3.1-7,7.3-7
			s7.2,3.1,7.2,7v0c0,3.9-3.1,7-7.3,7C327.3,259.2,324.2,256.1,324.3,252.1L324.3,252.1L324.3,252.1z M308.2,252.1
			c0-3.9,3.1-7,7.3-7s7.2,3.1,7.2,7v0c0,3.9-3.1,7-7.3,7S308.2,256.1,308.2,252.1L308.2,252.1L308.2,252.1z M291,245.4l2.4,7.8
			l2.6-7.8h3.2l2.6,7.8l2.3-7.8h3.9l-4.5,13.6h-3.3l-2.7-7.8l-2.7,7.8h-3.3l-4.5-13.6L291,245.4L291,245.4z M275.1,245.4H286v3.2
			h-7.1v2.1h6.5v2.9h-6.5v2.1h7.2v3.2h-10.9L275.1,245.4L275.1,245.4z M263.2,245.4h3.8v10.2h6.5v3.3h-10.3L263.2,245.4L263.2,245.4
			z M262.7,294.3c0,7.3-6,11.7-16.1,11.7h-21.9v-42.6h21.8c5.4,0,9.1,1.3,11.6,3.8c1.7,1.7,2.7,4,2.7,6.9v0.1c0,4.9-2.8,7.8-6.6,9.5
			c5.2,1.7,8.5,4.6,8.5,10.4L262.7,294.3L262.7,294.3z M250.3,245.4h5.8c3.4,0,5.6,1.8,5.6,4.7v0c0,3.2-2.5,4.9-5.8,4.9H254v3.9
			h-3.7L250.3,245.4L250.3,245.4z M237.3,245.4h5.8c3.4,0,5.6,1.8,5.6,4.7v0c0,3.2-2.4,4.9-5.8,4.9h-1.9v3.9h-3.7V245.4L237.3,245.4
			z M226.7,245.3h3.6l5.7,13.6h-4l-1-2.4h-5.2l-1,2.4h-3.9L226.7,245.3z"/>
		<path fill="#D9D0BE" d="M315.5,255.8c2.1,0,3.4-1.7,3.4-3.6v0c0-1.9-1.4-3.6-3.5-3.6c-2,0-3.4,1.7-3.4,3.6v0
			C312.1,254.1,313.5,255.8,315.5,255.8z"/>
		<polygon fill="#D9D0BE" points="283.6,289.3 293.1,289.3 288.4,277.2 		"/>
		<polygon fill="#D9D0BE" points="228.5,249.7 226.9,253.6 230,253.6 		"/>
		<path fill="#D9D0BE" d="M258,250.4L258,250.4c0-1.2-0.8-1.8-2.1-1.8h-1.8v3.6h1.8C257.1,252.1,258,251.4,258,250.4z"/>
		<path fill="#D9D0BE" d="M249.1,276.7v-0.1c0-2.3-1.8-3.6-5.4-3.6h-7.7v7.5h7.4C247.1,280.5,249.1,279.2,249.1,276.7z"/>
		<path fill="#D9D0BE" d="M399.4,255.8c2.1,0,3.4-1.7,3.4-3.6v0c0-1.9-1.4-3.6-3.5-3.6c-2,0-3.4,1.7-3.4,3.6v0
			C396,254.1,397.4,255.8,399.4,255.8z"/>
		<path fill="#D9D0BE" d="M245.1,288.7h-9v7.8h9.1c3.6,0,5.6-1.4,5.6-3.9v-0.1C250.9,290.2,249,288.7,245.1,288.7z"/>
		<path fill="#D9D0BE" d="M444.5,252.2L444.5,252.2c0-2.2-1.5-3.4-3.7-3.4h-1.5v6.9h1.5C443,255.6,444.5,254.3,444.5,252.2z"/>
		<path fill="#D9D0BE" d="M378.3,296.3c6.5,0,10.8-5.2,10.8-11.4v-0.1c0-6.1-4.4-11.5-10.9-11.5c-6.4,0-10.8,5.2-10.8,11.4v0.1
			C367.5,290.9,371.9,296.3,378.3,296.3z"/>
		<path fill="#D9D0BE" d="M245,250.4L245,250.4c0-1.2-0.8-1.8-2.1-1.8h-1.8v3.6h1.8C244.2,252.1,245,251.4,245,250.4z"/>
	</g>
	<g display="inline">
		<path fill="#D9D0BE" d="M299,122.4c-4.7,0-7.9,3.9-7.9,8.4v0.1c0,4.5,3.2,8.4,8,8.4c1.1,0,2.2-0.2,3.1-0.6l-4.3-3.7l4.3-4.9
			l4.2,3.9c0.4-1,0.5-2,0.5-3.1v-0.1C307,126.4,303.7,122.4,299,122.4z"/>
		<path fill="#D9D0BE" d="M266.6,133.7H260v5.7h6.6c2.7,0,4.1-1,4.1-2.8v-0.1C270.8,134.8,269.5,133.7,266.6,133.7z"/>
		<path fill="#D9D0BE" d="M237.8,125L237.8,125c0-1.8-1.4-2.8-3.9-2.8h-5.6v5.5h5.4C236.3,127.7,237.8,126.8,237.8,125z"/>
		<path fill="#D9D0BE" d="M234.9,133.7h-6.6v5.7h6.6c2.7,0,4.1-1,4.1-2.8v-0.1C239.1,134.8,237.7,133.7,234.9,133.7z"/>
		<path fill="#D9D0BE" d="M269.5,125L269.5,125c0-1.8-1.4-2.8-3.9-2.8H260v5.5h5.4C268,127.7,269.5,126.8,269.5,125z"/>
		<polygon fill="#D9D0BE" points="372,134.1 379,134.1 375.5,125.3 		"/>
		<path fill="#D9D0BE" d="M209.7,102.9v56.2h287.5v-56.2C497.2,102.9,209.7,102.9,209.7,102.9z M247.7,137.8c0,5.3-4.3,8.6-11.7,8.6
			h-16v-31h15.9c3.9,0,6.6,1,8.5,2.8c1.2,1.3,2,2.9,2,5.1v0.1c0,3.6-2.1,5.7-4.8,6.9C245.2,131.4,247.6,133.5,247.7,137.8
			L247.7,137.8L247.7,137.8z M279.4,137.8c0,5.3-4.3,8.6-11.7,8.6h-16v-31h15.9c3.9,0,6.6,1,8.5,2.8c1.2,1.3,2,2.9,2,5.1v0.1
			c0,3.6-2,5.7-4.8,6.9C277,131.4,279.4,133.5,279.4,137.8L279.4,137.8L279.4,137.8z M311.8,147.3l-3.4-3.1
			c-2.7,1.8-5.9,2.8-9.5,2.8c-9.6,0-16.7-7.1-16.7-16.1v-0.1c0-8.9,7.2-16.1,16.8-16.1c9.6,0,16.7,7.1,16.7,16.1v0.1
			c0,3.3-1,6.3-2.8,8.9l3.2,2.7L311.8,147.3z M357.2,136.8c0,6.3-5,10.1-12.5,10.1c-5.5,0-10.7-1.7-14.5-5.1l4.8-5.7
			c3.1,2.4,6.5,3.7,10.1,3.7c2.4,0,3.6-0.8,3.6-2.1v-0.1c0-1.3-1-2-5.3-3c-6.6-1.5-11.7-3.4-11.7-9.7v-0.1c0-5.8,4.6-9.9,12-9.9
			c5.3,0,9.4,1.4,12.8,4.1l-4.3,6.1c-2.8-2.1-6-3.1-8.7-3.1c-2.1,0-3.1,0.8-3.1,2v0.1c0,1.4,1.1,2.1,5.4,3
			c7.1,1.6,11.5,3.8,11.5,9.7L357.2,136.8L357.2,136.8z M383.7,146.4l-2.2-5.6h-12l-2.2,5.6h-9l13.2-31.3h8.3l13.2,31.3L383.7,146.4
			L383.7,146.4L383.7,146.4z M423.2,132.5c0,10-5.7,14.4-14.5,14.4c-8.8,0-14.3-4.5-14.3-14.2v-17.4h8.7v17.3c0,4.5,2.3,6.6,5.7,6.6
			c3.5,0,5.8-2.1,5.8-6.4v-17.5h8.7L423.2,132.5L423.2,132.5z M443.3,147c-8.9,0-16-6.8-16-16.1v-0.1c0-9.1,6.9-16.1,16.3-16.1
			c6.3,0,10.4,2.7,13.2,6.4l-6.5,5c-1.8-2.2-3.8-3.6-6.8-3.6c-4.3,0-7.4,3.7-7.4,8.2v0.1c0,4.6,3.1,8.3,7.4,8.3c3.2,0,5.1-1.5,7-3.8
			l6.5,4.6C454.1,144,450.1,147,443.3,147z M485.9,146.4h-25.2v-31h25v7.3h-16.5v4.7h14.9v6.8h-14.9v4.9H486L485.9,146.4
			L485.9,146.4L485.9,146.4z"/>
	</g>
	<g display="inline">
		<path fill="#D9D0BE" d="M263.9,351.3L263.9,351.3c0-1.9-1.4-2.9-3.5-2.9h-4.2v5.6h4.3C262.5,354.1,263.9,353,263.9,351.3z"/>
		<path fill="#D9D0BE" d="M155.1,324.1v98.3h217.3v-98.3H155.1z M334.9,342.9h6l9.6,12.3v-12.3h6.4v23.2h-5.6l-10-12.7v12.7h-6.4
			L334.9,342.9L334.9,342.9z M316.5,342.8h6.2l9.9,23.4h-6.9l-1.7-4.2h-9l-1.7,4.2h-6.7L316.5,342.8z M283.7,354.5
			c0-6.8,5.2-12.1,12.2-12.1c4.7,0,7.8,2,9.9,4.8l-4.9,3.7c-1.3-1.6-2.9-2.7-5.1-2.7c-3.3,0-5.5,2.8-5.5,6.2v0.1
			c0,3.5,2.3,6.2,5.5,6.2c2.4,0,3.9-1.1,5.2-2.8l4.9,3.5c-2.2,3-5.1,5.2-10.2,5.2C289,366.6,283.7,361.5,283.7,354.5L283.7,354.5
			L283.7,354.5z M273.7,342.9h6.4v23.2h-6.4V342.9z M249.7,342.9h11c3.5,0,6,0.9,7.6,2.5c1.4,1.4,2.1,3.1,2.1,5.4v0.1
			c0,3.6-1.9,6-4.8,7.2l5.5,8.1h-7.4l-4.7-7h-2.9v7h-6.4L249.7,342.9L249.7,342.9z M227.5,342.9h18.7v5.4h-12.3v3.5H245v5.1h-11.1
			v3.7h12.5v5.5h-18.9L227.5,342.9L227.5,342.9L227.5,342.9z M180.3,342.8h6.2l9.9,23.4h-6.9l-1.7-4.2h-9l-1.7,4.2h-6.7L180.3,342.8
			z M187.9,404c-9.1,0-16.4-7-16.4-16.5v-0.1c0-9.3,7.1-16.6,16.8-16.6c6.5,0,10.7,2.7,13.5,6.6l-6.6,5.1c-1.8-2.2-3.9-3.7-7-3.7
			c-4.5,0-7.6,3.8-7.6,8.5v0.1c0,4.8,3.1,8.5,7.6,8.5c3.3,0,5.3-1.5,7.2-3.9l6.6,4.7C199,401,194.9,404,187.9,404z M205,366.2h-6.3
			v-23.2h6.8l5.6,9l5.6-9h6.8v23.2H217v-13.4l-5.9,9.1h-0.1l-5.9-9.1V366.2L205,366.2L205,366.2z M234.9,403.4H226v-12.1h-11.3v12.1
			h-8.8v-31.9h8.8v11.9H226v-11.9h8.8V403.4z M266.4,403.4h-25.9v-31.9h25.7v7.5h-16.9v4.9h15.3v7h-15.3v5.1h17.1V403.4z
			 M296.9,403.4H271v-31.9h25.6v7.5h-16.9v4.9H295v7h-15.3v5.1h17.1V403.4z M326.9,393.5c0,6.5-5.1,10.4-12.9,10.4
			c-5.6,0-11-1.8-14.9-5.3l4.9-5.9c3.2,2.5,6.6,3.8,10.3,3.8c2.4,0,3.7-0.8,3.7-2.2v-0.1c0-1.4-1-2-5.4-3.1c-6.8-1.5-12-3.5-12-10
			v-0.1c0-5.9,4.7-10.2,12.3-10.2c5.4,0,9.7,1.5,13.1,4.2l-4.4,6.2c-2.9-2.1-6.1-3.1-8.9-3.1c-2.1,0-3.2,0.9-3.2,2v0.1
			c0,1.5,1.1,2.1,5.5,3.1c7.3,1.6,11.9,4,11.9,9.9L326.9,393.5L326.9,393.5z M357,403.4h-25.9v-31.9h25.6v7.5h-16.9v4.9h15.3v7
			h-15.3v5.1H357V403.4z"/>
		<polygon fill="#D9D0BE" points="183.3,350.4 180.7,357 185.9,357 		"/>
		<polygon fill="#D9D0BE" points="319.6,350.4 317,357 322.2,357 		"/>
	</g>
	<g display="inline">
		<path fill="#D9D0BE" d="M430.1,188.6c-5,0-8.4,4.1-8.4,8.8v0.1c0,4.8,3.5,8.9,8.5,8.9c5,0,8.4-4.1,8.4-8.8v-0.1
			C438.6,192.7,435.2,188.6,430.1,188.6z"/>
		<path fill="#D9D0BE" d="M338.4,188.6c-5,0-8.4,4.1-8.4,8.8v0.1c0,4.8,3.5,8.9,8.5,8.9c5,0,8.4-4.1,8.4-8.8v-0.1
			C346.9,192.7,343.5,188.6,338.4,188.6z"/>
		<polygon fill="#D9D0BE" points="216.3,201 223.7,201 220.1,191.7 		"/>
		<path fill="#D9D0BE" d="M32.5,166.7v62.2h494.9v-62.2H32.5z M76.9,214.1h-9.2v-12.6H56v12.6h-9.1v-33H56v12.4h11.7v-12.4h9.2
			L76.9,214.1L76.9,214.1z M107.2,214.1l-2.4-5.9H92.1l-2.4,5.9h-9.6l14-33.3h8.8l14.1,33.3H107.2z M133.8,214.1h-9.2v-12.4
			l-12.6-20.7h10.4l6.8,12l6.8-12h10.2l-12.6,20.5V214.1z M173.9,203.9c0,6.7-5.3,10.8-13.4,10.8c-5.9,0-11.4-1.8-15.5-5.5l5.1-6.1
			c3.3,2.6,6.9,4,10.7,4c2.5,0,3.8-0.9,3.8-2.3v-0.1c0-1.4-1.1-2.1-5.6-3.2c-7-1.6-12.5-3.6-12.5-10.3v-0.1
			c0-6.1,4.9-10.6,12.8-10.6c5.6,0,10,1.5,13.6,4.4l-4.6,6.5c-3-2.2-6.3-3.3-9.2-3.3c-2.2,0-3.3,0.9-3.3,2.1v0.1
			c0,1.5,1.1,2.2,5.8,3.2C169.1,195.2,173.9,197.6,173.9,203.9L173.9,203.9L173.9,203.9L173.9,203.9z M194.6,214.1h-9.1v-25h-9.9v-8
			h28.9v8h-9.9L194.6,214.1L194.6,214.1z M228.8,214.1l-2.4-5.9h-12.8l-2.4,5.9h-9.6l14-33.3h8.8l14.1,33.3H228.8z M255.7,214.7
			c-9.4,0-17-7.2-17-17.1v-0.1c0-9.6,7.4-17.2,17.4-17.2c6.8,0,11.1,2.8,14,6.8l-6.9,5.3c-1.9-2.3-4.1-3.9-7.2-3.9
			c-4.6,0-7.9,4-7.9,8.8v0.1c0,4.9,3.3,8.8,7.9,8.8c3.4,0,5.5-1.6,7.4-4l6.9,4.9C267.1,211.6,262.9,214.7,255.7,214.7z M295.1,214.1
			l-8.4-12.3l-3.3,3.7v8.6h-9.1v-33h9.1v13.4l11.4-13.4h10.8l-12.5,14.2l12.9,18.9L295.1,214.1L295.1,214.1z M356.2,197.6
			c0,9.5-7.6,17.2-17.8,17.2s-17.7-7.6-17.7-17.1v-0.1c0-9.5,7.6-17.2,17.8-17.2C348.7,180.4,356.2,188,356.2,197.6L356.2,197.6z
			 M392.2,214.1h-8L370,196v18.1h-9.1v-33h8.5l13.6,17.5v-17.5h9.1L392.2,214.1L392.2,214.1L392.2,214.1z M407.4,214.1h-9.1v-33h9.1
			V214.1z M448,197.6c0,9.5-7.6,17.2-17.8,17.2s-17.7-7.6-17.7-17.1v-0.1c0-9.5,7.6-17.2,17.8-17.2S448,188,448,197.6L448,197.6z
			 M483.9,214.1h-8L461.8,196v18.1h-9.1v-33h8.5l13.6,17.5v-17.5h9.1L483.9,214.1L483.9,214.1L483.9,214.1z M516.1,203.9
			c0,6.7-5.3,10.8-13.4,10.8c-5.8,0-11.4-1.8-15.5-5.5l5.1-6.1c3.3,2.6,6.9,4,10.7,4c2.5,0,3.8-0.9,3.8-2.3v-0.1
			c0-1.4-1.1-2.1-5.6-3.2c-7-1.6-12.5-3.6-12.5-10.3v-0.1c0-6.1,4.9-10.6,12.8-10.6c5.6,0,10,1.5,13.6,4.4l-4.6,6.5
			c-3-2.2-6.3-3.3-9.2-3.3c-2.2,0-3.3,0.9-3.3,2.1v0.1c0,1.5,1.1,2.2,5.8,3.2C511.3,195.2,516.1,197.6,516.1,203.9L516.1,203.9
			L516.1,203.9z"/>
		<polygon fill="#D9D0BE" points="94.8,201 102.2,201 98.5,191.7 		"/>
	</g>
</g>
<g>
	<rect x="206.2" y="494.8" fill="#D8D0BD" width="206.1" height="44.3"/>
	<path fill="#4B2E1F" d="M348.6,19l-23.2,29c-1,1.3-2.6,2-4.1,2c-1.2,0-2.3-0.4-3.3-1.2c-2.3-1.8-2.6-5.1-0.8-7.4l19.7-24.6
		c-5.6-0.9-11.3-1.5-17.2-1.9l-25.5,31.8c-1,1.3-2.6,2-4.1,2c-1.1,0-2.3-0.4-3.3-1.2c-2.3-1.8-2.6-5.1-0.8-7.4l20.6-25.7
		c-69.3,0-125.4,35-125.4,78h251.1C432.2,58.7,397.3,29.8,348.6,19z"/>
	<g>
		<path fill="#4B2E1F" d="M324.4,520.7h-5.5v4.8h5.6c2.2,0,3.5-0.9,3.5-2.4v-0.1C327.9,521.6,326.8,520.7,324.4,520.7z"/>
		<path fill="#4B2E1F" d="M326.9,513.4L326.9,513.4c0-1.5-1.1-2.3-3.3-2.3h-4.7v4.6h4.5C325.6,515.7,326.9,514.9,326.9,513.4z"/>
		<path fill="#4B2E1F" d="M432.4,534.2v-41.9H180.9v41.9c0,5.3,4.3,9.6,9.6,9.6h232.3C428.1,543.8,432.4,539.5,432.4,534.2z
			 M240.8,531.3h-21.1v-26.1h21v6.1h-13.8v4h12.5v5.7h-12.5v4.1h14L240.8,531.3L240.8,531.3z M268.9,527.8c-2.8,2.3-6.6,4-11.3,4
			c-8.1,0-14.2-5.6-14.2-13.5v-0.1c0-7.6,6-13.5,14-13.5c4.6,0,7.8,1.4,10.6,3.8l-4.2,5.1c-1.9-1.6-3.7-2.5-6.3-2.5
			c-3.8,0-6.7,3.2-6.7,7.1v0.1c0,4.2,2.9,7.2,7.1,7.2c1.8,0,3.1-0.4,4.2-1.1v-3.2h-5.1v-5.3h12V527.8z M297.5,527.8
			c-2.8,2.3-6.6,4-11.3,4c-8.1,0-14.2-5.6-14.2-13.5v-0.1c0-7.6,6-13.5,14-13.5c4.6,0,7.8,1.4,10.6,3.8l-4.2,5.1
			c-1.9-1.6-3.7-2.5-6.3-2.5c-3.8,0-6.7,3.2-6.7,7.1v0.1c0,4.2,2.9,7.2,7.1,7.2c1.8,0,3.1-0.4,4.2-1.1v-3.2h-5.1v-5.3h12V527.8z
			 M335.2,524.1c0,4.5-3.6,7.2-9.9,7.2h-13.4v-26.1h13.4c3.3,0,5.6,0.8,7.1,2.4c1,1,1.7,2.4,1.7,4.2v0.1c0,3-1.7,4.8-4,5.8
			C333.2,518.8,335.2,520.5,335.2,524.1L335.2,524.1L335.2,524.1z M362.4,519.7c0,8.4-4.8,12.1-12.2,12.1s-12.1-3.8-12.1-11.9v-14.6
			h7.3v14.5c0,3.8,1.9,5.5,4.8,5.5s4.8-1.7,4.8-5.4v-14.7h7.3L362.4,519.7L362.4,519.7z M391.3,531.3H385L373.8,517v14.3h-7.1v-26.1
			h6.7l10.7,13.8v-13.8h7.1V531.3z"/>
	</g>
	<g>
		<path fill="#D8D0BD" d="M350,251.1L350,251.1c0-2.2-1.5-3.5-3.8-3.5h-1.5v6.9h1.5C348.5,254.5,350,253.3,350,251.1z"/>
		<path fill="#D8D0BD" d="M331.7,254.8c2.1,0,3.5-1.7,3.5-3.6v0c0-2-1.4-3.7-3.5-3.7c-2.1,0-3.4,1.7-3.4,3.6v0
			C328.2,253.1,329.7,254.8,331.7,254.8z"/>
		<path fill="#D8D0BD" d="M213.4,316.4h245v-81.2h-245V316.4z M299.5,305.5l-3.1-7.7h-16.5l-3.1,7.7h-12.5l18.3-43.2H294l18.3,43.2
			H299.5z M334.4,306.3c-12.3,0-22.1-9.4-22.1-22.2V284c0-12.5,9.6-22.3,22.6-22.3c8.8,0,14.4,3.7,18.2,9l-9,6.9
			c-2.5-3.1-5.3-5-9.4-5c-6,0-10.2,5.1-10.2,11.3v0.1c0,6.4,4.2,11.5,10.2,11.5c4.5,0,7.1-2.1,9.7-5.2l9,6.4
			C349.3,302.2,343.9,306.3,334.4,306.3z M436.6,244.3h5.2c4.9,0,7.7,2.8,7.7,6.7v0c0,3.9-2.9,6.8-7.8,6.8h-5.2V244.3z M423.6,244.3
			h10.9v3.2h-7.2v2.1h6.5v3h-6.5v2.2h7.3v3.2h-11V244.3z M409.4,244.3h3.8v5.5l4.7-5.5h4.5l-5.1,5.9l5.3,7.8H418l-3.4-5.1l-1.4,1.5
			v3.5h-3.8L409.4,244.3L409.4,244.3z M408.2,262.5h11.1l17.7,22.7v-22.7h11.8v42.9h-10.4l-18.3-23.5v23.5h-11.8L408.2,262.5
			L408.2,262.5z M392.8,251.1c0-3.9,3.1-7.1,7.3-7.1c4.2,0,7.3,3.1,7.3,7v0c0,3.9-3.1,7.1-7.3,7.1
			C395.9,258.2,392.8,255,392.8,251.1L392.8,251.1z M376.4,244.3h4l3.2,5.3l3.2-5.3h4v13.6h-3.8v-7.8l-3.5,5.3h-0.1l-3.5-5.3v7.8
			h-3.7L376.4,244.3L376.4,244.3z M368.5,252.7c-2.9-0.7-5.1-1.5-5.1-4.3v0c0-2.5,2-4.4,5.3-4.4c2.3,0,4.1,0.6,5.6,1.8l-1.9,2.7
			c-1.2-0.9-2.6-1.3-3.8-1.3c-0.9,0-1.4,0.4-1.4,0.9v0c0,0.6,0.5,0.9,2.4,1.3c3.1,0.7,5.1,1.7,5.1,4.2v0c0,2.8-2.2,4.4-5.5,4.4
			c-2.4,0-4.7-0.8-6.4-2.2l2.1-2.5c1.3,1.1,2.8,1.6,4.4,1.6c1,0,1.5-0.4,1.5-0.9v0C370.8,253.5,370.4,253.1,368.5,252.7z
			 M378.9,261.7c13.2,0,23,9.9,23,22.2v0.1c0,12.3-9.9,22.3-23.2,22.3c-13.2,0-23-9.9-23-22.2V284
			C355.7,271.7,365.7,261.7,378.9,261.7z M355.4,250.2h6.4v3.2h-6.4V250.2z M341,244.3h5.2c4.9,0,7.7,2.8,7.7,6.7v0
			c0,3.9-2.9,6.8-7.8,6.8H341V244.3z M324.4,251.1c0-3.9,3.1-7.1,7.3-7.1c4.2,0,7.3,3.1,7.3,7v0c0,3.9-3.1,7.1-7.3,7.1
			C327.5,258.2,324.4,255,324.4,251.1L324.4,251.1z M308.2,251.1c0-3.9,3.1-7.1,7.3-7.1s7.3,3.1,7.3,7v0c0,3.9-3.1,7.1-7.3,7.1
			C311.3,258.2,308.2,255,308.2,251.1L308.2,251.1z M290.9,244.3l2.4,7.9l2.6-7.9h3.2l2.6,7.9l2.4-7.9h3.9l-4.5,13.7h-3.3l-2.7-7.8
			l-2.7,7.8h-3.3l-4.5-13.7H290.9z M274.8,244.3h10.9v3.2h-7.2v2.1h6.5v3h-6.5v2.2h7.3v3.2h-11V244.3z M262.9,244.3h3.8v10.3h6.6
			v3.3h-10.4V244.3z M262.3,293.6c0,7.4-6,11.8-16.2,11.8h-22.1v-42.9h22c5.4,0,9.2,1.4,11.7,3.9c1.7,1.7,2.8,4,2.8,6.9v0.1
			c0,5-2.8,7.9-6.6,9.6c5.2,1.7,8.5,4.7,8.5,10.5V293.6z M249.8,244.3h5.8c3.4,0,5.6,1.8,5.6,4.8v0c0,3.2-2.5,4.9-5.9,4.9h-1.9v3.9
			h-3.8L249.8,244.3L249.8,244.3z M236.7,244.3h5.8c3.4,0,5.6,1.8,5.6,4.8v0c0,3.2-2.5,4.9-5.9,4.9h-1.9v3.9h-3.8L236.7,244.3
			L236.7,244.3z M226,244.2h3.6l5.8,13.7h-4l-1-2.4h-5.2l-1,2.4h-4L226,244.2z"/>
		<path fill="#D8D0BD" d="M315.6,254.8c2.1,0,3.5-1.7,3.5-3.6v0c0-2-1.4-3.7-3.5-3.7c-2.1,0-3.4,1.7-3.4,3.6v0
			C312.1,253.1,313.5,254.8,315.6,254.8z"/>
		<polygon fill="#D8D0BD" points="283.4,288.5 293,288.5 288.2,276.3 		"/>
		<polygon fill="#D8D0BD" points="227.8,248.7 226.2,252.5 229.3,252.5 		"/>
		<path fill="#D8D0BD" d="M257.5,249.3L257.5,249.3c0-1.2-0.8-1.8-2.2-1.8h-1.8v3.6h1.8C256.7,251.1,257.5,250.4,257.5,249.3z"/>
		<path fill="#D8D0BD" d="M248.6,275.9v-0.1c0-2.3-1.8-3.7-5.4-3.7h-7.7v7.5h7.5C246.6,279.6,248.6,278.4,248.6,275.9z"/>
		<path fill="#D8D0BD" d="M400.2,254.8c2.1,0,3.5-1.7,3.5-3.6v0c0-2-1.4-3.7-3.5-3.7c-2.1,0-3.4,1.7-3.4,3.6v0
			C396.7,253.1,398.1,254.8,400.2,254.8z"/>
		<path fill="#D8D0BD" d="M244.6,288h-9.1v7.9h9.2c3.6,0,5.7-1.4,5.7-3.9v-0.1C250.4,289.5,248.5,288,244.6,288z"/>
		<path fill="#D8D0BD" d="M445.6,251.1L445.6,251.1c0-2.2-1.5-3.5-3.8-3.5h-1.5v6.9h1.5C444.1,254.5,445.6,253.3,445.6,251.1z"/>
		<path fill="#D8D0BD" d="M378.9,295.6c6.6,0,10.9-5.3,10.9-11.5V284c0-6.2-4.5-11.6-11-11.6c-6.5,0-10.9,5.3-10.9,11.5v0.1
			C367.9,290.2,372.4,295.6,378.9,295.6z"/>
		<path fill="#D8D0BD" d="M244.4,249.3L244.4,249.3c0-1.2-0.8-1.8-2.2-1.8h-1.8v3.6h1.8C243.6,251.1,244.4,250.4,244.4,249.3z"/>
	</g>
	<g>
		<path fill="#D8D0BD" d="M298.9,120.3c-4.8,0-8,3.9-8,8.4v0.1c0,4.5,3.2,8.5,8,8.5c1.1,0,2.2-0.2,3.1-0.6l-4.3-3.7l4.4-4.9l4.2,3.9
			c0.4-1,0.5-2,0.5-3.1v-0.1C306.9,124.3,303.7,120.3,298.9,120.3z"/>
		<path fill="#D8D0BD" d="M266.2,131.7h-6.6v5.8h6.7c2.7,0,4.2-1,4.2-2.9v-0.1C270.5,132.8,269.1,131.7,266.2,131.7z"/>
		<path fill="#D8D0BD" d="M237.2,122.8L237.2,122.8c0-1.8-1.4-2.8-3.9-2.8h-5.7v5.5h5.5C235.7,125.6,237.2,124.7,237.2,122.8z"/>
		<path fill="#D8D0BD" d="M234.2,131.7h-6.6v5.8h6.7c2.7,0,4.2-1,4.2-2.9v-0.1C238.5,132.8,237.1,131.7,234.2,131.7z"/>
		<path fill="#D8D0BD" d="M269.2,122.8L269.2,122.8c0-1.8-1.4-2.8-3.9-2.8h-5.7v5.5h5.5C267.7,125.6,269.2,124.7,269.2,122.8z"/>
		<polygon fill="#D8D0BD" points="372.5,132 379.6,132 376.1,123.2 		"/>
		<path fill="#D8D0BD" d="M208.9,100.6v56.7h290v-56.7H208.9z M247.1,135.8c0,5.4-4.4,8.6-11.9,8.6h-16.1v-31.3h16.1
			c3.9,0,6.7,1,8.5,2.8c1.2,1.3,2,2.9,2,5.1v0.1c0,3.6-2.1,5.8-4.8,7C244.7,129.3,247.1,131.4,247.1,135.8L247.1,135.8L247.1,135.8z
			 M279.1,135.8c0,5.4-4.4,8.6-11.9,8.6h-16.1v-31.3h16.1c3.9,0,6.7,1,8.5,2.8c1.2,1.3,2,2.9,2,5.1v0.1c0,3.6-2.1,5.8-4.8,7
			C276.7,129.3,279.1,131.4,279.1,135.8L279.1,135.8L279.1,135.8z M311.9,145.3l-3.4-3.1c-2.7,1.8-6,2.8-9.5,2.8
			c-9.7,0-16.8-7.2-16.8-16.2v-0.1c0-9,7.2-16.3,16.9-16.3s16.8,7.2,16.8,16.2v0.1c0,3.3-1,6.4-2.8,9l3.2,2.7L311.9,145.3z
			 M357.6,134.7c0,6.4-5,10.2-12.6,10.2c-5.5,0-10.8-1.7-14.7-5.2l4.8-5.8c3.1,2.5,6.5,3.8,10.1,3.8c2.4,0,3.6-0.8,3.6-2.1v-0.1
			c0-1.3-1-2-5.3-3c-6.7-1.5-11.8-3.4-11.8-9.8v-0.1c0-5.8,4.6-10,12.1-10c5.3,0,9.5,1.4,12.9,4.2l-4.3,6.1c-2.9-2.1-6-3.1-8.8-3.1
			c-2.1,0-3.1,0.8-3.1,2v0.1c0,1.4,1.1,2.1,5.5,3C353.1,126.5,357.6,128.8,357.6,134.7L357.6,134.7L357.6,134.7z M384.4,144.4
			l-2.2-5.6H370l-2.2,5.6h-9.1l13.3-31.5h8.4l13.3,31.5H384.4z M424.2,130.4c0,10.1-5.8,14.5-14.7,14.5c-8.9,0-14.4-4.5-14.4-14.3
			v-17.6h8.8v17.4c0,4.5,2.3,6.7,5.8,6.7c3.5,0,5.8-2.1,5.8-6.4v-17.6h8.8L424.2,130.4L424.2,130.4z M444.5,145
			c-8.9,0-16.1-6.8-16.1-16.2v-0.1c0-9.1,7-16.3,16.5-16.3c6.4,0,10.5,2.7,13.3,6.5l-6.5,5.1c-1.8-2.2-3.9-3.7-6.8-3.7
			c-4.4,0-7.5,3.8-7.5,8.3v0.1c0,4.7,3.1,8.4,7.5,8.4c3.3,0,5.2-1.5,7.1-3.8l6.5,4.6C455.3,142,451.4,145,444.5,145z M487.4,144.4
			H462v-31.3h25.2v7.3h-16.6v4.8h15v6.8h-15v5h16.8V144.4z"/>
	</g>
	<g>
		<path fill="#D8D0BD" d="M431.1,187.1c-5.1,0-8.5,4.1-8.5,8.9v0.1c0,4.8,3.5,9,8.6,9c5,0,8.4-4.1,8.4-8.9v-0.1
			C439.7,191.2,436.2,187.1,431.1,187.1z"/>
		<path fill="#D8D0BD" d="M338.6,187.1c-5.1,0-8.5,4.1-8.5,8.9v0.1c0,4.8,3.5,9,8.6,9c5,0,8.4-4.1,8.4-8.9v-0.1
			C347.2,191.2,343.7,187.1,338.6,187.1z"/>
		<polygon fill="#D8D0BD" points="215.5,199.5 223,199.5 219.3,190.1 		"/>
		<path fill="#D8D0BD" d="M30.2,165v62.7h499.1V165L30.2,165L30.2,165z M74.9,212.7h-9.2V200H53.8v12.7h-9.2v-33.3h9.2v12.5h11.9
			v-12.5h9.2L74.9,212.7L74.9,212.7z M105.5,212.7l-2.4-6H90.2l-2.4,6h-9.7l14.1-33.5h8.9l14.2,33.5L105.5,212.7L105.5,212.7z
			 M132.3,212.7h-9.2v-12.5l-12.7-20.8h10.5l6.8,12.1l6.9-12.1H145l-12.7,20.7L132.3,212.7L132.3,212.7z M172.7,202.4
			c0,6.8-5.4,10.9-13.5,10.9c-5.9,0-11.5-1.9-15.6-5.5l5.1-6.1c3.3,2.6,6.9,4,10.8,4c2.5,0,3.9-0.9,3.9-2.3v-0.1
			c0-1.4-1.1-2.1-5.7-3.2c-7.1-1.6-12.6-3.6-12.6-10.4v-0.1c0-6.2,4.9-10.7,12.9-10.7c5.7,0,10.1,1.5,13.7,4.4l-4.6,6.5
			c-3.1-2.2-6.4-3.3-9.3-3.3c-2.2,0-3.3,0.9-3.3,2.1v0.1c0,1.5,1.1,2.2,5.8,3.2c7.6,1.7,12.4,4.1,12.4,10.4L172.7,202.4L172.7,202.4
			z M193.6,212.7h-9.2v-25.2h-9.9v-8.1h29.2v8.1h-10V212.7z M228.1,212.7l-2.4-6h-12.9l-2.4,6h-9.7l14.1-33.5h8.9l14.2,33.5H228.1z
			 M255.2,213.4c-9.5,0-17.2-7.3-17.2-17.2v-0.1c0-9.7,7.4-17.3,17.5-17.3c6.8,0,11.2,2.9,14.1,6.9l-7,5.4c-1.9-2.3-4.1-3.9-7.3-3.9
			c-4.7,0-7.9,4-7.9,8.9v0.1c0,5,3.3,8.9,7.9,8.9c3.5,0,5.5-1.6,7.5-4l7,4.9C266.8,210.2,262.5,213.4,255.2,213.4z M294.9,212.7
			l-8.4-12.4l-3.4,3.7v8.7h-9.2v-33.3h9.2v13.5l11.5-13.5h10.9l-12.6,14.3l13,19L294.9,212.7L294.9,212.7z M356.6,196.1
			c0,9.6-7.7,17.3-18,17.3c-10.3,0-17.9-7.7-17.9-17.2v-0.1c0-9.6,7.7-17.3,18-17.3C349,178.7,356.6,186.4,356.6,196.1L356.6,196.1z
			 M392.9,212.7h-8l-14.3-18.3v18.3h-9.1v-33.3h8.6l13.7,17.6v-17.6h9.1L392.9,212.7L392.9,212.7z M408.2,212.7H399v-33.3h9.2V212.7
			z M449.1,196.1c0,9.6-7.7,17.3-18,17.3c-10.3,0-17.9-7.7-17.9-17.2v-0.1c0-9.6,7.7-17.3,18-17.3
			C441.5,178.7,449.1,186.4,449.1,196.1L449.1,196.1z M485.4,212.7h-8L463,194.4v18.3h-9.1v-33.3h8.6l13.7,17.6v-17.6h9.1
			L485.4,212.7L485.4,212.7z M517.8,202.4c0,6.8-5.4,10.9-13.5,10.9c-5.9,0-11.5-1.9-15.6-5.5l5.1-6.1c3.3,2.6,7,4,10.8,4
			c2.5,0,3.9-0.9,3.9-2.3v-0.1c0-1.4-1.1-2.1-5.7-3.2c-7.1-1.6-12.6-3.6-12.6-10.4v-0.1c0-6.2,4.9-10.7,12.9-10.7
			c5.7,0,10.1,1.5,13.7,4.4l-4.6,6.5c-3-2.2-6.4-3.3-9.3-3.3c-2.2,0-3.3,0.9-3.3,2.1v0.1c0,1.5,1.1,2.2,5.8,3.2
			c7.6,1.7,12.4,4.1,12.4,10.4L517.8,202.4L517.8,202.4z"/>
		<polygon fill="#D8D0BD" points="93,199.5 100.4,199.5 96.7,190.1 		"/>
	</g>
	<g>
		<path fill="#D8D0BD" d="M290.9,344.3h-3.4v15.5h3.4c5.1,0,8.4-2.8,8.4-7.7V352C299.3,347.1,295.9,344.3,290.9,344.3z"/>
		<path fill="#D8D0BD" d="M170.1,324.9v99.8h249.8v-99.8H170.1z M362.1,336.5l13,30.7h-9.1l-2.2-5.5h-11.8l-2.2,5.5H341l13-30.7
			H362.1z M312.3,336.8h11.8c10.9,0,17.2,6.3,17.2,15.1v0.1c0,8.8-6.4,15.3-17.4,15.3h-11.6V336.8z M249.9,336.8h24.5v7.2h-16.2v4.6
			h14.6v6.7h-14.6v4.8h16.4v7.2h-24.8L249.9,336.8L249.9,336.8z M183.9,352c0-8.9,6.8-15.9,16.1-15.9c6.2,0,10.2,2.6,12.9,6.4
			l-6.4,4.9c-1.7-2.2-3.8-3.6-6.7-3.6c-4.3,0-7.3,3.6-7.3,8.1v0.1c0,4.6,3,8.1,7.3,8.1c3.2,0,5.1-1.5,6.9-3.7l6.4,4.5
			c-2.9,4-6.8,6.9-13.5,6.9C190.9,367.9,183.9,361.2,183.9,352L183.9,352L183.9,352z M204.2,413.5c-11,0-19.9-8.4-19.9-20v-0.1
			c0-11.2,8.7-20.1,20.4-20.1c7.9,0,13,3.3,16.4,8l-8.1,6.2c-2.2-2.8-4.7-4.5-8.4-4.5c-5.4,0-9.2,4.6-9.2,10.2v0.1
			c0,5.8,3.8,10.3,9.2,10.3c4,0,6.4-1.9,8.7-4.7l8.1,5.7C217.7,409.8,212.8,413.5,204.2,413.5z M225.2,367.3h-8.4v-30.5h8.4v11.4
			H236v-11.4h8.4v30.5H236v-11.6h-10.9V367.3z M261,412.7h-10.7V398h-13.7v14.7h-10.7v-38.6h10.7v14.5h13.7v-14.5H261V412.7z
			 M299.2,412.7h-31.3v-38.6h31v9.1h-20.5v5.9H297v8.4h-18.5v6.1h20.7V412.7z M290.5,367.3H279v-30.5h11.8
			c10.9,0,17.2,6.3,17.2,15.1v0.1C307.9,360.7,301.5,367.3,290.5,367.3z M334.9,412.7h-31.3v-38.6h31v9.1h-20.5v5.9h18.5v8.4h-18.5
			v6.1h20.7V412.7z M370,400.8c0,7.9-6.2,12.6-15.6,12.6c-6.8,0-13.4-2.1-18.1-6.4l6-7.1c3.8,3,8,4.6,12.5,4.6c2.9,0,4.4-1,4.4-2.6
			v-0.1c0-1.6-1.3-2.5-6.5-3.7c-8.2-1.9-14.6-4.2-14.6-12.1v-0.1c0-7.2,5.7-12.4,15-12.4c6.6,0,11.7,1.8,15.9,5.1l-5.4,7.6
			c-3.5-2.5-7.4-3.8-10.8-3.8c-2.6,0-3.9,1.1-3.9,2.5v0.1c0,1.8,1.3,2.5,6.7,3.8c8.9,1.9,14.4,4.8,14.4,12L370,400.8L370,400.8z
			 M404.3,412.7H373v-38.6h31v9.1h-20.5v5.9h18.5v8.4h-18.5v6.1h20.7V412.7z M396.4,367.3l-6.1-9.2h-0.1h-3.6v9.2h-8.5v-30.5h14.4
			c4.7,0,7.9,1.2,9.9,3.3c1.8,1.7,2.7,4.1,2.7,7.1v0.1c0,4.7-2.5,7.8-6.3,9.4l7.3,10.6H396.4z"/>
		<path fill="#D8D0BD" d="M332.6,352.1L332.6,352.1c0-5-3.4-7.8-8.4-7.8h-3.4v15.5h3.4C329.2,359.8,332.6,357,332.6,352.1z"/>
		<path fill="#D8D0BD" d="M392.1,344.1h-5.5v7.3h5.6c2.9,0,4.5-1.4,4.5-3.6v-0.1C396.7,345.3,394.9,344.1,392.1,344.1z"/>
		<polygon fill="#D8D0BD" points="358,346.6 354.6,355.2 361.4,355.2 		"/>
	</g>
	<g>
		<path fill="#B9B9B9" d="M485.3,431H121.1v53.6h364.2V431z M161.7,463.8c0,5.6-4.5,9-11.2,9c-4.9,0-9.6-1.5-12.9-4.6l4.3-5.1
			c2.7,2.2,5.8,3.3,9,3.3c2.1,0,3.2-0.7,3.2-1.9v-0.1c0-1.1-0.9-1.8-4.7-2.6c-5.9-1.3-10.4-3-10.4-8.7V453c0-5.1,4.1-8.8,10.7-8.8
			c4.7,0,8.4,1.3,11.4,3.7l-3.8,5.4c-2.5-1.8-5.3-2.7-7.7-2.7c-1.9,0-2.8,0.8-2.8,1.8v0.1c0,1.3,0.9,1.8,4.8,2.7
			C157.8,456.5,161.7,458.5,161.7,463.8L161.7,463.8L161.7,463.8z M195.5,472.2h-7.6v-15.8l-7.1,10.8h-0.2l-7-10.7v15.7h-7.5v-27.6
			h8.1l6.6,10.7l6.6-10.7h8.1L195.5,472.2L195.5,472.2z M221.2,472.2l-2-4.9h-10.7l-2,4.9h-8.1l11.8-27.8h7.4l11.8,27.8H221.2z
			 M254.8,463.8c0,5.6-4.5,9-11.2,9c-4.9,0-9.6-1.5-12.9-4.6l4.3-5.1c2.7,2.2,5.8,3.3,9,3.3c2.1,0,3.1-0.7,3.1-1.9v-0.1
			c0-1.1-0.9-1.8-4.7-2.6c-5.9-1.3-10.4-3-10.4-8.7V453c0-5.1,4.1-8.8,10.7-8.8c4.7,0,8.4,1.3,11.4,3.7l-3.8,5.4
			c-2.5-1.8-5.3-2.7-7.7-2.7c-1.9,0-2.8,0.8-2.8,1.8v0.1c0,1.3,0.9,1.8,4.8,2.7C250.8,456.5,254.7,458.5,254.8,463.8L254.8,463.8
			L254.8,463.8z M284.3,472.2h-7.7v-10.5h-9.8v10.5h-7.6v-27.6h7.6V455h9.8v-10.3h7.7V472.2z M314.8,464.6c0,4.7-3.9,7.6-10.5,7.6
			h-14.2v-27.6h14.2c3.5,0,5.9,0.9,7.5,2.5c1.1,1.1,1.8,2.6,1.8,4.5v0.1c0,3.2-1.8,5.1-4.3,6.1C312.7,459,314.8,460.8,314.8,464.6
			L314.8,464.6z M344.4,460c0,8.9-5.1,12.8-12.9,12.8c-7.9,0-12.8-4-12.8-12.6v-15.5h7.8V460c0,4,2,5.9,5.1,5.9s5.1-1.8,5.1-5.7
			v-15.5h7.8L344.4,460L344.4,460z M366.5,472.2l-5.6-8.3h-0.1h-3.3v8.3h-7.7v-27.6H363c4.2,0,7.1,1.1,9,3c1.6,1.6,2.5,3.7,2.5,6.4
			v0.1c0,4.2-2.2,7-5.7,8.5l6.6,9.6L366.5,472.2L366.5,472.2z M404.5,468.5c-2.9,2.4-7,4.2-12,4.2c-8.6,0-15-5.9-15-14.2v-0.1
			c0-8,6.3-14.3,14.9-14.3c4.9,0,8.3,1.5,11.2,4l-4.5,5.4c-2-1.6-4-2.6-6.7-2.6c-4,0-7.1,3.3-7.1,7.6v0.1c0,4.5,3.1,7.6,7.5,7.6
			c1.9,0,3.3-0.4,4.4-1.1v-3.4h-5.5v-5.6h12.7L404.5,468.5L404.5,468.5z M432.2,472.2h-22.4v-27.6H432v6.5h-14.6v4.2h13.3v6h-13.3
			v4.4h14.8L432.2,472.2L432.2,472.2z M453.8,472.2l-5.6-8.3h-0.1h-3.3v8.3h-7.7v-27.6h13.1c4.2,0,7.1,1.1,9,3
			c1.6,1.6,2.5,3.7,2.5,6.4v0.1c0,4.2-2.2,7-5.7,8.5l6.6,9.6L453.8,472.2L453.8,472.2z"/>
		<path fill="#B9B9B9" d="M362.6,451.3h-5v6.6h5c2.6,0,4.1-1.3,4.1-3.3v-0.1C366.7,452.4,365.1,451.3,362.6,451.3z"/>
		<path fill="#B9B9B9" d="M449.9,451.3h-5v6.6h5c2.6,0,4.1-1.3,4.1-3.3v-0.1C454,452.4,452.5,451.3,449.9,451.3z"/>
		<path fill="#B9B9B9" d="M303.4,461h-5.8v5.1h5.9c2.3,0,3.7-0.9,3.7-2.5v-0.1C307.1,462,305.9,461,303.4,461z"/>
		<path fill="#B9B9B9" d="M306,453.3L306,453.3c0-1.6-1.2-2.4-3.5-2.4h-5v4.9h4.8C304.7,455.7,306,454.9,306,453.3z"/>
		<polygon fill="#B9B9B9" points="210.8,461.4 217,461.4 213.9,453.5 		"/>
	</g>
</g>
<g>
	<rect x="206.2" y="494.9" fill="#D8D0BD" width="206.1" height="44.3"/>
	<path fill="#4B2E1F" d="M348.6,19l-23.2,29c-1.1,1.3-2.6,2-4.1,2c-1.2,0-2.3-0.4-3.3-1.2c-2.3-1.8-2.6-5.1-0.8-7.4l19.7-24.6
		c-5.6-0.9-11.3-1.5-17.2-1.9l-25.5,31.8c-1,1.3-2.6,2-4.1,2c-1.1,0-2.3-0.4-3.3-1.2c-2.3-1.8-2.7-5.1-0.8-7.4l20.6-25.7
		c-69.3,0-125.4,35-125.4,78h251.2C432.2,58.6,397.3,29.8,348.6,19z"/>
	<g>
		<path fill="#4B2E1F" d="M324.4,520.7h-5.5v4.8h5.6c2.2,0,3.5-0.9,3.5-2.4v-0.1C327.9,521.7,326.8,520.7,324.4,520.7z"/>
		<path fill="#4B2E1F" d="M326.9,513.4L326.9,513.4c0-1.5-1.1-2.3-3.3-2.3h-4.7v4.6h4.5C325.6,515.7,326.9,514.9,326.9,513.4z"/>
		<path fill="#4B2E1F" d="M432.5,534.2v-41.9H180.8v41.9c0,5.3,4.3,9.6,9.7,9.6h232.3C428.1,543.8,432.5,539.5,432.5,534.2z
			 M240.8,531.3h-21.1v-26.1h21v6.1h-13.8v3.9h12.5v5.7h-12.5v4.1h14V531.3z M268.9,527.8c-2.8,2.3-6.6,4-11.3,4
			c-8.1,0-14.2-5.6-14.2-13.5v-0.1c0-7.6,6-13.6,14-13.6c4.6,0,7.8,1.4,10.6,3.8l-4.2,5.1c-1.9-1.6-3.7-2.5-6.3-2.5
			c-3.8,0-6.7,3.2-6.7,7.1v0.1c0,4.2,2.9,7.2,7.1,7.2c1.7,0,3.1-0.4,4.2-1.1v-3.2h-5.1v-5.3h12V527.8z M297.5,527.8
			c-2.8,2.3-6.6,4-11.3,4c-8.1,0-14.2-5.6-14.2-13.5v-0.1c0-7.6,6-13.6,14-13.6c4.6,0,7.8,1.4,10.6,3.8l-4.2,5.1
			c-1.9-1.6-3.7-2.5-6.3-2.5c-3.8,0-6.7,3.2-6.7,7.1v0.1c0,4.2,2.9,7.2,7.1,7.2c1.7,0,3.1-0.4,4.2-1.1v-3.2h-5.1v-5.3h12V527.8z
			 M335.2,524.2c0,4.5-3.6,7.2-9.9,7.2h-13.4v-26.1h13.4c3.3,0,5.6,0.8,7.1,2.3c1,1,1.7,2.4,1.7,4.2v0.1c0,3-1.7,4.8-4,5.8
			C333.2,518.8,335.2,520.5,335.2,524.2L335.2,524.2z M362.4,519.7c0,8.4-4.8,12.1-12.2,12.1c-7.4,0-12.1-3.8-12.1-11.9v-14.6h7.3
			v14.5c0,3.8,1.9,5.5,4.8,5.5c2.9,0,4.8-1.7,4.8-5.4v-14.7h7.3V519.7z M391.3,531.3H385L373.9,517v14.3h-7.1v-26.1h6.7l10.7,13.8
			v-13.8h7.1V531.3z"/>
	</g>
	<g>
		<path fill="#D8D0BD" d="M350,251.1L350,251.1c0-2.2-1.5-3.5-3.8-3.5h-1.5v6.9h1.5C348.5,254.5,350,253.3,350,251.1z"/>
		<path fill="#D8D0BD" d="M331.7,254.8c2.1,0,3.5-1.7,3.5-3.6v0c0-2-1.4-3.7-3.5-3.7c-2.1,0-3.4,1.7-3.4,3.6v0
			C328.2,253,329.7,254.8,331.7,254.8z"/>
		<path fill="#D8D0BD" d="M213.3,316.4h245v-81.2h-245V316.4z M299.5,305.5l-3.1-7.7h-16.6l-3.1,7.7h-12.5l18.3-43.2H294l18.3,43.2
			H299.5z M334.4,306.3c-12.3,0-22.1-9.4-22.1-22.2V284c0-12.5,9.6-22.3,22.6-22.3c8.8,0,14.4,3.7,18.2,9l-9,6.9
			c-2.5-3.1-5.3-5-9.4-5c-6,0-10.2,5.1-10.2,11.3v0.1c0,6.4,4.2,11.5,10.2,11.5c4.5,0,7.1-2.1,9.7-5.2l9,6.4
			C349.3,302.2,343.9,306.3,334.4,306.3z M436.6,244.3h5.2c4.9,0,7.7,2.8,7.7,6.7v0c0,3.9-2.9,6.8-7.8,6.8h-5.2V244.3z M423.6,244.3
			h10.9v3.2h-7.2v2.1h6.5v3h-6.5v2.2h7.3v3.2h-11V244.3z M409.4,244.3h3.8v5.5l4.7-5.5h4.5l-5.1,5.8l5.3,7.8H418l-3.4-5.1l-1.4,1.5
			v3.5h-3.8V244.3z M408.2,262.5h11.1l17.7,22.7v-22.7h11.8v42.9h-10.4l-18.3-23.5v23.5h-11.8V262.5z M392.8,251.1
			c0-3.9,3.1-7.1,7.3-7.1c4.2,0,7.3,3.1,7.3,7v0c0,3.9-3.1,7.1-7.3,7.1C395.9,258.2,392.8,255,392.8,251.1L392.8,251.1z
			 M376.4,244.3h4l3.2,5.3l3.2-5.3h4v13.6h-3.8v-7.8l-3.5,5.3h-0.1l-3.5-5.3v7.8h-3.7V244.3z M368.5,252.7c-2.9-0.7-5.1-1.5-5.1-4.3
			v0c0-2.5,2-4.4,5.3-4.4c2.3,0,4.1,0.6,5.6,1.8l-1.9,2.7c-1.2-0.9-2.6-1.3-3.8-1.3c-0.9,0-1.4,0.4-1.4,0.9v0c0,0.6,0.5,0.9,2.4,1.3
			c3.1,0.7,5.1,1.7,5.1,4.2v0c0,2.8-2.2,4.4-5.5,4.4c-2.4,0-4.7-0.8-6.4-2.3l2.1-2.5c1.3,1.1,2.8,1.6,4.4,1.6c1,0,1.6-0.3,1.6-0.9v0
			C370.8,253.5,370.4,253.1,368.5,252.7z M378.9,261.7c13.2,0,23.1,9.9,23.1,22.2v0.1c0,12.3-9.9,22.3-23.2,22.3
			c-13.2,0-23.1-9.9-23.1-22.2V284C355.7,271.7,365.7,261.7,378.9,261.7z M355.4,250.2h6.4v3.2h-6.4V250.2z M341,244.3h5.2
			c4.9,0,7.7,2.8,7.7,6.7v0c0,3.9-2.9,6.8-7.8,6.8H341V244.3z M324.4,251.1c0-3.9,3.1-7.1,7.3-7.1c4.2,0,7.3,3.1,7.3,7v0
			c0,3.9-3.1,7.1-7.3,7.1C327.5,258.2,324.4,255,324.4,251.1L324.4,251.1z M308.2,251.1c0-3.9,3.1-7.1,7.3-7.1c4.2,0,7.3,3.1,7.3,7
			v0c0,3.9-3.1,7.1-7.3,7.1C311.3,258.2,308.2,255,308.2,251.1L308.2,251.1z M290.9,244.3l2.4,7.9l2.6-7.9h3.2l2.6,7.9l2.4-7.9h3.9
			l-4.5,13.7h-3.3l-2.7-7.8l-2.7,7.8h-3.3l-4.5-13.7H290.9z M274.8,244.3h10.9v3.2h-7.2v2.1h6.5v3h-6.5v2.2h7.3v3.2h-11V244.3z
			 M262.9,244.3h3.8v10.3h6.6v3.3h-10.4V244.3z M262.3,293.6c0,7.4-6,11.8-16.2,11.8h-22.1v-42.9h22c5.4,0,9.2,1.3,11.7,3.9
			c1.7,1.7,2.8,4,2.8,6.9v0.1c0,5-2.8,7.9-6.6,9.6c5.2,1.7,8.5,4.7,8.5,10.5V293.6z M249.8,244.3h5.8c3.4,0,5.7,1.8,5.7,4.8v0
			c0,3.2-2.5,4.9-5.8,4.9h-1.9v3.9h-3.8V244.3z M236.7,244.3h5.8c3.4,0,5.7,1.8,5.7,4.8v0c0,3.2-2.5,4.9-5.8,4.9h-1.9v3.9h-3.8
			V244.3z M226,244.2h3.6l5.8,13.7h-4l-1-2.4h-5.2l-1,2.4h-4L226,244.2z"/>
		<path fill="#D8D0BD" d="M315.6,254.8c2.1,0,3.5-1.7,3.5-3.6v0c0-2-1.4-3.7-3.5-3.7c-2.1,0-3.4,1.7-3.4,3.6v0
			C312.1,253,313.5,254.8,315.6,254.8z"/>
		<polygon fill="#D8D0BD" points="283.4,288.5 293,288.5 288.2,276.3 		"/>
		<polygon fill="#D8D0BD" points="227.8,248.7 226.2,252.5 229.3,252.5 		"/>
		<path fill="#D8D0BD" d="M257.5,249.3L257.5,249.3c0-1.2-0.8-1.8-2.2-1.8h-1.8v3.6h1.8C256.7,251,257.5,250.3,257.5,249.3z"/>
		<path fill="#D8D0BD" d="M248.6,275.9v-0.1c0-2.3-1.8-3.7-5.4-3.7h-7.7v7.5h7.5C246.6,279.6,248.6,278.4,248.6,275.9z"/>
		<path fill="#D8D0BD" d="M400.2,254.8c2.1,0,3.5-1.7,3.5-3.6v0c0-2-1.4-3.7-3.5-3.7c-2.1,0-3.4,1.7-3.4,3.6v0
			C396.7,253,398.1,254.8,400.2,254.8z"/>
		<path fill="#D8D0BD" d="M244.5,288h-9.1v7.9h9.2c3.6,0,5.7-1.4,5.7-3.9v-0.1C250.4,289.5,248.5,288,244.5,288z"/>
		<path fill="#D8D0BD" d="M445.6,251.1L445.6,251.1c0-2.2-1.5-3.5-3.8-3.5h-1.5v6.9h1.5C444.1,254.5,445.6,253.3,445.6,251.1z"/>
		<path fill="#D8D0BD" d="M378.9,295.6c6.6,0,10.9-5.3,10.9-11.5V284c0-6.2-4.5-11.6-11-11.6c-6.5,0-10.9,5.3-10.9,11.5v0.1
			C367.9,290.2,372.4,295.6,378.9,295.6z"/>
		<path fill="#D8D0BD" d="M244.4,249.3L244.4,249.3c0-1.2-0.8-1.8-2.2-1.8h-1.8v3.6h1.8C243.6,251,244.4,250.3,244.4,249.3z"/>
	</g>
	<g>
		<path fill="#D8D0BD" d="M298.9,120.3c-4.8,0-8,3.9-8,8.5v0.1c0,4.5,3.2,8.5,8,8.5c1.1,0,2.2-0.2,3.1-0.6l-4.3-3.7l4.4-4.9l4.2,3.9
			c0.4-1,0.5-2,0.5-3.1v-0.1C306.9,124.3,303.7,120.3,298.9,120.3z"/>
		<path fill="#D8D0BD" d="M266.2,131.6h-6.6v5.8h6.7c2.7,0,4.2-1,4.2-2.9v-0.1C270.4,132.8,269.1,131.6,266.2,131.6z"/>
		<path fill="#D8D0BD" d="M237.2,122.8L237.2,122.8c0-1.8-1.4-2.8-3.9-2.8h-5.7v5.5h5.5C235.7,125.6,237.2,124.7,237.2,122.8z"/>
		<path fill="#D8D0BD" d="M234.2,131.6h-6.6v5.8h6.7c2.7,0,4.2-1,4.2-2.9v-0.1C238.5,132.8,237.1,131.6,234.2,131.6z"/>
		<path fill="#D8D0BD" d="M269.2,122.8L269.2,122.8c0-1.8-1.4-2.8-3.9-2.8h-5.7v5.5h5.5C267.7,125.6,269.2,124.7,269.2,122.8z"/>
		<polygon fill="#D8D0BD" points="372.6,132 379.6,132 376.1,123.1 		"/>
		<path fill="#D8D0BD" d="M208.9,100.5v56.7h290v-56.7H208.9z M247.1,135.8c0,5.4-4.4,8.6-11.9,8.6h-16.1v-31.3h16.1
			c3.9,0,6.7,1,8.5,2.8c1.3,1.3,2,3,2,5.1v0.1c0,3.6-2.1,5.8-4.8,7C244.7,129.3,247.1,131.4,247.1,135.8L247.1,135.8z M279.1,135.8
			c0,5.4-4.4,8.6-11.9,8.6h-16.1v-31.3h16.1c3.9,0,6.7,1,8.5,2.8c1.3,1.3,2,3,2,5.1v0.1c0,3.6-2.1,5.8-4.8,7
			C276.7,129.3,279.1,131.4,279.1,135.8L279.1,135.8z M311.9,145.3l-3.4-3.1c-2.7,1.8-5.9,2.8-9.5,2.8c-9.7,0-16.8-7.2-16.8-16.2
			v-0.1c0-9,7.2-16.3,16.9-16.3s16.8,7.2,16.8,16.2v0.1c0,3.3-1,6.4-2.8,9l3.2,2.7L311.9,145.3z M357.6,134.7
			c0,6.4-5.1,10.2-12.7,10.2c-5.5,0-10.8-1.7-14.7-5.2l4.8-5.8c3.1,2.5,6.5,3.8,10.2,3.8c2.4,0,3.6-0.8,3.6-2.1v-0.1
			c0-1.3-1-2-5.3-3c-6.7-1.5-11.8-3.4-11.8-9.8v-0.1c0-5.8,4.6-10,12.1-10c5.3,0,9.5,1.4,12.9,4.2l-4.3,6.1c-2.9-2.1-6-3.1-8.8-3.1
			c-2.1,0-3.1,0.9-3.1,2v0.1c0,1.4,1.1,2.1,5.5,3C353.1,126.5,357.6,128.8,357.6,134.7L357.6,134.7z M384.4,144.4l-2.2-5.6H370
			l-2.2,5.6h-9.1l13.3-31.5h8.4l13.3,31.5H384.4z M424.2,130.4c0,10.1-5.8,14.5-14.7,14.5c-8.9,0-14.4-4.5-14.4-14.3v-17.6h8.8v17.4
			c0,4.5,2.3,6.7,5.8,6.7c3.5,0,5.8-2.1,5.8-6.4v-17.6h8.8V130.4z M444.5,145c-8.9,0-16.1-6.8-16.1-16.2v-0.1
			c0-9.1,7-16.3,16.5-16.3c6.4,0,10.5,2.7,13.3,6.5l-6.5,5.1c-1.8-2.2-3.8-3.7-6.8-3.7c-4.4,0-7.5,3.8-7.5,8.3v0.1
			c0,4.7,3.1,8.4,7.5,8.4c3.3,0,5.2-1.5,7.1-3.8l6.5,4.7C455.3,142,451.4,145,444.5,145z M487.5,144.4h-25.4v-31.3h25.2v7.3h-16.6
			v4.8h15v6.8h-15v5h16.8V144.4z"/>
	</g>
	<g>
		<path fill="#D8D0BD" d="M431.2,187c-5.1,0-8.5,4.1-8.5,8.9v0.1c0,4.8,3.5,9,8.6,9c5,0,8.4-4.1,8.4-8.9V196
			C439.7,191.2,436.2,187,431.2,187z"/>
		<path fill="#D8D0BD" d="M338.7,187c-5.1,0-8.5,4.1-8.5,8.9v0.1c0,4.8,3.5,9,8.6,9c5,0,8.4-4.1,8.4-8.9V196
			C347.2,191.2,343.7,187,338.7,187z"/>
		<polygon fill="#D8D0BD" points="215.5,199.5 223,199.5 219.3,190.1 		"/>
		<path fill="#D8D0BD" d="M30.2,164.9v62.7h499.1v-62.7H30.2z M74.9,212.7h-9.2V200H53.8v12.7h-9.2v-33.3h9.2v12.5h11.8v-12.5h9.2
			V212.7z M105.5,212.7l-2.4-6H90.2l-2.4,6h-9.7l14.1-33.5h8.9l14.2,33.5H105.5z M132.3,212.7h-9.2v-12.5l-12.7-20.8h10.5l6.9,12.1
			l6.9-12.1H145l-12.7,20.7V212.7z M172.7,202.4c0,6.8-5.4,10.8-13.5,10.8c-5.9,0-11.5-1.9-15.6-5.5l5.1-6.1c3.3,2.6,6.9,4,10.8,4
			c2.5,0,3.9-0.9,3.9-2.3v-0.1c0-1.4-1.1-2.1-5.7-3.2c-7.1-1.6-12.6-3.6-12.6-10.4v-0.1c0-6.2,4.9-10.7,12.9-10.7
			c5.7,0,10.1,1.5,13.7,4.4l-4.6,6.5c-3-2.2-6.4-3.3-9.3-3.3c-2.2,0-3.3,0.9-3.3,2.1v0.1c0,1.5,1.1,2.2,5.8,3.2
			C168,193.6,172.7,196.1,172.7,202.4L172.7,202.4z M193.6,212.7h-9.2v-25.2h-9.9v-8.1h29.2v8.1h-10V212.7z M228.1,212.7l-2.4-6
			h-12.9l-2.4,6h-9.7l14.1-33.5h8.9l14.2,33.5H228.1z M255.2,213.4c-9.5,0-17.2-7.3-17.2-17.2V196c0-9.7,7.4-17.3,17.5-17.3
			c6.8,0,11.2,2.9,14.1,6.9l-6.9,5.4c-1.9-2.3-4.1-3.9-7.3-3.9c-4.7,0-7.9,4-7.9,8.8v0.1c0,5,3.3,8.9,7.9,8.9c3.5,0,5.5-1.6,7.5-4
			l6.9,5C266.8,210.2,262.5,213.4,255.2,213.4z M294.9,212.7l-8.4-12.4l-3.4,3.7v8.7h-9.2v-33.3h9.2v13.5l11.5-13.5h10.9l-12.6,14.3
			l13,19H294.9z M356.6,196c0,9.6-7.7,17.3-18,17.3c-10.3,0-17.9-7.7-17.9-17.2V196c0-9.6,7.7-17.3,18-17.3
			C349,178.7,356.6,186.4,356.6,196L356.6,196z M392.9,212.7h-8l-14.3-18.3v18.3h-9.1v-33.3h8.6l13.7,17.6v-17.6h9.1V212.7z
			 M408.3,212.7H399v-33.3h9.2V212.7z M449.1,196c0,9.6-7.7,17.3-18,17.3c-10.3,0-17.9-7.7-17.9-17.2V196c0-9.6,7.7-17.3,18-17.3
			C441.5,178.7,449.1,186.4,449.1,196L449.1,196z M485.4,212.7h-8l-14.3-18.3v18.3h-9.1v-33.3h8.6l13.7,17.6v-17.6h9.1V212.7z
			 M517.8,202.4c0,6.8-5.4,10.8-13.5,10.8c-5.9,0-11.5-1.9-15.6-5.5l5.1-6.1c3.3,2.6,6.9,4,10.8,4c2.5,0,3.9-0.9,3.9-2.3v-0.1
			c0-1.4-1.1-2.1-5.7-3.2c-7.1-1.6-12.6-3.6-12.6-10.4v-0.1c0-6.2,4.9-10.7,12.9-10.7c5.7,0,10.1,1.5,13.7,4.4l-4.6,6.5
			c-3-2.2-6.4-3.3-9.3-3.3c-2.2,0-3.3,0.9-3.3,2.1v0.1c0,1.5,1.1,2.2,5.8,3.2C513.1,193.6,517.8,196.1,517.8,202.4L517.8,202.4z"/>
		<polygon fill="#D8D0BD" points="92.9,199.5 100.4,199.5 96.7,190.1 		"/>
	</g>
	<g>
		<path fill="#D8D0BD" d="M290.9,344.3h-3.4v15.5h3.4c5.1,0,8.4-2.8,8.4-7.7V352C299.3,347.1,295.9,344.3,290.9,344.3z"/>
		<path fill="#D8D0BD" d="M170.1,324.9v99.8h249.8v-99.8H170.1z M362.2,336.6l13,30.7h-9.1l-2.2-5.4h-11.8l-2.2,5.4H341l13-30.7
			H362.2z M312.3,336.8h11.8c10.9,0,17.2,6.3,17.2,15.1v0.1c0,8.8-6.4,15.3-17.4,15.3h-11.6V336.8z M249.9,336.8h24.5v7.2h-16.2v4.6
			h14.6v6.7h-14.6v4.8h16.4v7.2h-24.8V336.8z M183.9,352c0-8.9,6.8-15.9,16.1-15.9c6.2,0,10.2,2.6,12.9,6.4l-6.4,4.9
			c-1.7-2.2-3.7-3.6-6.7-3.6c-4.3,0-7.3,3.6-7.3,8.1v0.1c0,4.6,3,8.1,7.3,8.1c3.2,0,5.1-1.5,6.9-3.7l6.4,4.5
			c-2.9,4-6.8,6.9-13.5,6.9C190.9,367.9,183.9,361.2,183.9,352L183.9,352z M204.2,413.5c-11,0-19.9-8.4-19.9-20v-0.1
			c0-11.3,8.7-20.1,20.4-20.1c7.9,0,13,3.3,16.4,8.1l-8.1,6.2c-2.2-2.8-4.7-4.5-8.4-4.5c-5.4,0-9.2,4.6-9.2,10.2v0.1
			c0,5.8,3.8,10.3,9.2,10.3c4,0,6.4-1.9,8.7-4.7l8.1,5.7C217.7,409.8,212.8,413.5,204.2,413.5z M225.2,367.3h-8.5v-30.5h8.5v11.4
			H236v-11.4h8.5v30.5H236v-11.6h-10.9V367.3z M261,412.7h-10.7V398h-13.7v14.7h-10.7v-38.6h10.7v14.5h13.7v-14.5H261V412.7z
			 M299.2,412.7h-31.3v-38.6h31.1v9.1h-20.5v5.8H297v8.4h-18.5v6.1h20.7V412.7z M290.6,367.3H279v-30.5h11.8
			c10.9,0,17.2,6.3,17.2,15.1v0.1C307.9,360.7,301.5,367.3,290.6,367.3z M334.9,412.7h-31.3v-38.6h31.1v9.1h-20.5v5.8h18.5v8.4
			h-18.5v6.1h20.7V412.7z M370,400.8c0,7.9-6.2,12.6-15.6,12.6c-6.8,0-13.3-2.2-18.1-6.4l6-7.1c3.8,3,8.1,4.6,12.5,4.6
			c2.9,0,4.4-1,4.4-2.6v-0.1c0-1.6-1.3-2.5-6.5-3.7c-8.2-1.9-14.6-4.2-14.6-12.1v-0.1c0-7.2,5.7-12.4,14.9-12.4
			c6.6,0,11.7,1.8,15.9,5.1l-5.3,7.6c-3.5-2.5-7.4-3.8-10.8-3.8c-2.6,0-3.9,1.1-3.9,2.5v0.1c0,1.8,1.3,2.5,6.7,3.8
			c8.9,1.9,14.4,4.8,14.4,12V400.8z M404.3,412.7H373v-38.6H404v9.1h-20.5v5.8h18.5v8.4h-18.5v6.1h20.7V412.7z M396.4,367.3
			l-6.1-9.2h-0.1h-3.6v9.2h-8.5v-30.5h14.4c4.7,0,7.9,1.2,9.9,3.3c1.8,1.7,2.7,4.1,2.7,7.1v0.1c0,4.7-2.5,7.8-6.3,9.4l7.3,10.6
			H396.4z"/>
		<path fill="#D8D0BD" d="M332.6,352.1L332.6,352.1c0-5-3.4-7.8-8.4-7.8h-3.4v15.5h3.4C329.3,359.8,332.6,357,332.6,352.1z"/>
		<path fill="#D8D0BD" d="M392.1,344.1h-5.5v7.3h5.6c2.9,0,4.5-1.4,4.5-3.6v-0.1C396.7,345.3,394.9,344.1,392.1,344.1z"/>
		<polygon fill="#D8D0BD" points="358,346.6 354.6,355.3 361.4,355.3 		"/>
	</g>
	<g>
		<path fill="#B9B9B9" d="M485.3,431H121v53.6h364.3V431z M161.7,463.8c0,5.6-4.5,9-11.2,9c-4.9,0-9.5-1.5-12.9-4.6l4.3-5.1
			c2.7,2.2,5.8,3.3,9,3.3c2.1,0,3.2-0.7,3.2-1.9v-0.1c0-1.1-0.9-1.8-4.7-2.6c-5.9-1.3-10.4-3-10.4-8.7v-0.1c0-5.1,4.1-8.8,10.7-8.8
			c4.7,0,8.4,1.3,11.4,3.7l-3.8,5.4c-2.5-1.8-5.3-2.7-7.7-2.7c-1.9,0-2.8,0.8-2.8,1.8v0.1c0,1.3,0.9,1.8,4.8,2.7
			C157.8,456.5,161.7,458.5,161.7,463.8L161.7,463.8z M195.5,472.3h-7.6v-15.8l-7.1,10.8h-0.2l-7-10.7v15.7h-7.5v-27.6h8.1l6.6,10.7
			l6.6-10.7h8.1V472.3z M221.2,472.3l-2-4.9h-10.7l-2,4.9h-8.1l11.8-27.8h7.4l11.8,27.8H221.2z M254.7,463.8c0,5.6-4.5,9-11.2,9
			c-4.9,0-9.5-1.5-12.9-4.6l4.3-5.1c2.7,2.2,5.8,3.3,9,3.3c2,0,3.2-0.7,3.2-1.9v-0.1c0-1.1-0.9-1.8-4.7-2.6
			c-5.9-1.3-10.4-3-10.4-8.7v-0.1c0-5.1,4.1-8.8,10.7-8.8c4.7,0,8.4,1.3,11.4,3.7l-3.8,5.4c-2.5-1.8-5.3-2.7-7.7-2.7
			c-1.8,0-2.8,0.8-2.8,1.8v0.1c0,1.3,0.9,1.8,4.8,2.7C250.8,456.5,254.7,458.5,254.7,463.8L254.7,463.8z M284.3,472.3h-7.7v-10.5
			h-9.8v10.5h-7.7v-27.6h7.7V455h9.8v-10.3h7.7V472.3z M314.8,464.7c0,4.7-3.9,7.6-10.5,7.6h-14.3v-27.6h14.2c3.5,0,5.9,0.9,7.5,2.5
			c1.1,1.1,1.8,2.6,1.8,4.4v0.1c0,3.2-1.8,5.1-4.3,6.1C312.7,459,314.8,460.8,314.8,464.7L314.8,464.7z M344.4,460
			c0,8.9-5.1,12.8-12.9,12.8c-7.9,0-12.8-4-12.8-12.6v-15.5h7.8V460c0,4,2,5.9,5.1,5.9c3.1,0,5.1-1.8,5.1-5.7v-15.5h7.8V460z
			 M366.5,472.3l-5.6-8.3h-0.1h-3.3v8.3h-7.7v-27.6H363c4.2,0,7.1,1.1,9,3c1.6,1.6,2.4,3.7,2.4,6.4v0.1c0,4.2-2.3,7-5.7,8.5l6.6,9.6
			H366.5z M404.5,468.6c-2.9,2.4-7,4.3-12,4.3c-8.6,0-15-5.9-15-14.3v-0.1c0-8,6.3-14.3,14.9-14.3c4.9,0,8.3,1.5,11.2,4l-4.5,5.4
			c-2-1.7-3.9-2.6-6.7-2.6c-4,0-7.1,3.3-7.1,7.6v0.1c0,4.4,3.1,7.6,7.5,7.6c1.9,0,3.3-0.4,4.4-1.1v-3.4h-5.4v-5.6h12.7V468.6z
			 M432.2,472.3h-22.4v-27.6H432v6.5h-14.6v4.2h13.3v6h-13.3v4.4h14.8V472.3z M453.8,472.3l-5.6-8.3h-0.1h-3.3v8.3h-7.7v-27.6h13.1
			c4.2,0,7.1,1.1,9,3c1.6,1.6,2.4,3.7,2.4,6.4v0.1c0,4.2-2.3,7-5.7,8.5l6.6,9.6H453.8z"/>
		<path fill="#B9B9B9" d="M362.6,451.3h-5v6.6h5c2.6,0,4.1-1.3,4.1-3.3v-0.1C366.7,452.4,365.2,451.3,362.6,451.3z"/>
		<path fill="#B9B9B9" d="M449.9,451.3h-5v6.6h5.1c2.6,0,4.1-1.3,4.1-3.3v-0.1C454,452.4,452.5,451.3,449.9,451.3z"/>
		<path fill="#B9B9B9" d="M303.4,461h-5.8v5.1h5.9c2.3,0,3.7-0.9,3.7-2.5v-0.1C307.1,462,305.9,461,303.4,461z"/>
		<path fill="#B9B9B9" d="M306,453.3L306,453.3c0-1.6-1.2-2.4-3.5-2.4h-5v4.9h4.8C304.7,455.7,306,454.9,306,453.3z"/>
		<polygon fill="#B9B9B9" points="210.8,461.4 217,461.4 213.9,453.6 		"/>
	</g>
</g>
</svg>
