<?xml version="1.0" encoding="utf-8"?>
<!-- Generator: Adobe Illustrator 18.1.0, SVG Export Plug-In . SVG Version: 6.00 Build 0)  -->
<svg version="1.1" id="Isolation_Mode" xmlns="http://www.w3.org/2000/svg" xmlns:xlink="http://www.w3.org/1999/xlink" x="0px"
	 y="0px" viewBox="0 0 29.33 45.33" enable-background="new 0 0 29.33 45.33" xml:space="preserve">
<path fill="#801517" d="M9.67,29.35c0-2.64,0.06-5.28-0.02-7.91c-0.08-2.69,0.74-4.99,2.42-7.08c0.47-0.59,0.77-1.49,0.78-2.25
	c0.05-2.1-0.05-4.21-0.18-6.32c-0.07-1.03,0.21-1.41,1.29-1.41c2.7-0.01,2.65-0.06,2.55,2.61c-0.07,1.95-0.06,3.92,0.02,5.87
	c0.02,0.5,0.34,1.06,0.68,1.46c1.76,2.08,2.53,4.42,2.48,7.16c-0.1,5.71-0.03,11.43-0.03,17.14c0,1.82-0.51,2.31-2.37,2.32
	c-1.84,0.01-3.68,0.02-5.51,0c-1.52-0.02-2.09-0.6-2.1-2.12C9.66,35.67,9.67,32.51,9.67,29.35C9.67,29.35,9.67,29.35,9.67,29.35z
	 M18.92,28.86C18.92,28.86,18.92,28.86,18.92,28.86c0.01-1.16-0.01-2.32,0.01-3.47c0.01-0.63-0.15-0.96-0.87-0.95
	c-2.24,0.03-4.47,0.03-6.71,0c-0.68-0.01-0.92,0.25-0.92,0.91c0.02,2.28,0.01,4.55,0,6.83c0,0.66,0.27,0.92,0.94,0.92
	c2.2-0.02,4.39-0.02,6.59,0c0.73,0.01,0.99-0.27,0.96-1C18.88,31.02,18.92,29.94,18.92,28.86z M12.25,15.2
	c-1.14,1.43-1.77,3.09-1.85,4.97c-0.04,0.86,0.42,0.74,0.72,0.65C11.53,18.8,11.89,16.99,12.25,15.2z M10.18,22.39
	c0.3,0.37,0.49,0.6,0.68,0.83c0.19-0.26,0.51-0.53,0.52-0.8c0.01-0.28-0.3-0.56-0.47-0.84C10.69,21.82,10.48,22.06,10.18,22.39z"/>
</svg>
