<?xml version="1.0" encoding="utf-8"?>
<!-- Generator: Adobe Illustrator 18.1.0, SVG Export Plug-In . SVG Version: 6.00 Build 0)  -->
<svg version="1.1" id="Layer_1" xmlns="http://www.w3.org/2000/svg" xmlns:xlink="http://www.w3.org/1999/xlink" x="0px" y="0px"
	 viewBox="0 0 48.75 48.75" enable-background="new 0 0 48.75 48.75" xml:space="preserve">
<g>
	<g>
		<path fill="#C4161C" d="M4.08,12.44c0-4.5,3.69-8.16,8.19-8.14c4.5,0.03,11.69-1.09,15.97-2.48c4.28-1.39,8.9,0.98,10.27,5.27
			c1.37,4.29,4.65,10.78,7.29,14.42c2.65,3.64,1.82,8.77-1.84,11.39c-3.66,2.63-8.82,7.75-11.46,11.39
			c-2.65,3.64-7.78,4.44-11.41,1.77c-3.63-2.67-10.1-5.99-14.38-7.38c-4.28-1.39-6.62-6.03-5.21-10.3
			C2.91,24.12,4.07,16.94,4.08,12.44"/>
	</g>
	<g>
		<path fill="#492E1E" d="M4.08,12.44c0-4.5,3.69-8.16,8.19-8.14c4.5,0.03,11.69-1.09,15.97-2.48c4.28-1.39,8.9,0.98,10.27,5.27
			c1.37,4.29,4.65,10.78,7.29,14.42c2.65,3.64,1.82,8.77-1.84,11.39c-3.66,2.63-8.82,7.75-11.46,11.39
			c-2.65,3.64-7.78,4.44-11.41,1.77c-3.63-2.67-10.1-5.99-14.38-7.38c-4.28-1.39-6.62-6.03-5.21-10.3
			C2.91,24.12,4.07,16.94,4.08,12.44"/>
	</g>
	<g>
		<path fill="#FFFFFF" d="M23.45,31.79c-2.13,0-4.13-0.83-5.63-2.34c-1.49-1.5-2.31-3.5-2.31-5.62s0.84-4.11,2.34-5.6
			c1.5-1.49,3.48-2.31,5.59-2.31c2.13,0,4.13,0.83,5.63,2.34c1.49,1.5,2.31,3.5,2.31,5.62c-0.01,2.12-0.84,4.11-2.34,5.6
			C27.54,30.97,25.56,31.79,23.45,31.79z M23.44,16.51c-1.95,0-3.79,0.76-5.18,2.13c-1.39,1.38-2.16,3.22-2.17,5.19
			c-0.01,1.96,0.75,3.81,2.13,5.2c1.39,1.4,3.24,2.17,5.21,2.17c1.95,0,3.79-0.76,5.17-2.13c1.39-1.38,2.16-3.22,2.17-5.19
			s-0.75-3.81-2.13-5.2C27.26,17.28,25.41,16.51,23.44,16.51z"/>
	</g>
	<g>
		
			<rect x="14.17" y="19.31" transform="matrix(0.7094 -0.7048 0.7048 0.7094 -9.7344 23.4499)" fill="#492E1E" width="18.79" height="8.45"/>
	</g>
</g>
<g>
	<path fill="#FFFFFF" d="M12.37,36.05l-0.06-0.72c0.35-0.05,0.64-0.21,0.86-0.42c0.11-0.11,0.13-0.19,0.08-0.24l0,0
		c-0.05-0.05-0.14-0.02-0.37,0.13c-0.5,0.32-0.97,0.57-1.36,0.18l0-0.01c-0.35-0.35-0.34-0.89,0.16-1.39
		c0.35-0.35,0.7-0.53,1.08-0.57l0.11,0.71c-0.3,0.05-0.56,0.2-0.73,0.37c-0.09,0.09-0.1,0.16-0.06,0.21l0,0.01
		c0.05,0.05,0.13,0.03,0.36-0.12c0.55-0.38,1-0.56,1.37-0.19l0,0.01c0.38,0.38,0.3,0.94-0.19,1.42
		C13.24,35.8,12.81,36.03,12.37,36.05z"/>
	<path fill="#FFFFFF" d="M12.92,32.41l0.64-0.64l1.03,0.25l-0.25-1.03l0.64-0.63l1.82,1.83l-0.61,0.61l-0.9-0.91l0.23,1.07
		l-0.01,0.01l-1.07-0.23l0.9,0.91l-0.6,0.6L12.92,32.41z"/>
	<path fill="#FFFFFF" d="M16.02,29.3l0.61-0.6l2.61,1.08l-0.67,0.66l-0.34-0.15l-0.64,0.64l0.15,0.34l-0.66,0.65L16.02,29.3z
		 M17.65,30l-0.61-0.28l0.28,0.61L17.65,30z"/>
	<path fill="#FFFFFF" d="M19.07,29.39l-0.06-0.72c0.35-0.05,0.64-0.21,0.85-0.42c0.11-0.11,0.13-0.19,0.08-0.24l0,0
		c-0.05-0.05-0.14-0.02-0.37,0.13c-0.49,0.32-0.97,0.57-1.36,0.18l-0.01-0.01c-0.35-0.35-0.34-0.89,0.17-1.39
		c0.35-0.35,0.7-0.53,1.08-0.57l0.11,0.71c-0.3,0.05-0.56,0.2-0.73,0.37c-0.09,0.09-0.1,0.16-0.06,0.21l0.01,0.01
		c0.05,0.05,0.13,0.03,0.36-0.12c0.55-0.38,1-0.56,1.37-0.19l0.01,0.01c0.38,0.38,0.3,0.94-0.19,1.42
		C19.95,29.14,19.51,29.37,19.07,29.39z"/>
	<path fill="#FFFFFF" d="M19.62,25.75l0.61-0.61l0.64,0.65l0.56-0.56l-0.64-0.65l0.61-0.61l1.82,1.83l-0.61,0.61l-0.65-0.66
		l-0.56,0.56l0.65,0.66l-0.61,0.61L19.62,25.75z"/>
	<path fill="#FFFFFF" d="M21.82,23.56l1.03-1.02c0.25-0.25,0.47-0.35,0.68-0.35c0.13,0,0.27,0.05,0.4,0.17l0,0.01
		c0.22,0.22,0.22,0.48,0.09,0.74c0.3-0.17,0.58-0.19,0.83,0.06l0,0c0.29,0.29,0.26,0.75-0.2,1.21l-1.02,1.01L21.82,23.56z
		 M23.4,23.42c0.13-0.13,0.15-0.24,0.07-0.32l0,0c-0.08-0.08-0.19-0.06-0.32,0.07l-0.26,0.26l0.26,0.26L23.4,23.42z M24.09,24.03
		c0.13-0.13,0.15-0.26,0.07-0.33l0-0.01c-0.08-0.08-0.2-0.07-0.33,0.06l-0.31,0.31l0.27,0.27L24.09,24.03z"/>
	<path fill="#FFFFFF" d="M24.87,22.54l-1-1.01l0.62-0.62l1,1c0.23,0.23,0.44,0.21,0.61,0.04c0.17-0.16,0.2-0.37-0.03-0.59
		l-1.01-1.02l0.62-0.62l0.99,1c0.62,0.63,0.5,1.23-0.04,1.78C26.08,23.05,25.48,23.15,24.87,22.54z"/>
	<path fill="#FFFFFF" d="M26.08,19.33l0.9-0.89c0.33-0.32,0.61-0.45,0.87-0.45c0.22,0,0.41,0.08,0.6,0.27l0.01,0.01
		c0.27,0.27,0.31,0.59,0.2,0.92l1.05,0.2l-0.7,0.69l-0.87-0.18l0,0.01L28,20.03l0.52,0.52l-0.61,0.61L26.08,19.33z M27.82,19.33
		c0.15-0.15,0.17-0.3,0.06-0.41l0,0c-0.12-0.12-0.27-0.08-0.41,0.06l-0.27,0.27l0.36,0.36L27.82,19.33z"/>
	<path fill="#FFFFFF" d="M29.03,18.23L29.03,18.23c-0.55-0.55-0.52-1.39,0.06-1.97c0.31-0.31,0.67-0.46,1.04-0.48l0.07,0.75
		c-0.22,0.02-0.41,0.09-0.56,0.24c-0.24,0.24-0.23,0.59,0.02,0.84l0,0c0.26,0.26,0.62,0.26,0.87,0c0.11-0.1,0.15-0.18,0.17-0.25
		l-0.18-0.18L30.2,17.5l-0.39-0.39l0.89-0.88l0.84,0.85c-0.04,0.36-0.2,0.75-0.54,1.08C30.44,18.72,29.6,18.8,29.03,18.23z"/>
	<path fill="#FFFFFF" d="M30.34,15.1l1.56-1.55l0.5,0.5L31.44,15l0.18,0.19l0.9-0.89l0.44,0.44l-0.9,0.89l0.2,0.2l0.97-0.97l0.5,0.5
		l-1.58,1.57L30.34,15.1z"/>
	<path fill="#FFFFFF" d="M32.29,13.16l0.9-0.89c0.33-0.32,0.61-0.45,0.87-0.45c0.22,0,0.41,0.08,0.6,0.27l0.01,0.01
		c0.27,0.27,0.31,0.59,0.2,0.92l1.05,0.2l-0.7,0.69l-0.87-0.18l0,0l-0.13,0.12l0.52,0.52l-0.61,0.61L32.29,13.16z M34.03,13.16
		c0.15-0.15,0.17-0.3,0.06-0.41l0,0c-0.12-0.12-0.27-0.08-0.41,0.06l-0.27,0.27l0.36,0.36L34.03,13.16z"/>
</g>
<g>
	
		<rect x="21.13" y="5.6" transform="matrix(0.7046 0.7096 -0.7096 0.7046 21.8176 -8.7604)" fill="#FFFFFF" width="0.59" height="32.46"/>
</g>
<g>
	<path fill="#FFFFFF" d="M7.07,27.26l-0.11-0.89c-0.13-1.02,0.24-1.97,1.31-2.1l0.04,0c0.83-0.11,1.29,0.32,1.55,0.78
		c0.13-0.61,0.47-1.12,1.28-1.22l0.06-0.01c1.07-0.14,1.78,0.6,1.93,1.78l0.11,0.87L7.07,27.26z M9.62,25.95
		c-0.08-0.61-0.47-0.93-1.09-0.85l-0.02,0c-0.6,0.08-0.85,0.5-0.78,1.06l0.02,0.12l1.88-0.24L9.62,25.95z M12.31,25.6
		c-0.08-0.63-0.47-1-1.07-0.92l-0.04,0c-0.62,0.08-0.91,0.52-0.83,1.15l0.01,0.11l1.93-0.25L12.31,25.6z"/>
</g>
<g>
	<path fill="#FFFFFF" d="M11.21,22.18l-4.33-1.09l0.21-0.84l4.41,1.11c0.63,0.16,0.97-0.01,1.06-0.36c0.09-0.36-0.13-0.68-0.76-0.83
		l-4.41-1.11l0.21-0.83l4.33,1.09c1.19,0.3,1.62,1.04,1.41,1.89C13.14,22.04,12.4,22.48,11.21,22.18z"/>
</g>
<g>
	<path fill="#FFFFFF" d="M9.17,15.09l0.59-0.82c0.64-0.89,1.6-1.17,2.67-0.39l0.05,0.04c0.67,0.48,0.9,1.08,0.86,1.65l2.62,0.74
		l-0.55,0.76l-2.33-0.66c-0.02,0.03-0.04,0.07-0.06,0.1l-0.14,0.19l1.83,1.33l-0.51,0.71L9.17,15.09z M12.34,16.11
		c0.34-0.47,0.29-1.01-0.36-1.47l-0.04-0.03c-0.69-0.5-1.17-0.32-1.51,0.15l-0.07,0.1l1.9,1.37L12.34,16.11z"/>
</g>
<g>
	<path fill="#FFFFFF" d="M14.83,13.25l-0.11-0.16c-1.1-1.7-0.93-3.03,0.04-3.66c0.28-0.18,0.53-0.26,0.78-0.29l0.5,0.78
		c-0.31,0.01-0.57,0.05-0.8,0.2c-0.56,0.36-0.58,1.22,0.21,2.46l0.14,0.22c0.91,1.41,1.65,1.58,2.12,1.27
		c0.07-0.04,0.09-0.07,0.15-0.14l-1-1.55l-0.55,0.36l-0.42-0.66l1.22-0.79l1.74,2.7c-0.22,0.34-0.41,0.57-0.73,0.78
		C17.23,15.35,15.98,15.04,14.83,13.25z"/>
</g>
<g>
	<path fill="#FFFFFF" d="M19,7.56l2.25-0.47l0.17,0.81l-1.39,0.29L20.41,10l1.24-0.26l0.17,0.81l-1.24,0.26l0.39,1.85l1.42-0.3
		l0.17,0.81l-2.28,0.48L19,7.56z"/>
</g>
<g>
	<path fill="#FFFFFF" d="M24.71,7.07l1,0.15c1.09,0.17,1.77,0.89,1.57,2.2l-0.01,0.06c-0.12,0.82-0.55,1.3-1.08,1.52l0.54,2.67
		l-0.93-0.14l-0.48-2.37c-0.04-0.01-0.08,0-0.12-0.01l-0.23-0.04l-0.34,2.24l-0.87-0.13L24.71,7.07z M25.25,10.35
		c0.58,0.09,1.03-0.2,1.15-0.99l0.01-0.05c0.13-0.84-0.25-1.19-0.83-1.28l-0.12-0.02l-0.35,2.32L25.25,10.35z"/>
</g>
<g>
	<path fill="#FFFFFF" d="M18.11,39.26l0.23-0.84c0.3,0.31,0.56,0.51,0.83,0.58c0.34,0.09,0.65-0.03,0.76-0.42l0-0.02
		c0.09-0.32,0.05-0.59-0.3-1.35c-0.47-1.02-0.63-1.45-0.45-2.09l0-0.02c0.23-0.83,0.94-1.23,1.67-1.04c0.38,0.1,0.6,0.24,0.82,0.44
		l-0.23,0.84c-0.26-0.27-0.45-0.42-0.71-0.49c-0.32-0.09-0.64,0.06-0.74,0.42l0,0.02c-0.08,0.31-0.03,0.51,0.33,1.27
		c0.51,1.1,0.6,1.53,0.43,2.17l0,0.02c-0.23,0.83-0.97,1.23-1.71,1.03C18.67,39.69,18.37,39.49,18.11,39.26z"/>
</g>
<g>
	<path fill="#FFFFFF" d="M22.78,34.49l0.84-0.07l1.04,2.41l0.61-2.55l0.84-0.07l0.51,5.85l-0.79,0.07l-0.34-3.99l-0.65,2.65l-0.03,0
		l-1.09-2.5l0.34,3.99l-0.79,0.07L22.78,34.49z"/>
</g>
<g>
	<path fill="#FFFFFF" d="M27.63,33.58l0.8-0.37l3.56,4.84l-0.75,0.35l-0.77-1.08l-1,0.47l0.34,1.29l-0.73,0.34L27.63,33.58z
		 M30.04,36.69l-1.39-1.95l0.62,2.32L30.04,36.69z"/>
</g>
<g>
	<path fill="#FFFFFF" d="M33.77,36.49l-0.6-0.64c0.43-0.09,0.73-0.21,0.93-0.4c0.26-0.24,0.31-0.57,0.04-0.87l-0.01-0.01
		c-0.23-0.24-0.47-0.35-1.31-0.45c-1.12-0.14-1.56-0.23-2.02-0.71L30.8,33.4c-0.59-0.63-0.55-1.45,0-1.97
		c0.29-0.27,0.52-0.39,0.8-0.47l0.6,0.64c-0.37,0.08-0.59,0.17-0.79,0.35c-0.25,0.23-0.29,0.58-0.03,0.85l0.01,0.01
		c0.22,0.24,0.42,0.29,1.25,0.39c1.2,0.14,1.62,0.29,2.07,0.77l0.01,0.01c0.59,0.63,0.54,1.47-0.02,1.99
		C34.43,36.25,34.11,36.4,33.77,36.49z"/>
</g>
<g>
	<path fill="#FFFFFF" d="M32.28,30.08l0.39-0.74l2.23,1.18l0.54-1.03l-2.23-1.18l0.38-0.73l5.19,2.75l-0.38,0.73l-2.26-1.2
		l-0.54,1.03l2.26,1.2l-0.39,0.73L32.28,30.08z"/>
</g>
<g>
	<path fill="#FFFFFF" d="M33.88,26.36l0.33-2.15l0.77,0.12l-0.21,1.33l1.73,0.27l0.18-1.19l0.77,0.12l-0.18,1.19l1.77,0.27
		l0.21-1.35l0.77,0.12l-0.33,2.17L33.88,26.36z"/>
</g>
<g>
	<path fill="#FFFFFF" d="M34.18,23.25l-0.16-0.94c-0.18-1.03,0.27-1.85,1.5-2.06l0.06-0.01c0.77-0.13,1.33,0.1,1.68,0.51l2.23-1.29
		l0.15,0.88l-1.98,1.14c0.01,0.03,0.02,0.07,0.03,0.11l0.04,0.21l2.11-0.36l0.14,0.82L34.18,23.25z M36.96,21.79
		c-0.09-0.55-0.49-0.86-1.23-0.73l-0.05,0.01c-0.79,0.14-0.99,0.58-0.9,1.12l0.02,0.12l2.18-0.38L36.96,21.79z"/>
</g>
<g>
	
		<rect x="25.02" y="9.5" transform="matrix(0.7046 0.7096 -0.7096 0.7046 25.7345 -10.3604)" fill="#FFFFFF" width="0.59" height="32.46"/>
</g>
</svg>
