<?xml version="1.0" encoding="utf-8"?>
<!-- Generator: Adobe Illustrator 18.1.0, SVG Export Plug-In . SVG Version: 6.00 Build 0)  -->
<svg version="1.1" id="Layer_1" xmlns="http://www.w3.org/2000/svg" xmlns:xlink="http://www.w3.org/1999/xlink" x="0px" y="0px"
	 viewBox="0 0 87.39 114.54" enable-background="new 0 0 87.39 114.54" xml:space="preserve">
<path opacity="0.26" fill="#4B608A" d="M76.04,1.5H11.35c-4.95,0-9,4.05-9,9v93.54c0,4.95,4.05,9,9,9h64.69c4.95,0,9-4.05,9-9V10.5
	C85.04,5.55,80.99,1.5,76.04,1.5z M29.39,98.07c0,3.3-2.7,6-6,6h-5.62c-3.3,0-6-2.7-6-6v-5.62c0-3.3,2.7-6,6-6h5.62c3.3,0,6,2.7,6,6
	V98.07z M29.39,74.32c0,3.3-2.7,6-6,6h-5.62c-3.3,0-6-2.7-6-6V68.7c0-3.3,2.7-6,6-6h5.62c3.3,0,6,2.7,6,6V74.32z M29.39,51.39
	c0,3.3-2.7,6-6,6h-5.62c-3.3,0-6-2.7-6-6v-5.62c0-3.3,2.7-6,6-6h5.62c3.3,0,6,2.7,6,6V51.39z M52.32,98.07c0,3.3-2.7,6-6,6H40.7
	c-3.3,0-6-2.7-6-6v-5.62c0-3.3,2.7-6,6-6h5.62c3.3,0,6,2.7,6,6V98.07z M52.32,74.32c0,3.3-2.7,6-6,6H40.7c-3.3,0-6-2.7-6-6V68.7
	c0-3.3,2.7-6,6-6h5.62c3.3,0,6,2.7,6,6V74.32z M52.32,51.39c0,3.3-2.7,6-6,6H40.7c-3.3,0-6-2.7-6-6v-5.62c0-3.3,2.7-6,6-6h5.62
	c3.3,0,6,2.7,6,6V51.39z M75.25,98.07c0,3.3-2.7,6-6,6h-5.62c-3.3,0-6-2.7-6-6v-5.62c0-3.3,2.7-6,6-6h5.62c3.3,0,6,2.7,6,6V98.07z
	 M75.25,74.32c0,3.3-2.7,6-6,6h-5.62c-3.3,0-6-2.7-6-6V68.7c0-3.3,2.7-6,6-6h5.62c3.3,0,6,2.7,6,6V74.32z M75.25,51.39
	c0,3.3-2.7,6-6,6h-5.62c-3.3,0-6-2.7-6-6v-5.62c0-3.3,2.7-6,6-6h5.62c3.3,0,6,2.7,6,6V51.39z M75.62,27.71c0,3.3-2.7,6-6,6H17.77
	c-3.3,0-6-2.7-6-6V16.37c0-3.3,2.7-6,6-6h51.85c3.3,0,6,2.7,6,6V27.71z"/>
</svg>
