<?xml version="1.0" encoding="utf-8"?>
<!-- Generator: Adobe Illustrator 18.1.0, SVG Export Plug-In . SVG Version: 6.00 Build 0)  -->
<svg version="1.1" id="Isolation_Mode" xmlns="http://www.w3.org/2000/svg" xmlns:xlink="http://www.w3.org/1999/xlink" x="0px"
	 y="0px" viewBox="0 0 86.3 72" enable-background="new 0 0 86.3 72" xml:space="preserve">
<path fill="#6F4C36" d="M46.54,48.93l23.74-25.32c0,0,4.38,3.41,6.96,5.41c0-7.05,0.17-20.63,0.17-20.63L56.94,9.54l5.21,5.47
	l-17,17.88l-8.94-8.62l-22.93,23l6.95,8.86l16.62-16.4L46.54,48.93z M83.26,65.67c0-1.53,0-1.74,0-3.65c-25.18,0-51.05,0-76.58,0
	c0-18.75,0-55.69,0-55.69H3.12c0,0-0.17,57.68,0,59.34C29.78,65.67,56.28,65.67,83.26,65.67z"/>
</svg>
