<?xml version="1.0" encoding="utf-8"?>
<!-- Generator: Adobe Illustrator 18.1.0, SVG Export Plug-In . SVG Version: 6.00 Build 0)  -->
<svg version="1.1" id="Layer_1" xmlns="http://www.w3.org/2000/svg" xmlns:xlink="http://www.w3.org/1999/xlink" x="0px" y="0px"
	 viewBox="0 0 320 320" enable-background="new 0 0 320 320" xml:space="preserve">
<g>
	<rect x="109.82" y="289.91" fill="#D9D0BE" width="94.23" height="16.54"/>
	<g>
		<path fill="#492E1E" d="M165.77,299.53h-2.62v2.28h2.66c1.04,0,1.65-0.41,1.65-1.13v-0.04
			C167.45,299.98,166.92,299.53,165.77,299.53z"/>
		<path fill="#492E1E" d="M166.94,296.05v-0.04c0-0.67-0.53-1.06-1.56-1.06h-2.23v2.18h2.16
			C166.36,297.13,166.94,296.77,166.94,296.05z"/>
		<path fill="#492E1E" d="M217.16,305.93v-19.93H97.49v19.93c0,2.53,2.06,4.58,4.59,4.58h110.48
			C215.11,310.51,217.16,308.46,217.16,305.93z M126,304.58h-10.06v-12.39h9.97v2.92h-6.57v1.88h5.95v2.71h-5.95v1.97H126V304.58z
			 M139.37,302.92c-1.31,1.08-3.13,1.91-5.38,1.91c-3.86,0-6.75-2.66-6.75-6.41v-0.04c0-3.61,2.83-6.44,6.68-6.44
			c2.18,0,3.72,0.67,5.03,1.81l-2.02,2.43c-0.89-0.74-1.77-1.17-2.99-1.17c-1.79,0-3.17,1.51-3.17,3.4v0.04c0,2,1.4,3.44,3.36,3.44
			c0.83,0,1.47-0.18,1.98-0.51v-1.51h-2.44v-2.51h5.7V302.92z M152.99,302.92c-1.31,1.08-3.13,1.91-5.38,1.91
			c-3.86,0-6.75-2.66-6.75-6.41v-0.04c0-3.61,2.83-6.44,6.68-6.44c2.18,0,3.72,0.67,5.03,1.81l-2.02,2.43
			c-0.89-0.74-1.77-1.17-2.99-1.17c-1.79,0-3.17,1.51-3.17,3.4v0.04c0,2,1.4,3.44,3.36,3.44c0.83,0,1.47-0.18,1.98-0.51v-1.51h-2.44
			v-2.51h5.7V302.92z M170.89,301.16c0,2.12-1.73,3.42-4.69,3.42h-6.39v-12.39h6.36c1.56,0,2.66,0.39,3.38,1.12
			c0.5,0.5,0.8,1.15,0.8,2v0.04c0,1.43-0.81,2.28-1.91,2.76c1.51,0.5,2.46,1.35,2.46,3.03V301.16z M183.85,299.06
			c0,4-2.28,5.75-5.81,5.75c-3.52,0-5.74-1.79-5.74-5.67v-6.96h3.49v6.89c0,1.79,0.9,2.64,2.28,2.64c1.38,0,2.28-0.81,2.28-2.55
			v-6.98h3.49V299.06z M197.59,304.58h-3.01l-5.29-6.8v6.8h-3.4v-12.39h3.21l5.1,6.55v-6.55h3.4V304.58z"/>
	</g>
	<path fill="#492E1E" d="M177.29,11.62L166.24,25.4c-0.5,0.62-1.23,0.94-1.96,0.94c-0.55,0-1.1-0.18-1.57-0.55
		c-1.08-0.86-1.26-2.44-0.39-3.52l9.38-11.7c-2.65-0.41-5.38-0.7-8.16-0.88L151.4,24.82c-0.49,0.62-1.22,0.94-1.96,0.94
		c-0.55,0-1.1-0.18-1.57-0.55c-1.08-0.86-1.26-2.44-0.39-3.52l9.79-12.21C124.31,9.51,97.6,26.12,97.6,46.6h119.44
		C217.05,30.45,200.45,16.72,177.29,11.62z"/>
	<g>
		<polygon fill="#D9D0BE" points="113.77,63.84 116.35,63.84 115.06,60.42 		"/>
		<path fill="#D9D0BE" d="M72.19,49.98v24.09h160.68V49.98H72.19z M89.3,64.56c0,2.96-2.44,4.77-6.22,4.77
			c-2.86,0-5.43-0.81-7.23-2.38l2.52-3c1.53,1.17,3.28,1.65,4.93,1.65c0.85,0,1.21-0.22,1.21-0.6v-0.04c0-0.4-0.44-0.62-1.95-0.93
			c-3.16-0.64-5.94-1.55-5.94-4.53v-0.04c0-2.68,2.09-4.75,5.98-4.75c2.72,0,4.73,0.64,6.36,1.93l-2.29,3.18
			c-1.33-0.97-2.92-1.39-4.23-1.39c-0.7,0-1.03,0.24-1.03,0.58v0.04c0,0.38,0.38,0.62,1.87,0.91c3.6,0.66,6.02,1.71,6.02,4.55V64.56
			z M106.25,69.07h-4.69v-6.98l-3.24,5.01h-0.08l-3.24-5.01v6.98h-4.61V54.98h4.91l3.02,4.95l3.02-4.95h4.91V69.07z M118.26,69.07
			l-0.74-1.89h-4.93l-0.72,1.89h-5.03l5.94-14.19h4.67l5.94,14.19H118.26z M136.03,64.56c0,2.96-2.44,4.77-6.22,4.77
			c-2.86,0-5.43-0.81-7.23-2.38l2.52-3c1.53,1.17,3.28,1.65,4.93,1.65c0.85,0,1.21-0.22,1.21-0.6v-0.04c0-0.4-0.44-0.62-1.95-0.93
			c-3.16-0.64-5.94-1.55-5.94-4.53v-0.04c0-2.68,2.09-4.75,5.98-4.75c2.72,0,4.73,0.64,6.36,1.93l-2.29,3.18
			c-1.33-0.97-2.92-1.39-4.23-1.39c-0.7,0-1.03,0.24-1.03,0.58v0.04c0,0.38,0.38,0.62,1.87,0.91c3.6,0.66,6.02,1.71,6.02,4.55V64.56
			z M150.85,69.07h-4.71v-5.05h-4.31v5.05h-4.71V54.98h4.71v4.97h4.31v-4.97h4.71V69.07z M163.63,69.33c-2.86,0-5.43-0.81-7.23-2.38
			l2.52-3c1.53,1.17,3.28,1.65,4.93,1.65c0.85,0,1.21-0.22,1.21-0.6v-0.04c0-0.4-0.44-0.62-1.95-0.93
			c-3.16-0.64-5.94-1.55-5.94-4.53v-0.04c0-2.68,2.09-4.75,5.98-4.75c2.72,0,4.73,0.64,6.36,1.93l-2.29,3.18
			c-1.33-0.97-2.92-1.39-4.23-1.39c-0.7,0-1.03,0.24-1.03,0.58v0.04c0,0.38,0.38,0.62,1.87,0.91c3.6,0.66,6.02,1.71,6.02,4.55v0.04
			C169.85,67.52,167.41,69.33,163.63,69.33z M181.04,69.07l-0.74-1.89h-4.93l-0.72,1.89h-5.03l5.94-14.19h4.67l5.94,14.19H181.04z
			 M199.94,62.65c0,4.81-2.8,6.7-7.01,6.7c-4.21,0-6.92-1.93-6.92-6.6v-7.77h4.79v7.71c0,1.75,0.91,2.5,2.17,2.5s2.17-0.68,2.17-2.4
			v-7.81h4.79V62.65z M208.42,69.37c-3.91,0-7.31-2.94-7.31-7.31v-0.04c0-4.21,3.28-7.35,7.49-7.35c3.1,0,5.19,1.51,6.38,3.66
			l-3.89,2.27c-0.52-1.01-1.27-1.71-2.56-1.71c-1.59,0-2.64,1.39-2.64,3.08v0.04c0,1.83,1.09,3.12,2.64,3.12
			c1.33,0,2.07-0.72,2.66-1.77l3.88,2.19C213.89,67.66,211.92,69.37,208.42,69.37z M228.1,69.07h-12.12V54.98H228v3.86h-7.39v1.43
			h6.88v3.4h-6.88v1.53h7.49V69.07z"/>
		<polygon fill="#D9D0BE" points="176.55,63.84 179.13,63.84 177.84,60.42 		"/>
	</g>
	<g>
		<path fill="#D9D0BE" d="M95.1,77.22v21.04h94.48V77.22H95.1z M107.27,94.07l-2.41-3.9l-1.05,1.28v2.62h-4.11v-12.3h4.11v4.6
			l3.5-4.6h4.78l-4.29,5.34l4.38,6.96H107.27z M123.1,94.07h-10.58v-12.3h10.49v3.37h-6.45v1.25h6.01v2.97h-6.01v1.34h6.54V94.07z
			 M135.09,85.25h-3.62v8.82h-4.11v-8.82h-3.62v-3.48h11.35V85.25z M141.59,94.34c-3.41,0-6.38-2.57-6.38-6.38v-0.04
			c0-3.67,2.86-6.41,6.54-6.41c2.71,0,4.53,1.32,5.57,3.2l-3.39,1.99c-0.46-0.88-1.11-1.49-2.23-1.49c-1.39,0-2.3,1.21-2.3,2.69
			v0.03c0,1.6,0.95,2.72,2.3,2.72c1.16,0,1.81-0.63,2.32-1.55l3.39,1.92C146.37,92.84,144.65,94.34,141.59,94.34z M160.18,94.07
			h-4.11v-4.41h-3.76v4.41h-4.11v-12.3h4.11v4.34h3.76v-4.34h4.11V94.07z M173.65,88.47c0,4.2-2.44,5.85-6.12,5.85
			c-3.67,0-6.05-1.69-6.05-5.76v-6.78h4.18v6.73c0,1.53,0.79,2.18,1.9,2.18c1.11,0,1.9-0.6,1.9-2.09v-6.82h4.18V88.47z
			 M185.99,86.18c0,2.97-2.27,4.55-5.59,4.55h-1.34v3.34h-4.11v-12.3h5.54c3.27,0,5.5,1.46,5.5,4.38V86.18z"/>
		<path fill="#D9D0BE" d="M180.19,85.06h-1.12v2.74h1.11c1.05,0,1.76-0.47,1.76-1.35v-0.04C181.93,85.52,181.28,85.06,180.19,85.06z
			"/>
	</g>
	<g>
		<polygon fill="#D9D0BE" points="194.92,225.33 193.71,228.39 196.12,228.39 		"/>
		<path fill="#D9D0BE" d="M216.69,219.29h-94.23v33.5h94.23V219.29z M193.51,221.79h2.88l4.58,10.84h-3.2l-0.78-1.92h-4.15
			l-0.77,1.92h-3.14L193.51,221.79z M178.28,227.26c0-3.14,2.42-5.6,5.68-5.6c2.2,0,3.61,0.92,4.57,2.25l-2.25,1.74
			c-0.61-0.77-1.32-1.26-2.35-1.26c-1.51,0-2.57,1.28-2.57,2.85v0.03c0,1.62,1.06,2.88,2.57,2.88c1.12,0,1.78-0.52,2.43-1.31
			l2.25,1.6c-1.01,1.4-2.38,2.43-4.77,2.43c-3.08,0-5.55-2.35-5.55-5.57V227.26z M173.68,221.87h3v10.77h-3V221.87z M162.56,221.87
			h5.09c1.65,0,2.78,0.43,3.51,1.17c0.63,0.62,0.95,1.45,0.95,2.51v0.03c0,1.65-0.88,2.74-2.21,3.31l2.57,3.75h-3.45l-2.17-3.26
			h-0.03h-1.28v3.26h-2.98V221.87z M152.3,221.87h8.66v2.54h-5.71v1.63h5.17v2.35h-5.17v1.71h5.78v2.54h-8.74V221.87z
			 M130.44,221.79h2.88l4.58,10.84h-3.2l-0.78-1.92h-4.15l-0.77,1.92h-3.14L130.44,221.79z M134.13,249.57
			c-4.2,0-7.57-3.21-7.57-7.59v-0.04c0-4.28,3.29-7.64,7.74-7.64c3,0,4.93,1.26,6.23,3.06l-3.06,2.37c-0.84-1.05-1.8-1.72-3.21-1.72
			c-2.06,0-3.5,1.74-3.5,3.88v0.04c0,2.2,1.45,3.92,3.5,3.92c1.53,0,2.43-0.71,3.31-1.78l3.06,2.18
			C139.25,248.17,137.38,249.57,134.13,249.57z M141.87,232.64h-2.92v-10.77h3.15l2.57,4.17l2.57-4.17h3.15v10.77h-2.97v-6.18
			l-2.75,4.22h-0.06l-2.74-4.18V232.64z M155.73,249.28h-4.07v-5.58h-5.22v5.58h-4.07V234.6h4.07v5.5h5.22v-5.5h4.07V249.28z
			 M170.25,249.28h-11.92V234.6h11.81v3.46h-7.78v2.22h7.05v3.21h-7.05v2.33h7.89V249.28z M184.24,249.28h-11.92V234.6h11.81v3.46
			h-7.78v2.22h7.05v3.21h-7.05v2.33h7.89V249.28z M198.02,244.75c0,3-2.37,4.78-5.94,4.78c-2.6,0-5.08-0.82-6.88-2.43l2.27-2.71
			c1.45,1.15,3.06,1.76,4.76,1.76c1.09,0,1.68-0.38,1.68-1.01v-0.04c0-0.61-0.48-0.94-2.48-1.41c-3.13-0.71-5.54-1.59-5.54-4.61
			v-0.04c0-2.73,2.16-4.7,5.69-4.7c2.5,0,4.45,0.67,6.04,1.95l-2.03,2.87c-1.34-0.94-2.81-1.45-4.11-1.45
			c-0.99,0-1.47,0.42-1.47,0.94v0.04c0,0.67,0.5,0.96,2.54,1.43c3.38,0.73,5.48,1.83,5.48,4.57V244.75z M211.91,249.28H200V234.6
			h11.81v3.46h-7.78v2.22h7.05v3.21h-7.05v2.33h7.89V249.28z M212.18,232.64h-2.62l-4.6-5.91v5.91h-2.95v-10.77h2.79l4.43,5.69
			v-5.69h2.95V232.64z"/>
		<polygon fill="#D9D0BE" points="131.85,225.33 130.64,228.39 133.05,228.39 		"/>
		<path fill="#D9D0BE" d="M169.11,225.76v-0.03c0-0.85-0.61-1.28-1.62-1.28h-1.95v2.58h1.97
			C168.53,227.04,169.11,226.55,169.11,225.76z"/>
	</g>
	<g>
		<path fill="#D9D0BE" d="M98.01,129.93h126.44v-28.49H98.01V129.93z M201.98,107.24h13.34v3.91h-8.79v2.51h7.96v3.63h-7.96v2.63
			h8.91v3.91h-13.46V107.24z M184.12,115.53c0-4.83,3.72-8.62,8.74-8.62c3.39,0,5.57,1.42,7.04,3.46l-3.46,2.68
			c-0.95-1.19-2.04-1.94-3.63-1.94c-2.32,0-3.96,1.97-3.96,4.38v0.05c0,2.49,1.64,4.43,3.96,4.43c1.73,0,2.75-0.81,3.74-2.01
			l3.46,2.46c-1.56,2.16-3.67,3.74-7.34,3.74c-4.74,0-8.55-3.63-8.55-8.58V115.53z M166.51,107.24h4.67v9.22
			c0,2.39,1.21,3.53,3.06,3.53c1.85,0,3.06-1.09,3.06-3.41v-9.34h4.67v9.19c0,5.35-3.06,7.7-7.77,7.7c-4.72,0-7.68-2.39-7.68-7.58
			V107.24z M150.17,107.24h14.55v4.03h-4.98v12.56h-4.6v-12.56h-4.98V107.24z M134.53,107.24h14.55v4.03h-4.98v12.56h-4.6v-12.56
			h-4.98V107.24z M119.65,107.24h13.34v3.91h-8.79v2.51h7.96v3.63h-7.96v2.63h8.91v3.91h-13.46V107.24z M105.06,107.24h4.6v12.56
			h8.03v4.03h-12.63V107.24z"/>
	</g>
	<g>
		<path fill="#D9D0BE" d="M179.36,180.03c1.94,0,3.22-1.56,3.22-3.38v-0.04c0-1.83-1.32-3.42-3.26-3.42c-1.92,0-3.2,1.56-3.2,3.38
			v0.04C176.13,178.44,177.45,180.03,179.36,180.03z"/>
		<path fill="#D9D0BE" d="M124.47,180.03c1.94,0,3.22-1.56,3.22-3.38v-0.04c0-1.83-1.32-3.42-3.26-3.42c-1.92,0-3.2,1.56-3.2,3.38
			v0.04C121.23,178.44,122.55,180.03,124.47,180.03z"/>
		<polygon fill="#D9D0BE" points="154.85,174.35 153.42,177.95 156.26,177.95 		"/>
		<path fill="#D9D0BE" d="M97.6,187.61h96.56v-21.76H97.6V187.61z M172.52,176.61c0-3.64,2.93-6.59,6.84-6.59
			c3.91,0,6.8,2.91,6.8,6.55v0.04c0,3.64-2.93,6.59-6.84,6.59c-3.91,0-6.8-2.91-6.8-6.55V176.61z M160.85,170.28h11.11v3.08h-3.8
			v9.59h-3.51v-9.59h-3.8V170.28z M153.18,170.18h3.38l5.39,12.76h-3.76l-0.92-2.26h-4.89l-0.9,2.26h-3.69L153.18,170.18z
			 M133.1,170.28h3.71l3.02,4.9l3.02-4.9h3.71v12.67h-3.49v-7.27l-3.24,4.96h-0.07l-3.22-4.92v7.24h-3.44V170.28z M117.63,176.61
			c0-3.64,2.93-6.59,6.84-6.59c3.91,0,6.8,2.91,6.8,6.55v0.04c0,3.64-2.93,6.59-6.84,6.59c-3.91,0-6.8-2.91-6.8-6.55V176.61z
			 M105.96,170.28h11.11v3.08h-3.8v9.59h-3.51v-9.59h-3.8V170.28z"/>
	</g>
	<g>
		<path fill="#D9D0BE" d="M239.02,133.15H124.2v28.68h114.81V133.15z M151.36,147.93c0,6.11-4.92,11.06-11.48,11.06
			c-6.56,0-11.42-4.89-11.42-11v-0.06c0-6.11,4.92-11.06,11.48-11.06c6.56,0,11.42,4.89,11.42,11V147.93z M174.5,158.56h-5.16
			l-9.08-11.67v11.67h-5.83V137.3h5.5l8.75,11.24V137.3h5.83V158.56z M184.32,158.56h-5.92V137.3h5.92V158.56z M210.38,147.93
			c0,6.11-4.92,11.06-11.48,11.06c-6.56,0-11.42-4.89-11.42-11v-0.06c0-6.11,4.92-11.06,11.48-11.06c6.56,0,11.42,4.89,11.42,11
			V147.93z M233.53,158.56h-5.16l-9.08-11.67v11.67h-5.83V137.3h5.5l8.75,11.24V137.3h5.83V158.56z"/>
		<path fill="#D9D0BE" d="M139.87,142.19c-3.22,0-5.38,2.61-5.38,5.68v0.06c0,3.07,2.22,5.74,5.44,5.74c3.25,0,5.41-2.61,5.41-5.68
			v-0.06C145.34,144.86,143.12,142.19,139.87,142.19z"/>
		<path fill="#D9D0BE" d="M198.9,142.19c-3.22,0-5.38,2.61-5.38,5.68v0.06c0,3.07,2.22,5.74,5.44,5.74c3.25,0,5.41-2.61,5.41-5.68
			v-0.06C204.37,144.86,202.15,142.19,198.9,142.19z"/>
	</g>
	<g>
		<path fill="#D9D0BE" d="M101.19,191.34v24.23h119.68v-24.23H101.19z M121.62,200.84c0,4.23-3.26,6.47-7.73,6.47h-2.46v5.13h-4.98
			v-17.97h7.7c4.54,0,7.47,2.34,7.47,6.31V200.84z M128.83,212.44h-5.01v-17.97h5.01V212.44z M140.77,212.8
			c-5.13,0-9.27-3.93-9.27-9.29v-0.05c0-5.24,4.03-9.34,9.47-9.34c3.67,0,6.03,1.54,7.62,3.75l-3.75,2.9
			c-1.03-1.28-2.21-2.1-3.93-2.1c-2.52,0-4.29,2.13-4.29,4.75v0.05c0,2.7,1.77,4.8,4.29,4.8c1.87,0,2.98-0.87,4.06-2.18l3.75,2.67
			C147.03,211.08,144.74,212.8,140.77,212.8z M162.17,212.44l-4.52-6.67l-1.82,2.03v4.65h-4.98v-17.97h4.98v7.29l6.19-7.29h5.9
			l-6.8,7.73l7.03,10.24H162.17z M183.27,212.44h-13.68v-17.97h4.98v13.6h8.7V212.44z M199.98,212.44H185.4v-17.97h14.45v4.24h-9.52
			v2.72h8.62v3.93h-8.62v2.85h9.65V212.44z M216.85,206.89c0,3.67-2.9,5.85-7.26,5.85c-3.18,0-6.21-1-8.42-2.98l2.77-3.31
			c1.77,1.41,3.75,2.16,5.83,2.16c1.33,0,2.05-0.46,2.05-1.23v-0.05c0-0.74-0.59-1.16-3.03-1.72c-3.82-0.87-6.78-1.95-6.78-5.65
			v-0.05c0-3.34,2.64-5.75,6.96-5.75c3.06,0,5.44,0.82,7.39,2.39l-2.49,3.52c-1.64-1.16-3.44-1.77-5.03-1.77
			c-1.21,0-1.8,0.51-1.8,1.16v0.05c0,0.82,0.62,1.18,3.11,1.75c4.13,0.9,6.7,2.23,6.7,5.6V206.89z"/>
		<path fill="#D9D0BE" d="M113.76,198.65h-2.34v4.75h2.36c1.77,0,2.85-0.92,2.85-2.34v-0.05
			C116.64,199.48,115.56,198.65,113.76,198.65z"/>
	</g>
	<g>
		<path fill="#BABABA" d="M247.81,256.63H74.57v25.5h173.24V256.63z M93.92,272.21c0,2.67-2.12,4.26-5.31,4.26
			c-2.33,0-4.54-0.73-6.16-2.17l2.03-2.41c1.3,1.03,2.74,1.57,4.26,1.57c0.98,0,1.5-0.34,1.5-0.9v-0.03c0-0.55-0.43-0.84-2.22-1.26
			c-2.8-0.64-4.96-1.42-4.96-4.12v-0.04c0-2.43,1.93-4.2,5.09-4.2c2.23,0,3.98,0.6,5.4,1.74l-1.82,2.57
			c-1.2-0.85-2.52-1.29-3.68-1.29c-0.88,0-1.31,0.38-1.31,0.84v0.04c0,0.6,0.45,0.86,2.27,1.27c3.02,0.66,4.9,1.63,4.9,4.08V272.21z
			 M109.98,276.25h-3.62v-7.53l-3.36,5.13h-0.08l-3.34-5.09v7.49h-3.57v-13.11h3.85l3.14,5.07l3.14-5.07h3.85V276.25z M122.2,276.25
			l-0.96-2.34h-5.07l-0.94,2.34h-3.83l5.59-13.2h3.51l5.59,13.2H122.2z M138.15,272.21c0,2.67-2.12,4.26-5.31,4.26
			c-2.33,0-4.54-0.73-6.16-2.17l2.03-2.41c1.29,1.03,2.74,1.57,4.26,1.57c0.97,0,1.5-0.34,1.5-0.9v-0.03c0-0.55-0.43-0.84-2.21-1.26
			c-2.8-0.64-4.96-1.42-4.96-4.12v-0.04c0-2.43,1.93-4.2,5.09-4.2c2.23,0,3.98,0.6,5.41,1.74l-1.82,2.57
			c-1.2-0.85-2.52-1.29-3.68-1.29c-0.88,0-1.31,0.38-1.31,0.84v0.04c0,0.6,0.45,0.86,2.27,1.27c3.02,0.66,4.9,1.63,4.9,4.08V272.21z
			 M152.2,276.25h-3.64v-4.98h-4.67v4.98h-3.64v-13.11h3.64v4.91h4.67v-4.91h3.64V276.25z M166.71,272.64
			c0,2.25-1.84,3.61-4.97,3.61h-6.78v-13.11h6.74c1.65,0,2.81,0.41,3.58,1.18c0.52,0.53,0.84,1.22,0.84,2.12v0.04
			c0,1.51-0.86,2.41-2.03,2.92c1.6,0.53,2.61,1.42,2.61,3.2V272.64z M180.79,270.41c0,4.23-2.42,6.08-6.16,6.08
			c-3.74,0-6.08-1.89-6.08-5.99v-7.36h3.7v7.28c0,1.89,0.95,2.79,2.42,2.79c1.46,0,2.42-0.86,2.42-2.7v-7.38h3.7V270.41z
			 M191.3,276.25l-2.64-3.97h-0.04h-1.56v3.97h-3.64v-13.11h6.22c2.01,0,3.39,0.52,4.28,1.42c0.77,0.75,1.16,1.77,1.16,3.05v0.04
			c0,2-1.07,3.33-2.7,4.03l3.13,4.57H191.3z M209.38,274.49c-1.39,1.14-3.32,2.02-5.71,2.02c-4.09,0-7.15-2.81-7.15-6.78v-0.04
			c0-3.82,3-6.81,7.08-6.81c2.31,0,3.94,0.71,5.33,1.91l-2.14,2.56c-0.94-0.78-1.88-1.24-3.17-1.24c-1.89,0-3.36,1.59-3.36,3.6v0.04
			c0,2.12,1.48,3.63,3.57,3.63c0.88,0,1.56-0.19,2.1-0.54v-1.6h-2.59v-2.65h6.04V274.49z M222.55,276.25h-10.66v-13.11h10.57v3.09
			h-6.96v1.98h6.31v2.86h-6.31v2.08h7.06V276.25z M232.83,276.25l-2.65-3.97h-0.04h-1.56v3.97h-3.64v-13.11h6.22
			c2.01,0,3.39,0.52,4.28,1.42c0.77,0.75,1.16,1.77,1.16,3.05v0.04c0,2-1.07,3.33-2.7,4.03l3.13,4.57H232.83z"/>
		<path fill="#BABABA" d="M189.44,266.29h-2.38v3.15h2.4c1.24,0,1.95-0.6,1.95-1.55v-0.04
			C191.41,266.82,190.66,266.29,189.44,266.29z"/>
		<path fill="#BABABA" d="M230.97,266.29h-2.38v3.15h2.4c1.24,0,1.95-0.6,1.95-1.55v-0.04
			C232.94,266.82,232.19,266.29,230.97,266.29z"/>
		<path fill="#BABABA" d="M161.28,270.91h-2.78v2.42h2.81c1.11,0,1.74-0.43,1.74-1.2v-0.04
			C163.07,271.39,162.5,270.91,161.28,270.91z"/>
		<path fill="#BABABA" d="M162.52,267.23v-0.04c0-0.71-0.56-1.13-1.65-1.13h-2.36v2.31h2.29C161.91,268.37,162.52,268,162.52,267.23
			z"/>
		<polygon fill="#BABABA" points="117.24,271.08 120.19,271.08 118.72,267.36 		"/>
	</g>
</g>
<g>
	<path fill="#FFFFFF" d="M265.03,297.4h-2.51v-2.04h7.35v2.04h-2.52v6.36h-2.33V297.4z"/>
	<path fill="#FFFFFF" d="M270.9,295.36h2.46l2,3.25l2-3.25h2.46v8.4h-2.32v-4.82l-2.15,3.29h-0.05l-2.13-3.27v4.81h-2.28V295.36z"/>
</g>
</svg>
