<?xml version="1.0" encoding="utf-8"?>
<!-- Generator: Adobe Illustrator 18.1.0, SVG Export Plug-In . SVG Version: 6.00 Build 0)  -->
<svg version="1.1" id="Layer_1" xmlns="http://www.w3.org/2000/svg" xmlns:xlink="http://www.w3.org/1999/xlink" x="0px" y="0px"
	 viewBox="0 0 560 560" enable-background="new 0 0 560 560" xml:space="preserve">
<g>
	<path fill="#550B0E" d="M176.3,103.4l-20.7-41.9C104.1,91,64,138.1,43.7,194.6l46.5,12.9C106.1,163.7,136.9,127,176.3,103.4z"/>
	<path fill="#550B0E" d="M77.9,276.9c0-13.2,1.3-26.2,3.8-38.7l-46.8-13c-3.9,17.6-6,35.9-6,54.6c0,50.6,15,97.7,40.7,137.1
		l40.7-30.4C89.8,354.8,77.9,317.3,77.9,276.9z"/>
	<path fill="#550B0E" d="M264.1,75.5V29.1c-28.2,1.8-55.1,8.2-80,18.4l20.7,41.7C223.4,81.9,243.3,77.1,264.1,75.5z"/>
	<path fill="#550B0E" d="M280,478.9c-59.8,0-113.5-26-150.5-67.2l-41,30.5c46.1,54.2,114.7,88.6,191.5,88.6
		c30.7,0,60.1-5.5,87.3-15.6l-21.1-47.5C325.4,475,303.2,478.9,280,478.9z"/>
	<path fill="#550B0E" d="M375.3,455l21,47.3c59.3-31,104.6-85,124.2-150.2l-48.6-11.9C455.5,389.7,420.6,430.8,375.3,455z"/>
	<path fill="#550B0E" d="M295.9,29.1v46.4c104.2,8.1,186.2,95.1,186.2,201.4c0,11.1-0.9,22-2.7,32.6l48.3,11.8
		c2.3-13.5,3.4-27.4,3.4-41.5C531.1,146.4,427.2,37.3,295.9,29.1z"/>
</g>
</svg>
