<?xml version="1.0" encoding="utf-8"?>
<!-- Generator: Adobe Illustrator 18.1.0, SVG Export Plug-In . SVG Version: 6.00 Build 0)  -->
<svg version="1.1" id="Layer_1" xmlns="http://www.w3.org/2000/svg" xmlns:xlink="http://www.w3.org/1999/xlink" x="0px" y="0px"
	 viewBox="0 0 188 194" enable-background="new 0 0 188 194" xml:space="preserve">
<g>
	<path fill="#6D4F3D" d="M58.09,35.82l-7.18-14.5C33.07,31.51,19.18,47.84,12.13,67.43l16.1,4.48
		C33.77,56.72,44.42,44.01,58.09,35.82z"/>
	<path fill="#6D4F3D" d="M24,95.91c0-4.59,0.45-9.06,1.3-13.4L9.07,77.99C7.72,84.08,7,90.41,7,96.91
		c0,17.52,5.18,33.83,14.09,47.48l14.11-10.52C28.12,122.93,24,109.91,24,95.91z"/>
	<path fill="#6D4F3D" d="M88.5,26.15V10.09c-9.76,0.61-19.09,2.83-27.71,6.39l7.16,14.46C74.38,28.36,81.29,26.71,88.5,26.15z"/>
	<path fill="#6D4F3D" d="M94,165.91c-20.71,0-39.31-9-52.13-23.29l-14.2,10.58c15.96,18.78,39.75,30.71,66.33,30.71
		c10.64,0,20.82-1.91,30.25-5.41l-7.31-16.46C109.74,164.54,102.03,165.91,94,165.91z"/>
	<path fill="#6D4F3D" d="M127.01,157.64l7.28,16.39c20.53-10.75,36.24-29.45,43.02-52.02l-16.85-4.13
		C154.8,135.02,142.7,149.24,127.01,157.64z"/>
	<path fill="#6D4F3D" d="M99.5,10.09v16.06C135.59,28.95,164,59.1,164,95.91c0,3.84-0.32,7.61-0.92,11.28l16.73,4.1
		c0.78-4.68,1.19-9.48,1.19-14.38C181,50.71,144.99,12.93,99.5,10.09z"/>
</g>
</svg>
