<?xml version="1.0" encoding="utf-8"?>
<!-- Generator: Adobe Illustrator 18.1.0, SVG Export Plug-In . SVG Version: 6.00 Build 0)  -->
<svg version="1.1" id="Layer_1" xmlns="http://www.w3.org/2000/svg" xmlns:xlink="http://www.w3.org/1999/xlink" x="0px" y="0px"
	 viewBox="197.5 197.5 165 165" enable-background="new 197.5 197.5 165 165" xml:space="preserve">
<g>
	<path fill="#482E1F" d="M222.2,214.2c0,5.5-4.5,10-10,10c-5.5,0-10-4.5-10-10s4.5-10,10-10C217.7,204.2,222.2,208.6,222.2,214.2"/>
	<path fill="#482E1F" d="M249.3,214.2c0,5.5-4.5,10-10,10c-5.5,0-10-4.5-10-10s4.5-10,10-10C244.9,204.2,249.3,208.6,249.3,214.2"/>
	<path fill="#482E1F" d="M276.5,214.2c0,5.5-4.5,10-10,10c-5.5,0-10-4.5-10-10s4.5-10,10-10C272,204.2,276.5,208.6,276.5,214.2"/>
	<path fill="#482E1F" d="M303.6,214.2c0,5.5-4.5,10-10,10c-5.5,0-10-4.5-10-10s4.5-10,10-10C299.1,204.2,303.6,208.6,303.6,214.2"/>
	<path fill="#482E1F" d="M330.7,214.2c0,5.5-4.5,10-10,10c-5.5,0-10-4.5-10-10s4.5-10,10-10C326.2,204.2,330.7,208.6,330.7,214.2"/>
	<path fill="#482E1F" d="M357.8,214.2c0,5.5-4.5,10-10,10c-5.5,0-10-4.5-10-10s4.5-10,10-10C353.3,204.2,357.8,208.6,357.8,214.2"/>
	<path fill="#482E1F" d="M222.2,240.5c0,5.5-4.5,10-10,10c-5.5,0-10-4.5-10-10s4.5-10,10-10C217.7,230.5,222.2,235,222.2,240.5"/>
	<path fill="#482E1F" d="M249.3,240.5c0,5.5-4.5,10-10,10c-5.5,0-10-4.5-10-10s4.5-10,10-10C244.9,230.5,249.3,235,249.3,240.5"/>
	<path fill="#482E1F" d="M276.5,240.5c0,5.5-4.5,10-10,10c-5.5,0-10-4.5-10-10s4.5-10,10-10C272,230.5,276.5,235,276.5,240.5"/>
	<path fill="#482E1F" d="M303.6,240.5c0,5.5-4.5,10-10,10c-5.5,0-10-4.5-10-10s4.5-10,10-10C299.1,230.5,303.6,235,303.6,240.5"/>
	<path fill="#482E1F" d="M330.7,240.5c0,5.5-4.5,10-10,10c-5.5,0-10-4.5-10-10s4.5-10,10-10C326.2,230.5,330.7,235,330.7,240.5"/>
	<path fill="#482E1F" d="M357.8,240.5c0,5.5-4.5,10-10,10c-5.5,0-10-4.5-10-10s4.5-10,10-10C353.3,230.5,357.8,235,357.8,240.5"/>
	<path fill="#482E1F" d="M222.2,266.8c0,5.5-4.5,10-10,10c-5.5,0-10-4.5-10-10s4.5-10,10-10C217.7,256.8,222.2,261.3,222.2,266.8"/>
	<path fill="#482E1F" d="M249.3,266.8c0,5.5-4.5,10-10,10c-5.5,0-10-4.5-10-10s4.5-10,10-10C244.9,256.8,249.3,261.3,249.3,266.8"/>
	<path fill="#482E1F" d="M276.5,266.8c0,5.5-4.5,10-10,10c-5.5,0-10-4.5-10-10s4.5-10,10-10C272,256.8,276.5,261.3,276.5,266.8"/>
	<path fill="#482E1F" d="M303.6,266.8c0,5.5-4.5,10-10,10c-5.5,0-10-4.5-10-10s4.5-10,10-10C299.1,256.8,303.6,261.3,303.6,266.8"/>
	<path fill="#482E1F" d="M222.2,293.2c0,5.5-4.5,10-10,10c-5.5,0-10-4.5-10-10c0-5.5,4.5-10,10-10
		C217.7,283.2,222.2,287.6,222.2,293.2"/>
	<path fill="#482E1F" d="M249.3,293.2c0,5.5-4.5,10-10,10c-5.5,0-10-4.5-10-10c0-5.5,4.5-10,10-10
		C244.9,283.2,249.3,287.6,249.3,293.2"/>
	<path fill="#482E1F" d="M276.5,293.2c0,5.5-4.5,10-10,10c-5.5,0-10-4.5-10-10c0-5.5,4.5-10,10-10
		C272,283.2,276.5,287.6,276.5,293.2"/>
	<path fill="#482E1F" d="M303.6,293.2c0,5.5-4.5,10-10,10c-5.5,0-10-4.5-10-10c0-5.5,4.5-10,10-10S303.6,287.6,303.6,293.2"/>
	<path fill="#482E1F" d="M330.7,266.8c0,5.5-4.5,10-10,10c-5.5,0-10-4.5-10-10s4.5-10,10-10C326.2,256.8,330.7,261.3,330.7,266.8"/>
	<path fill="#482E1F" d="M357.8,266.8c0,5.5-4.5,10-10,10c-5.5,0-10-4.5-10-10s4.5-10,10-10C353.3,256.8,357.8,261.3,357.8,266.8"/>
	<path fill="#EBE5D6" d="M330.7,293.2c0,5.5-4.5,10-10,10c-5.5,0-10-4.5-10-10c0-5.5,4.5-10,10-10
		C326.2,283.2,330.7,287.6,330.7,293.2"/>
	<path fill="#482E1F" d="M357.8,293.2c0,5.5-4.5,10-10,10c-5.5,0-10-4.5-10-10c0-5.5,4.5-10,10-10
		C353.3,283.2,357.8,287.6,357.8,293.2"/>
	<path fill="#482E1F" d="M222.2,319.5c0,5.5-4.5,10-10,10c-5.5,0-10-4.5-10-10c0-5.5,4.5-10,10-10
		C217.7,309.5,222.2,314,222.2,319.5"/>
	<path fill="#482E1F" d="M249.3,319.5c0,5.5-4.5,10-10,10c-5.5,0-10-4.5-10-10c0-5.5,4.5-10,10-10
		C244.9,309.5,249.3,314,249.3,319.5"/>
	<path fill="#482E1F" d="M276.5,319.5c0,5.5-4.5,10-10,10c-5.5,0-10-4.5-10-10c0-5.5,4.5-10,10-10C272,309.5,276.5,314,276.5,319.5"
		/>
	<path fill="#482E1F" d="M303.6,319.5c0,5.5-4.5,10-10,10c-5.5,0-10-4.5-10-10c0-5.5,4.5-10,10-10S303.6,314,303.6,319.5"/>
	<path fill="#482E1F" d="M330.7,319.5c0,5.5-4.5,10-10,10c-5.5,0-10-4.5-10-10c0-5.5,4.5-10,10-10
		C326.2,309.5,330.7,314,330.7,319.5"/>
	<path fill="#482E1F" d="M357.8,319.5c0,5.5-4.5,10-10,10c-5.5,0-10-4.5-10-10c0-5.5,4.5-10,10-10
		C353.3,309.5,357.8,314,357.8,319.5"/>
	<path fill="#482E1F" d="M222.2,345.8c0,5.5-4.5,10-10,10c-5.5,0-10-4.5-10-10c0-5.5,4.5-10,10-10
		C217.7,335.8,222.2,340.3,222.2,345.8"/>
	<path fill="#482E1F" d="M249.3,345.8c0,5.5-4.5,10-10,10c-5.5,0-10-4.5-10-10c0-5.5,4.5-10,10-10
		C244.9,335.8,249.3,340.3,249.3,345.8"/>
	<path fill="#482E1F" d="M276.5,345.8c0,5.5-4.5,10-10,10c-5.5,0-10-4.5-10-10c0-5.5,4.5-10,10-10
		C272,335.8,276.5,340.3,276.5,345.8"/>
	<path fill="#482E1F" d="M303.6,345.8c0,5.5-4.5,10-10,10c-5.5,0-10-4.5-10-10c0-5.5,4.5-10,10-10S303.6,340.3,303.6,345.8"/>
	<path fill="#482E1F" d="M330.7,345.8c0,5.5-4.5,10-10,10c-5.5,0-10-4.5-10-10c0-5.5,4.5-10,10-10
		C326.2,335.8,330.7,340.3,330.7,345.8"/>
	<path fill="#482E1F" d="M357.8,345.8c0,5.5-4.5,10-10,10c-5.5,0-10-4.5-10-10c0-5.5,4.5-10,10-10
		C353.3,335.8,357.8,340.3,357.8,345.8"/>
</g>
</svg>
