<?xml version="1.0" encoding="utf-8"?>
<!-- Generator: Adobe Illustrator 18.1.0, SVG Export Plug-In . SVG Version: 6.00 Build 0)  -->
<svg version="1.1" id="Isolation_Mode" xmlns="http://www.w3.org/2000/svg" xmlns:xlink="http://www.w3.org/1999/xlink" x="0px"
	 y="0px" viewBox="0 0 396.04 557.6" enable-background="new 0 0 396.04 557.6" xml:space="preserve">
<path fill="#801517" d="M186.04,534.63c-9.48-1.61-19.05-2.8-28.43-4.89c-35.97-8.01-66.67-25.65-91.69-52.57
	c-32.58-35.04-49.03-76.72-48.94-124.7c0.04-21.02,6.42-40.68,13.93-59.95c19.67-50.53,46.75-97.2,76.83-142.01
	c27.92-41.6,57.65-81.98,86.6-122.89c1.03-1.45,2.27-2.75,3.86-4.65c6.65,8.72,13.3,16.78,19.25,25.35
	c26.77,38.56,54.08,76.77,79.78,116.04c26.89,41.11,50.76,83.99,68.71,129.96c26.52,67.95,11.86,128.17-34.89,181.6
	c-27.49,31.41-63.22,49.23-104.28,56.32c-5.54,0.96-11.14,1.6-16.72,2.39C202.04,534.63,194.04,534.63,186.04,534.63z M99.59,347.53
	c-0.42-4.95-0.25-10.05-1.38-14.84c-2.9-12.27-13.46-15.34-21.75-5.82c-4.64,5.33-8.34,12.19-10.33,18.99
	c-5.52,18.88-3.98,37.92,1.59,56.63c15.97,53.61,68.49,88.48,122.8,89.49c12.38,0.23,24.25-1.58,35.03-8.04
	c3.23-1.93,7.78-4.34,6.17-8.41c-0.87-2.2-5.97-3.59-9.26-3.81c-16.46-1.07-32.39-4.43-47.31-11.38
	C127.25,438.06,100.75,401.15,99.59,347.53z"/>
</svg>
