<?xml version="1.0" encoding="utf-8"?>
<!-- Generator: Adobe Illustrator 18.1.0, SVG Export Plug-In . SVG Version: 6.00 Build 0)  -->
<svg version="1.1" id="NUTRITION_x2F_ALLERGENS" xmlns="http://www.w3.org/2000/svg" xmlns:xlink="http://www.w3.org/1999/xlink"
	 x="0px" y="0px" viewBox="0 0 74 51" enable-background="new 0 0 74 51" xml:space="preserve">
<path fill="#010101" d="M-742.35,29.38"/>
<g>
	<polygon fill="#FEFFFF" stroke="#FEFFFF" stroke-miterlimit="10" points="65.17,5.5 9.35,5.5 37.14,30.25 	"/>
	<path fill="#FEFFFF" stroke="#FEFFFF" stroke-miterlimit="10" d="M65.17,5.5L37.14,30.25L9.35,5.5H65.17z"/>
	<path fill="#FEFFFF" stroke="#FEFFFF" stroke-miterlimit="10" d="M69.58,42.91c0.07-0.24-0.08-0.48-0.08-0.72V8.72L50.09,25.94
		L69.58,42.91z"/>
	<path fill="#FEFFFF" stroke="#FEFFFF" stroke-miterlimit="10" d="M69.5,42.2c0,0.24,0.15,0.47,0.08,0.72L50.09,25.94L69.5,8.72
		V42.2z"/>
	<path fill="#FEFFFF" stroke="#FEFFFF" stroke-miterlimit="10" d="M3.96,8.48C3.95,8.56,3.5,8.64,3.5,8.72V42.2
		c0,0.13,0.46,0.26,0.47,0.38l19.5-16.71L3.96,8.48z"/>
	<path fill="#FEFFFF" stroke="#FEFFFF" stroke-miterlimit="10" d="M3.5,42.2V8.72c0-0.08,0.45-0.15,0.46-0.23l19.74,17.38
		L3.86,42.58C3.84,42.45,3.5,42.32,3.5,42.2z"/>
	<polygon fill="#FEFFFF" stroke="#FEFFFF" stroke-miterlimit="10" points="28.2,30.11 9.58,46.5 64.24,46.5 46.06,30.16 
		37.12,38.06 	"/>
	<path fill="#FEFFFF" stroke="#FEFFFF" stroke-miterlimit="10" d="M46.06,30.16L64.24,46.5H9.58L28.2,30.11l8.92,7.95L46.06,30.16z"
		/>
</g>
</svg>
