<?xml version="1.0" encoding="utf-8"?>
<!-- Generator: Adobe Illustrator 18.1.0, SVG Export Plug-In . SVG Version: 6.00 Build 0)  -->
<svg version="1.1" id="NUTRITION_x2F_ALLERGENS" xmlns="http://www.w3.org/2000/svg" xmlns:xlink="http://www.w3.org/1999/xlink"
	 x="0px" y="0px" viewBox="23 119 514 322" enable-background="new 23 119 514 322" xml:space="preserve">
<path fill="#010101" d="M-5617.78,309.36"/>
<g>
	<polygon fill="#C4161C" stroke="#FEFFFF" stroke-miterlimit="10" points="496.59,124.86 74.17,124.86 284.47,312.16 	"/>
	<path fill="#C4161C" stroke="#FEFFFF" stroke-miterlimit="10" d="M496.59,124.86l-212.12,187.3l-210.3-187.3H496.59z"/>
	<path fill="#C4161C" stroke="#FEFFFF" stroke-miterlimit="10" d="M529.96,407.97c0.53-1.82-0.61-3.63-0.61-5.45V149.23
		L382.47,279.55L529.96,407.97z"/>
	<path fill="#C4161C" stroke="#FEFFFF" stroke-miterlimit="10" d="M529.36,402.59c0,1.82,1.14,3.56,0.61,5.45l-147.49-128.5
		l146.89-130.31V402.59z"/>
	<path fill="#C4161C" stroke="#FEFFFF" stroke-miterlimit="10" d="M33.38,147.42c-0.08,0.61-3.48,1.21-3.48,1.82v253.36
		c0,0.98,3.48,1.97,3.56,2.88l147.57-126.45L33.38,147.42z"/>
	<path fill="#C4161C" stroke="#FEFFFF" stroke-miterlimit="10" d="M29.9,402.59V149.23c0-0.61,3.41-1.14,3.48-1.74l149.38,131.52
		L32.62,405.47C32.47,404.49,29.9,403.5,29.9,402.59z"/>
	<polygon fill="#C4161C" stroke="#FEFFFF" stroke-miterlimit="10" points="216.82,311.1 75.91,435.14 489.55,435.14 351.97,311.48 
		284.32,371.26 	"/>
	<path fill="#C4161C" stroke="#FEFFFF" stroke-miterlimit="10" d="M351.97,311.48l137.58,123.65H75.91L216.82,311.1l67.5,60.16
		L351.97,311.48z"/>
</g>
</svg>
