<?xml version="1.0" encoding="utf-8"?>
<!-- Generator: Adobe Illustrator 18.1.0, SVG Export Plug-In . SVG Version: 6.00 Build 0)  -->
<svg version="1.1" id="Layer_1" xmlns="http://www.w3.org/2000/svg" xmlns:xlink="http://www.w3.org/1999/xlink" x="0px" y="0px"
	 viewBox="0 29.8 560 548.2" enable-background="new 0 29.8 560 548.2" xml:space="preserve">
<g>
	<path fill="#5E769F" d="M320.17,99.24c-1.87,0-3.74-0.55-5.39-1.64c-4.47-2.97-5.71-9.04-2.74-13.51l28.58-43
		c-18.72-3.06-38.3-4.75-58.43-4.88l-38.99,58.66c-1.87,2.83-4.98,4.34-8.13,4.34c-1.87,0-3.74-0.55-5.39-1.64
		c-4.47-2.97-5.71-9.04-2.74-13.51l31.45-47.2C133,43.91,34.63,111.93,34.63,194.79c0,3.56,0.18,7.12,0.55,10.64h489.61
		c0.37-3.52,0.55-7.08,0.55-10.64c0-69.16-68.52-127.96-164.02-149.64L328.25,94.9C326.43,97.69,323.32,99.24,320.17,99.24z"/>
	<path fill="#5E769F" d="M35.22,486.96c-0.37,3.52-0.55,7.08-0.55,10.64c0,74.73,53.73,74,245.37,74c194.66,0,245.37,0.78,245.37-74
		c0-3.56-0.18-7.12-0.55-10.64H35.22z"/>
	<g>
		<path fill="#5E769F" d="M18.19,243.86c-1.1-1.6-1.73-3.47-1.73-5.52c-0.09-5.52,4.25-10,9.68-9.95l507.32,0.5
			c5.48,0,10,4.47,10.09,10s-4.25,10-9.68,9.95l-507.32-0.5C23.12,248.29,20.02,246.55,18.19,243.86z"/>
	</g>
	<path fill="#5E769F" d="M18.19,462.18c-1.1-1.6-1.73-3.47-1.73-5.52c-0.09-5.52,4.25-10,9.68-9.95l507.32,0.5
		c5.48,0,10,4.47,10.09,10c0.09,5.52-4.25,10-9.68,9.95l-507.32-0.5C23.12,466.65,20.02,464.87,18.19,462.18z"/>
	<path fill="#5E769F" d="M340.3,432.73c-2.78,0-5.62-0.91-8.03-2.74l-52.32-39.53l-52.32,39.53c-4.84,3.65-11.23,3.65-16.07,0
		l-52.22-39.53l-52.27,39.53c-4.84,3.65-11.23,3.65-16.07,0l-60.3-45.61c-6.53-4.93-8.17-14.79-3.74-22s13.28-9.08,19.81-4.2
		l52.27,39.53l52.27-39.53c4.84-3.65,11.23-3.65,16.07,0l52.32,39.53l52.32-39.53c4.84-3.65,11.23-3.65,16.07,0l52.32,39.53
		l52.22-39.49c4.84-3.65,11.23-3.65,16.07,0l52.32,39.53l52.32-39.53c6.53-4.93,15.38-3.06,19.81,4.2c4.43,7.21,2.74,17.07-3.74,22
		l-60.35,45.61c-4.84,3.65-11.18,3.65-16.07,0l-52.32-39.53l-52.32,39.49C345.92,431.82,343.14,432.73,340.3,432.73z"/>
</g>
</svg>
