<?xml version="1.0" encoding="utf-8"?>
<!-- Generator: Adobe Illustrator 18.1.0, SVG Export Plug-In . SVG Version: 6.00 Build 0)  -->
<svg version="1.1" id="Layer_1" xmlns="http://www.w3.org/2000/svg" xmlns:xlink="http://www.w3.org/1999/xlink" x="0px" y="0px"
	 viewBox="197.5 197.5 165 165" enable-background="new 197.5 197.5 165 165" xml:space="preserve">
<g>
	<polygon fill="#EDE6D7" points="206.6,285.5 230.2,285.5 230.2,293.5 216,293.5 216,297 229.2,297 229.2,304.3 216,304.3 
		216,313.5 206.6,313.5 	"/>
	<path fill="#EDE6D7" d="M235.2,285.5H249c5,0,8.2,1.2,10.1,3.2c1.7,1.7,2.6,3.8,2.6,6.6v0.1c0,4.1-2.1,6.9-5.6,8.6l6.6,9.5H252
		l-5.3-8h-0.1h-1.9v8h-9.4V285.5z M248.7,298.8c2.3,0,3.6-1,3.6-2.7V296c0-1.8-1.4-2.7-3.6-2.7h-4.1v5.5H248.7L248.7,298.8z"/>
	<polygon fill="#EDE6D7" points="266.8,285.5 290.8,285.5 290.8,293.1 276,293.1 276,296 289.8,296 289.8,302.7 276,302.7 
		276,305.8 291,305.8 291,313.5 266.8,313.5 	"/>
	<path fill="#EDE6D7" d="M294.2,309.3l5-6c3.1,2.3,6.6,3.3,9.9,3.3c1.7,0,2.4-0.4,2.4-1.2v-0.1c0-0.8-0.9-1.2-3.9-1.8
		c-6.3-1.3-11.9-3.1-11.9-9v-0.1c0-5.3,4.2-9.4,11.9-9.4c5.4,0,9.5,1.3,12.7,3.8l-4.6,6.3c-2.7-1.9-5.8-2.8-8.4-2.8
		c-1.4,0-2.1,0.5-2.1,1.2v0.1c0,0.8,0.8,1.2,3.7,1.8c7.2,1.3,12,3.4,12,9v0.1c0,5.9-4.9,9.5-12.4,9.5
		C303,314,297.8,312.4,294.2,309.3"/>
	<polygon fill="#EDE6D7" points="325.9,285.5 335.4,285.5 335.4,295.3 344,295.3 344,285.5 353.4,285.5 353.4,313.5 344,313.5 
		344,303.4 335.4,303.4 335.4,313.5 325.9,313.5 	"/>
	<path fill="#482E1F" d="M299.1,224.6l-10.5,13.1c-0.5,0.6-1.2,0.9-1.9,0.9c-0.5,0-1.1-0.2-1.5-0.5c-1-0.8-1.2-2.3-0.4-3.3l8.9-11.1
		c-2.5-0.4-5.1-0.7-7.8-0.8l-11.6,14.4c-0.5,0.6-1.2,0.9-1.9,0.9c-0.5,0-1-0.2-1.5-0.5c-1-0.8-1.2-2.3-0.4-3.3l9.3-11.6
		c-31.4,0-56.8,15.8-56.8,35.3h113.7C336.9,242.5,321.1,229.4,299.1,224.6"/>
	<rect x="222.1" y="274.1" fill="#482E1F" width="116.1" height="4.8"/>
	<rect x="222.1" y="264.9" fill="#EDE6D7" width="116.1" height="4.8"/>
	<path fill="#482E1F" d="M223.6,320.1v4.2c0,7.2,5.8,13.1,13,13.1h86.8c7.2,0,13-5.9,13-13.1v-4.2H223.6L223.6,320.1z"/>
</g>
</svg>
