<?xml version="1.0" encoding="utf-8"?>
<!-- Generator: Adobe Illustrator 18.1.0, SVG Export Plug-In . SVG Version: 6.00 Build 0)  -->
<svg version="1.1" id="Layer_1" xmlns="http://www.w3.org/2000/svg" xmlns:xlink="http://www.w3.org/1999/xlink" x="0px" y="0px"
	 viewBox="0 0 122 130" enable-background="new 0 0 122 130" xml:space="preserve">
<path fill="#492E1E" d="M70.29,20.18c-0.41,0-0.82-0.12-1.18-0.36c-0.98-0.65-1.25-1.98-0.6-2.96l6.26-9.42
	c-4.1-0.67-8.39-1.04-12.8-1.07l-8.54,12.85c-0.41,0.62-1.09,0.95-1.78,0.95c-0.41,0-0.82-0.12-1.18-0.36
	c-0.98-0.65-1.25-1.98-0.6-2.96l6.88-10.36C29.3,8.06,7.75,22.96,7.75,41.11c0,0.78,0.04,1.56,0.12,2.33h107.25
	c0.08-0.77,0.12-1.55,0.12-2.33c0-15.15-15.01-28.03-35.93-32.78l-7.24,10.9C71.66,19.85,70.99,20.18,70.29,20.18z"/>
<path fill="#492E1E" d="M7.87,107.21c-0.08,0.77-0.12,1.55-0.12,2.33c0,16.37,11.77,16.21,53.75,16.21
	c42.64,0,53.75,0.17,53.75-16.21c0-0.78-0.04-1.56-0.12-2.33H7.87z"/>
<g>
	<path fill="#492E1E" d="M4.15,100.89c-0.24-0.35-0.38-0.76-0.38-1.21c-0.02-1.21,0.93-2.19,2.12-2.18l111.13,0.11
		c1.2,0,2.19,0.98,2.21,2.19c0.02,1.21-0.93,2.19-2.12,2.18L5.98,101.87C5.22,101.87,4.55,101.48,4.15,100.89z"/>
</g>
<g>
	<path fill="#492E1E" d="M4.15,64.82c-0.24-0.35-0.38-0.76-0.38-1.21c-0.02-1.21,0.93-2.19,2.12-2.18l111.13,0.11
		c1.2,0,2.19,0.98,2.21,2.19c0.02,1.21-0.93,2.19-2.12,2.18L5.98,65.8C5.22,65.8,4.55,65.41,4.15,64.82z"/>
</g>
<g>
	<path fill="#492E1E" d="M7.54,70.53h16.91v5.13H13.4v3.59h10v4.86h-10v7.55H7.54V70.53z"/>
	<path fill="#492E1E" d="M28.62,70.53h10c3.23,0,5.47,0.85,6.88,2.29c1.24,1.21,1.87,2.84,1.87,4.92v0.06
		c0,3.23-1.72,5.38-4.35,6.49l5.04,7.37h-6.76l-4.26-6.4h-0.06h-2.51v6.4h-5.86V70.53z M38.35,80.68c1.99,0,3.14-0.97,3.14-2.51
		v-0.06c0-1.66-1.21-2.51-3.17-2.51h-3.83v5.07H38.35z"/>
	<path fill="#492E1E" d="M51.85,70.53h17v4.98h-11.2v3.2h10.15v4.62H57.65v3.35H69v4.98H51.85V70.53z"/>
	<path fill="#492E1E" d="M71.91,88.53l3.26-3.9c2.08,1.66,4.41,2.54,6.85,2.54c1.57,0,2.42-0.54,2.42-1.45v-0.06
		c0-0.88-0.69-1.36-3.56-2.02c-4.5-1.03-7.97-2.29-7.97-6.64v-0.06c0-3.93,3.11-6.76,8.18-6.76c3.59,0,6.4,0.97,8.7,2.81l-2.93,4.14
		c-1.93-1.36-4.05-2.08-5.92-2.08c-1.42,0-2.11,0.6-2.11,1.36v0.06c0,0.97,0.72,1.39,3.65,2.05c4.86,1.06,7.88,2.63,7.88,6.58v0.06
		c0,4.32-3.41,6.88-8.55,6.88C78.07,92.03,74.5,90.85,71.91,88.53z"/>
	<path fill="#492E1E" d="M94.71,70.53h5.86v7.91h7.52v-7.91h5.86v21.14h-5.86v-8.03h-7.52v8.03h-5.86V70.53z"/>
</g>
<g>
	<path fill="#492E1E" d="M74.71,57.41c-0.61,0-1.23-0.12-1.76-0.35L61.5,52.02l-11.46,5.05c-1.06,0.47-2.46,0.47-3.52,0l-11.46-5.05
		l-11.45,5.05c-1.06,0.47-2.46,0.47-3.52,0L6.89,51.24c-1.43-0.63-1.79-1.89-0.82-2.81c0.97-0.92,2.91-1.16,4.34-0.53l11.45,5.05
		l11.45-5.05c1.06-0.47,2.46-0.47,3.52,0l11.46,5.05l11.46-5.05c1.06-0.47,2.46-0.47,3.52,0l11.46,5.05l11.46-5.05
		c1.06-0.47,2.46-0.47,3.52,0l11.46,5.05l11.46-5.05c1.43-0.63,3.37-0.39,4.34,0.53c0.97,0.92,0.6,2.18-0.82,2.81l-13.22,5.82
		c-1.06,0.47-2.45,0.47-3.52,0l-11.46-5.05l-11.46,5.05C75.94,57.3,75.32,57.41,74.71,57.41z"/>
</g>
</svg>
