<?xml version="1.0" encoding="utf-8"?>
<!-- Generator: Adobe Illustrator 18.1.0, SVG Export Plug-In . SVG Version: 6.00 Build 0)  -->
<svg version="1.1" id="Isolation_Mode" xmlns="http://www.w3.org/2000/svg" xmlns:xlink="http://www.w3.org/1999/xlink" x="0px"
	 y="0px" viewBox="0 0 560 560" enable-background="new 0 0 560 560" xml:space="preserve">
<g>
	<path fill="none" stroke="#AF1F24" stroke-miterlimit="10" d="M235.3,96.5H327c-18.3-33-37.1-54.8-46-64.3
		c-8.6,9.3-26.3,30-43.8,60.8C236.6,94.2,236,95.4,235.3,96.5z"/>
	<path fill="none" stroke="#AF1F24" stroke-miterlimit="10" d="M176.9,60.8c9.3-7.2,18.5-13.4,27.5-18.8
		c-35.2,11.2-67.1,30-93.6,54.5h28.6C151.7,82.2,164.7,70.4,176.9,60.8z"/>
	<path fill="none" stroke="#AF1F24" stroke-miterlimit="10" d="M225.6,444.1h110.2c10.8-22.3,21.4-49.9,28.6-82.2H197.2
		C204.3,394.2,214.8,421.8,225.6,444.1z"/>
	<path fill="none" stroke="#AF1F24" stroke-miterlimit="10" d="M124.8,115.2H92.5c-20.8,23.6-37.2,51.1-47.9,81.3h42.1
		C95.6,164,109.2,137.2,124.8,115.2z"/>
	<path fill="none" stroke="#AF1F24" stroke-miterlimit="10" d="M86.3,361.9H44c10.6,30.5,27,58.4,47.8,82.2h32.7
		C108.8,422,95.1,394.8,86.3,361.9z"/>
	<path fill="none" stroke="#AF1F24" stroke-miterlimit="10" d="M164.7,96.5h49.4c2.4-4.7,4.9-9.2,7.3-13.4
		c10.1-17.8,20.2-32.3,28.8-43.4c-17.4,7.3-40,18.8-62.4,36.3C179.5,82.5,171.8,89.3,164.7,96.5z"/>
	<path fill="none" stroke="#AF1F24" stroke-miterlimit="10" d="M348.4,96.5h49.1c-7.4-7.4-15.4-14.3-23.9-20.9
		c-21.8-16.7-43.7-27.8-60.7-34.8c8.4,10.8,18,24.6,27.7,41.5C343.1,86.7,345.8,91.5,348.4,96.5z"/>
	<path fill="none" stroke="#AF1F24" stroke-miterlimit="10" d="M336.7,115.2h-111c-10.6,22.1-21,49.4-28.2,81.3h167.3
		C358,165.3,347.8,138.2,336.7,115.2z"/>
	<path fill="none" stroke="#AF1F24" stroke-miterlimit="10" d="M475.5,196.5h39.9c-10.7-30.2-27.2-57.7-47.9-81.3h-30
		C453.1,137.2,466.7,164,475.5,196.5z"/>
	<path fill="none" stroke="#AF1F24" stroke-miterlimit="10" d="M422.9,96.5h26.4c-25.7-23.7-56.4-42.1-90.3-53.4
		c8.5,5.1,17.2,11,26,17.7C397.4,70.3,410.4,82.1,422.9,96.5z"/>
	<path fill="none" stroke="#AF1F24" stroke-miterlimit="10" d="M456.3,196.5c-8.7-30.4-22.7-57.6-41.8-81.3h-57
		c10.3,22.7,19.9,49.9,26.5,81.3H456.3z"/>
	<path fill="none" stroke="#AF1F24" stroke-miterlimit="10" d="M105.9,196.5h72.5c6.7-31.3,16.4-58.6,26.6-81.3h-57.2
		C128.7,139,114.8,166.2,105.9,196.5z"/>
	<path fill="none" stroke="#AF1F24" stroke-miterlimit="10" d="M437.2,444.1h31c20.8-23.9,37.2-51.7,47.8-82.2h-40.5
		C466.6,394.8,452.9,421.9,437.2,444.1z"/>
	<path fill="none" stroke="#AF1F24" stroke-miterlimit="10" d="M385,498.5c-9.6,7.4-19.1,13.8-28.3,19.3c35.2-11.4,67-30.4,93.4-55
		h-27.6C410.2,477.1,397.3,488.9,385,498.5z"/>
	<path fill="none" stroke="#AF1F24" stroke-miterlimit="10" d="M479.9,215.2h-19h-73.6h-18.9H193.8h-18.9h-73.7h-19H38.8
		c-5.6,20.7-8.6,42.5-8.6,64.9c0,21.8,2.8,42.9,8.1,63.1H82h18.9h73.8h18.9h174.6h18.9H461h18.9h41.8c5.3-20.2,8.1-41.3,8.1-63.1
		c0-22.4-3-44.2-8.6-64.9H479.9z"/>
	<path fill="none" stroke="#AF1F24" stroke-miterlimit="10" d="M397.3,462.8h-49.9c-2.3,4.4-4.6,8.5-6.8,12.4
		c-10.5,18.5-21,33.4-29.8,44.7c17.6-7.2,40.6-18.9,63.4-36.7C382.4,476.8,390.1,470,397.3,462.8z"/>
	<path fill="none" stroke="#AF1F24" stroke-miterlimit="10" d="M326.1,462.8h-90.8c0.6,1.1,1.3,2.3,1.9,3.4
		c17.5,30.5,35.1,50.9,43.7,60c8.6-9.3,26.3-30,43.8-60.8C325.2,464.5,325.7,463.6,326.1,462.8z"/>
	<path fill="none" stroke="#AF1F24" stroke-miterlimit="10" d="M456.3,361.9h-72.8c-6.7,31.8-16.7,59.4-27.1,82.2h57.6
		C433.4,420.1,447.5,392.6,456.3,361.9z"/>
	<path fill="none" stroke="#AF1F24" stroke-miterlimit="10" d="M139.1,462.8h-29.3c27.8,25.9,61.4,45.5,98.6,56.6
		c-10.2-5.8-20.8-12.7-31.5-20.9C164.6,489,151.6,477.2,139.1,462.8z"/>
	<path fill="none" stroke="#AF1F24" stroke-miterlimit="10" d="M105.4,361.9c8.7,30.8,22.8,58.2,42.2,82.2h57.4
		c-10.4-22.9-20.3-50.4-26.9-82.2H105.4z"/>
	<path fill="none" stroke="#AF1F24" stroke-miterlimit="10" d="M214.1,462.8h-49.6c7.4,7.3,15.3,14.3,23.9,20.9
		c22.2,17.1,44.5,28.2,61.8,35.2c-8.6-11-18.6-25.2-28.7-42.8C219,472,216.5,467.5,214.1,462.8z"/>
	<path fill="#550B0E" d="M540.5,215.2c-0.8-3.1-1.6-6.3-2.5-9.3c-0.9-3.1-1.9-6.3-2.9-9.3C500.3,90.4,401,13.3,283.9,11.7h0l0,0
		c-1.3,0-2.6-0.1-3.9-0.1c-0.6,0-1.2,0-1.8,0c0,0-1.8-0.5-3.9,0.1C157.9,14.1,59.5,91,24.9,196.5c-1,3.1-2,6.2-2.9,9.3
		c-0.9,3.1-1.7,6.2-2.5,9.3c-5.2,20.8-7.9,42.5-7.9,64.9c0,21.7,2.6,42.9,7.5,63.1c0.8,3.1,1.6,6.3,2.4,9.3c0.9,3.1,1.8,6.3,2.8,9.3
		C59,470.1,160.5,548.6,280,548.6c1.3,0,2.6,0,3.9-0.1l0,0h0c117.8-1.7,217.4-79.7,251.8-186.6c1-3.1,1.9-6.2,2.8-9.3
		c0.9-3.1,1.7-6.2,2.4-9.3c4.9-20.3,7.5-41.4,7.5-63.1C548.5,257.7,545.7,236,540.5,215.2z M515.4,196.5h-39.9
		c-8.8-32.5-22.4-59.3-38-81.3h30C488.2,138.8,504.6,166.3,515.4,196.5z M225.7,115.2h111c11.1,22.9,21.2,50.1,28.1,81.3H197.5
		C204.6,164.7,215.1,137.4,225.7,115.2z M178.4,196.5h-72.5c8.8-30.3,22.8-57.5,41.9-81.3h57.2C194.8,137.9,185.1,165.2,178.4,196.5
		z M357.4,115.2h57c19.2,23.7,33.1,50.9,41.8,81.3h-72.4C377.4,165.2,367.7,137.9,357.4,115.2z M449.2,96.5h-26.4
		c-12.4-14.4-25.5-26.2-37.9-35.7c-8.8-6.7-17.5-12.6-26-17.7C392.8,54.4,423.5,72.8,449.2,96.5z M373.6,75.6
		c8.6,6.6,16.5,13.5,23.9,20.9h-49.1c-2.6-5.1-5.2-9.8-7.8-14.3c-9.7-16.8-19.4-30.7-27.7-41.5C329.9,47.8,351.8,58.9,373.6,75.6z
		 M281,32.2c8.9,9.5,27.7,31.3,46,64.3h-91.7c0.7-1.2,1.3-2.3,1.9-3.5C254.7,62.2,272.4,41.5,281,32.2z M221.4,83.2
		c-2.4,4.2-4.8,8.7-7.3,13.4h-49.5c7.2-7.2,14.9-14,23.2-20.5c22.4-17.5,44.9-29,62.4-36.3C241.6,50.9,231.5,65.4,221.4,83.2z
		 M204.4,42c-8.9,5.4-18.2,11.6-27.5,18.8c-12.3,9.5-25.2,21.4-37.6,35.7h-28.6C137.3,72,169.2,53.2,204.4,42z M92.5,115.2h32.3
		c-15.6,22-29.2,48.8-38.1,81.3H44.6C55.4,166.3,71.8,138.8,92.5,115.2z M44,361.9h42.3c8.8,32.9,22.5,60.1,38.2,82.2H91.8
		C71,420.3,54.6,392.4,44,361.9z M335.8,444.1H225.6c-10.8-22.3-21.3-49.9-28.4-82.2h167.3C357.2,394.2,346.6,421.8,335.8,444.1z
		 M383.6,361.9h72.8c-8.8,30.7-22.9,58.2-42.3,82.2h-57.6C366.9,421.2,376.8,393.6,383.6,361.9z M205,444.1h-57.4
		c-19.4-24-33.4-51.4-42.2-82.2h72.6C184.7,393.7,194.6,421.2,205,444.1z M109.9,462.8h29.3c12.4,14.4,25.5,26.2,37.8,35.7
		c10.7,8.2,21.3,15.1,31.5,20.9C171.3,508.3,137.6,488.7,109.9,462.8z M188.4,483.7c-8.6-6.6-16.5-13.5-23.9-20.9h49.6
		c2.5,4.7,4.9,9.2,7.3,13.4c10.1,17.5,20.2,31.8,28.7,42.8C232.9,511.9,210.6,500.7,188.4,483.7z M280.9,526.2
		c-8.6-9.1-26.3-29.5-43.7-60c-0.6-1.1-1.3-2.2-1.9-3.4h90.8c-0.5,0.9-1,1.7-1.4,2.5C307.2,496.2,289.5,516.9,280.9,526.2z
		 M340.6,475.2c2.2-3.9,4.5-8.1,6.8-12.4h49.9c-7.2,7.2-14.9,14-23.1,20.4c-22.8,17.8-45.8,29.5-63.4,36.7
		C319.6,508.7,330.1,493.7,340.6,475.2z M356.7,517.8c9.2-5.5,18.8-11.9,28.3-19.3c12.3-9.5,25.2-21.3,37.5-35.7h27.6
		C423.7,487.5,391.9,506.4,356.7,517.8z M468.2,444.1h-31c15.7-22.2,29.5-49.4,38.3-82.2H516C505.4,392.4,489,420.3,468.2,444.1z
		 M521.7,343.2h-41.8h-18.9h-73.9h-18.9H193.6h-18.9h-73.8H81.9H38.3c-5.3-20.2-8.1-41.3-8.1-63.1c0-22.4,3-44.2,8.6-64.9h43.5h19
		h73.7h18.9h174.6h18.9h73.6h19h41.4c5.6,20.7,8.6,42.5,8.6,64.9C529.8,301.9,527,323,521.7,343.2z"/>
</g>
</svg>
