<?xml version="1.0" encoding="utf-8"?>
<!-- Generator: Adobe Illustrator 18.1.0, SVG Export Plug-In . SVG Version: 6.00 Build 0)  -->
<svg version="1.1" id="Isolation_Mode" xmlns="http://www.w3.org/2000/svg" xmlns:xlink="http://www.w3.org/1999/xlink" x="0px"
	 y="0px" viewBox="0 0 299.67 295.67" enable-background="new 0 0 299.67 295.67" xml:space="preserve">
<g>
	<path fill="none" stroke="#AF1F24" stroke-miterlimit="10" d="M125.92,49.66H175c-9.8-17.67-19.84-29.33-24.62-34.4
		c-4.6,4.95-14.06,16.04-23.43,32.55C126.61,48.41,126.27,49.03,125.92,49.66z"/>
	<path fill="none" stroke="#AF1F24" stroke-miterlimit="10" d="M94.69,30.55c4.96-3.85,9.91-7.19,14.69-10.07
		c-18.85,6-35.89,16.07-50.1,29.18h15.31C81.2,41.97,88.11,35.66,94.69,30.55z"/>
	<path fill="none" stroke="#AF1F24" stroke-miterlimit="10" d="M120.72,235.66h58.99c5.77-11.93,11.44-26.71,15.3-44h-89.51
		C109.32,208.97,114.96,223.74,120.72,235.66z"/>
	<path fill="none" stroke="#AF1F24" stroke-miterlimit="10" d="M66.77,59.66H49.51c-11.11,12.62-19.89,27.35-25.64,43.5H46.4
		C51.14,85.78,58.44,71.43,66.77,59.66z"/>
	<path fill="none" stroke="#AF1F24" stroke-miterlimit="10" d="M46.17,191.66H23.53c5.68,16.33,14.44,31.23,25.58,44h17.5
		C58.21,223.8,50.87,209.28,46.17,191.66z"/>
	<path fill="none" stroke="#AF1F24" stroke-miterlimit="10" d="M88.12,49.66h26.46c1.31-2.52,2.61-4.91,3.88-7.15
		c5.42-9.51,10.83-17.27,15.42-23.21c-9.33,3.88-21.4,10.05-33.38,19.4C96.08,42.15,91.96,45.81,88.12,49.66z"/>
	<path fill="none" stroke="#AF1F24" stroke-miterlimit="10" d="M186.42,49.66h26.3c-3.96-3.94-8.22-7.67-12.8-11.19
		c-11.67-8.95-23.36-14.87-32.5-18.64c4.47,5.76,9.64,13.17,14.83,22.19C183.62,44.39,185.02,46.95,186.42,49.66z"/>
	<path fill="none" stroke="#AF1F24" stroke-miterlimit="10" d="M180.18,59.66h-59.41c-5.68,11.84-11.26,26.45-15.07,43.5h89.52
		C191.55,86.48,186.1,71.93,180.18,59.66z"/>
	<path fill="none" stroke="#AF1F24" stroke-miterlimit="10" d="M254.44,103.16h21.36c-5.75-16.15-14.53-30.88-25.64-43.5h-16.04
		C242.44,71.4,249.73,85.76,254.44,103.16z"/>
	<path fill="none" stroke="#AF1F24" stroke-miterlimit="10" d="M226.28,49.66h14.11c-13.75-12.69-30.17-22.53-48.3-28.59
		c4.54,2.73,9.22,5.87,13.92,9.47C212.64,35.63,219.62,41.95,226.28,49.66z"/>
	<path fill="none" stroke="#AF1F24" stroke-miterlimit="10" d="M244.16,103.16c-4.68-16.27-12.14-30.8-22.39-43.5h-30.49
		c5.49,12.14,10.66,26.72,14.17,43.5H244.16z"/>
	<path fill="none" stroke="#AF1F24" stroke-miterlimit="10" d="M56.69,103.16h38.78c3.56-16.76,8.77-31.36,14.26-43.5h-30.6
		C68.89,72.39,61.41,86.92,56.69,103.16z"/>
	<path fill="none" stroke="#AF1F24" stroke-miterlimit="10" d="M233.94,235.66h16.61c11.14-12.77,19.9-27.67,25.58-44h-21.69
		C249.7,209.25,242.35,223.78,233.94,235.66z"/>
	<path fill="none" stroke="#AF1F24" stroke-miterlimit="10" d="M206.03,264.75c-5.13,3.98-10.24,7.4-15.16,10.35
		c18.83-6.09,35.84-16.25,50-29.44h-14.76C219.51,253.33,212.6,259.64,206.03,264.75z"/>
	<path fill="none" stroke="#AF1F24" stroke-miterlimit="10" d="M256.78,113.16h-10.15h-39.37h-10.12h-93.41H93.61H54.19H44.03H20.75
		c-2.98,11.08-4.58,22.72-4.58,34.73c0,11.66,1.51,22.98,4.33,33.77h23.36h10.12h39.48h10.14h93.41h10.13h39.53h10.12h22.39
		c2.82-10.79,4.33-22.11,4.33-33.77c0-12.01-1.6-23.65-4.58-34.73H256.78z"/>
	<path fill="none" stroke="#AF1F24" stroke-miterlimit="10" d="M212.59,245.66h-26.7c-1.22,2.34-2.44,4.56-3.63,6.66
		c-5.64,9.89-11.26,17.89-15.97,23.92c9.4-3.87,21.71-10.09,33.93-19.63C204.63,253.15,208.75,249.5,212.59,245.66z"/>
	<path fill="none" stroke="#AF1F24" stroke-miterlimit="10" d="M174.53,245.66h-48.6c0.34,0.61,0.68,1.22,1.02,1.81
		c9.35,16.32,18.8,27.23,23.4,32.1c4.6-4.95,14.06-16.04,23.43-32.55C174.02,246.57,174.27,246.11,174.53,245.66z"/>
	<path fill="none" stroke="#AF1F24" stroke-miterlimit="10" d="M244.19,191.66h-38.94c-3.61,17-8.92,31.76-14.49,44h30.81
		C231.93,222.79,239.48,208.1,244.19,191.66z"/>
	<path fill="none" stroke="#AF1F24" stroke-miterlimit="10" d="M74.46,245.66H58.8c14.85,13.84,32.85,24.34,52.79,30.31
		c-5.45-3.12-11.15-6.82-16.87-11.21C88.08,259.67,81.11,253.36,74.46,245.66z"/>
	<path fill="none" stroke="#AF1F24" stroke-miterlimit="10" d="M56.41,191.66c4.68,16.48,12.2,31.17,22.56,44h30.7
		c-5.57-12.24-10.84-26.99-14.4-44H56.41z"/>
	<path fill="none" stroke="#AF1F24" stroke-miterlimit="10" d="M114.56,245.66H88.02c3.95,3.93,8.21,7.66,12.78,11.17
		c11.9,9.13,23.82,15.11,33.05,18.86c-4.59-5.86-9.97-13.5-15.38-22.88C117.19,250.57,115.88,248.18,114.56,245.66z"/>
	<path fill="#AF1F24" d="M289.25,113.16c-0.42-1.68-0.87-3.35-1.34-5c-0.48-1.68-1-3.35-1.54-5C267.72,46.4,214.61,5.14,151.91,4.24
		c0,0-0.01,0-0.01,0l0,0c-0.69-0.01-1.38-0.03-2.07-0.03c-0.32,0-0.64,0.01-0.96,0.01c0,0-0.96-0.27-2.09,0.03
		C84.5,5.56,31.85,46.69,13.3,103.16c-0.54,1.65-1.06,3.32-1.54,5c-0.48,1.65-0.93,3.32-1.34,5c-2.77,11.12-4.25,22.76-4.25,34.73
		c0,11.63,1.4,22.94,4.02,33.77c0.41,1.68,0.84,3.35,1.3,5c0.47,1.68,0.98,3.35,1.51,5c18.56,57.88,72.88,99.89,136.84,99.89
		c0.71,0,1.41-0.02,2.11-0.03l0,0c0,0,0.01,0,0.01,0c63.04-0.92,116.36-42.63,134.72-99.87c0.53-1.66,1.04-3.32,1.51-5
		c0.46-1.65,0.89-3.32,1.3-5c2.62-10.84,4.02-22.14,4.02-33.77C293.5,135.91,292.02,124.28,289.25,113.16z M275.8,103.16h-21.36
		c-4.71-17.4-12-31.75-20.32-43.5h16.04C261.27,72.28,270.04,87.01,275.8,103.16z M120.77,59.66h59.41
		c5.92,12.27,11.37,26.83,15.04,43.5H105.7C109.51,86.11,115.08,71.5,120.77,59.66z M95.47,103.16H56.69
		c4.72-16.23,12.19-30.77,22.44-43.5h30.6C104.24,71.8,99.04,86.4,95.47,103.16z M191.27,59.66h30.49
		c10.25,12.7,17.71,27.23,22.39,43.5h-38.72C201.93,86.38,196.75,71.79,191.27,59.66z M240.39,49.66h-14.11
		c-6.66-7.71-13.63-14.03-20.27-19.12c-4.7-3.6-9.38-6.74-13.92-9.47C210.22,27.12,226.63,36.97,240.39,49.66z M199.92,38.47
		c4.58,3.52,8.84,7.25,12.8,11.19h-26.3c-1.4-2.71-2.8-5.26-4.17-7.64c-5.19-9.01-10.36-16.42-14.83-22.19
		C176.56,23.6,188.25,29.52,199.92,38.47z M150.38,15.25c4.78,5.08,14.82,16.74,24.62,34.4h-49.08c0.35-0.63,0.69-1.25,1.04-1.85
		C136.32,31.29,145.78,20.2,150.38,15.25z M118.47,42.5c-1.28,2.24-2.58,4.63-3.88,7.15H88.12c3.84-3.85,7.96-7.5,12.39-10.96
		c11.98-9.36,24.05-15.52,33.38-19.4C129.29,25.24,123.89,32.99,118.47,42.5z M109.38,20.48c-4.78,2.88-9.73,6.22-14.69,10.07
		c-6.58,5.11-13.49,11.43-20.1,19.11H59.28C73.49,36.55,90.53,26.48,109.38,20.48z M49.51,59.66h17.26
		c-8.33,11.77-15.63,26.13-20.37,43.5H23.87C29.62,87.01,38.4,72.28,49.51,59.66z M23.53,191.66h22.63
		c4.71,17.62,12.05,32.14,20.45,44h-17.5C37.97,222.89,29.21,207.99,23.53,191.66z M179.72,235.66h-58.99
		c-5.76-11.92-11.41-26.69-15.21-44h89.51C191.16,208.95,185.48,223.73,179.72,235.66z M205.26,191.66h38.94
		c-4.71,16.44-12.26,31.13-22.62,44h-30.81C196.34,223.41,201.65,208.65,205.26,191.66z M109.68,235.66h-30.7
		c-10.36-12.83-17.89-27.52-22.56-44h38.87C98.84,208.67,104.11,223.42,109.68,235.66z M58.8,245.66h15.66
		c6.65,7.7,13.62,14.01,20.25,19.1c5.72,4.39,11.42,8.09,16.87,11.21C91.65,270,73.65,259.49,58.8,245.66z M100.8,256.83
		c-4.58-3.51-8.83-7.24-12.78-11.17h26.54c1.32,2.52,2.63,4.91,3.92,7.15c5.4,9.38,10.79,17.02,15.38,22.88
		C124.63,271.93,112.71,265.96,100.8,256.83z M150.34,279.57c-4.6-4.87-14.05-15.78-23.4-32.1c-0.34-0.59-0.68-1.19-1.02-1.81h48.6
		c-0.25,0.46-0.51,0.91-0.76,1.36C164.4,263.53,154.94,274.62,150.34,279.57z M182.26,252.31c1.19-2.09,2.41-4.31,3.63-6.66h26.7
		c-3.83,3.84-7.95,7.49-12.37,10.94c-12.21,9.54-24.53,15.76-33.93,19.63C171,270.2,176.62,262.2,182.26,252.31z M190.87,275.1
		c4.93-2.95,10.04-6.37,15.16-10.35c6.57-5.1,13.48-11.42,20.08-19.09h14.76C226.71,258.85,209.7,269.01,190.87,275.1z
		 M250.55,235.66h-16.61c8.41-11.88,15.76-26.41,20.5-44h21.69C270.45,207.99,261.7,222.89,250.55,235.66z M279.17,181.66h-22.39
		h-10.12h-39.53h-10.13h-93.41H93.45H53.97H43.85H20.5c-2.82-10.79-4.33-22.11-4.33-33.77c0-12.01,1.6-23.65,4.58-34.73h23.28h10.16
		h39.42h10.12h93.41h10.12h39.37h10.15h22.13c2.98,11.08,4.58,22.72,4.58,34.73C283.5,159.55,281.99,170.86,279.17,181.66z"/>
</g>
</svg>
