<?xml version="1.0" encoding="utf-8"?>
<!-- Generator: Adobe Illustrator 18.1.0, SVG Export Plug-In . SVG Version: 6.00 Build 0)  -->
<svg version="1.1" id="Isolation_Mode" xmlns="http://www.w3.org/2000/svg" xmlns:xlink="http://www.w3.org/1999/xlink" x="0px"
	 y="0px" viewBox="197.5 197.5 165 165" enable-background="new 197.5 197.5 165 165" xml:space="preserve">
<path fill="#865538" d="M204.2,262.1c-0.8-5.5-0.8-11.2,0-16.7c1.6-11.9,8.7-21.6,20.3-26.5c14.3-6,28.4-5.8,41.6,3.1
	c4.8,3.2,9.2,6.9,14,10.4c3.8-2.9,7.4-5.9,11.2-8.7c8.2-6,17.1-9.4,27.5-8.8c19.8,1.1,34.6,10.8,37.1,30.4c0.7,5.5,0.8,11.2,0,16.7
	c-2.2,14.6-13,25.2-23.6,35.2c-15.4,14.5-30.5,29.3-45.8,44c-5.5,5.3-7.4,5.2-12.8,0c-14.8-14.2-29.4-28.7-44.4-42.7
	C218.1,288.2,206.5,277.4,204.2,262.1z"/>
</svg>
