<?xml version="1.0" encoding="utf-8"?>
<!-- Generator: Adobe Illustrator 18.1.0, SVG Export Plug-In . SVG Version: 6.00 Build 0)  -->
<svg version="1.1" id="Isolation_Mode" xmlns="http://www.w3.org/2000/svg" xmlns:xlink="http://www.w3.org/1999/xlink" x="0px"
	 y="0px" viewBox="197.5 197.5 165 165" enable-background="new 197.5 197.5 165 165" xml:space="preserve">
<g>
	<path fill="#482E1F" d="M207.4,310l6.8-5.7c1.2,1.7,2.4,2.7,4,2.7c1.7,0,2.9-1.4,2.9-3.6v-19.3h10.1v19.1c0,4.1-0.9,6.9-3.2,9.2
		c-2.1,2.1-5.2,3.4-9,3.4C213,315.8,209.6,313.4,207.4,310"/>
	<path fill="#482E1F" d="M236.6,301.2v-17.1h10.6v17c0,3.9,2,5.5,4.8,5.5c2.8,0,4.8-1.5,4.8-5.3v-17.2h10.6V301
		c0,10.6-6.2,14.8-15.4,14.8C242.6,315.8,236.6,311.5,236.6,301.2"/>
	<rect x="273.1" y="284.1" fill="#482E1F" width="10.4" height="31.1"/>
	<path fill="#482E1F" d="M288.2,299.7L288.2,299.7c0-9.4,7.2-16.3,16.5-16.3c6.8,0,11.4,3.3,14.1,8.1l-8.6,5
		c-1.2-2.2-2.8-3.8-5.6-3.8c-3.5,0-5.8,3.1-5.8,6.8v0.1c0,4,2.4,6.9,5.8,6.9c2.9,0,4.6-1.6,5.9-3.9l8.6,4.8c-2.6,4.6-7,8.4-14.7,8.4
		C295.7,315.8,288.2,309.3,288.2,299.7"/>
	<polygon fill="#482E1F" points="330.5,304.2 318.8,284.1 330.4,284.1 335.8,294.3 341.1,284.1 352.6,284.1 340.9,304 340.9,315.2 
		330.5,315.2 	"/>
	<path fill="#776C62" d="M301.7,221.8l-11,13.8c-0.5,0.6-1.2,0.9-2,0.9c-0.5,0-1.1-0.2-1.6-0.5c-1.1-0.9-1.3-2.4-0.4-3.5l9.3-11.7
		c-2.6-0.4-5.4-0.7-8.1-0.9L276,234.9c-0.5,0.6-1.2,0.9-2,0.9c-0.5,0-1.1-0.2-1.6-0.5c-1.1-0.9-1.3-2.4-0.4-3.5l9.7-12.2
		c-32.8,0-59.4,16.6-59.4,37h118.9C341.3,240.6,324.8,226.8,301.7,221.8"/>
	<path fill="#C4161C" d="M330.6,275.1c-4.1,0-6.3-2.3-7.9-4c-1.5-1.6-2.4-2.4-4.3-2.4c-1.9,0-2.8,0.8-4.3,2.4c-1.6,1.7-3.8,4-7.9,4
		c-4.1,0-6.3-2.3-7.9-4c-1.5-1.6-2.4-2.4-4.3-2.4c-1.9,0-2.8,0.8-4.3,2.4c-1.6,1.7-3.8,4-7.9,4c-4.1,0-6.3-2.3-7.9-4
		c-1.5-1.6-2.4-2.4-4.3-2.4s-2.8,0.8-4.3,2.4c-1.6,1.7-3.8,4-7.9,4c-4.1,0-6.3-2.3-7.9-4c-1.5-1.6-2.4-2.4-4.3-2.4
		c-1.9,0-2.8,0.8-4.3,2.4c-1.6,1.7-3.8,4-7.9,4s-6.3-2.3-7.9-4c-1.5-1.6-2.4-2.4-4.3-2.4v-5c4.1,0,6.3,2.3,7.9,4
		c1.5,1.6,2.4,2.4,4.3,2.4c1.9,0,2.8-0.8,4.3-2.4c1.6-1.7,3.8-4,7.9-4c4.1,0,6.3,2.3,7.9,4c1.5,1.6,2.4,2.4,4.3,2.4
		c1.9,0,2.8-0.8,4.3-2.4c1.6-1.7,3.8-4,7.9-4c4.1,0,6.3,2.3,7.9,4c1.5,1.6,2.4,2.4,4.3,2.4s2.8-0.8,4.3-2.4c1.6-1.7,3.8-4,7.9-4
		c4.1,0,6.3,2.3,7.9,4c1.5,1.6,2.4,2.4,4.3,2.4c1.9,0,2.8-0.8,4.3-2.4c1.6-1.7,3.8-4,7.9-4s6.3,2.3,7.9,4c1.5,1.6,2.4,2.4,4.3,2.4
		s2.8-0.8,4.3-2.4c1.6-1.7,3.8-4,7.9-4v5c-1.9,0-2.8,0.8-4.3,2.4C336.8,272.8,334.7,275.1,330.6,275.1"/>
	<path fill="#776C62" d="M222.9,322.2v4.4c0,7.6,6.1,13.8,13.6,13.8h90.7c7.5,0,13.6-6.2,13.6-13.8v-4.4H222.9L222.9,322.2z"/>
</g>
</svg>
