<?xml version="1.0" encoding="utf-8"?>
<!-- Generator: Adobe Illustrator 18.1.0, SVG Export Plug-In . SVG Version: 6.00 Build 0)  -->
<svg version="1.1" id="Isolation_Mode" xmlns="http://www.w3.org/2000/svg" xmlns:xlink="http://www.w3.org/1999/xlink" x="0px"
	 y="0px" viewBox="0 0 560 560" enable-background="new 0 0 560 560" xml:space="preserve">
<g display="none">
	<path display="inline" fill="none" stroke="#AF1F24" stroke-miterlimit="10" d="M235.3,96.5H327c-18.3-33-37.1-54.8-46-64.3
		c-8.6,9.3-26.3,30-43.8,60.8C236.6,94.2,236,95.4,235.3,96.5z"/>
	<path display="inline" fill="none" stroke="#AF1F24" stroke-miterlimit="10" d="M176.9,60.8c9.3-7.2,18.5-13.4,27.5-18.8
		c-35.2,11.2-67.1,30-93.6,54.5h28.6C151.7,82.2,164.7,70.4,176.9,60.8z"/>
	<path display="inline" fill="none" stroke="#AF1F24" stroke-miterlimit="10" d="M225.6,444.1h110.2c10.8-22.3,21.4-49.9,28.6-82.2
		H197.2C204.3,394.2,214.8,421.8,225.6,444.1z"/>
	<path display="inline" fill="none" stroke="#AF1F24" stroke-miterlimit="10" d="M124.8,115.2H92.5c-20.8,23.6-37.2,51.1-47.9,81.3
		h42.1C95.6,164,109.2,137.2,124.8,115.2z"/>
	<path display="inline" fill="none" stroke="#AF1F24" stroke-miterlimit="10" d="M86.3,361.9H44c10.6,30.5,27,58.4,47.8,82.2h32.7
		C108.8,422,95.1,394.8,86.3,361.9z"/>
	<path display="inline" fill="none" stroke="#AF1F24" stroke-miterlimit="10" d="M164.7,96.5h49.4c2.4-4.7,4.9-9.2,7.3-13.4
		c10.1-17.8,20.2-32.3,28.8-43.4c-17.4,7.3-40,18.8-62.4,36.3C179.5,82.5,171.8,89.3,164.7,96.5z"/>
	<path display="inline" fill="none" stroke="#AF1F24" stroke-miterlimit="10" d="M348.4,96.5h49.1c-7.4-7.4-15.4-14.3-23.9-20.9
		c-21.8-16.7-43.7-27.8-60.7-34.8c8.4,10.8,18,24.6,27.7,41.5C343.1,86.7,345.8,91.5,348.4,96.5z"/>
	<path display="inline" fill="none" stroke="#AF1F24" stroke-miterlimit="10" d="M336.7,115.2h-111c-10.6,22.1-21,49.4-28.2,81.3
		h167.3C358,165.3,347.8,138.2,336.7,115.2z"/>
	<path display="inline" fill="none" stroke="#AF1F24" stroke-miterlimit="10" d="M475.5,196.5h39.9c-10.7-30.2-27.2-57.7-47.9-81.3
		h-30C453.1,137.2,466.7,164,475.5,196.5z"/>
	<path display="inline" fill="none" stroke="#AF1F24" stroke-miterlimit="10" d="M422.9,96.5h26.4c-25.7-23.7-56.4-42.1-90.3-53.4
		c8.5,5.1,17.2,11,26,17.7C397.4,70.3,410.4,82.1,422.9,96.5z"/>
	<path display="inline" fill="none" stroke="#AF1F24" stroke-miterlimit="10" d="M456.3,196.5c-8.7-30.4-22.7-57.6-41.8-81.3h-57
		c10.3,22.7,19.9,49.9,26.5,81.3H456.3z"/>
	<path display="inline" fill="none" stroke="#AF1F24" stroke-miterlimit="10" d="M105.9,196.5h72.5c6.7-31.3,16.4-58.6,26.6-81.3
		h-57.2C128.7,139,114.8,166.2,105.9,196.5z"/>
	<path display="inline" fill="none" stroke="#AF1F24" stroke-miterlimit="10" d="M437.2,444.1h31c20.8-23.9,37.2-51.7,47.8-82.2
		h-40.5C466.6,394.8,452.9,421.9,437.2,444.1z"/>
	<path display="inline" fill="none" stroke="#AF1F24" stroke-miterlimit="10" d="M385,498.5c-9.6,7.4-19.1,13.8-28.3,19.3
		c35.2-11.4,67-30.4,93.4-55h-27.6C410.2,477.1,397.3,488.9,385,498.5z"/>
	<path display="inline" fill="none" stroke="#AF1F24" stroke-miterlimit="10" d="M479.9,215.2h-19h-73.6h-18.9H193.8h-18.9h-73.7
		h-19H38.8c-5.6,20.7-8.6,42.5-8.6,64.9c0,21.8,2.8,42.9,8.1,63.1H82h18.9h73.8h18.9h174.6h18.9H461h18.9h41.8
		c5.3-20.2,8.1-41.3,8.1-63.1c0-22.4-3-44.2-8.6-64.9H479.9z"/>
	<path display="inline" fill="none" stroke="#AF1F24" stroke-miterlimit="10" d="M397.3,462.8h-49.9c-2.3,4.4-4.6,8.5-6.8,12.4
		c-10.5,18.5-21,33.4-29.8,44.7c17.6-7.2,40.6-18.9,63.4-36.7C382.4,476.8,390.1,470,397.3,462.8z"/>
	<path display="inline" fill="none" stroke="#AF1F24" stroke-miterlimit="10" d="M326.1,462.8h-90.8c0.6,1.1,1.3,2.3,1.9,3.4
		c17.5,30.5,35.1,50.9,43.7,60c8.6-9.3,26.3-30,43.8-60.8C325.2,464.5,325.7,463.6,326.1,462.8z"/>
	<path display="inline" fill="none" stroke="#AF1F24" stroke-miterlimit="10" d="M456.3,361.9h-72.8c-6.7,31.8-16.7,59.4-27.1,82.2
		h57.6C433.4,420.1,447.5,392.6,456.3,361.9z"/>
	<path display="inline" fill="none" stroke="#AF1F24" stroke-miterlimit="10" d="M139.1,462.8h-29.3c27.8,25.9,61.4,45.5,98.6,56.6
		c-10.2-5.8-20.8-12.7-31.5-20.9C164.6,489,151.6,477.2,139.1,462.8z"/>
	<path display="inline" fill="none" stroke="#AF1F24" stroke-miterlimit="10" d="M105.4,361.9c8.7,30.8,22.8,58.2,42.2,82.2h57.4
		c-10.4-22.9-20.3-50.4-26.9-82.2H105.4z"/>
	<path display="inline" fill="none" stroke="#AF1F24" stroke-miterlimit="10" d="M214.1,462.8h-49.6c7.4,7.3,15.3,14.3,23.9,20.9
		c22.2,17.1,44.5,28.2,61.8,35.2c-8.6-11-18.6-25.2-28.7-42.8C219,472,216.5,467.5,214.1,462.8z"/>
	<path display="inline" fill="#AF1F24" d="M540.5,215.2c-0.8-3.1-1.6-6.3-2.5-9.3c-0.9-3.1-1.9-6.3-2.9-9.3
		C500.3,90.4,401,13.3,283.9,11.7h0l0,0c-1.3,0-2.6-0.1-3.9-0.1c-0.6,0-1.2,0-1.8,0c0,0-1.8-0.5-3.9,0.1
		C157.9,14.1,59.5,91,24.9,196.5c-1,3.1-2,6.2-2.9,9.3c-0.9,3.1-1.7,6.2-2.5,9.3c-5.2,20.8-7.9,42.5-7.9,64.9
		c0,21.7,2.6,42.9,7.5,63.1c0.8,3.1,1.6,6.3,2.4,9.3c0.9,3.1,1.8,6.3,2.8,9.3C59,470.1,160.5,548.6,280,548.6c1.3,0,2.6,0,3.9-0.1
		l0,0h0c117.8-1.7,217.4-79.7,251.8-186.6c1-3.1,1.9-6.2,2.8-9.3c0.9-3.1,1.7-6.2,2.4-9.3c4.9-20.3,7.5-41.4,7.5-63.1
		C548.5,257.7,545.7,236,540.5,215.2z M515.4,196.5h-39.9c-8.8-32.5-22.4-59.3-38-81.3h30C488.2,138.8,504.6,166.3,515.4,196.5z
		 M225.7,115.2h111c11.1,22.9,21.2,50.1,28.1,81.3H197.5C204.6,164.7,215.1,137.4,225.7,115.2z M178.4,196.5h-72.5
		c8.8-30.3,22.8-57.5,41.9-81.3h57.2C194.8,137.9,185.1,165.2,178.4,196.5z M357.4,115.2h57c19.2,23.7,33.1,50.9,41.8,81.3h-72.4
		C377.4,165.2,367.7,137.9,357.4,115.2z M449.2,96.5h-26.4c-12.4-14.4-25.5-26.2-37.9-35.7c-8.8-6.7-17.5-12.6-26-17.7
		C392.8,54.4,423.5,72.8,449.2,96.5z M373.6,75.6c8.6,6.6,16.5,13.5,23.9,20.9h-49.1c-2.6-5.1-5.2-9.8-7.8-14.3
		c-9.7-16.8-19.4-30.7-27.7-41.5C329.9,47.8,351.8,58.9,373.6,75.6z M281,32.2c8.9,9.5,27.7,31.3,46,64.3h-91.7
		c0.7-1.2,1.3-2.3,1.9-3.5C254.7,62.2,272.4,41.5,281,32.2z M221.4,83.2c-2.4,4.2-4.8,8.7-7.3,13.4h-49.5c7.2-7.2,14.9-14,23.2-20.5
		c22.4-17.5,44.9-29,62.4-36.3C241.6,50.9,231.5,65.4,221.4,83.2z M204.4,42c-8.9,5.4-18.2,11.6-27.5,18.8
		c-12.3,9.5-25.2,21.4-37.6,35.7h-28.6C137.3,72,169.2,53.2,204.4,42z M92.5,115.2h32.3c-15.6,22-29.2,48.8-38.1,81.3H44.6
		C55.4,166.3,71.8,138.8,92.5,115.2z M44,361.9h42.3c8.8,32.9,22.5,60.1,38.2,82.2H91.8C71,420.3,54.6,392.4,44,361.9z M335.8,444.1
		H225.6c-10.8-22.3-21.3-49.9-28.4-82.2h167.3C357.2,394.2,346.6,421.8,335.8,444.1z M383.6,361.9h72.8
		c-8.8,30.7-22.9,58.2-42.3,82.2h-57.6C366.9,421.2,376.8,393.6,383.6,361.9z M205,444.1h-57.4c-19.4-24-33.4-51.4-42.2-82.2h72.6
		C184.7,393.7,194.6,421.2,205,444.1z M109.9,462.8h29.3c12.4,14.4,25.5,26.2,37.8,35.7c10.7,8.2,21.3,15.1,31.5,20.9
		C171.3,508.3,137.6,488.7,109.9,462.8z M188.4,483.7c-8.6-6.6-16.5-13.5-23.9-20.9h49.6c2.5,4.7,4.9,9.2,7.3,13.4
		c10.1,17.5,20.2,31.8,28.7,42.8C232.9,511.9,210.6,500.7,188.4,483.7z M280.9,526.2c-8.6-9.1-26.3-29.5-43.7-60
		c-0.6-1.1-1.3-2.2-1.9-3.4h90.8c-0.5,0.9-1,1.7-1.4,2.5C307.2,496.2,289.5,516.9,280.9,526.2z M340.6,475.2
		c2.2-3.9,4.5-8.1,6.8-12.4h49.9c-7.2,7.2-14.9,14-23.1,20.4c-22.8,17.8-45.8,29.5-63.4,36.7C319.6,508.7,330.1,493.7,340.6,475.2z
		 M356.7,517.8c9.2-5.5,18.8-11.9,28.3-19.3c12.3-9.5,25.2-21.3,37.5-35.7h27.6C423.7,487.5,391.9,506.4,356.7,517.8z M468.2,444.1
		h-31c15.7-22.2,29.5-49.4,38.3-82.2H516C505.4,392.4,489,420.3,468.2,444.1z M521.7,343.2h-41.8h-18.9h-73.9h-18.9H193.6h-18.9
		h-73.8H81.9H38.3c-5.3-20.2-8.1-41.3-8.1-63.1c0-22.4,3-44.2,8.6-64.9h43.5h19h73.7h18.9h174.6h18.9h73.6h19h41.4
		c5.6,20.7,8.6,42.5,8.6,64.9C529.8,301.9,527,323,521.7,343.2z"/>
</g>
<g id="ai0Blq_1_">
	<g>
		<path fill="#5E82A0" d="M280,21.6c4.6,8.9,8.5,16.7,12.6,24.6c8.6,1.4,17.1,2.8,27.2,4.4c-7.2,7.1-13.3,13.2-19.5,19.2
			c1.4,8.7,2.7,17.2,4.3,27.4c-9.1-4.6-16.7-8.4-24.7-12.5c-7.6,4-15.3,8.1-24.3,12.8c1.5-10,2.7-18.6,4-27.4
			c-6.2-6.3-12.1-12.3-19.2-19.5c10.1-1.6,18.5-3,27.3-4.4C271.6,38.4,275.5,30.7,280,21.6z"/>
		<path fill="#5E82A0" d="M511.4,404.8c-0.6,2.2-0.6,3.4-1.1,4.3c-8.5,14.2-19.8,24.9-36.8,27.6c-5.4,0.8-12.4,1.5-15.5-3.6
			c-3.5-5.7,1.3-11.9,5.9-16.4c6.3-6.2,14.1-9.5,22.5-11.3c5.8-1.2,11.9-1.5,17.9-1.9C506.4,403.4,508.6,404.2,511.4,404.8z"/>
		<path fill="#5E82A0" d="M383.8,114.2c5-3.2,10.4-3,15.4-3c13.4,0.1,26.4,2.5,37.8,10.2c5.1,3.4,12.6,7.7,10.4,14.2
			c-2.4,7.3-12.1,6.1-18.8,4.9c-16.3-3.1-30.1-11.2-42.3-22.3C385.2,117.2,384.7,115.7,383.8,114.2z"/>
		<path fill="#5E82A0" d="M130.5,100.3c-4.8-3.1-2.1-9,0-13.1c1.7-3.3,3.8-6.7,6.4-9.4c10.4-10.5,22.5-18.5,36.7-22.8
			c0.9-0.3,1.7-0.5,2.6-0.6c0.4,0,0.8,0.3,2.1,0.8c-0.4,2.1-0.6,4.5-1.3,6.7c-5,13.9-13.3,25.4-25.8,33.5
			C144.9,99.5,136.9,104.4,130.5,100.3z"/>
		<path fill="#5E82A0" d="M283.3,522.5c0.4-8.8,12-9.2,19.1-9.1c16.1,0.1,30.8,5.2,43.9,14.9c1.1,0.8,2.4,1.2,4.1,2
			c-6.4,5.6-12.6,6.1-18.4,7c-8.4,1.4-17,1.7-25.5,0C297.2,535.3,282.9,533.4,283.3,522.5z"/>
		<path fill="#5E82A0" d="M146.3,457.9c-9.2,1.3-12.7-9.5-13.7-17.5c-1.8-14.3,2.2-27.4,10.6-39.1c0.4-0.5,1-0.8,1.7-1.2
			c0.6,0.2,1.4,0.2,1.8,0.6c10.1,12.2,14,26.2,11.5,41.8C157.1,449.4,154.7,456.7,146.3,457.9z"/>
		<path fill="#5E82A0" d="M76.1,363.1c-5-2-5.1-8.5-4.3-13.3c3.5-19.5,15.6-32.5,33-43.3c0.8,3.9,2,6.6,1.9,9.3
			c-0.6,12.5-3.4,24.4-10.4,35C91,358.6,83.8,366.2,76.1,363.1z"/>
		<path fill="#5E82A0" d="M114.6,77.6c11,15.6,1.9,53.8-19.5,57.6c-5.8-3.1-7.7-8.8-6.9-14.7c2.4-17.4,11.4-31.3,24.7-42.4
			C113.3,77.8,113.8,77.9,114.6,77.6z"/>
		<path fill="#5E82A0" d="M534.6,340.9c-0.1,2.2,0.1,4.2-0.4,6.1c-2.5,9.7-6.6,18.6-13.3,26.1c-7.4,8.3-16.5,11.1-26.8,8.3
			c-4.8-7-2.8-14,1.5-20.4c6.3-9.6,15.7-15.1,26.4-18.8C525.6,340.9,529.3,339,534.6,340.9z"/>
		<path fill="#5E82A0" d="M537.8,274.3c0.4,3.1,1,5.7,1,8.2c-0.1,10.4-2,20.5-7.6,29.5c-4.9,7.9-12.6,16.5-22,11.8
			c-5.7-2.9-6-10.2-4.9-16.5C507,292.5,521.1,278.2,537.8,274.3z"/>
		<path fill="#5E82A0" d="M468.6,458.5c-0.6,1.5-0.6,2.3-1,2.7c-11.5,13.1-25,22.5-43.4,22.1c-5.2-0.1-10.2-1.3-14.1-5.7
			c-0.4-7.4,3.7-12.2,9.6-15.6c10.8-6.2,22.7-8.1,35-7c2.4,0.2,4.9,0.5,7.3,1C464.3,456.7,466.4,457.7,468.6,458.5z"/>
		<path fill="#5E82A0" d="M115.9,200c-0.7,2.9-0.9,5.3-1.8,7.4c-4.9,12.6-12.7,23.1-23,31.7c-4.7,3.9-10.1,6.7-16.4,7.1
			c-2.4,0.2-5.1,0.8-6.9-0.3c-5.8-3.8-1.4-11.4,1.5-15.8c3.2-4.8,7.1-9.2,11.2-13.2c8.6-8.2,18.9-13.4,30.4-16.4
			C112.3,200.2,113.6,200.2,115.9,200z"/>
		<path fill="#5E82A0" d="M493.1,246.6c-2.9,2.8-7,0.4-9.6-0.6c-5-1.8-10.3-3.7-14.4-7c-11-8.6-18.6-20-23.8-32.8
			c-0.7-1.6-0.7-3.4-1.2-5.6c1.6-0.2,3-0.8,4.1-0.4c16.2,4.6,30.1,12.8,40.2,26.5c2.1,2.8,3.6,6.3,4.5,9.7
			C493.7,239.1,496.2,243.6,493.1,246.6z"/>
		<path fill="#5E82A0" d="M354.4,488.5c-7.8-3.1-7.7-12.9-5.3-20.6c4.3-13.8,13.6-23.4,25.7-30.6c0.7-0.4,1.7-0.4,3.3-0.7
			c0.6,1.9,1.4,3.6,1.8,5.5c2.6,12.1,1.1,23.6-5.2,34.3C370.3,483.8,363.1,491.9,354.4,488.5z"/>
		<path fill="#5E82A0" d="M451.5,414.9c-6.9,0.1-11-6.7-13.5-12.7c-6.1-15-4.4-29.8,2.7-44.1c0.3-0.6,0.9-0.9,1.8-1.7
			c1.2,0.8,2.6,1.4,3.6,2.4c10,11.3,16.1,24.2,15.7,39.5C461.6,405.6,459.5,414.7,451.5,414.9z"/>
		<path fill="#5E82A0" d="M445.8,77.7c3.8,1.1,6.1,4.4,8.5,7.2c8.7,10.2,16,21.1,17.5,35c0.7,6.5-1.1,11.9-6.7,15.5
			C444.7,129.7,433.1,95,445.8,77.7z"/>
		<path fill="#5E82A0" d="M454.6,307.1c2.3,1,3.2,1.2,3.9,1.6c14.3,9.4,25.4,21.3,29.4,38.6c1.5,6.7,3.7,13.6-4.5,16.3
			c-2.3,0.7-5.2-1.1-7.6-2.3c-5.6-2.7-9.9-7-13-12.4c-5.9-10.1-8.7-21.1-9.2-32.7C453.4,313.6,454.2,310.8,454.6,307.1z"/>
		<path fill="#5E82A0" d="M210.3,531.8c1.7-1.8,2.3-2.8,3.2-3.4c14.3-10.1,29.9-16.2,47.8-14.6c6.2,0.6,11.8,2.4,15.2,8.4
			c-2.6,6.4-7.7,9.9-13.7,12.2c-8.9,3.4-18.2,4.9-27.7,3.4c-6-0.9-11.9-1.9-17.8-3.1C215.3,534.3,213.4,533.1,210.3,531.8z"/>
		<path fill="#5E82A0" d="M414.7,504.2c-3,2.1-4.8,3.7-6.9,4.7c-12.1,6.1-24.8,9.4-38.4,8.1c-8-0.7-18.6-1.8-20.1-10.3
			c-1-5.4,4.8-8.6,9.3-10.1c5.5-1.9,11.3-3.6,17-3.6c10.8,0.2,21.5,1.7,31.4,6.6C409.3,500.8,411.4,502.3,414.7,504.2z"/>
		<path fill="#5E82A0" d="M112.3,135.3c-2.2-7.2,6.9-12,12.9-15.2c14.6-8.1,30.3-10.6,46.7-7.7c1.3,0.2,2.4,1,4.4,1.8
			c-1.2,1.7-1.9,3.3-3,4.4c-11.4,10.5-24.7,17.8-39.7,21.7C125.3,142.3,114.8,143.3,112.3,135.3z"/>
		<path fill="#5E82A0" d="M107,253.3c0.6,1.6,0.8,1.9,0.7,2c-3.2,17.9-11.2,32.9-26,43.7c-4.6,3.3-10.7,7.4-16.1,4.5
			c-5.1-2.8-3.1-9.8-1.3-14.6c1.6-4.1,3.9-8.1,6.7-11.6c7.6-9.7,17.4-16.7,28.5-21.9C101.8,254.5,104.4,254.1,107,253.3z"/>
		<path fill="#5E82A0" d="M235.1,461.1c2,0.5,4.3,0.6,6.1,1.6c10.6,5.7,19.9,13,25.8,23.9c4.1,7.6,6.3,17.5-1.3,22.1
			c-9.9,6.1-19.2-3.8-24.9-12.5c-6.5-9.9-9-20.9-6.9-32.7C233.9,462.8,234.4,462.3,235.1,461.1z"/>
		<path fill="#5E82A0" d="M145.2,148.8c-1.2,2.4-1.7,4.2-2.8,5.5c-9.6,12.8-21.6,22.8-36.7,28.5c-6.4,2.4-13,3.5-19.6-0.9
			c-0.5-5.2,1.7-9.7,5.2-13.2c3.9-3.9,8.2-7.7,13-10.5c10.8-6.3,22.4-10.2,35.1-10.1C140.9,148.3,142.5,148.6,145.2,148.8z"/>
		<path fill="#5E82A0" d="M474.2,181.7c-2.4,4.8-8.6,3.7-13.2,2.9c-12.2-2.1-21.9-9-30.9-16.8c-4-3.5-7.6-7.6-11.1-11.7
			c-1.5-1.8-2.5-4-4.1-6.7c4.7-2,8.7-1.5,12.5-1c12.4,1.7,23.9,6,34.1,13.2C468.1,166.5,478.4,173.2,474.2,181.7z"/>
		<path fill="#5E82A0" d="M101.6,433.2c-6.4,4.2-13.2,4.8-19.7,2.7c-14.3-4.6-24.9-14-32-27.2c-0.5-0.9-0.5-2.1-1-3.9
			c2.9-0.5,5.4-1.3,8-1.3c13.8,0,26.7,3,37.8,11.8C100.8,420,102.9,425.7,101.6,433.2z"/>
		<path fill="#5E82A0" d="M495.3,303.4c-6.1,5.4-13.9-1.8-19-5.9c-12.9-10.4-20.1-24.3-24-40.2c-0.2-1,0.2-2.1,0.4-3.5
			c1.6,0.1,3,0,4.1,0.4c14.7,5.8,27.1,14.7,35.7,28.2c2.8,4.4,4.9,9.1,4.3,14.5C496.7,299.1,497.1,301.8,495.3,303.4z"/>
		<path fill="#5E82A0" d="M50.7,260.4c-8.6,3.6-16.3-4.6-19.8-14.5c-4.1-11.5-4.7-23.3-1.1-35.1c0.4-1.2,1.2-2.3,2.2-4.3
			c12.6,6.4,20.6,16,24.3,29.2C58.9,245,59.7,256.6,50.7,260.4z"/>
		<path fill="#5E82A0" d="M510.3,260.9c-7.6-1.8-7.8-11.1-7.7-17.7c0.2-14.7,12.2-31.5,26.1-36.2c1,2.8,2.5,5.6,2.9,8.4
			c1.1,8.9,1.5,17.9-1.1,26.7c-2.2,7.8-5.9,14.6-14.2,17.5C514.3,260.3,512.1,261.3,510.3,260.9z"/>
		<path fill="#5E82A0" d="M182.6,436.7c1.7,0.6,3.8,0.8,5.3,1.8c10.1,7,18.4,15.7,22.7,27.6c3.1,8.7,3.3,18.8-5.3,22.1
			c-4.8,1.9-10-1.6-14.1-5.1C179.8,473.6,175.3,450.7,182.6,436.7z"/>
		<path fill="#5E82A0" d="M150.5,477.4c-2.9,9-14.6,7-22.2,5.6c-13.9-2.5-25.4-9.7-34.7-20.4c-0.8-0.9-1.2-2.3-2.1-4.1
			c2.1-0.9,3.8-1.8,5.7-2.2c13.3-3,26.3-1.8,38.9,3.4c5.9,2.4,11,6.2,13.4,12.5C150,473.9,151.1,475.7,150.5,477.4z"/>
		<path fill="#5E82A0" d="M294.6,508.5c-3.9-5.2-6.1-11-3.2-17.3c2.2-4.8,4.6-10,8.3-13.6c5.5-5.5,12.1-9.8,18.4-14.4
			c1.9-1.3,4.4-1.7,6.8-2.6c3.1,3.8,2.2,7.7,2,11.3c-0.5,12-4.2,22.8-13.5,31.2C308.2,507.8,302.2,510.1,294.6,508.5z"/>
		<path fill="#5E82A0" d="M51,323.8c-6.3,3.2-13.1-1.3-17.9-6.7c-7.8-8.5-10.7-19.1-11.4-30.3c-0.2-4.1-1.5-8.5,1.9-12.4
			c7.4,1.2,13.4,5.3,18.6,10.2c7.6,7.1,14.1,15.2,13.8,26.7C55.8,316,55.5,321.5,51,323.8z"/>
		<path fill="#5E82A0" d="M26.4,339.9c3.3,0.5,6.2,0.8,8.9,1.5c11.1,2.9,20.6,8.6,27.9,17.6c5.4,6.8,9.9,16.2,3.3,22.3
			c-7.6,7.1-17.4,0.4-24.3-5.6c-8.7-7.6-13.4-17.7-16.3-28.7c-0.3-1.1-0.3-2.2-0.2-3.3C25.8,342.7,26,341.9,26.4,339.9z"/>
		<path fill="#5E82A0" d="M210.9,506.5c-4.4,6.5-10.7,9.5-17.7,10.3c-16.1,1.9-31.1-1.8-44.9-10.3c-0.7-0.4-1.1-1.3-2-2.3
			c1.3-1.1,2.3-2.3,3.6-2.9c13.8-6.8,28.3-9.5,43.6-7.3C202.4,495.2,207.4,499,210.9,506.5z"/>
		<path fill="#5E82A0" d="M494.4,197.4c-11.7-1.1-13.5-15.1-13.7-25.4c-0.1-10.7,3.3-20.8,10.2-29.3c1-1.2,2.2-2.1,4.9-4.5
			c1,1.7,1.8,3.3,2.7,4.8c6.3,11.4,10.1,23.5,9,36.7C506.9,188,503.6,198.2,494.4,197.4z"/>
		<path fill="#5E82A0" d="M415.5,398.6c3.2,5.9,6.5,10.5,8.4,15.6c3.7,10.4,6.4,21.1,1.9,32.1c-2.4,5.7-6,12.4-12.5,11.5
			c-9.5-1.4-12.2-12.5-12.4-21.8c-0.3-11.3,3.1-21.7,8.9-31.3C411,402.8,413,401.3,415.5,398.6z"/>
		<path fill="#5E82A0" d="M117.8,356c1.2,1.9,2.4,3.2,3.1,4.8c4.8,11.5,6.7,23.3,3.4,35.5c-2.2,8.3-6.1,18.4-15.6,18.5
			c-6.9,0.1-9-7.8-10-13.9C96.4,386.6,105.1,365.9,117.8,356z"/>
		<path fill="#5E82A0" d="M382.6,53.3c6.2,2.6,11.6,4.7,16.7,7.2c9.9,4.9,18.8,11.2,26,19.8c4.7,5.6,7.3,11.7,5.1,19.3
			c-4.4,2.6-9,1.4-12.9-0.2c-18.9-7.9-30-22.6-35.5-42C381.8,56.6,382.2,55.7,382.6,53.3z"/>
		<path fill="#5E82A0" d="M65.1,139.5c18.3,13.8,18.5,47.4,0.5,57.8c-7.3-1.9-11.5-7.1-12.5-14.2c-2.3-15.5,1.7-29.8,10.4-42.7
			C63.8,140.1,64.3,139.9,65.1,139.5z"/>
		<path fill="#5E82A0" d="M237.4,61.6c-5,4.4-8.8,8-12.7,11.4c0.8,4.8,1.5,9.4,2.4,14.8c-6.3-0.7-10.8-4.1-16.2-6.1
			c-4.8,2.1-9.9,4.3-16.4,7.1c1-6,1.7-10.7,2.5-16c-3.8-3.3-7.7-6.8-12.9-11.3c7-1,12.4-1.9,18.3-2.7c2.5-4.1,5.2-8.4,8.4-13.7
			c3.2,5.1,5.9,9.3,8.7,13.8C225,59.6,230.4,60.5,237.4,61.6z"/>
		<path fill="#5E82A0" d="M375.9,61.5c-5,4.4-8.7,7.6-12.7,11.2c0.5,4.7,1.1,9.5,1.8,15.6c-6-2.4-11-4.4-16.2-6.5
			c-4.8,2.1-9.7,4.2-15.8,6.8c0.7-5.9,1.3-10.8,1.9-16c-3.9-3.5-7.7-6.9-12.4-11.1c6.9-1,12.3-1.8,18.1-2.6
			c2.6-4.3,5.3-8.6,8.5-13.8c3.2,5.1,5.9,9.4,8.7,13.8C363.2,59.7,368.7,60.5,375.9,61.5z"/>
	</g>
</g>
</svg>
