<?xml version="1.0" encoding="utf-8"?>
<!-- Generator: Adobe Illustrator 18.1.0, SVG Export Plug-In . SVG Version: 6.00 Build 0)  -->
<svg version="1.1" id="Layer_1" xmlns="http://www.w3.org/2000/svg" xmlns:xlink="http://www.w3.org/1999/xlink" x="0px" y="0px"
	 viewBox="0 0 54.5 67.67" enable-background="new 0 0 54.5 67.67" xml:space="preserve">
<g id="B7remq.tif">
	
		<image overflow="visible" width="53" height="66" id="Layer_1_1_" xlink:href="99FD6CD766EE5C09.png"  transform="matrix(1 0 0 1 190.8333 365.5)">
	</image>
</g>
<g id="rpHOm2.tif">
	<g>
		<g>
			<path fill="#FFFFFF" d="M51.93,18.24l0.04-0.1C48.45,7.44,38.08,1.32,27.32,1.46c-3.4,0.05-6.84,0.71-10.11,2.06
				C10.2,6.42,5.15,11.82,2.7,18.24c-2.3,6.04-2.3,12.98,0.55,19.6C7.72,48.19,14.47,56.96,22.9,64.46
				c0.02,0.02,0.04,0.04,0.06,0.06c1.51,1.34,2.93,2.02,4.35,2.03c1.44,0.01,2.87-0.67,4.39-2.03l0.02-0.05
				c8.44-7.5,15.18-16.27,19.65-26.63C54.24,31.21,54.23,24.27,51.93,18.24z M27.18,36.36c-5.4-0.1-9.61-4.58-9.49-10.08
				c0.12-5.24,4.35-9.46,9.55-9.52c5.38-0.06,9.76,4.35,9.74,9.82C36.95,32.04,32.52,36.46,27.18,36.36z"/>
		</g>
	</g>
</g>
</svg>
