<?xml version="1.0" encoding="utf-8"?>
<!-- Generator: Adobe Illustrator 18.1.0, SVG Export Plug-In . SVG Version: 6.00 Build 0)  -->
<svg version="1.1" id="Layer_1" xmlns="http://www.w3.org/2000/svg" xmlns:xlink="http://www.w3.org/1999/xlink" x="0px" y="0px"
	 viewBox="0 60 560 672" enable-background="new 0 60 560 672" xml:space="preserve">
<g id="B7remq.tif">
</g>
<g>
	<g id="rpHOm2.tif">
		<g>
			<g>
				<path fill="#FFFFFF" d="M485.34,205.27l0.33-0.83C456.54,115.9,370.73,65.25,281.68,66.41c-28.14,0.41-56.6,5.88-83.66,17.05
					c-58.01,24-99.8,68.69-120.08,121.81c-19.03,49.98-19.03,107.42,4.55,162.2c36.99,85.65,92.85,158.23,162.61,220.29
					c0.17,0.17,0.33,0.33,0.5,0.5c12.5,11.09,24.25,16.72,36,16.8c11.92,0.08,23.75-5.54,36.33-16.8l0.17-0.41
					c69.84-62.07,125.62-134.64,162.61-220.38C504.46,312.61,504.38,255.17,485.34,205.27z M280.52,355.22
					c-44.69-0.83-79.53-37.9-78.53-83.42c0.99-43.36,36-78.29,79.03-78.78c44.52-0.5,80.77,36,80.6,81.26
					C361.38,319.47,324.72,356.05,280.52,355.22z"/>
			</g>
		</g>
	</g>
	<g>
		<path fill="#FFFFFF" d="M36.04,639.93h23.28v63.6H100v20.4H36.04V639.93z"/>
		<path fill="#FFFFFF" d="M102.52,682.17v-0.24c0-24.12,19.44-43.68,45.36-43.68S193,657.57,193,681.69v0.24
			c0,24.12-19.44,43.68-45.36,43.68S102.52,706.29,102.52,682.17z M169.12,682.17v-0.24c0-12.24-8.64-22.68-21.48-22.68
			c-12.84,0-21.36,10.32-21.36,22.44v0.24c0,12.12,8.76,22.68,21.6,22.68C160.6,704.61,169.12,694.29,169.12,682.17z"/>
		<path fill="#FFFFFF" d="M202.24,682.17v-0.24c0-24.48,18.72-43.68,44.16-43.68c17.16,0,28.2,7.2,35.64,17.4l-17.52,13.56
			c-4.8-5.88-10.32-9.84-18.36-9.84c-11.76,0-20.04,10.08-20.04,22.32v0.24c0,12.6,8.28,22.44,20.04,22.44
			c8.76,0,13.92-4.08,18.96-10.2l17.52,12.48c-7.92,10.92-18.6,18.96-37.08,18.96C221.56,725.61,202.24,707.25,202.24,682.17z"/>
		<path fill="#FFFFFF" d="M321.04,639.33h22.44l35.76,84.6h-24.96l-6-15.12h-32.52l-6,15.12H285.4L321.04,639.33z M341.44,690.69
			l-9.36-23.76l-9.48,23.76H341.44z"/>
		<path fill="#FFFFFF" d="M397.12,660.33h-25.08v-20.4h73.56v20.4h-25.2v63.6h-23.28V660.33z"/>
		<path fill="#FFFFFF" d="M455.8,639.93h67.56v19.68h-44.52v12.84h40.32v18.36h-40.32v13.32h45.12v19.8H455.8V639.93z"/>
	</g>
</g>
</svg>
