<?xml version="1.0" encoding="utf-8"?>
<!-- Generator: Adobe Illustrator 18.1.0, SVG Export Plug-In . SVG Version: 6.00 Build 0)  -->
<svg version="1.1" id="Isolation_Mode" xmlns="http://www.w3.org/2000/svg" xmlns:xlink="http://www.w3.org/1999/xlink" x="0px"
	 y="0px" viewBox="0 0 301.17 298.17" enable-background="new 0 0 301.17 298.17" xml:space="preserve">
<g>
	<path fill="#EAE7DE" d="M107.58,284.17c-11.56-16.7-22.75-32.62-33.69-48.71c-15.91-23.39-32.3-46.49-47.29-70.47
		c-22.95-36.71-20.52-82.5,6.05-114.8c25.79-31.35,59.7-42.89,98.74-33.08c39.07,9.81,63.14,36.12,71.2,75.92
		c5.48,27.07-0.11,52.47-15.39,75.21c-25.72,38.26-52.17,76.02-78.31,114C108.6,282.64,108.33,283.05,107.58,284.17z M143.46,105.52
		c-0.38-20.05-16.4-35.8-36.18-35.54c-19.74,0.26-35.31,16.63-34.9,36.72c0.4,19.84,16.68,35.18,36.82,34.72
		C128.09,140.99,143.81,124.51,143.46,105.52z"/>
	<path fill="#EAE7DE" d="M225.55,284.46c-11.93-17.29-23.26-33.69-34.58-50.1c-1.32-1.92-2.63-3.84-3.92-5.79
		c-6.82-10.35-6.73-6.41,0.15-16.91c8.39-12.8,17.25-25.3,25.13-38.4c12.07-20.07,15.95-42.01,12.9-65.21
		c-0.17-1.29-0.02-2.62-0.02-5.25c5.94,0.87,11.71,1.16,17.17,2.6c30.93,8.16,50.75,37.64,47.52,69.5
		c-1.23,12.1-5.27,23.01-11.97,32.89c-16.8,24.79-33.89,49.38-50.86,74.05C226.61,282.51,226.25,283.25,225.55,284.46z"/>
</g>
</svg>
