<?xml version="1.0" encoding="utf-8"?>
<!-- Generator: Adobe Illustrator 18.1.0, SVG Export Plug-In . SVG Version: 6.00 Build 0)  -->
<svg version="1.1" id="Layer_1" xmlns="http://www.w3.org/2000/svg" xmlns:xlink="http://www.w3.org/1999/xlink" x="0px" y="0px"
	 viewBox="0 0 31.33 31.33" enable-background="new 0 0 31.33 31.33" xml:space="preserve">
<path fill="#91B8D9" d="M15.67,0.83c-8.19,0-14.83,6.64-14.83,14.83S7.47,30.5,15.67,30.5S30.5,23.86,30.5,15.67
	S23.86,0.83,15.67,0.83z M23.52,16.79c-1.75,1.76-3.51,3.52-5.27,5.27c-0.6,0.6-1.53,0.6-2.12,0.02c-0.6-0.59-0.6-1.53,0.02-2.14
	c0.81-0.82,1.63-1.63,2.45-2.45c0.07-0.07,0.17-0.13,0.18-0.31c-0.17,0-0.32,0-0.47,0c-3.14,0-6.29,0.01-9.43,0
	c-1.12,0-1.82-0.92-1.51-1.95c0.19-0.62,0.76-1.02,1.49-1.03c0.65-0.01,1.29,0,1.94,0c2.54,0,5.08,0,7.63-0.01
	c0.11,0,0.23,0.04,0.33-0.05c0.01-0.14-0.11-0.2-0.19-0.27c-0.81-0.82-1.64-1.63-2.44-2.46c-0.63-0.64-0.64-1.53-0.05-2.14
	c0.58-0.59,1.52-0.61,2.15,0.02c1.78,1.76,3.56,3.54,5.32,5.32C24.2,15.27,24.18,16.13,23.52,16.79z"/>
</svg>
