<?xml version="1.0" encoding="utf-8"?>
<!-- Generator: Adobe Illustrator 18.1.0, SVG Export Plug-In . SVG Version: 6.00 Build 0)  -->
<svg version="1.1" id="Layer_1" xmlns="http://www.w3.org/2000/svg" xmlns:xlink="http://www.w3.org/1999/xlink" x="0px" y="0px"
	 viewBox="0 0 31.33 31.33" enable-background="new 0 0 31.33 31.33" xml:space="preserve">
<path display="none" fill="#91B8D9" d="M15.67,0.83c-8.19,0-14.83,6.64-14.83,14.83S7.47,30.5,15.67,30.5S30.5,23.86,30.5,15.67
	S23.86,0.83,15.67,0.83z M23.52,16.79c-1.75,1.76-3.51,3.52-5.27,5.27c-0.6,0.6-1.53,0.6-2.12,0.02c-0.6-0.59-0.6-1.53,0.02-2.14
	c0.81-0.82,1.63-1.63,2.45-2.45c0.07-0.07,0.17-0.13,0.18-0.31c-0.17,0-0.32,0-0.47,0c-3.14,0-6.29,0.01-9.43,0
	c-1.12,0-1.82-0.92-1.51-1.95c0.19-0.62,0.76-1.02,1.49-1.03c0.65-0.01,1.29,0,1.94,0c2.54,0,5.08,0,7.63-0.01
	c0.11,0,0.23,0.04,0.33-0.05c0.01-0.14-0.11-0.2-0.19-0.27c-0.81-0.82-1.64-1.63-2.44-2.46c-0.63-0.64-0.64-1.53-0.05-2.14
	c0.58-0.59,1.52-0.61,2.15,0.02c1.78,1.76,3.56,3.54,5.32,5.32C24.2,15.27,24.18,16.13,23.52,16.79z"/>
<g>
	<path fill="none" d="M22.44,14.15c-3.14-0.01-6.29,0-9.43,0c-0.15,0-0.3,0-0.47,0c0.01-0.18,0.11-0.24,0.18-0.31
		c0.82-0.82,1.64-1.63,2.45-2.45c0.61-0.62,0.62-1.55,0.02-2.14c-0.59-0.58-1.52-0.58-2.12,0.02c-1.76,1.75-3.52,3.51-5.27,5.27
		c-0.66,0.66-0.68,1.52-0.02,2.19c1.76,1.78,3.54,3.56,5.32,5.32c0.63,0.62,1.56,0.61,2.15,0.02c0.6-0.61,0.58-1.5-0.05-2.14
		c-0.81-0.82-1.63-1.64-2.44-2.46c-0.08-0.08-0.2-0.13-0.19-0.27c0.1-0.09,0.22-0.05,0.33-0.05c2.54,0,5.08-0.01,7.63-0.01
		c0.65,0,1.29,0,1.94,0c0.73-0.01,1.3-0.41,1.49-1.03C24.27,15.08,23.57,14.16,22.44,14.15z"/>
	<path fill="#FFFFFF" d="M15.67,0.83c-8.19,0-14.83,6.64-14.83,14.83S7.47,30.5,15.67,30.5S30.5,23.86,30.5,15.67
		S23.86,0.83,15.67,0.83z M23.95,16.11c-0.19,0.62-0.76,1.02-1.49,1.03c-0.65,0.01-1.29,0-1.94,0c-2.54,0-5.08,0-7.63,0.01
		c-0.11,0-0.23-0.04-0.33,0.05c-0.01,0.14,0.11,0.2,0.19,0.27c0.81,0.82,1.64,1.63,2.44,2.46c0.63,0.64,0.64,1.53,0.05,2.14
		c-0.58,0.59-1.52,0.61-2.15-0.02c-1.78-1.76-3.56-3.54-5.32-5.32c-0.66-0.66-0.64-1.53,0.02-2.19c1.75-1.76,3.51-3.52,5.27-5.27
		c0.6-0.6,1.53-0.6,2.12-0.02c0.6,0.59,0.6,1.53-0.02,2.14c-0.81,0.82-1.63,1.63-2.45,2.45c-0.07,0.07-0.17,0.13-0.18,0.31
		c0.17,0,0.32,0,0.47,0c3.14,0,6.29-0.01,9.43,0C23.57,14.16,24.27,15.08,23.95,16.11z"/>
</g>
</svg>
