<?xml version="1.0" encoding="utf-8"?>
<!-- Generator: Adobe Illustrator 18.1.0, SVG Export Plug-In . SVG Version: 6.00 Build 0)  -->
<svg version="1.1" xmlns="http://www.w3.org/2000/svg" xmlns:xlink="http://www.w3.org/1999/xlink" x="0px" y="0px"
	 viewBox="0 0 84.5 211.29" enable-background="new 0 0 84.5 211.29" xml:space="preserve">
<g id="Layer_1" display="none">
	<g display="inline">
		<path d="M31.24,138.62c-2.31-3.4-4.18-7.16-5.52-11.18c0.99,3.58,1.3,7.08,0.91,10.36C28.1,138.28,29.65,138.56,31.24,138.62z"/>
		<path d="M23.52,107.55c0.15-1.52,0.37-3.01,0.66-4.49c-3.16-3.3-6.73-6.05-10.59-8.16c-1.59,3.06-2.63,6.68-3.03,10.68
			c2.51,1.98,4.93,4.35,7.17,7.08c3.48,4.24,5.96,8.66,7.43,13.01C23.52,120,22.9,113.87,23.52,107.55z"/>
		<path d="M31.9,152.38c1.24,0,2.5-0.07,3.74-0.2c2.67-0.29,5.23-0.89,7.67-1.76c-3.35-2.14-6.37-4.77-8.99-7.8l0,0
			c-0.8,0.09-1.61,0.13-2.41,0.13c-13.11,0-23.54-11.67-25.36-28.39c-1.98-18.06,6.74-32.29,20.72-33.82
			c0.8-0.09,1.61-0.13,2.41-0.13c1.78,0,3.5,0.22,5.17,0.64c0.78-0.89,1.58-1.75,2.43-2.58c1.96-1.91,4.06-3.6,6.27-5.06
			c-4.08-1.64-8.47-2.54-13.04-2.54c-1.24,0-2.5,0.07-3.74,0.2C6.36,73.3-8.25,93.31-5.81,115.67
			C-3.52,136.6,12.69,152.38,31.9,152.38L31.9,152.38z"/>
		<path d="M-5.75,89.89c-8.38,0-16.12,2.72-22.38,7.87c-15.87,13.02-17.16,37.77-2.89,55.16c8.23,10.03,20,15.78,32.28,15.78
			c0,0,0,0,0,0c8.37,0,16.11-2.72,22.38-7.87c1.68-1.38,3.19-2.9,4.54-4.52c-4.04-0.39-7.92-1.4-11.57-2.95
			c-3.3,2-7.05,3.04-11.02,3.04c-8.8,0-17.92-4.97-25.03-13.63c-11.41-13.9-11.74-30.52-0.79-39.51c3.37-2.76,7.36-4.34,11.63-4.6
			c0.81-3.06,1.91-5.99,3.29-8.76C-5.47,89.89-5.61,89.89-5.75,89.89z"/>
		<path d="M56.19,141.44c-4.7-1.67-8.73-4.96-11.63-9.59c-3.8-6.07-5.44-14.11-4.59-22.63c1.68-17.03,12.01-28.93,25.11-28.93
			c0.71,0,1.43,0.04,2.14,0.11c6.41,0.63,12.01,3.98,15.91,9.47c3.57-1.64,7.33-2.81,11.18-3.47c-5.98-8.49-15.05-14.33-25.63-15.38
			c-1.13-0.11-2.27-0.17-3.39-0.17c-9.23,0-18.16,3.75-25.14,10.56c-7.07,6.89-11.52,16.32-12.53,26.55
			c-2.19,22.15,12.29,41.81,32.39,44.18C58.23,148.78,56.95,145.17,56.19,141.44z"/>
		<path d="M67.2,101.84c-1.49-6.18-4.23-11.76-7.88-16.43c-3.64,1.33-6.86,3.92-9.4,7.47c2.66,4.43,4.46,9.83,5.13,15.91
			c0.93,8.54-0.56,16.62-4.2,22.77c-0.2,0.34-0.42,0.66-0.63,0.99c1.55,1.73,3.33,3.11,5.3,4.11c-1.02-11.44,2.47-23.63,10.66-33.6
			C66.5,102.65,66.85,102.24,67.2,101.84z"/>
		<path d="M72.22,160.82c6.27,5.15,14.01,7.87,22.38,7.87c12.28,0,24.04-5.75,32.28-15.78c14.27-17.39,12.98-42.13-2.89-55.16
			c-6.27-5.15-14.01-7.87-22.38-7.87c-12.28,0-24.04,5.75-32.28,15.78C55.06,123.06,56.36,147.8,72.22,160.82z M69.37,133.3
			c0.52-6.99,3.84-14.53,9.34-21.23c6.9-8.4,15.7-13.22,24.16-13.22c5.06,0,9.84,1.73,13.81,4.99c5.31,4.36,7.93,10.85,7.37,18.28
			c-0.52,6.99-3.84,14.53-9.34,21.23c-6.9,8.4-15.7,13.22-24.16,13.22c-5.06,0-9.84-1.73-13.81-4.99
			C71.43,147.22,68.81,140.73,69.37,133.3z"/>
		<path d="M79.35,148.41c0.1,0.08,0.2,0.15,0.3,0.23c3.43-1.72,6.64-3.99,9.52-6.8c7.07-6.89,11.52-16.32,12.53-26.55
			c0.42-4.21,0.22-8.32-0.49-12.25c-4.19,0.37-8.46,2.13-12.46,5.06c0.06,1.85,0.01,3.75-0.18,5.67
			c-1.2,12.12-6.78,21.64-14.62,26.11C74.79,143.27,76.61,146.16,79.35,148.41z"/>
	</g>
</g>
<g id="Layer_2">
	<g>
		<path fill="#C5BEAF" d="M22.25,33.62c1.1-1.81,3.06-2.66,4.67-3.08L20.01,3.29l-6.03,1.34l7.63,30.04
			C21.81,34.34,22.02,34,22.25,33.62z"/>
		<path fill="#C5BEAF" d="M42.25,54.21H7.71c0,0,0.69,76.9,22.3,123.9H54.5c21.61-47,22.3-123.9,22.3-123.9H42.25z M46.21,173.54
			H35.5l-0.47-1.02c-10.32-22.6-15.19-51.37-17.46-71.53c-2.45-21.81-2.48-38.53-2.48-38.7c0-0.94,0.79-1.7,1.77-1.7
			c0.98,0,1.77,0.76,1.77,1.7c0,0.65,0.22,65.3,19.18,107.84h8.39c0.98,0,1.77,0.76,1.77,1.7
			C47.98,172.78,47.18,173.54,46.21,173.54z"/>
		<path fill="#C5BEAF" d="M54.5,185.43H30.01C12.45,190.62,13.01,208,13.01,208h29.65h28.82C71.49,208,72.07,189.88,54.5,185.43z
			 M32.22,192.63c-3.6,1.53-6.7,5.72-7.22,9.73c-0.12,0.9-0.88,1.55-1.75,1.55c-0.08,0-0.15,0-0.23-0.02
			c-0.97-0.13-1.65-1.01-1.53-1.98c0.68-5.25,4.61-10.52,9.34-12.54c0.9-0.38,1.94,0.04,2.32,0.94
			C33.54,191.21,33.12,192.25,32.22,192.63z"/>
		<path fill="#C5BEAF" d="M14.03,49.21c0,0-0.38-4.38,4.1-5.71c3-0.89,4.02-2.45,6.12-5.88c2.08-3.43,7.28-3.45,7.28-3.45
			s0.1-7.19,4.72-10.08c4.57-2.85,5.8-5.09,6.36-7.29c4.95,4.47,0.29,8.98,6.07,10.91c3.92,1.31,2.83,3.14,5,5.78
			c1.21,1.46,2.59,0.32,6.55,2.61c3.15,1.82,3.26,5.07,3.26,5.77c0,0.7,3.4,0.73,5.24,4.11c0.87,1.59,0.93,3.23,0.93,3.23H14.03z"/>
	</g>
</g>
</svg>
