<?xml version="1.0" encoding="utf-8"?>
<!-- Generator: Adobe Illustrator 18.1.0, SVG Export Plug-In . SVG Version: 6.00 Build 0)  -->
<svg version="1.1" id="Isolation_Mode" xmlns="http://www.w3.org/2000/svg" xmlns:xlink="http://www.w3.org/1999/xlink" x="0px"
	 y="0px" viewBox="0 0 310.67 292" enable-background="new 0 0 310.67 292" xml:space="preserve">
<path fill="#C5BEAF" d="M155.33,7.53C73.33,7.53,6.85,69.53,6.85,146c0,76.47,66.48,138.47,148.48,138.47S303.82,222.47,303.82,146
	C303.82,69.53,237.34,7.53,155.33,7.53z M200.79,85.3c11.93,0,21.61,9.67,21.61,21.61c0,11.93-9.67,21.61-21.61,21.61
	s-21.61-9.67-21.61-21.61C179.18,94.97,188.85,85.3,200.79,85.3z M105.34,85.3c11.93,0,21.61,9.67,21.61,21.61
	c0,11.93-9.67,21.61-21.61,21.61c-11.93,0-21.61-9.67-21.61-21.61C83.73,94.97,93.4,85.3,105.34,85.3z M222.32,189.28
	c-18.06,26.95-55.94,42.93-87.75,36.16c-22.66-4.83-41.75-15.88-54.88-35.73c-5.07-7.66-7.38-14.95,4.35-22.85
	c19.25,18.6,38.66,34.61,66.25,36.12c29.12,1.59,46.07-18.85,64.58-35.15C227.65,176.47,228.65,179.84,222.32,189.28z"/>
</svg>
