<?xml version="1.0" encoding="utf-8"?>
<!-- Generator: Adobe Illustrator 18.1.0, SVG Export Plug-In . SVG Version: 6.00 Build 0)  -->
<svg version="1.1" id="Layer_1" xmlns="http://www.w3.org/2000/svg" xmlns:xlink="http://www.w3.org/1999/xlink" x="0px" y="0px"
	 viewBox="0 0 154 143.5" enable-background="new 0 0 154 143.5" xml:space="preserve">
<g>
	<path fill="#E9E2D2" d="M84.24,86.19c17.67,17.7,35.08,35.15,52.5,52.58c0.46,0.46,1.05,0.81,1.59,1.19
		c0.13,0.09,0.31,0.09,0.48,0.12c0.16,0.03,0.33,0.03,1.29,0.1c3.51-3.35,7.67-6.78,11.07-11.58c-1.54-1.69-2.8-3.19-4.18-4.58
		c-15.65-15.68-31.33-31.33-46.98-47c-1.26-1.26-2.45-2.6-3.86-4.11c8.56-9.8,16.88-19.27,25.14-28.79
		c8.26-9.51,16.73-18.86,24.31-28.62c-2.28-5.08-4.2-5.61-8.01-2.64c-0.13,0.1-0.25,0.22-0.38,0.33
		C123.9,24.76,110.6,36.33,97.3,47.9c-4.64,4.03-9.27,8.07-14.12,12.29c-4.61-4.58-9.06-9.01-13.73-13.65
		C65.22,51,60.92,54.6,57.29,59.22c4.33,4.44,8.45,8.67,12.72,13.06c-4.01,3.69-7.6,7.01-11.86,10.93c1.9,1.52,3.45,2.56,4.73,3.85
		c2.04,2.05,2.25,3.8,0.88,5.16c-1.24,1.23-2.6,0.96-4.7-1.02c-1.43-1.35-2.79-2.77-4.48-4.45c-1.95,2.26-3.65,4.24-5.46,6.35
		c1.38,1.6,3.16,3.55,4.79,5.62c0.92,1.16,1.06,2.74-0.3,3.5c-0.97,0.55-2.49,0.54-3.63,0.26c-0.85-0.21-1.49-1.26-2.22-1.94
		c-1.18-1.1-2.36-2.21-3.61-3.38c-1.92,1.77-3.62,3.33-5.18,4.76c-8.35-0.26-13.42,3.82-16.31,11.04c-0.62,1.54-1.24,3.09-1.73,4.67
		c-2.3,7.38-6.53,13.4-12.63,18.13c-0.7,0.54-1.21,1.33-2.15,2.37c1.19,0.48,1.89,0.82,2.62,1.05c4.6,1.46,9.2,0.54,13.82,0.08
		c7.66-0.77,15.02-2.42,21.96-5.93c5.31-2.69,8.42-6.87,9.71-12.54c0.33-1.44,0.45-2.93,0.61-3.98
		C64.72,106.55,74.28,96.58,84.24,86.19z M65.5,40.76c-1.43-1.2-3.42-2.51-4.97-4.22c-3.97-4.37-3.54-10.99,1.55-13.81
		c9.05-5.02,16.92-12.57,27.94-13.62c1.73-0.16,2.29-1.7,2.44-3.4c-0.36-0.49-0.7-1.09-1.17-1.53C90.82,3.74,90.21,3.45,90,3.31
		C57.82,6.06,32.59,20.65,13.72,45.73c-6.38,0.66-6.38,0.66-10.89,6.12c4.8,4.77,9.62,9.57,14.46,14.36
		c0.57,0.56,1.23,1.04,1.61,1.35c6.3-2.74,5.89-8.42,6.13-13.44c3.21-1.99,6.04-3.72,8.84-5.49c5.58-3.52,9.42-3.08,14.32,1.53
		c1.53,1.44,2.67,3.4,4.19,3.86C56.78,49.57,60.85,45.46,65.5,40.76z"/>
	<path fill="#E9E2D2" d="M84.24,86.19c-9.96,10.39-19.51,20.35-29.36,30.62c-0.16,1.05-0.28,2.54-0.61,3.98
		c-1.29,5.67-4.4,9.85-9.71,12.54c-6.94,3.51-14.3,5.17-21.96,5.93c-4.62,0.46-9.23,1.38-13.82-0.08c-0.73-0.23-1.42-0.57-2.62-1.05
		c0.93-1.05,1.45-1.83,2.15-2.37c6.11-4.73,10.33-10.75,12.63-18.13c0.49-1.58,1.12-3.13,1.73-4.67
		c2.89-7.22,7.96-11.31,16.31-11.04c1.56-1.43,3.26-3,5.18-4.76c1.25,1.17,2.43,2.27,3.61,3.38c0.73,0.68,1.37,1.73,2.22,1.94
		c1.14,0.28,2.66,0.29,3.63-0.26c1.36-0.77,1.21-2.34,0.3-3.5c-1.63-2.07-3.41-4.02-4.79-5.62c1.82-2.11,3.52-4.09,5.46-6.35
		c1.69,1.68,3.05,3.11,4.48,4.45c2.1,1.98,3.46,2.24,4.7,1.02c1.37-1.36,1.16-3.11-0.88-5.16c-1.29-1.29-2.83-2.32-4.73-3.85
		c4.26-3.92,7.85-7.24,11.86-10.93c-4.27-4.39-8.4-8.62-12.72-13.06c3.63-4.61,7.93-8.21,12.16-12.68
		c4.67,4.65,9.12,9.07,13.73,13.65c4.85-4.22,9.48-8.26,14.12-12.29c13.3-11.57,26.61-23.14,39.91-34.7
		c0.13-0.11,0.25-0.22,0.38-0.33c3.81-2.97,5.73-2.44,8.01,2.64c-7.59,9.76-16.05,19.11-24.31,28.62
		c-8.26,9.52-16.58,18.99-25.14,28.79c1.41,1.5,2.6,2.84,3.86,4.11c15.66,15.67,31.33,31.33,46.98,47c1.38,1.38,2.64,2.88,4.18,4.58
		c-3.4,4.8-7.56,8.23-11.07,11.58c-0.96-0.08-1.13-0.08-1.29-0.1c-0.16-0.03-0.35-0.03-0.48-0.12c-0.54-0.38-1.13-0.72-1.59-1.19
		C119.32,121.34,101.91,103.9,84.24,86.19z"/>
	<path fill="#E9E2D2" d="M65.5,40.76c-4.65,4.7-8.71,8.81-13.12,13.26c-1.52-0.46-2.66-2.42-4.19-3.86
		c-4.9-4.61-8.74-5.05-14.32-1.53c-2.8,1.77-5.63,3.5-8.84,5.49c-0.23,5.02,0.17,10.7-6.13,13.44c-0.38-0.32-1.04-0.79-1.61-1.35
		c-4.84-4.79-9.66-9.59-14.46-14.36c4.51-5.47,4.51-5.47,10.89-6.12C32.59,20.65,57.82,6.06,90,3.31c0.21,0.14,0.82,0.43,1.29,0.87
		c0.47,0.45,0.8,1.04,1.17,1.53c-0.15,1.7-0.71,3.24-2.44,3.4c-11.02,1.04-18.89,8.59-27.94,13.62c-5.08,2.82-5.52,9.44-1.55,13.81
		C62.08,38.25,64.06,39.56,65.5,40.76z"/>
</g>
</svg>
