<?xml version="1.0" encoding="utf-8"?>
<!-- Generator: Adobe Illustrator 18.1.0, SVG Export Plug-In . SVG Version: 6.00 Build 0)  -->
<svg version="1.1" id="Isolation_Mode" xmlns="http://www.w3.org/2000/svg" xmlns:xlink="http://www.w3.org/1999/xlink" x="0px"
	 y="0px" viewBox="0 0 654.6 437.98" enable-background="new 0 0 654.6 437.98" xml:space="preserve">
<g>
	<path fill="#E9E2D2" d="M289.68,183.32c1.57,2.05,3.14,4.07,4.73,6.08c1.87-1.28,3.72-2.56,5.55-3.85
		C296.48,184.83,293.05,184.08,289.68,183.32z"/>
	<path fill="#E9E2D2" d="M451.48,110.77c11.86-15.16,23.16-31.65,33.69-49.59l4.48-12.74c0,0-14.26-27.27-32.81-24.25l-8.57,1.76
		c0,0-24.39,40.85-73.64,87.15C401.87,114.43,427.68,113.34,451.48,110.77z"/>
	<path fill="#E9E2D2" d="M213.14,247.68c-42.88,18.26-92.2,31.48-148.01,35.1l-3.55,10.1c0,0,7.87,25.03,26.26,31.49l14.73-1.18
		c0,0,85.24-2.02,180.86-50.18c-1.78-2.02-3.54-4.04-5.27-6.06C254.9,261.91,233.17,255.25,213.14,247.68z"/>
	<path fill="#E9E2D2" d="M488.4,412.55l13.42,1.47c0,0,23.33-20.07,16.19-37.45l-3.65-7.95c0,0-10.18-3.26-26.88-10.67
		c-21.54,11.2-43.05,20.64-64.33,28.56C443.24,396.44,464.95,405.25,488.4,412.55z"/>
	<path fill="#E9E2D2" d="M498.51,205.48l-7.17-5c0,0-43.37,9.76-107.23,6.96c-18.44-0.81-38.59-2.67-59.9-6.12
		c9.03,10.63,18.28,20.57,27.63,29.85c11.82,11.72,23.78,22.39,35.63,32.06c32.67,0.22,67.35-3.25,103.73-11.72l12.32-5.52
		C503.51,245.97,513.47,216.85,498.51,205.48z"/>
	<path fill="#E9E2D2" d="M260.16,216.49c-8.07-11.56-15.24-22.9-21.59-33.77c-54.44-18.13-111.81-48.32-165-97.53l-9.77,4.38
		c0,0-12.73,22.94-4.75,40.73l11,9.86c0,0,57.22,57.46,153.51,93.85c20.04,7.57,41.76,14.23,65.02,19.27
		C278.06,240.97,268.62,228.61,260.16,216.49z"/>
	<path fill="#E9E2D2" d="M145.32,76.1l-8.39,6.66c0,0-6.68,25.37,5.44,40.64l13.09,6.85c0,0,16.19,9.67,44.43,20.98
		c-13.37-25.85-21.73-47.55-26.33-61.03C164.18,85.91,154.76,81.22,145.32,76.1z"/>
	<path fill="#E9E2D2" d="M602.45,84.37l-8.19-3.08c0,0-61.49,31.28-152.24,41.07c-23.8,2.57-49.61,3.66-76.85,2.32
		c-33.56-1.65-69.28-6.98-106.1-17.78c12.02,22.45,25.41,42.87,39.61,61.4c3.37,0.77,6.8,1.51,10.28,2.23
		c23.88,4.92,50.35,8.52,78.75,9.54c65.4,2.36,141.04-8.94,219-49.32l10.58-8.39C617.29,122.38,619.76,91.7,602.45,84.37z"/>
	<path fill="#E9E2D2" d="M362.82,257.8c-11.12-9.08-22.36-19.09-33.45-30.09c-8.78-8.71-17.47-18.04-25.94-28.02
		c-3.09-3.65-6.16-7.37-9.19-11.2c-1.49-1.88-2.97-3.78-4.44-5.7c-13.33-17.4-25.9-36.57-37.18-57.64
		c-12.61-23.56-23.6-49.49-32.21-77.99l-9.99-1.1c0,0-21.21,12.52-23.21,30.71l4.21,13.21c0,0,1.31,5.08,4.34,13.93
		c4.33,12.65,12.17,33.02,24.72,57.29c3.48,6.74,7.33,13.77,11.57,21.03c5.96,10.21,12.69,20.85,20.26,31.7
		c7.94,11.38,16.8,22.98,26.67,34.55c1.62,1.9,3.27,3.8,4.94,5.69c14.89,16.85,31.95,33.52,51.43,49.22
		c21.46-6.2,41.65-13.33,60.44-20.94C385.09,275.13,374.01,266.94,362.82,257.8z"/>
	<path fill="#E9E2D2" d="M592.41,198.53l-11.47-1.06c0,0-64.91,59.1-173.33,103c-20.02,8.11-41.53,15.7-64.39,22.3
		c-85.18,24.61-189.11,35.52-304.8,8.52l-8.34,11.38c0,0,0.37,34.56,21.09,49.74l19.02,4.13c0,0,167.33,46.38,352.95-22.72
		c21.28-7.92,42.8-17.36,64.33-28.56c42.7-22.21,85.46-51.33,126.54-89.28l10.51-14.35C624.52,241.64,616.95,201.81,592.41,198.53z"
		/>
</g>
</svg>
