<?xml version="1.0" encoding="utf-8"?>
<!-- Generator: Adobe Illustrator 18.1.0, SVG Export Plug-In . SVG Version: 6.00 Build 0)  -->
<svg version="1.1" id="Isolation_Mode" xmlns="http://www.w3.org/2000/svg" xmlns:xlink="http://www.w3.org/1999/xlink" x="0px"
	 y="0px" viewBox="0 0 491 364" enable-background="new 0 0 491 364" xml:space="preserve">
<g>
	<g>
		<path fill="#E9E2D2" d="M274.51,52.2c-1.34,0-2.69-0.38-3.89-1.18c-3.24-2.15-4.12-6.52-1.97-9.76l20.65-31.08
			c-13.52-2.22-27.66-3.43-42.21-3.51l-28.16,42.39c-1.36,2.04-3.59,3.15-5.87,3.15c-1.34,0-2.69-0.38-3.89-1.18
			c-3.24-2.15-4.12-6.52-1.97-9.76L229.89,7.1c-90.6,5.11-161.67,54.25-161.67,114.14c0,2.58,0.15,5.14,0.41,7.68h353.75
			c0.26-2.54,0.41-5.1,0.41-7.68c0-49.97-49.49-92.46-118.52-108.13l-23.88,35.95C279.02,51.1,276.79,52.2,274.51,52.2z"/>
		<path fill="#E9E2D2" d="M68.63,296.2c-0.26,2.54-0.41,5.1-0.41,7.68c0,54,38.81,53.45,177.28,53.45
			c140.62,0,177.28,0.55,177.28-53.45c0-2.58-0.15-5.14-0.41-7.68H68.63z"/>
	</g>
	<g>
		<path fill="#E9E2D2" d="M56.35,156.68c-0.78-1.14-1.24-2.51-1.27-3.99c-0.08-3.98,3.06-7.21,7.01-7.21l366.54,0.37
			c3.95,0,7.22,3.24,7.3,7.22c0.08,3.98-3.06,7.21-7.01,7.21l-366.54-0.37C59.88,159.91,57.67,158.62,56.35,156.68z"/>
	</g>
	<g>
		<path fill="#E9E2D2" d="M56.35,278.3c-0.78-1.14-1.24-2.51-1.27-3.99c-0.08-3.98,3.06-7.21,7.01-7.21l366.54,0.37
			c3.95,0,7.22,3.24,7.3,7.22c0.08,3.98-3.06,7.21-7.01,7.21l-366.54-0.37C59.88,281.53,57.67,280.25,56.35,278.3z"/>
	</g>
	<g>
		<path fill="#E9E2D2" d="M56.35,188.7c-0.78-1.14-1.24-2.51-1.27-3.99c-0.08-3.98,3.06-7.21,7.01-7.21l366.54,0.37
			c3.95,0,7.22,3.24,7.3,7.22c0.08,3.98-3.06,7.21-7.01,7.21l-366.54-0.37C59.88,191.93,57.67,190.64,56.35,188.7z"/>
	</g>
	<path fill="none" stroke="#E9E2D2" stroke-width="12" stroke-miterlimit="10" d="M456.04,249.72H34.96
		c-14.37,0-26.13-9.46-26.13-21.03v0c0-11.56,11.76-21.03,26.13-21.03h421.07c14.37,0,26.13,9.46,26.13,21.03v0
		C482.17,240.26,470.41,249.72,456.04,249.72z"/>
</g>
</svg>
