<?xml version="1.0" encoding="utf-8"?>
<!-- Generator: Adobe Illustrator 18.1.0, SVG Export Plug-In . SVG Version: 6.00 Build 0)  -->
<svg version="1.1" id="Isolation_Mode" xmlns="http://www.w3.org/2000/svg" xmlns:xlink="http://www.w3.org/1999/xlink" x="0px"
	 y="0px" viewBox="0 0 279.33 267.33" enable-background="new 0 0 279.33 267.33" xml:space="preserve">
<g>
	<path fill="#E9E2D2" d="M25.65,143.2c-3.18,1.51-6.98,4.8-6.98,4.8s-1.33,4.33-4.67,6.33c-3.33,2-4.67,1.33-8.67,4
		c-1.58,1.06-1.28,3.47-0.35,6c6.87-5.78,15.13-11.08,24.29-15.92C27.49,147.21,26.18,145.36,25.65,143.2z"/>
	<path fill="#E9E2D2" d="M125.98,113.64c2.49-0.58,4.95-1.13,7.36-1.67c17.5-3.85,35.22-7.06,51.94-9.6
		c-0.95-2.7-1.86-5.22-2.29-6.35c-0.88-2.33-0.99-0.83-8.14-2.29c-0.29,1.14-0.86,2.08-1.74,2.7c-2.69,1.92-7.26,0.23-10.76-3.77
		c-1.65,0.8-2.75,2.19-5.37,3.35c-5.3,2.34-13.22,5.59-33.24,5.23c1.53,2.91,2.4,6.22,2.4,9.74
		C126.17,111.89,126.09,112.77,125.98,113.64z"/>
	<path fill="#E9E2D2" d="M44.18,88.66c5.67-22.67,2.67-30.33-3-23c-5.67,7.33-5.67,7.33-5.67,7.33s-9.33,6.33-12,20.67
		C20.85,107.99,38.52,111.32,44.18,88.66z"/>
	<path fill="#E9E2D2" d="M81.17,97.31c-1.75-2.17-3.86-4.51-6.41-7.02c-29.33-29-17.67-6.38-17.33-1.36s1,28.02,17.33,34.69
		c0.47,0.19,1.93,0.13,3.73-0.32c-2.09-3.27-3.32-7.14-3.32-11.3C75.17,106.28,77.46,101.1,81.17,97.31z"/>
	<path fill="#E9E2D2" d="M121.33,102.26c0.15,0,0.29,0,0.43,0.01C118.25,95.57,111.25,91,103.17,91c-5.88,0-11.19,2.42-15,6.31
		c14.37,17.83,3.71,24.39-2.68,25.99c0.29,0.45,0.6,0.88,0.92,1.31c3.61-1.1,7.21-2.15,10.81-3.15
		C101.34,112.87,109.01,102.01,121.33,102.26z"/>
	<path fill="#E9E2D2" d="M97.21,121.46c9.14-2.56,18.16-4.83,26.77-6.83c0.11-0.86,0.18-1.74,0.18-2.64c0-3.52-0.88-6.83-2.4-9.74
		c-0.14,0-0.28,0-0.43-0.01C109.01,102.01,101.34,112.87,97.21,121.46z"/>
	<path fill="#E9E2D2" d="M88.17,97.31c-3.71,3.79-6,8.97-6,14.69c0,4.17,1.23,8.04,3.32,11.3C91.88,121.7,102.54,115.14,88.17,97.31
		z"/>
	<path fill="#E9E2D2" d="M259.33,93.01C267.99,83.62,283,76.67,252,81c-14.07,1.97-21.33,9.42-25.07,16.98
		c11.59-1.06,21.65-1.64,29.46-1.71C257.27,95.27,258.25,94.19,259.33,93.01z"/>
	<path fill="#E9E2D2" d="M159.33,78.19c1.25-0.89,2.91-1,4.67-0.46c0.26-0.25,0.54-0.52,0.84-0.8c4.99-4.67,5.67-7,8.01-10.56
		c2.33-3.56,0-4.44,0-10.44s-2.33-2.33-5.33-1.33s-4.33-1-10.33,0s-11,5.33-12,8.8c0,0-8,10.53-9.67,15.21s3,5.99,3.49,6.65
		c0.49,0.67,3.18,0.33,10.85,0c7.57-0.33,4.42-0.33,7.55-1.62C157.2,81.28,157.82,79.27,159.33,78.19z"/>
	<path fill="#E9E2D2" d="M142.33,40.5c4.33,3.16,7.01,6.5,11.01,7.16c3.99,0.67,5.66,2.67,8.33-2c2.67-4.67,2.67-12.33,0-15.67
		C159,26.67,155,22,155,22c-4-3.67-12.65-7.46-14.49-7.4S130,11.33,132.33,22S138,37.34,142.33,40.5z"/>
	<path fill="#E9E2D2" d="M245.94,60.15l-0.32-0.63c0,0-4.6,0.3-4.6,4.57s4,8.06,9.49,10.81s6.51-1.41,10.84-3.75
		c4.33-2.33,3-4,6.67-11s4.67-5.67,6-9.33c1.33-3.67-3-5.67-9.67-14.67c-6.67-9-1.33-2.33-9-1.67c-7.67,0.67-1.33,1.33-7,10.33
		c-3.88,6.16-3.58,11.07-3,13.56C245.61,59.52,245.94,60.15,245.94,60.15z"/>
	<path fill="#E9E2D2" d="M92.27,74.63c1.25,6.35-0.1,6.24,1.17,9.67c1.35,3.66,5.95,2.39,16.85,4.96c10.9,2.57,2.52,0.92,7.95-4.54
		c5.42-5.46,0.16-1.88-1.33-12.41c-0.7-5-2.56-8.24-4.31-10.26c-3.55-1.15-6.11-4.48-6.11-8.41c0-1.02,0.18-2,0.5-2.91
		c-2.95-1.16-6.93-1.02-11.15,0c-5.96,1.45-4.06,5.28-5.86,9.86c-0.84,2.13-0.83,3.36-0.41,4.84c0.92,0.15,1.73,0.51,2.37,1.12
		C93.73,68.26,93.74,71.4,92.27,74.63z"/>
	<path fill="#E9E2D2" d="M233.32,59.56c3.7-3.74,6.29-8.58,7.27-13.98c-0.18,0.35-0.37,0.7-0.58,1.08
		C235.76,54.17,233.12,48.28,233.32,59.56z"/>
	<path fill="#E9E2D2" d="M203.53,63.03c0.16-0.72,0.3-1.46,0.42-2.22c1.33-8.8-4-16.47,4-18.8c8-2.33,11.33-5,12.67-8.67
		c1.33-3.67,1-5,4-8.33c1.63-1.81,4.04-3.41,6.11-3.24c-4.83-6.82-12.78-11.27-21.77-11.27c-14.73,0-26.67,11.94-26.67,26.67
		c0,9.2,4.66,17.31,11.74,22.1c0.67-0.16,1.37-0.26,2.09-0.26C199.22,59.01,201.95,60.61,203.53,63.03z"/>
	<path fill="#E9E2D2" d="M88.09,78.3c1.09-1.16,1.93-2.41,2.49-3.65c-0.06-0.33-0.14-0.68-0.22-1.05c-0.73-3.26-1.53-4.87-1.91-6.21
		c-2.3-0.38-5.47,0.99-8.02,3.68c-3.34,3.54-4.34,8.03-2.23,10.03C80.32,83.09,84.75,81.84,88.09,78.3z"/>
	<path fill="#E9E2D2" d="M90.58,74.64c1.17-2.56,1.16-5.03-0.27-6.38c-0.51-0.48-1.15-0.76-1.87-0.88c0.38,1.35,1.19,2.95,1.91,6.21
		C90.45,73.97,90.52,74.32,90.58,74.64z"/>
	<path fill="#E9E2D2" d="M170.55,83.24c-1.88-2.06-4.12-3.35-6.09-3.7c-1.41-0.25-2.67-0.02-3.55,0.79
		c-1.06,0.97-1.36,2.57-0.98,4.37c0.37,1.78,1.4,3.75,2.99,5.5c0.33,0.36,0.67,0.7,1.02,1.01c3.06,2.75,6.73,3.63,8.62,1.9
		c0.61-0.56,0.97-1.34,1.09-2.24C173.94,88.68,172.83,85.74,170.55,83.24z"/>
	<path fill="#E9E2D2" d="M52.63,107.94c4.85-1.03,8.49-5.33,8.49-10.49c0-5.93-4.8-10.73-10.73-10.73c-5.92,0-10.73,4.8-10.73,10.73
		c0,4.11,2.32,7.68,5.71,9.48C48.18,106.18,50.9,106.17,52.63,107.94z"/>
	<path fill="#E9E2D2" d="M71.38,128.43c-6-4.65-8-8.01-8.33-11.68c-0.33-3.67-2-3-6-8.33c-0.13-0.17-0.27-0.33-0.41-0.48
		c-0.72,0.15-1.47,0.24-2.24,0.24c-1.81,0-3.52-0.45-5.02-1.25c-4.16,1.11-8.53,3.83-10.16,4.75c-2.82,1.59-7.84-0.26-13.51,2.74
		s-5,4.67-8.76,8.67c-3.76,4-0.24,7,5.42,8.67c5.67,1.67,6.67-1,11.61-4.33c4.94-3.33,14.73-11.67,11.39,0
		c-1.34,4.69-0.95,8.79,0.18,12.1c8.55-3.78,17.57-7.23,26.76-10.37C72.02,128.93,71.71,128.69,71.38,128.43z"/>
	<path fill="#E9E2D2" d="M56.63,107.94c-1.73-1.77-4.45-1.76-7.25-1.01c1.5,0.79,3.2,1.25,5.02,1.25
		C55.16,108.17,55.91,108.09,56.63,107.94z"/>
	<path fill="#E9E2D2" d="M206.35,68.36c-2.86-0.6-5.51-1.74-7.85-3.32c-3.22,0.78-5.61,3.67-5.61,7.13c0,3.8,2.89,6.93,6.59,7.31
		C202.7,77.42,205.16,73.67,206.35,68.36z"/>
	<path fill="#E9E2D2" d="M206.39,68.16c-1.31-2.01-3.58-3.34-6.16-3.34c-0.6,0-1.18,0.08-1.74,0.21c2.34,1.58,4.99,2.73,7.85,3.32
		C206.36,68.29,206.38,68.23,206.39,68.16z"/>
	<path fill="#E9E2D2" d="M37.33,140.67c0.16,0.7,0.44,1.49,0.77,2.29c2.27-1.09,4.58-2.16,6.93-3.2c0.02-0.22,0.03-0.45,0.03-0.68
		c0-4.88-3.96-8.84-8.84-8.84c-4.88,0-8.84,3.96-8.84,8.84c0,0.73,0.1,1.44,0.27,2.12c0.47-0.22,0.92-0.41,1.35-0.53
		C32.33,139.67,36.67,137.67,37.33,140.67z"/>
	<path fill="#E9E2D2" d="M31.28,146.41c2.23-1.18,4.5-2.33,6.82-3.45c-0.33-0.8-0.61-1.59-0.77-2.29c-0.67-3-5-1-8.33,0
		c-0.43,0.13-0.88,0.31-1.35,0.53C28.18,143.36,29.49,145.21,31.28,146.41z"/>
	<path fill="#E9E2D2" d="M121.32,42.8c-3.86,0-7.14,2.48-8.34,5.93c-0.32,0.91-0.5,1.89-0.5,2.91c0,3.93,2.57,7.26,6.11,8.41
		c0.86,0.28,1.78,0.43,2.73,0.43c4.88,0,8.84-3.96,8.84-8.84S126.21,42.8,121.32,42.8z"/>
	<path fill="#E9E2D2" d="M240,30.67c-0.61-3.66-2.13-5.09-3.89-5.24c-2.08-0.18-4.49,1.43-6.11,3.24c-3,3.33-2.67,4.67-4,8.33
		c-1.33,3.67-4.67,6.33-12.67,8.67c-8,2.33-2.67,10-4,18.8c-0.12,0.77-0.26,1.5-0.42,2.22c0.06,0.09,0.11,0.19,0.17,0.28
		c-0.07-0.01-0.15-0.03-0.22-0.05c-1.43,6.39-4.39,10.91-8.27,13.38c-0.62,0.4-1.26,0.74-1.93,1.03c-5.33,2.33-2.33,0-14.67,0
		c-12.33,0-0.33,5.33,0,9c0.18,1.97,4.51,7.23,8.69,11.67c7.22-1.01,14.2-1.89,20.83-2.64c1.22-2.32,4.21-5.13,11.15-10.92
		c12.67-10.56,7.67-1.77,10.67-8.76c3-6.99-1.67-7.01-2-19.35c-0.01-0.27-0.01-0.52-0.02-0.77c-0.2-11.28,2.44-5.4,6.68-12.9
		c0.22-0.38,0.4-0.74,0.58-1.08C244.02,38.96,241.27,38.27,240,30.67z"/>
	<path fill="#E9E2D2" d="M208.87,66.93c0.07,0.02,0.15,0.03,0.22,0.05c-0.06-0.09-0.11-0.19-0.17-0.28
		C208.9,66.77,208.88,66.85,208.87,66.93z"/>
	<path fill="#E9E2D2" d="M258.11,109.26c-2.02,0-4.28,0.04-6.74,0.13c-7.3,0.25-16.43,0.87-26.84,1.88
		c-3.72,0.36-7.6,0.77-11.62,1.23c-4.76,0.54-9.71,1.16-14.83,1.84c-4.16,0.56-8.43,1.16-12.78,1.82c-20.02,3-41.8,7.02-63.3,12.11
		c-9.34,2.21-18.62,4.62-27.68,7.25c-0.98,0.28-1.96,0.58-2.94,0.87c-3.85,1.14-7.65,2.31-11.4,3.53
		c-11.17,3.62-21.82,7.59-31.62,11.91c-2.82,1.24-5.57,2.51-8.23,3.81c-11.95,5.82-22.32,12.22-30.37,19.24
		c-1.56,1.36-3.04,2.73-4.41,4.13c-1,7,26,60,83,82h117c0,0,62-51,65-150C270.19,109.85,265.76,109.26,258.11,109.26z"/>
</g>
</svg>
