<?xml version="1.0" encoding="utf-8"?>
<!-- Generator: Adobe Illustrator 18.1.0, SVG Export Plug-In . SVG Version: 6.00 Build 0)  -->
<svg version="1.1" id="Layer_1" xmlns="http://www.w3.org/2000/svg" xmlns:xlink="http://www.w3.org/1999/xlink" x="0px" y="0px"
	 viewBox="0 0 122.67 114.67" enable-background="new 0 0 122.67 114.67" xml:space="preserve">
<g>
	<g>
		<path fill="#C5BEAF" d="M70.13,17.98c-0.41,0-0.82-0.12-1.18-0.36c-0.98-0.65-1.25-1.98-0.6-2.96l6.26-9.42
			c-4.1-0.67-8.39-1.04-12.8-1.07l-8.54,12.85c-0.41,0.62-1.09,0.95-1.78,0.95c-0.41,0-0.82-0.12-1.18-0.36
			c-0.98-0.65-1.25-1.98-0.6-2.96L56.6,4.31C29.13,5.86,7.58,20.76,7.58,38.91c0,0.78,0.04,1.56,0.12,2.33h107.25
			c0.08-0.77,0.12-1.55,0.12-2.33c0-15.15-15.01-28.03-35.93-32.78l-7.24,10.9C71.5,17.64,70.82,17.98,70.13,17.98z"/>
		<path fill="#C5BEAF" d="M7.71,91.96c-0.08,0.77-0.12,1.55-0.12,2.33c0,16.37,11.77,16.21,53.75,16.21
			c42.64,0,53.75,0.17,53.75-16.21c0-0.78-0.04-1.56-0.12-2.33H7.71z"/>
	</g>
	<g>
		<path fill="#C5BEAF" d="M3.98,49.66c-0.24-0.35-0.38-0.76-0.38-1.21c-0.02-1.21,0.93-2.19,2.12-2.18l111.13,0.11
			c1.2,0,2.19,0.98,2.21,2.19c0.02,1.21-0.93,2.19-2.12,2.18L5.81,50.64C5.06,50.63,4.38,50.25,3.98,49.66z"/>
	</g>
	<g>
		<path fill="#C5BEAF" d="M3.98,86.53c-0.24-0.35-0.38-0.76-0.38-1.21c-0.02-1.21,0.93-2.19,2.12-2.18l111.13,0.11
			c1.2,0,2.19,0.98,2.21,2.19c0.02,1.21-0.93,2.19-2.12,2.18L5.81,87.51C5.06,87.51,4.38,87.12,3.98,86.53z"/>
	</g>
	<g>
		<path fill="#C5BEAF" d="M3.98,59.36c-0.24-0.35-0.38-0.76-0.38-1.21c-0.02-1.21,0.93-2.19,2.12-2.18l111.13,0.11
			c1.2,0,2.19,0.98,2.21,2.19c0.02,1.21-0.93,2.19-2.12,2.18L5.81,60.34C5.06,60.34,4.38,59.95,3.98,59.36z"/>
	</g>
	<g>
		<path fill="#C5BEAF" d="M74.54,80.08c-0.61,0-1.23-0.2-1.76-0.6l-11.46-8.66l-11.46,8.66c-1.06,0.8-2.46,0.8-3.52,0L34.9,70.82
			l-11.45,8.66c-1.06,0.8-2.46,0.8-3.52,0L6.72,69.49c-1.43-1.08-1.79-3.24-0.82-4.82c0.97-1.58,2.91-1.99,4.34-0.92l11.45,8.66
			l11.45-8.66c1.06-0.8,2.46-0.8,3.52,0l11.46,8.66l11.46-8.66c1.06-0.8,2.46-0.8,3.52,0l11.46,8.66L86,63.76
			c1.06-0.8,2.46-0.8,3.52,0l11.46,8.66l11.46-8.66c1.43-1.08,3.37-0.67,4.34,0.92c0.97,1.58,0.6,3.74-0.82,4.82l-13.22,9.99
			c-1.06,0.8-2.45,0.8-3.52,0l-11.46-8.66L76.3,79.48C75.77,79.88,75.16,80.08,74.54,80.08z"/>
	</g>
</g>
</svg>
