<?xml version="1.0" encoding="utf-8"?>
<!-- Generator: Adobe Illustrator 18.1.0, SVG Export Plug-In . SVG Version: 6.00 Build 0)  -->
<svg version="1.1" id="Isolation_Mode" xmlns="http://www.w3.org/2000/svg" xmlns:xlink="http://www.w3.org/1999/xlink" x="0px"
	 y="0px" viewBox="0 0 322.16 478.8" enable-background="new 0 0 322.16 478.8" xml:space="preserve">
<g>
	<path fill="#EAE7DE" d="M141.63,431.39c0-15.6,0-30.53,0-45.73c-18.97-2.76-36.75-8.67-53.09-18.3
		c-39.89-23.52-66.13-57.26-72.89-103.67c-2.67-18.32-1.37-37.22-1.81-55.85c-0.12-5-0.02-10,0.01-15
		c0.07-11.08,7.24-18.02,18.75-18.16c12.3-0.15,19.81,6.53,19.91,18.03c0.13,13.99,0.33,28-0.03,41.99
		c-0.7,27.58,7.17,52.16,24.52,73.69c26.97,33.49,72.86,47.85,114.33,35.72c41.88-12.26,73.51-49.02,77.34-91.82
		c1.69-18.85,1.44-37.96,0.87-56.91c-0.49-16.22,11.86-24.01,27.26-19.55c6.6,1.91,10.71,6.93,11.18,13.92
		c0.49,7.3,0.44,14.65,0.31,21.97c-0.3,16.64,0.5,33.44-1.48,49.89c-4.82,40.03-25.48,71.2-57.22,95.31
		c-20.4,15.5-43.48,24.88-69.02,28.74c0,15.15,0,30.08,0,45.73c2.04,0,3.96,0,5.88,0c16.83,0,33.66-0.06,50.48,0.02
		c11.95,0.06,20.58,8.22,20.5,19.19c-0.08,11.03-8.58,19.04-20.65,19.05c-50.32,0.06-100.63,0.06-150.95,0
		c-12.04-0.01-20.33-8.07-20.24-19.3c0.09-10.97,8.41-18.88,20.16-18.93C104.22,431.34,122.69,431.39,141.63,431.39z"/>
	<path fill="#EAE7DE" d="M244.29,175.8c0,15.55,0.17,30.7-0.06,45.84c-0.16,10.8,0.14,21.76-1.5,32.37
		c-5.95,38.38-40.44,67.68-79.63,68.47c-39.74,0.8-75.24-26.84-83.11-65c-1.3-6.32-1.94-12.87-2.02-19.32
		c-0.25-20.65-0.09-41.3-0.09-62.36C133.31,175.8,188.51,175.8,244.29,175.8z"/>
	<path fill="#EAE7DE" d="M76.96,149.28c0.94-25.04-0.28-49.92,3.3-74.08C85.7,38.38,122,5.71,169.07,9.39
		c39.01,3.04,72.92,37.12,74.74,77.05c0.95,20.76,0.17,41.59,0.17,62.84C188.82,149.28,133.66,149.28,76.96,149.28z"/>
</g>
</svg>
