<?xml version="1.0" encoding="utf-8"?>
<!-- Generator: Adobe Illustrator 18.1.0, SVG Export Plug-In . SVG Version: 6.00 Build 0)  -->
<svg version="1.1" id="Layer_1" xmlns="http://www.w3.org/2000/svg" xmlns:xlink="http://www.w3.org/1999/xlink" x="0px" y="0px"
	 viewBox="0 0 356.67 292.67" enable-background="new 0 0 356.67 292.67" xml:space="preserve">
<g>
	<g>
		<path fill="#FFFFFF" d="M3.52,193.5v-0.18c0-17.85,14.39-32.33,33.57-32.33s33.39,14.3,33.39,32.15v0.18
			c0,17.85-14.39,32.33-33.57,32.33S3.52,211.35,3.52,193.5z M52.81,193.5v-0.18c0-9.06-6.39-16.79-15.9-16.79
			c-9.5,0-15.81,7.64-15.81,16.61v0.18c0,8.97,6.48,16.79,15.99,16.79C46.5,210.11,52.81,202.47,52.81,193.5z"/>
		<path fill="#FFFFFF" d="M85.59,162.24h29.4c9.5,0,16.08,2.49,20.25,6.66c3.64,3.64,5.51,8.35,5.51,14.48v0.18
			c0,9.59-5.06,15.9-12.79,19.18l14.83,21.67h-19.81l-12.52-18.83h-7.64v18.83H85.59V162.24z M114.27,192.08
			c5.77,0,9.24-2.84,9.24-7.37v-0.18c0-4.97-3.64-7.46-9.33-7.46h-11.37v15.01H114.27z"/>
		<path fill="#FFFFFF" d="M155.66,162.24h24.07c22.12,0,34.99,12.79,34.99,30.73v0.18c0,17.94-13.06,31.26-35.35,31.26h-23.71
			V162.24z M172.9,177.43v31.71h7.02c10.39,0,17.23-5.68,17.23-15.72v-0.18c0-9.95-6.84-15.81-17.23-15.81H172.9z"/>
		<path fill="#FFFFFF" d="M229.92,162.24h50v14.57h-32.95v9.5h29.84v13.59h-29.84v9.86h33.39v14.65h-50.45V162.24z"/>
		<path fill="#FFFFFF" d="M295.47,162.24h29.4c9.5,0,16.08,2.49,20.25,6.66c3.64,3.64,5.51,8.35,5.51,14.48v0.18
			c0,9.59-5.06,15.9-12.79,19.18l14.83,21.67h-19.81l-12.52-18.83h-7.64v18.83h-17.23V162.24z M324.15,192.08
			c5.77,0,9.24-2.84,9.24-7.37v-0.18c0-4.97-3.64-7.46-9.33-7.46H312.7v15.01H324.15z"/>
	</g>
	<g>
		<g>
			<path fill="#FFFFFF" d="M200.75,43.25c-1.05,0-2.1-0.3-3.04-0.92c-2.53-1.68-3.22-5.09-1.54-7.62l16.13-24.28
				c-10.56-1.73-21.6-2.68-32.97-2.74L157.33,40.8c-1.06,1.59-2.81,2.46-4.59,2.46c-1.05,0-2.1-0.3-3.04-0.92
				c-2.53-1.68-3.22-5.09-1.54-7.62L165.9,8.03C95.13,12.02,39.62,50.4,39.62,97.18c0,2.02,0.11,4.02,0.32,6h276.31
				c0.2-1.98,0.32-3.98,0.32-6c0-39.03-38.66-72.22-92.57-84.46L205.33,40.8C204.28,42.39,202.53,43.25,200.75,43.25z"/>
			<path fill="#FFFFFF" d="M39.94,239.34c-0.2,1.98-0.32,3.98-0.32,6c0,42.18,30.31,41.75,138.47,41.75
				c109.84,0,138.47,0.43,138.47-41.75c0-2.02-0.11-4.02-0.32-6H39.94z"/>
		</g>
	</g>
	<g>
		<g>
			<path fill="#FFFFFF" d="M36.7,124.13c-0.56-0.85-0.89-1.86-0.89-2.95c0-2.95,2.39-5.34,5.34-5.34l273.88,0.03
				c2.95,0,5.34,2.39,5.34,5.34c0,2.95-2.39,5.34-5.34,5.34l-273.88-0.03C39.29,126.53,37.65,125.58,36.7,124.13z"/>
		</g>
	</g>
	<g>
		<g>
			<path fill="#FFFFFF" d="M36.7,145.01c-0.56-0.85-0.89-1.86-0.89-2.95c0-2.95,2.39-5.34,5.34-5.34l273.88,0.03
				c2.95,0,5.34,2.39,5.34,5.34c0,2.95-2.39,5.34-5.34,5.34L41.15,147.4C39.29,147.4,37.65,146.45,36.7,145.01z"/>
		</g>
	</g>
</g>
</svg>
