<?xml version="1.0" encoding="utf-8"?>
<!-- Generator: Adobe Illustrator 18.1.0, SVG Export Plug-In . SVG Version: 6.00 Build 0)  -->
<svg version="1.1" id="Layer_2" xmlns="http://www.w3.org/2000/svg" xmlns:xlink="http://www.w3.org/1999/xlink" x="0px" y="0px"
	 viewBox="0 0 29.38 37.5" enable-background="new 0 0 29.38 37.5" xml:space="preserve">
<path opacity="0.21" fill="#4B608A" d="M19,0.61H7.78c-3.94,0-7.15,3.21-7.15,7.15v21.87c0,3.94,3.21,7.15,7.15,7.15h13.92
	c3.94,0,7.15-3.21,7.15-7.15V10.46L19,0.61z M26.56,29.62c0,2.67-2.18,4.85-4.85,4.85H7.78c-2.67,0-4.85-2.18-4.85-4.85V7.76
	c0-2.67,2.18-4.85,4.85-4.85h10.27l-0.48,8.2l8.97,0.29l0.02,0.02V29.62z"/>
<path opacity="0.21" fill="#4B608A" d="M21.88,18.04h-14c-0.78,0-1.42-0.64-1.42-1.42v0c0-0.78,0.64-1.42,1.42-1.42h14
	c0.78,0,1.42,0.64,1.42,1.42v0C23.29,17.4,22.65,18.04,21.88,18.04z"/>
<path opacity="0.21" fill="#4B608A" d="M18.88,23.46h-11c-0.78,0-1.42-0.64-1.42-1.42v0c0-0.78,0.64-1.42,1.42-1.42h11
	c0.78,0,1.42,0.64,1.42,1.42v0C20.29,22.82,19.65,23.46,18.88,23.46z"/>
<path opacity="0.21" fill="#4B608A" d="M21.88,28.88h-14c-0.78,0-1.42-0.64-1.42-1.42v0c0-0.78,0.64-1.42,1.42-1.42h14
	c0.78,0,1.42,0.64,1.42,1.42v0C23.29,28.24,22.65,28.88,21.88,28.88z"/>
</svg>
