<?xml version="1.0" encoding="utf-8"?>
<!-- Generator: Adobe Illustrator 18.1.0, SVG Export Plug-In . SVG Version: 6.00 Build 0)  -->
<svg version="1.1" id="Layer_1" xmlns="http://www.w3.org/2000/svg" xmlns:xlink="http://www.w3.org/1999/xlink" x="0px" y="0px"
	 viewBox="0 0 280.67 274" enable-background="new 0 0 280.67 274" xml:space="preserve">
<g>
	<path fill="#761213" d="M113.32,266c-0.74-10.78-1.38-21.56-2.26-32.33c-1.36-16.63-2.94-33.25-4.29-49.88
		c-0.4-4.87-0.79-8.88-6.9-10.54c-6.02-1.63-7.98-7.31-8.01-13.13c-0.12-22.38-0.16-44.76,0.05-67.14
		c0.08-8.99,4.51-15.71,12.58-19.81c5.45-2.76,11.09-3.26,16.08,0.74c13.85,11.1,27.33,11.27,41.32,0.03
		c9.01-7.24,23.4-0.33,26.15,12.92c0.7,3.37,0.81,6.91,0.82,10.38c0.08,20.2,0.06,40.4,0.04,60.6c-0.01,9.9-2.23,12.91-11.54,16.94
		c-1.24,0.54-2.43,2.58-2.58,4.03c-1.13,11.13-2.08,22.28-2.94,33.43c-1.27,16.46-2.44,32.92-3.61,49.39
		c-0.1,1.44,0.15,2.9,0.24,4.35c-4.41,0-8.82,0-13.23,0c-7.29-24.77-14.58-49.54-22.05-74.94c0,25.4,0,50.17,0,74.94
		C126.55,266,119.94,266,113.32,266z"/>
	<path fill="#761213" d="M32.83,95c1.16-3.74,6-8.73,9.8-12.22c5.59-5.13,11.3-5.19,17.92-1.48c7.43,4.17,14.08,5.08,22.42,3.31
		c0,21.37,0.08,42.88-0.03,64.38c-0.06,11.59,1.94,22.22,11.64,29.98c0.63,0.51,1.08,1.65,1.08,2.49
		c0.06,15.82,0.05,31.63,0.05,47.85c-5.43,0-10.5,0-16.31,0c0-19.73,0-39.6,0-59.47c-0.47-0.05-0.94-0.1-1.41-0.15
		c-1.4,6.65-2.86,13.29-4.19,19.96c-2.45,12.23-4.73,24.5-7.36,36.69c-0.29,1.33-2.33,3-3.75,3.21c-3.24,0.48-6.6,0.15-10.45,0.15
		c-1.1-10.71-2.16-21.07-3.22-31.43c-0.99-9.6-1.92-19.2-3.03-28.79c-0.13-1.12-1.01-2.86-1.85-3.07
		c-5.75-1.43-10.25-6.72-11.3-10.42C28.67,141.33,28.32,109.57,32.83,95z"/>
	<path fill="#761213" d="M247.83,156c-1.23,3.65-5.67,8.89-11.32,10.46c-0.9,0.25-1.73,2.23-1.87,3.49
		c-1.74,16.04-3.35,32.1-5,48.15c-0.37,3.64-0.78,7.27-1.21,11.25c-6,0-11.89,0-18.37,0c0-20.03,0-39.91,0-59.79
		c-0.35-0.03-0.7-0.06-1.05-0.09c-2.45,12.14-4.91,24.28-7.35,36.43c-1.21,6.03-2.65,12.04-3.49,18.12
		c-0.62,4.52-2.52,6.49-7.14,5.74c-1.76-0.28-3.59-0.05-6.05-0.05c0-4.59,0-8.69,0-12.8c-0.02-11.17-0.14-22.33,0.05-33.5
		c0.03-1.83,1.03-4.13,2.37-5.36c7.48-6.85,10.96-15.26,10.94-25.3c-0.04-22.62-0.01-45.25-0.01-68.21
		c9.23,1.69,17.89,0.64,26.08-4.54c4.92-3.11,11.99-1.15,16.55,4.21c2.73,3.22,6.08,7.68,6.88,10.77
		C251.62,109.77,252.7,141.55,247.83,156z"/>
	<path fill="#761213" d="M143.09,8c6.71,1.94,13.12,4.23,17.92,9.84c7.85,9.18,8.93,23.1,2.23,33.15
		c-6.96,10.45-19.89,14.83-31.88,10.82c-11.44-3.83-18.94-14.92-18.31-27.08c0.64-12.39,8.13-21.86,19.98-25.35
		c1.18-0.35,2.3-0.92,3.45-1.39C138.68,8,140.89,8,143.09,8z"/>
	<path fill="#761213" d="M206.95,28.12c11.9,0.05,21.75,9.91,21.59,21.59c-0.17,12.23-9.79,21.79-22,21.89
		c-11.56,0.09-21.56-10.01-21.57-21.78C184.98,37.6,194.63,28.07,206.95,28.12z"/>
	<path fill="#761213" d="M95.67,49.92c-0.08,11.83-9.86,21.62-21.63,21.66c-11.98,0.04-22.04-10.05-21.88-21.95
		c0.17-12.28,9.72-21.57,22.16-21.56C86.06,28.07,95.75,37.99,95.67,49.92z"/>
</g>
</svg>
