<?xml version="1.0" encoding="utf-8"?>
<!-- Generator: Adobe Illustrator 18.1.0, SVG Export Plug-In . SVG Version: 6.00 Build 0)  -->
<svg version="1.1" id="Isolation_Mode" xmlns="http://www.w3.org/2000/svg" xmlns:xlink="http://www.w3.org/1999/xlink" x="0px"
	 y="0px" viewBox="0 0 814.87 814" enable-background="new 0 0 814.87 814" xml:space="preserve">
<path fill="#492E1E" d="M14.27,186c2.27-11.37,3.81-22.95,6.94-34.09c10.71-38.09,29.45-71.92,55.46-101.75
	c12.48-14.31,28.76-22,46.74-26.14c16.5-3.8,33.19-6.83,49.89-9.65c12.97-2.19,23.68,1.67,30.47,13.75
	c10.93,19.44,21.92,38.85,32.85,58.29c11.92,21.19,23.62,42.5,35.83,63.52c5.18,8.91,11.59,17.09,17.1,25.82
	c3.19,5.05,6.07,10.36,8.43,15.84c3.99,9.24,3.46,18.68-2.92,26.46c-8.2,10.01-16.76,19.9-26.35,28.53
	c-15.21,13.7-31.6,26.07-47.06,39.5c-6.36,5.53-11.85,12.14-17.26,18.64c-5.14,6.18-6.37,13.51-3.62,21.15
	c2.08,5.78,3.93,11.8,7.02,17.05c19.74,33.59,39.01,67.47,62.63,98.63c41.9,55.29,93.06,100.13,152.13,136.16
	c15.07,9.19,30.21,18.28,45.57,26.96c6.33,3.58,13.23,6.23,20.06,8.8c7.54,2.84,14.67,1.5,21.28-3.2
	c11.54-8.21,20.52-18.97,29.64-29.57c13.78-16.03,27.17-32.41,41.21-48.2c4.58-5.15,10.48-9.23,16.12-13.32
	c8.57-6.21,17.98-6.58,27.46-2.32c5.14,2.31,10.32,4.82,14.89,8.08c31.03,22.11,64.91,39.32,98.12,57.7
	c12.67,7.01,25.42,13.89,38.08,20.93c3.63,2.02,7,4.52,10.62,6.56c11.91,6.69,16.13,16.95,14.71,30.2
	c-2.68,24.94-7.89,49.28-17.52,72.5c-5.52,13.31-15.58,23.2-26.67,31.86c-31.75,24.81-66.69,43.29-106.42,51.66
	c-33.77,7.12-67.34,5.45-100.14-4.89c-27.75-8.75-54.99-19.08-82.54-28.49c-64.2-21.93-121.06-56.59-173.09-99.61
	c-62.65-51.81-119.13-109.57-167.69-174.9c-32.32-43.49-57.45-90.79-75.17-142.03c-8.7-25.15-18.01-50.09-26.44-75.32
	c-5.06-15.15-8.48-30.78-9.77-46.79c-0.04-0.46-0.4-0.88-0.62-1.33C14.27,210.67,14.27,198.33,14.27,186z"/>
</svg>
