<?xml version="1.0" encoding="utf-8"?>
<!-- Generator: Adobe Illustrator 18.1.0, SVG Export Plug-In . SVG Version: 6.00 Build 0)  -->
<svg version="1.1" id="Layer_1" xmlns="http://www.w3.org/2000/svg" xmlns:xlink="http://www.w3.org/1999/xlink" x="0px" y="0px"
	 viewBox="0 0 130 168.24" enable-background="new 0 0 130 168.24" xml:space="preserve">
<g>
	<path fill="#741012" d="M51.66,126.93c-0.86-2.58-1.29-5.38-1.29-9.25c0-32.92,25.82-35.93,25.82-73.36
		c0-10.76-4.3-14.85-11.83-14.85c-7.53,0-11.83,4.09-11.83,14.85v16.35H30.15V45.82c0-24.1,11.83-37.87,34.85-37.87
		c23.02,0,34.85,13.77,34.85,37.87c0,39.16-27.97,45.18-27.97,72.72c0,2.8,0.22,5.59,0.86,8.39H51.66z M73.39,137.47v22.81H50.59
		v-22.81H73.39z"/>
</g>
</svg>
