<?xml version="1.0" encoding="utf-8"?>
<!-- Generator: Adobe Illustrator 18.1.0, SVG Export Plug-In . SVG Version: 6.00 Build 0)  -->
<svg version="1.1" id="Isolation_Mode" xmlns="http://www.w3.org/2000/svg" xmlns:xlink="http://www.w3.org/1999/xlink" x="0px"
	 y="0px" viewBox="197.5 197.5 165 165" enable-background="new 197.5 197.5 165 165" xml:space="preserve">
<g>
	<path fill="#C4161C" d="M218,242.4c0-13.8,11.4-25.1,25.2-25c13.9,0.1,36-3.3,49.2-7.6c13.2-4.3,27.4,3,31.6,16.2
		c4.2,13.2,14.3,33.1,22.5,44.3c8.1,11.2,5.6,27-5.7,35c-11.3,8.1-27.2,23.8-35.3,35c-8.2,11.2-24,13.6-35.1,5.4
		c-11.2-8.2-31.1-18.4-44.3-22.7c-13.2-4.3-20.4-18.5-16-31.7C214.5,278.3,218,256.2,218,242.4"/>
	<path fill="#C4161C" d="M217.9,243.3c0-13.8,11.4-25.1,25.2-25c13.9,0.1,36-3.3,49.2-7.6c13.2-4.3,27.4,3,31.6,16.2
		c4.2,13.2,14.3,33.1,22.5,44.3c8.1,11.2,5.6,27-5.7,35c-11.3,8.1-27.2,23.8-35.3,35c-8.2,11.2-24,13.6-35.1,5.4
		c-11.2-8.2-31.1-18.4-44.3-22.7c-13.2-4.3-20.4-18.5-16-31.7C214.3,279.1,217.9,257.1,217.9,243.3"/>
	<path fill="#FFFFFF" d="M277.7,301.8c-6.5,0-12.7-2.5-17.3-7.2c-4.6-4.6-7.1-10.7-7.1-17.2c0-6.5,2.6-12.6,7.2-17.2
		c4.6-4.6,10.7-7.1,17.2-7.1c6.5,0,12.7,2.5,17.3,7.2c4.6,4.6,7.1,10.7,7.1,17.2c0,6.5-2.6,12.6-7.2,17.2
		C290.3,299.3,284.2,301.8,277.7,301.8 M277.7,254.8c-6,0-11.7,2.3-16,6.6c-4.3,4.3-6.7,9.9-6.7,16c0,6,2.3,11.7,6.6,16
		c4.3,4.3,10,6.7,16.1,6.7c6,0,11.7-2.3,16-6.6c4.3-4.3,6.7-9.9,6.7-16c0-6-2.3-11.7-6.6-16C289.5,257.2,283.8,254.8,277.7,254.8"/>
	<polygon fill="#C4161C" points="307.8,265.3 266.7,306 248.4,287.6 289.5,246.9 	"/>
	<path fill="#FFFFFF" d="M243.4,314.9l-0.2-2.2c1.1-0.1,2-0.6,2.6-1.3c0.3-0.3,0.4-0.6,0.2-0.7l0,0c-0.2-0.2-0.4-0.1-1.2,0.4
		c-1.5,1-3,1.7-4.2,0.5l0,0c-1.1-1.1-1.1-2.7,0.5-4.3c1.1-1.1,2.2-1.6,3.3-1.8l0.3,2.2c-0.9,0.1-1.7,0.6-2.2,1.1
		c-0.3,0.3-0.3,0.5-0.2,0.6l0,0c0.1,0.2,0.4,0.1,1.1-0.4c1.7-1.2,3.1-1.7,4.2-0.6l0,0c1.2,1.2,0.9,2.9-0.6,4.4
		C246.1,314.2,244.7,314.9,243.4,314.9"/>
	<polygon fill="#FFFFFF" points="245.1,303.8 247,301.8 250.2,302.6 249.5,299.4 251.4,297.5 257,303.1 255.2,304.9 252.4,302.2 
		253.1,305.4 253,305.5 249.8,304.8 252.5,307.6 250.7,309.4 	"/>
	<path fill="#FFFFFF" d="M254.6,294.2l1.9-1.9l8,3.3l-2,2l-1.1-0.5l-2,2l0.5,1l-2,2L254.6,294.2z M259.6,296.4l-1.9-0.9l0.8,1.9
		L259.6,296.4z"/>
	<path fill="#FFFFFF" d="M264,294.5l-0.2-2.2c1.1-0.1,2-0.6,2.6-1.3c0.3-0.3,0.4-0.6,0.2-0.7l0,0c-0.2-0.2-0.4-0.1-1.2,0.4
		c-1.5,1-3,1.7-4.2,0.5l0,0c-1.1-1.1-1.1-2.7,0.5-4.3c1.1-1.1,2.2-1.6,3.3-1.8l0.3,2.2c-0.9,0.1-1.7,0.6-2.2,1.1
		c-0.3,0.3-0.3,0.5-0.2,0.6l0,0c0.2,0.2,0.4,0.1,1.1-0.4c1.7-1.2,3.1-1.7,4.2-0.6l0,0c1.2,1.2,0.9,2.9-0.6,4.4
		C266.7,293.7,265.4,294.4,264,294.5"/>
	<polygon fill="#FFFFFF" points="265.7,283.3 267.6,281.4 269.6,283.4 271.3,281.7 269.3,279.7 271.2,277.8 276.8,283.5 275,285.3 
		272.9,283.3 271.2,285 273.2,287.1 271.3,288.9 	"/>
	<path fill="#FFFFFF" d="M272.5,276.6l3.2-3.1c0.8-0.8,1.5-1.1,2.1-1.1c0.4,0,0.8,0.1,1.2,0.5l0,0c0.7,0.7,0.7,1.5,0.3,2.3
		c0.9-0.5,1.8-0.6,2.6,0.2l0,0c0.9,0.9,0.8,2.3-0.6,3.7l-3.1,3.1L272.5,276.6z M277.4,276.1c0.4-0.4,0.5-0.7,0.2-1l0,0
		c-0.2-0.2-0.6-0.2-1,0.2l-0.8,0.8l0.8,0.8L277.4,276.1z M279.5,278c0.4-0.4,0.5-0.8,0.2-1l0,0c-0.2-0.2-0.6-0.2-1,0.2l-1,0.9
		l0.8,0.8L279.5,278z"/>
	<path fill="#FFFFFF" d="M281.9,273.4l-3.1-3.1l1.9-1.9l3.1,3.1c0.7,0.7,1.4,0.6,1.9,0.1c0.5-0.5,0.6-1.1-0.1-1.8l-3.1-3.1l1.9-1.9
		l3.1,3.1c1.9,1.9,1.5,3.8-0.1,5.5C285.6,275,283.8,275.3,281.9,273.4"/>
	<path fill="#FFFFFF" d="M285.6,263.6l2.8-2.7c1-1,1.9-1.4,2.7-1.4c0.7,0,1.3,0.2,1.8,0.8l0,0c0.8,0.8,1,1.8,0.6,2.8l3.2,0.6
		l-2.2,2.1l-2.7-0.6l0,0l-0.4,0.4l1.6,1.6l-1.9,1.9L285.6,263.6z M291,263.6c0.5-0.4,0.5-0.9,0.2-1.3l0,0c-0.4-0.4-0.8-0.3-1.3,0.2
		l-0.8,0.8l1.1,1.1L291,263.6z"/>
	<path fill="#FFFFFF" d="M294.7,260.2L294.7,260.2c-1.7-1.7-1.6-4.3,0.2-6c1-1,2.1-1.4,3.2-1.5l0.2,2.3c-0.7,0.1-1.3,0.3-1.7,0.7
		c-0.7,0.7-0.7,1.8,0.1,2.6l0,0c0.8,0.8,1.9,0.8,2.7,0c0.3-0.3,0.5-0.5,0.5-0.8l-0.6-0.6l-1,1l-1.2-1.2l2.7-2.7l2.6,2.6
		c-0.1,1.1-0.6,2.3-1.7,3.3C299.1,261.7,296.5,261.9,294.7,260.2"/>
	<polygon fill="#FFFFFF" points="298.8,250.6 303.6,245.8 305.1,247.3 302.2,250.3 302.7,250.8 305.5,248.1 306.8,249.5 
		304.1,252.2 304.7,252.8 307.7,249.8 309.2,251.4 304.4,256.2 	"/>
	<path fill="#FFFFFF" d="M304.8,244.6l2.8-2.7c1-1,1.9-1.4,2.7-1.4c0.7,0,1.3,0.2,1.8,0.8l0,0c0.8,0.8,1,1.8,0.6,2.8l3.2,0.6
		l-2.2,2.1l-2.7-0.6l0,0l-0.4,0.4l1.6,1.6l-1.9,1.9L304.8,244.6z M310.1,244.6c0.5-0.4,0.5-0.9,0.2-1.3l0,0
		c-0.4-0.4-0.8-0.3-1.3,0.2l-0.8,0.8l1.1,1.1L310.1,244.6z"/>
	
		<rect x="270.7" y="221.3" transform="matrix(-0.704 -0.7102 0.7102 -0.704 270.0394 654.9864)" fill="#FFFFFF" width="1.7" height="99.9"/>
	<path fill="#FFFFFF" d="M227.3,288l-0.4-2.7c-0.4-3.1,0.7-6,4-6.5l0.1,0c2.5-0.3,4,1,4.8,2.4c0.4-1.9,1.5-3.4,3.9-3.8l0.2,0
		c3.3-0.4,5.5,1.8,6,5.5l0.3,2.7L227.3,288z M235.1,284c-0.2-1.9-1.4-2.9-3.3-2.6l-0.1,0c-1.8,0.2-2.6,1.5-2.4,3.3l0,0.4l5.8-0.7
		L235.1,284z M243.4,282.9c-0.2-1.9-1.4-3.1-3.3-2.8l-0.1,0c-1.9,0.2-2.8,1.6-2.5,3.5l0,0.3l5.9-0.8L243.4,282.9z"/>
	<path fill="#FFFFFF" d="M240.1,272.5l-13.3-3.3l0.6-2.6L241,270c1.9,0.5,3,0,3.3-1.1c0.3-1.1-0.4-2.1-2.4-2.6l-13.6-3.4l0.6-2.6
		l13.3,3.3c3.7,0.9,5,3.2,4.4,5.8C246,272.1,243.7,273.4,240.1,272.5"/>
	<path fill="#FFFFFF" d="M233.5,250.7l1.8-2.5c2-2.8,4.9-3.6,8.2-1.2l0.2,0.1c2.1,1.5,2.8,3.3,2.7,5.1l8.1,2.2l-1.7,2.4l-7.2-2
		c-0.1,0.1-0.1,0.2-0.2,0.3l-0.4,0.6l5.7,4.1l-1.6,2.2L233.5,250.7z M243.2,253.8c1.1-1.5,0.9-3.1-1.1-4.5l-0.1-0.1
		c-2.1-1.5-3.6-1-4.7,0.5l-0.2,0.3l5.9,4.2L243.2,253.8z"/>
	<path fill="#FFFFFF" d="M251.1,245l-0.3-0.5c-3.4-5.2-2.9-9.3,0-11.2c0.8-0.6,1.6-0.8,2.4-0.9l1.6,2.4c-1,0-1.8,0.2-2.5,0.6
		c-1.7,1.1-1.8,3.8,0.7,7.6l0.4,0.7c2.8,4.3,5.1,4.8,6.6,3.9c0.2-0.1,0.3-0.2,0.5-0.4l-3.1-4.8l-1.7,1.1l-1.3-2l3.7-2.4l5.4,8.3
		c-0.7,1.1-1.3,1.8-2.2,2.4C258.6,251.4,254.7,250.5,251.1,245"/>
	<polygon fill="#FFFFFF" points="263.6,227.7 270.5,226.2 271,228.6 266.8,229.6 268,235.1 271.8,234.3 272.3,236.8 268.5,237.6 
		269.8,243.3 274.1,242.3 274.7,244.8 267.7,246.3 	"/>
	<path fill="#FFFFFF" d="M281.1,225.7l3.1,0.4c3.4,0.5,5.5,2.7,4.9,6.7l0,0.2c-0.4,2.5-1.6,4-3.3,4.7l1.8,8.2l-2.9-0.4l-1.6-7.3
		c-0.1,0-0.2,0-0.4,0l-0.7-0.1l-1,6.9l-2.7-0.4L281.1,225.7z M282.9,235.8c1.8,0.3,3.2-0.7,3.5-3.1l0-0.2c0.4-2.6-0.8-3.6-2.6-3.9
		l-0.4-0.1l-1,7.1L282.9,235.8z"/>
	<path fill="#FFFFFF" d="M261.4,324.7l0.7-2.6c0.9,1,1.7,1.6,2.6,1.8c1,0.3,2-0.1,2.3-1.3l0,0c0.3-1,0.1-1.8-0.9-4.1
		c-1.5-3.1-1.9-4.4-1.4-6.4l0,0c0.7-2.6,2.9-3.8,5.1-3.2c1.2,0.3,1.9,0.7,2.5,1.3l-0.7,2.6c-0.8-0.8-1.4-1.3-2.2-1.5
		c-1-0.3-2,0.2-2.3,1.3l0,0c-0.3,1-0.1,1.6,1,3.9c1.6,3.4,1.9,4.7,1.3,6.7l0,0c-0.7,2.6-3,3.8-5.2,3.2
		C263.1,326.1,262.2,325.5,261.4,324.7"/>
	<polygon fill="#FFFFFF" points="275.9,310.3 278.5,310.1 281.8,317.5 283.6,309.6 286.2,309.4 287.9,327.3 285.4,327.6 
		284.3,315.3 282.4,323.5 282.3,323.5 278.9,315.8 280,328.1 277.6,328.3 	"/>
	<path fill="#FFFFFF" d="M291,307.3l2.4-1.2l11.1,14.7l-2.3,1.1l-2.4-3.3l-3.1,1.5l1.1,3.9l-2.2,1.1L291,307.3z M298.5,316.7
		l-4.3-5.9l2,7.1L298.5,316.7z"/>
	<path fill="#FFFFFF" d="M310.3,315.8l-1.9-1.9c1.3-0.3,2.2-0.7,2.9-1.3c0.8-0.7,0.9-1.8,0.1-2.7l0,0c-0.7-0.7-1.5-1-4-1.3
		c-3.4-0.4-4.8-0.6-6.2-2.1l0,0c-1.8-1.9-1.8-4.4-0.1-6c0.9-0.8,1.6-1.2,2.5-1.5l1.9,1.9c-1.1,0.2-1.8,0.5-2.4,1.1
		c-0.7,0.7-0.9,1.8-0.1,2.6l0,0c0.7,0.7,1.3,0.9,3.9,1.1c3.7,0.4,5,0.8,6.4,2.3l0,0c1.8,1.9,1.7,4.5,0,6.1
		C312.3,315,311.3,315.5,310.3,315.8"/>
	<polygon fill="#FFFFFF" points="305.3,295.8 306.5,293.5 313.4,297 315.1,293.8 308.1,290.3 309.2,288.1 325.4,296.1 324.3,298.4 
		317.2,294.9 315.6,298.1 322.7,301.6 321.5,303.9 	"/>
	<polygon fill="#FFFFFF" points="310.1,284.5 310.9,277.9 313.3,278.2 312.8,282.3 318.1,283 318.6,279.3 321,279.6 320.5,283.3 
		326,284 326.5,279.8 328.9,280.1 328,286.8 	"/>
	<path fill="#FFFFFF" d="M310.9,274.6l-0.6-2.9c-0.6-3.1,0.7-5.7,4.4-6.5l0.2,0c2.4-0.5,4.1,0.2,5.2,1.4l6.7-4.2l0.5,2.7l-6,3.7
		c0,0.1,0.1,0.2,0.1,0.3l0.1,0.7l6.5-1.3l0.5,2.5L310.9,274.6z M319.3,269.8c-0.3-1.7-1.6-2.6-3.9-2.1l-0.2,0
		c-2.4,0.5-3,1.9-2.7,3.5l0.1,0.4l6.7-1.4L319.3,269.8z"/>
	
		<rect x="282.6" y="233.3" transform="matrix(-0.7039 -0.7103 0.7103 -0.7039 281.8367 683.9294)" fill="#FFFFFF" width="1.7" height="99.9"/>
</g>
</svg>
