<?xml version="1.0" encoding="utf-8"?>
<!-- Generator: Adobe Illustrator 18.1.0, SVG Export Plug-In . SVG Version: 6.00 Build 0)  -->
<svg version="1.1" id="Isolation_Mode" xmlns="http://www.w3.org/2000/svg" xmlns:xlink="http://www.w3.org/1999/xlink" x="0px"
	 y="0px" viewBox="0 0 184 253" enable-background="new 0 0 184 253" xml:space="preserve">
<g>
	<path fill="#6F4C36" d="M153.65,34.93c-0.44,6.72-0.96,13.45-1.26,20.18c-0.05,1.14,0.57,2.66,1.4,3.44
		c5.33,4.96,10.81,9.78,16.25,14.62c2.62,2.33,2.7,2.87,0.45,5.57c-4.66,5.6-9.41,11.13-13.96,16.83c-0.75,0.94-1.13,2.65-0.9,3.85
		c1.4,7.32,2.94,14.63,4.61,21.89c0.57,2.49-0.31,3.51-2.6,4.06c-7.07,1.71-14.11,3.56-21.18,5.26c-1.82,0.44-2.94,1.28-3.71,3.09
		c-2.79,6.62-5.75,13.17-8.67,19.74c-1.37,3.07-1.92,3.27-4.98,2.04c-6.75-2.72-13.52-5.38-20.23-8.19c-1.6-0.67-2.83-0.56-4.3,0.32
		c-6.25,3.73-12.57,7.36-18.86,11.03c-2.73,1.59-3.4,1.45-5.07-1.19c-3.89-6.16-7.78-12.31-11.59-18.53
		c-0.94-1.54-2.01-2.27-3.88-2.42c-7.44-0.61-14.86-1.44-22.29-2.15c-2.39-0.23-2.96-1.62-2.79-3.78
		c0.56-6.99,0.96-13.99,1.58-20.98c0.21-2.37-0.32-4.04-2.23-5.66c-5.35-4.53-10.51-9.3-15.73-13.98c-2.34-2.09-2.4-2.8-0.4-5.2
		c4.67-5.6,9.31-11.22,14.05-16.75c1.11-1.29,1.49-2.42,1.08-4.15c-1.66-7.18-3.07-14.41-4.72-21.59c-0.57-2.48,0.07-3.7,2.61-4.31
		c7.17-1.69,14.28-3.61,21.44-5.34c1.66-0.4,2.6-1.18,3.29-2.78c2.89-6.78,5.98-13.47,8.87-20.25c1.01-2.37,2.29-2.88,4.67-1.88
		c6.88,2.89,13.8,5.67,20.77,8.32c1.06,0.4,2.69,0.28,3.69-0.27c6.36-3.54,12.61-7.28,18.91-10.94c3.1-1.81,3.59-1.7,5.45,1.26
		c3.88,6.16,7.79,12.31,11.58,18.53c0.91,1.5,1.97,2.04,3.71,2.18c7.35,0.62,14.67,1.44,22.01,2.15c2.39,0.23,3.44,1.39,3.03,3.81
		c-0.12,0.71-0.11,1.45-0.16,2.18C153.63,34.93,153.64,34.93,153.65,34.93z M44.14,81.43c-0.16,26.12,21.12,47.94,46.92,48.13
		c27.09,0.2,48.73-21.03,48.85-47.91c0.11-25.89-21.4-47.67-47.26-47.89C65.96,33.54,44.3,54.83,44.14,81.43z"/>
	<path fill="#6F4C36" d="M132.13,152.13c0.53-0.07,0.63-0.11,0.71-0.09c4.94,1.08,4.96,1.08,4.96,6.02c0.01,29.07,0,58.15,0,87.22
		c0,0.78-0.08,1.56-0.15,2.87c-15.53-13.05-30.71-25.79-46.05-38.67c-15.1,12.87-30.09,25.65-45.63,38.9c0-5.79,0-10.85,0-15.92
		c0.01-24.61,0.03-49.22-0.01-73.83c0-1.66,0.43-2.65,1.97-3.42c2.92-1.45,5.73-3.12,8.81-4.82c3.56,5.74,7.06,11.37,10.53,17.01
		c4.15,6.73,3.48,6.71,10.49,2.6c5.73-3.36,11.44-6.79,17.26-9.99c1.07-0.59,2.82-0.72,3.96-0.29c7.4,2.8,14.72,5.82,22.07,8.76
		c2.97,1.19,3.78,0.86,5.04-2.09C128.15,161.63,130.14,156.86,132.13,152.13z"/>
	<path fill="#6F4C36" d="M130.8,81.73c-0.21,21.76-17.76,39.11-39.29,38.84c-21.23-0.27-38.75-18.16-38.42-39.23
		c0.33-21.4,17.79-38.61,39.11-38.55C113.44,42.85,131,60.56,130.8,81.73z M85.41,105.91c1.85-2.15,3.51-4.06,5.16-5.99
		c8.47-9.89,16.92-19.79,25.4-29.68c1.32-1.54,2.44-3.35,1.24-5.15c-0.85-1.28-2.58-2.54-4.02-2.69c-1.47-0.15-3.38,0.74-4.56,1.78
		c-3.2,2.83-6.13,5.97-9.15,9c-4.75,4.76-9.48,9.54-14.31,14.4c-3.29-2.27-6.31-4.44-9.42-6.48c-2.29-1.5-5.01-1.08-6.7,0.82
		c-1.61,1.81-1.51,3.72,0.5,6.1c2.05,2.44,4.2,4.8,6.31,7.18C78.98,98.72,82.13,102.23,85.41,105.91z"/>
</g>
</svg>
