<?xml version="1.0" encoding="utf-8"?>
<!-- Generator: Adobe Illustrator 18.1.0, SVG Export Plug-In . SVG Version: 6.00 Build 0)  -->
<svg version="1.1" id="Layer_1" xmlns="http://www.w3.org/2000/svg" xmlns:xlink="http://www.w3.org/1999/xlink" x="0px" y="0px"
	 viewBox="0 0 560 560" enable-background="new 0 0 560 560" xml:space="preserve">
<g id="zB1E2r_1_" display="none">
	<g display="inline">
		<path fill="#FFFFFF" d="M236.6,374.2c0.7,0.1,1,0.1,1.3,0.1c27.5,0,55,0,82.5,0c1.4,0,1.9-0.4,2.2-1.9c4.2-20.4,6.9-41,7.4-61.9
			c0.3-14-0.1-28.1-0.7-42.2c-0.8-16.7-3.3-33.3-6.6-49.7c-7.4-37.2-19.7-72.8-36-107.1c-2.3-4.8-4.7-9.6-7.3-14.8
			C234.8,185.1,216.8,276.6,236.6,374.2z M369.1,416.4c0.2-0.1,0.4-0.2,0.6-0.3c0-0.9,0-1.7,0-2.6c-0.3-9.6-0.3-19.2-1-28.7
			c-1.5-19.4-3.1-38.9-5.4-58.2c-2-17.4-5.3-34.5-10.6-51.2c-2.8-8.9-6.1-17.7-12-25.1c-1.5-1.9-3.4-3.4-5.1-5.1
			c2,21.8,2.6,43.2,2.1,64.7c-0.6,21.5-2.5,42.9-7.9,64c7.4,1.3,12.2,6,16.3,11.5c1.6,2.1,3.1,4.4,4.6,6.6c4.3,6.4,8.5,12.9,13,19.1
			C365.2,413,367.3,414.6,369.1,416.4z M224.2,245c-1.9,2-4.2,3.7-5.5,6c-3.4,5.9-6.9,11.8-9.2,18.2c-8,21.6-11.4,44.3-14.2,67
			c-2.8,22.9-4.2,46-4.9,69c-0.1,3.6,0,7.2,0,10.8c0.2,0.1,0.4,0.2,0.7,0.3c2.1-2.4,4.6-4.6,6.3-7.3c4.1-6.3,7.9-12.9,11.9-19.3
			c4.7-7.3,9.5-14.5,19.1-16.2C219.9,331,218.9,288.3,224.2,245z M261.8,419.9c0.4,2.3,0.4,4.8,1.1,6.9c2.1,6.1,4.3,12.1,6.8,18
			c2.2,5.2,4.6,10.4,7.3,15.4c2,3.8,3,3.7,5-0.1c2.2-4.1,4.3-8.2,6-12.5c2.9-7.3,6-14.6,8.2-22.1c1.8-6.4,1-13-3.7-18.4
			c-4.5-5.2-12.9-6.9-20-4.2C265.9,405.5,262.1,411.6,261.8,419.9z M311.9,381c-21.8,0-43.2,0-64.9,0c3.1,5.1,6,10,9,14.8
			c0.3,0.5,1.3,0.9,2,0.9c14.3,0.1,28.6,0,42.9,0c0.6,0,1.5-0.3,1.8-0.8C305.8,391.1,308.8,386.2,311.9,381z"/>
		<path fill="#482E1F" d="M236.6,374.2c-19.9-97.6-1.8-189.2,42.8-277.3c2.6,5.2,5,10,7.3,14.8c16.3,34.3,28.6,69.8,36,107.1
			c3.3,16.4,5.8,33,6.6,49.7c0.6,14,1.1,28.1,0.7,42.2c-0.5,20.8-3.2,41.4-7.4,61.9c-0.3,1.4-0.8,1.9-2.2,1.9c-27.5,0-55,0-82.5,0
			C237.6,374.4,237.3,374.3,236.6,374.2z M279.5,230.5c13.8,0,24.9-11,24.9-24.7c0-13.8-11.2-25-25-24.9
			c-13.8,0.1-24.8,11.1-24.7,24.9C254.7,219.5,265.7,230.5,279.5,230.5z M260.4,263.1c0,10.7,8.3,19.1,18.9,19.1
			c10.7,0,19.3-8.6,19.3-19.1c0-10.5-8.7-19.1-19.2-19C268.9,244.1,260.4,252.5,260.4,263.1z M279.4,318c6.5,0,11.5-4.9,11.5-11.3
			c0-6.5-4.9-11.5-11.3-11.5c-6.4,0-11.5,4.9-11.6,11.3C267.9,312.9,273.1,318,279.4,318z"/>
		<path fill="#482E1F" d="M369.1,416.4c-1.8-1.8-3.9-3.4-5.4-5.5c-4.5-6.3-8.7-12.8-13-19.1c-1.5-2.2-3-4.5-4.6-6.6
			c-4.1-5.5-8.9-10.2-16.3-11.5c5.4-21.1,7.3-42.5,7.9-64c0.6-21.5-0.1-42.9-2.1-64.7c1.7,1.7,3.6,3.3,5.1,5.1
			c5.9,7.4,9.2,16.2,12,25.1c5.3,16.7,8.6,33.9,10.6,51.2c2.2,19.4,3.8,38.8,5.4,58.2c0.8,9.6,0.7,19.2,1,28.7c0,0.9,0,1.7,0,2.6
			C369.5,416.2,369.3,416.3,369.1,416.4z"/>
		<path fill="#482E1F" d="M224.2,245c-5.3,43.3-4.3,86,4.2,128.7c-9.6,1.6-14.4,8.9-19.1,16.2c-4.1,6.4-7.8,12.9-11.9,19.3
			c-1.7,2.7-4.2,4.9-6.3,7.3c-0.2-0.1-0.4-0.2-0.7-0.3c0-3.6-0.1-7.2,0-10.8c0.7-23.1,2.1-46.1,4.9-69c2.8-22.7,6.1-45.4,14.2-67
			c2.4-6.3,5.9-12.3,9.2-18.2C219.9,248.7,222.3,247,224.2,245z"/>
		<path fill="#C4161C" d="M261.8,419.9c0.2-8.3,4-14.4,10.7-16.9c7.1-2.7,15.5-1,20,4.2c4.7,5.4,5.5,11.9,3.7,18.4
			c-2.1,7.5-5.2,14.8-8.2,22.1c-1.7,4.3-3.8,8.4-6,12.5c-2.1,3.8-3.1,3.9-5,0.1c-2.6-5-5.1-10.2-7.3-15.4c-2.5-5.9-4.7-11.9-6.8-18
			C262.2,424.6,262.2,422.2,261.8,419.9z"/>
		<path fill="#482E1F" d="M311.9,381c-3.1,5.2-6.1,10.1-9.1,15c-0.3,0.5-1.2,0.8-1.8,0.8c-14.3,0-28.6,0-42.9,0
			c-0.7,0-1.6-0.4-2-0.9c-3-4.8-5.9-9.7-9-14.8C268.7,381,290.1,381,311.9,381z"/>
	</g>
</g>
<g id="zB1E2r_2_">
	<g>
		<path fill="#FFFFFF" d="M235.9,374.4c0.7,0.1,1,0.1,1.3,0.1c27.9,0,55.8,0,83.7,0c1.4,0,1.9-0.4,2.2-1.9c4.3-20.7,7-41.6,7.5-62.8
			c0.3-14.2-0.1-28.5-0.8-42.8c-0.8-17-3.4-33.8-6.7-50.4c-7.5-37.8-20-73.9-36.5-108.6c-2.3-4.9-4.8-9.7-7.4-15
			C234,182.4,215.7,275.3,235.9,374.4z M370.2,417.1c0.2-0.1,0.4-0.2,0.6-0.3c0-0.9,0-1.8,0-2.6c-0.3-9.7-0.3-19.5-1-29.2
			c-1.5-19.7-3.2-39.5-5.4-59.1c-2-17.6-5.4-35-10.8-52c-2.9-9.1-6.2-18-12.2-25.5c-1.5-1.9-3.5-3.5-5.2-5.2
			c2,22.1,2.7,43.9,2.1,65.6c-0.6,21.8-2.5,43.6-8,65c7.6,1.3,12.4,6.1,16.6,11.6c1.6,2.2,3.2,4.4,4.7,6.7c4.4,6.5,8.7,13,13.2,19.4
			C366.3,413.7,368.4,415.3,370.2,417.1z M223.2,243.2c-1.9,2-4.3,3.7-5.6,6.1c-3.4,6-7,12-9.4,18.4c-8.1,21.9-11.5,44.9-14.4,68
			c-2.9,23.3-4.3,46.6-5,70c-0.1,3.7,0,7.3,0,11c0.2,0.1,0.5,0.2,0.7,0.3c2.2-2.4,4.6-4.7,6.4-7.4c4.2-6.4,8-13.1,12.1-19.5
			c4.7-7.4,9.6-14.8,19.4-16.4C218.9,330.5,217.9,287.2,223.2,243.2z M261.5,420.7c0.4,2.4,0.4,4.8,1.1,7c2.1,6.1,4.3,12.3,6.8,18.3
			c2.2,5.3,4.7,10.5,7.4,15.6c2,3.8,3,3.8,5.1-0.1c2.2-4.1,4.4-8.3,6.1-12.7c3-7.4,6.1-14.8,8.3-22.4c1.8-6.5,1-13.2-3.7-18.6
			c-4.6-5.3-13.1-7-20.3-4.2C265.5,406.1,261.7,412.3,261.5,420.7z M312.3,381.2c-22.1,0-43.8,0-65.8,0c3.2,5.2,6.1,10.2,9.2,15
			c0.3,0.5,1.3,1,2,1c14.5,0.1,29,0.1,43.5,0c0.6,0,1.6-0.3,1.8-0.8C306.1,391.5,309.1,386.5,312.3,381.2z"/>
		<path fill="#D9D1BE" d="M235.9,374.4c-20.1-99-1.9-191.9,43.5-281.3c2.6,5.3,5.1,10.1,7.4,15c16.5,34.8,29,70.9,36.5,108.6
			c3.3,16.7,5.9,33.5,6.7,50.4c0.6,14.2,1.1,28.5,0.8,42.8c-0.5,21.1-3.2,42.1-7.5,62.8c-0.3,1.4-0.8,1.9-2.2,1.9
			c-27.9,0-55.8,0-83.7,0C236.9,374.5,236.5,374.4,235.9,374.4z M279.3,228.5c13.9,0,25.2-11.2,25.3-25.1c0-14-11.4-25.3-25.4-25.2
			c-14,0.1-25.1,11.3-25.1,25.2C254.2,217.4,265.3,228.5,279.3,228.5z M260,261.6c0,10.8,8.5,19.4,19.2,19.4
			c10.8,0,19.6-8.7,19.5-19.4c0-10.6-8.8-19.3-19.4-19.3C268.6,242.3,260,250.9,260,261.6z M279.3,317.3c6.6,0,11.6-5,11.7-11.5
			c0-6.6-5-11.6-11.5-11.6c-6.5,0-11.7,5-11.7,11.5C267.6,312.1,272.8,317.3,279.3,317.3z"/>
		<path fill="#D9D1BE" d="M370.2,417.1c-1.8-1.8-4-3.4-5.4-5.5c-4.5-6.4-8.8-13-13.2-19.4c-1.5-2.3-3.1-4.5-4.7-6.7
			c-4.2-5.6-9-10.3-16.6-11.6c5.5-21.4,7.4-43.1,8-65c0.6-21.8-0.1-43.5-2.1-65.6c1.7,1.7,3.7,3.3,5.2,5.2c6,7.6,9.3,16.5,12.2,25.5
			c5.4,16.9,8.8,34.4,10.8,52c2.3,19.6,3.9,39.4,5.4,59.1c0.8,9.7,0.7,19.4,1,29.2c0,0.9,0,1.8,0,2.6
			C370.7,416.9,370.5,417,370.2,417.1z"/>
		<path fill="#D9D1BE" d="M223.2,243.2c-5.3,44-4.4,87.3,4.3,130.6c-9.7,1.7-14.6,9-19.4,16.4c-4.1,6.5-7.9,13.1-12.1,19.5
			c-1.8,2.7-4.2,4.9-6.4,7.4c-0.2-0.1-0.5-0.2-0.7-0.3c0-3.7-0.1-7.3,0-11c0.7-23.4,2.1-46.8,5-70c2.9-23.1,6.2-46.1,14.4-68
			c2.4-6.4,6-12.4,9.4-18.4C218.9,247,221.3,245.2,223.2,243.2z"/>
		<path fill="#C4161C" d="M261.5,420.7c0.2-8.4,4.1-14.6,10.8-17.2c7.2-2.7,15.7-1,20.3,4.2c4.8,5.5,5.6,12.1,3.7,18.6
			c-2.2,7.7-5.3,15-8.3,22.4c-1.8,4.3-3.9,8.5-6.1,12.7c-2.1,3.9-3.1,3.9-5.1,0.1c-2.7-5.1-5.2-10.3-7.4-15.6
			c-2.5-6-4.7-12.1-6.8-18.3C261.8,425.5,261.8,423,261.5,420.7z"/>
		<path fill="#D9D1BE" d="M312.3,381.2c-3.2,5.3-6.2,10.3-9.3,15.2c-0.3,0.5-1.2,0.8-1.8,0.8c-14.5,0-29,0-43.5,0
			c-0.7,0-1.7-0.4-2-1c-3.1-4.9-6-9.8-9.2-15C268.4,381.2,290.1,381.2,312.3,381.2z"/>
	</g>
</g>
<path fill="#482E1F" d="M279.3,228.5c13.9,0,25.2-11.2,25.3-25.1c0-14-11.4-25.3-25.4-25.2c-14,0.1-25.1,11.3-25.1,25.2
	C254.1,217.4,265.3,228.5,279.3,228.5z"/>
<path fill="#482E1F" d="M260,261.6c0,10.8,8.5,19.4,19.2,19.4c10.8,0,19.6-8.7,19.5-19.4c0-10.6-8.8-19.3-19.4-19.3
	C268.6,242.3,260,250.9,260,261.6z"/>
<path fill="#482E1F" d="M279.2,317.3c6.6,0,11.6-5,11.7-11.5c0-6.6-5-11.6-11.5-11.6c-6.5,0-11.7,5-11.7,11.5
	C267.6,312.1,272.8,317.3,279.2,317.3z"/>
</svg>
