<?xml version="1.0" encoding="utf-8"?>
<!-- Generator: Adobe Illustrator 18.1.0, SVG Export Plug-In . SVG Version: 6.00 Build 0)  -->
<svg version="1.1" id="Layer_1" xmlns="http://www.w3.org/2000/svg" xmlns:xlink="http://www.w3.org/1999/xlink" x="0px" y="0px"
	 viewBox="0 0 275.29 236.86" enable-background="new 0 0 275.29 236.86" xml:space="preserve">
<g id="zB1E2r_1_">
	<g>
		<path fill="#FFFFFF" d="M116.33,164.76c0.32,0.03,0.48,0.06,0.64,0.06c13.52,0,27.03,0,40.55,0.02c0.69,0,0.93-0.21,1.08-0.91
			c2.08-10.03,3.41-20.17,3.65-30.41c0.16-6.9-0.06-13.82-0.36-20.73c-0.37-8.23-1.63-16.37-3.23-24.44
			c-3.63-18.3-9.69-35.79-17.68-52.63c-1.12-2.36-2.31-4.7-3.58-7.28C115.43,71.77,106.57,116.78,116.33,164.76z M181.43,185.49
			c0.1-0.05,0.21-0.1,0.31-0.15c0-0.42,0.01-0.85,0-1.27c-0.15-4.71-0.13-9.44-0.5-14.13c-0.75-9.56-1.53-19.11-2.63-28.63
			c-0.98-8.53-2.62-16.97-5.23-25.18c-1.4-4.39-2.99-8.7-5.9-12.36c-0.74-0.92-1.67-1.69-2.52-2.53c0.96,10.71,1.29,21.25,1.01,31.8
			c-0.28,10.58-1.21,21.11-3.87,31.48c3.66,0.64,5.99,2.94,8.03,5.64c0.79,1.05,1.53,2.15,2.27,3.24c2.13,3.14,4.2,6.32,6.4,9.41
			C179.51,183.82,180.54,184.6,181.43,185.49z M110.19,101.22c-0.92,0.97-2.07,1.81-2.72,2.94c-1.65,2.9-3.38,5.82-4.53,8.93
			c-3.95,10.63-5.58,21.78-6.97,32.96c-1.39,11.27-2.06,22.59-2.4,33.93c-0.05,1.77-0.01,3.54-0.01,5.31
			c0.11,0.06,0.22,0.11,0.33,0.17c1.04-1.18,2.24-2.27,3.1-3.57c2.04-3.1,3.88-6.34,5.87-9.47c2.3-3.59,4.67-7.15,9.39-7.96
			C108.08,143.51,107.6,122.53,110.19,101.22z M128.72,187.2c0.18,1.14,0.19,2.34,0.56,3.41c1.02,2.98,2.1,5.94,3.32,8.84
			c1.07,2.57,2.28,5.1,3.57,7.57c0.97,1.86,1.48,1.83,2.48-0.04c1.07-2,2.12-4.04,2.96-6.14c1.45-3.58,2.96-7.17,4.01-10.87
			c0.9-3.17,0.49-6.38-1.81-9.03c-2.23-2.56-6.35-3.38-9.84-2.06C130.71,180.12,128.84,183.14,128.72,187.2z M153.33,168.08
			c-10.72,0-21.23,0-31.88,0c1.53,2.53,2.95,4.92,4.44,7.28c0.16,0.26,0.64,0.46,0.97,0.46c7.03,0.03,14.06,0.02,21.09,0
			c0.31,0,0.75-0.15,0.9-0.37C150.34,173.06,151.79,170.63,153.33,168.08z"/>
		<path fill="#482E1F" d="M116.33,164.76c-9.76-47.98-0.9-92.99,21.05-136.31c1.27,2.58,2.46,4.91,3.58,7.28
			c7.99,16.84,14.05,34.33,17.68,52.63c1.6,8.08,2.87,16.21,3.23,24.44c0.31,6.9,0.53,13.82,0.36,20.73
			c-0.24,10.24-1.57,20.37-3.65,30.41c-0.14,0.7-0.39,0.91-1.08,0.91c-13.52-0.02-27.03-0.01-40.55-0.02
			C116.81,164.82,116.65,164.79,116.33,164.76z M137.39,94.08c6.76,0,12.22-5.42,12.24-12.14c0.02-6.76-5.52-12.27-12.3-12.23
			c-6.77,0.04-12.17,5.47-12.16,12.23C125.19,88.69,130.61,94.08,137.39,94.08z M128.03,110.12c0,5.24,4.1,9.38,9.31,9.4
			c5.24,0.02,9.49-4.21,9.47-9.41c-0.02-5.15-4.27-9.37-9.42-9.36C132.19,100.76,128.03,104.92,128.03,110.12z M137.35,137.12
			c3.19,0.01,5.64-2.41,5.65-5.56c0.01-3.19-2.4-5.63-5.56-5.64c-3.16-0.01-5.65,2.43-5.69,5.55
			C131.72,134.58,134.23,137.11,137.35,137.12z"/>
		<path fill="#482E1F" d="M181.43,185.49c-0.89-0.89-1.92-1.67-2.64-2.68c-2.2-3.09-4.27-6.27-6.4-9.41
			c-0.74-1.09-1.48-2.19-2.27-3.24c-2.04-2.7-4.37-5-8.03-5.64c2.66-10.38,3.59-20.9,3.87-31.48c0.28-10.55-0.05-21.09-1.01-31.8
			c0.85,0.84,1.78,1.6,2.52,2.53c2.91,3.66,4.51,7.98,5.9,12.36c2.61,8.21,4.24,16.65,5.23,25.18c1.1,9.52,1.88,19.08,2.63,28.63
			c0.37,4.7,0.35,9.42,0.5,14.13c0.01,0.42,0,0.85,0,1.27C181.64,185.38,181.53,185.44,181.43,185.49z"/>
		<path fill="#482E1F" d="M110.19,101.22c-2.59,21.31-2.11,42.29,2.07,63.26c-4.72,0.81-7.09,4.36-9.39,7.96
			c-2,3.13-3.84,6.36-5.87,9.47c-0.86,1.31-2.05,2.39-3.1,3.57c-0.11-0.06-0.22-0.11-0.33-0.17c0-1.77-0.05-3.54,0.01-5.31
			c0.34-11.34,1.01-22.67,2.4-33.93c1.38-11.18,3.02-22.33,6.97-32.96c1.16-3.11,2.88-6.03,4.53-8.93
			C108.12,103.04,109.27,102.2,110.19,101.22z"/>
		<path fill="#C4161C" d="M128.72,187.2c0.12-4.06,1.98-7.08,5.24-8.31c3.49-1.32,7.61-0.5,9.84,2.06c2.3,2.64,2.71,5.86,1.81,9.03
			c-1.05,3.71-2.56,7.29-4.01,10.87c-0.85,2.1-1.89,4.14-2.96,6.14c-1.01,1.88-1.51,1.9-2.48,0.04c-1.29-2.47-2.5-5-3.57-7.57
			c-1.21-2.9-2.3-5.87-3.32-8.84C128.91,189.53,128.9,188.34,128.72,187.2z"/>
		<path fill="#482E1F" d="M153.33,168.08c-1.54,2.55-2.99,4.98-4.48,7.37c-0.14,0.23-0.59,0.37-0.9,0.37
			c-7.03,0.02-14.06,0.02-21.09,0c-0.33,0-0.81-0.2-0.97-0.46c-1.48-2.36-2.91-4.76-4.44-7.28
			C132.11,168.08,142.61,168.08,153.33,168.08z"/>
	</g>
</g>
</svg>
