<?xml version="1.0" encoding="utf-8"?>
<!-- Generator: Adobe Illustrator 18.1.0, SVG Export Plug-In . SVG Version: 6.00 Build 0)  -->
<svg version="1.1" id="Layer_1" xmlns="http://www.w3.org/2000/svg" xmlns:xlink="http://www.w3.org/1999/xlink" x="0px" y="0px"
	 viewBox="200 234 165 165" enable-background="new 200 234 165 165" xml:space="preserve">
<g>
	<g>
		<path fill="#726659" d="M268.2,260.6c-1.3,0-19.7,0.5-23.3,0.6c-3.8,0.2-6.1-0.5-6.1,1.3c-0.2,1.8,1.3,2.1,1.3,2.1h1.3l10.9,109.7
			c0.8,4.8,2.6,9.8,2.6,9.8c6.9,2.6,19.7,2.1,19.7,2.1s12.9,0.5,19.7-2.1c0,0,1.9-4.8,2.6-9.8l10.9-109.7h1.3c0,0,1.4-0.3,1.3-2.1
			c-0.2-1.8-2.4-1.1-6.1-1.3s-22.1-0.8-23.3-0.6C280.7,260.6,274.3,260.5,268.2,260.6z"/>
	</g>
	<g>
		<path fill="#492E20" d="M264.2,372.7c-0.5,0-1-0.5-1-1l-6.4-93.2c0-0.5,0.3-1,1-1.1c0.6-0.2,1,0.3,1.1,1l6.4,93.2
			C265.3,372,264.8,372.5,264.2,372.7L264.2,372.7z"/>
	</g>
	<g>
		<path fill="#492E20" d="M277,267.2c-22.4,0-40.3-0.8-40.4-0.8c-0.5,0-1-0.5-1-1c0-0.5,0.5-1,1-1c0.5,0,40.4,1.6,75.9,0
			c0.5,0,1,0.5,1,1c0,0.5-0.5,1-1,1C300.8,267,288.3,267.2,277,267.2z"/>
	</g>
	<g>
		<path fill="#492E20" d="M276.8,379.1c-20.5,0-30.5-3-30.8-3c-0.3-0.2-0.5-0.5-0.5-0.8c0.2-0.3,0.5-0.5,0.8-0.5
			c0.3,0,24.5,7.2,74.2-0.8c0.3,0,0.6,0.2,0.6,0.5c0,0.3-0.2,0.6-0.5,0.6C302.9,378.3,288.3,379.1,276.8,379.1z"/>
	</g>
	<g>
		<g>
			<g>
				<polygon fill="#C32126" points="308,342.3 312.6,341.2 287.4,241.5 282.7,242.4 				"/>
			</g>
		</g>
		<g>
			<g>
				<path fill="#EBE5D6" d="M312.3,368.7c16.6-36.1,17.1-95.1,17.1-95.1h-26.5h-26.5c0,0,0.5,59,17.1,95.1"/>
			</g>
		</g>
		<g>
			<g>
				<path fill="#EBE5D6" d="M293.4,374.3c-13.4,4-13.1,17.3-13.1,17.3H303h22.1c0,0,0.5-13.9-13.1-17.3"/>
			</g>
		</g>
		<g>
			<g>
				<path fill="#EBE5D6" d="M313.9,371.6c0,1.8-1.4,3-3.2,3h-16c-1.8,0-3.2-1.4-3.2-3l0,0c0-1.8,1.4-3.2,3.2-3.2h16
					C312.6,368.5,313.9,370,313.9,371.6L313.9,371.6z"/>
			</g>
		</g>
		<g>
			<g>
				<path fill="#FFFFFF" d="M281.1,273.6c0,0-0.3-3.4,3.2-4.3c2.2-0.6,3-1.9,4.6-4.5s5.6-2.7,5.6-2.7s0-5.6,3.7-7.7
					c3.5-2.2,4.5-3.8,4.8-5.6c3.8,3.5,0.3,6.9,4.6,8.3c3,1,2.2,2.4,3.8,4.5c1,1.1,2.1,0.3,5.1,2.1c2.4,1.4,2.6,3.8,2.6,4.5
					c0,0.5,2.6,0.5,4,3.2c0.6,1.3,0.8,2.6,0.8,2.6L281.1,273.6L281.1,273.6z"/>
			</g>
		</g>
		<g>
			<g>
				<path fill="none" stroke="#EBE5D6" stroke-width="5.1522" stroke-linecap="round" stroke-miterlimit="10" d="M320.5,281.3"/>
			</g>
		</g>
		<g>
			<g>
				<path fill="#726659" d="M305.9,368.7h-8.2l-0.3-0.8c-7.8-18.1-11.7-40.9-13.4-57.2c-1.9-17.4-1.9-30.8-1.9-30.8
					c0-0.8,0.6-1.3,1.3-1.3l0,0c0.8,0,1.3,0.6,1.3,1.3c0,0.5,0.2,52.1,14.7,86.2h6.4c0.8,0,1.3,0.6,1.3,1.3
					C307.2,368,306.6,368.7,305.9,368.7z"/>
			</g>
		</g>
		<g>
			<g>
				<path fill="#726659" d="M288.3,388.5h-0.2c-0.8-0.2-1.3-0.8-1.1-1.4c0.5-4,3.5-8.2,7.2-9.6c0.6-0.3,1.4,0,1.8,0.8
					c0.3,0.6,0,1.4-0.8,1.8c-2.7,1.1-5.1,4.3-5.6,7.5C289.5,388,289,388.5,288.3,388.5z"/>
			</g>
		</g>
	</g>
</g>
</svg>
