<?xml version="1.0" encoding="utf-8"?>
<!-- Generator: Adobe Illustrator 18.1.0, SVG Export Plug-In . SVG Version: 6.00 Build 0)  -->
<svg version="1.1" id="Isolation_Mode" xmlns="http://www.w3.org/2000/svg" xmlns:xlink="http://www.w3.org/1999/xlink" x="0px"
	 y="0px" viewBox="0 0 51.67 52.67" enable-background="new 0 0 51.67 52.67" xml:space="preserve">
<g>
	<path fill="#C42126" d="M19.93,6.17c3.15-3.22,8.34-3.26,11.54-0.09c3.2,3.17,9.12,7.4,13.15,9.4c4.03,2,5.68,6.93,3.65,10.95
		c-2.02,4.02-4.22,10.96-4.88,15.41c-0.66,4.45-4.84,7.54-9.29,6.86c-4.45-0.68-11.72-0.62-16.16,0.12
		c-4.44,0.75-8.66-2.27-9.39-6.71c-0.73-4.44-3.03-11.34-5.11-15.33c-2.08-3.99-0.52-8.94,3.48-11
		C10.93,13.71,16.78,9.39,19.93,6.17"/>
</g>
</svg>
