<?xml version="1.0" encoding="utf-8"?>
<!-- Generator: Adobe Illustrator 18.1.0, SVG Export Plug-In . SVG Version: 6.00 Build 0)  -->
<svg version="1.1" xmlns="http://www.w3.org/2000/svg" xmlns:xlink="http://www.w3.org/1999/xlink" x="0px" y="0px"
	 viewBox="0 0 484.15 376.83" enable-background="new 0 0 484.15 376.83" xml:space="preserve">
<g id="light_grey_back">
</g>
<g id="dark_red">
</g>
<g id="dark_grey_back">
</g>
<g id="light_grey">
</g>
<g id="dark_grey_front">
</g>
<g id="Main_Red">
</g>
<g id="Logo1">
	<g>
		<polygon fill="#6F4C36" points="10.66,223.58 72.99,194.25 123.66,138.58 49.99,178.25 		"/>
		<g>
			<polygon fill="#6F4C36" points="122.32,140.25 56.66,196.25 11.66,222.25 11.66,231.91 74.66,208.58 112.99,212.58 
				119.32,211.58 119.98,211.78 122.32,140.25 			"/>
			<path fill="#6F4C36" d="M45.79,150.84c-0.01,0.46,0.14,0.75,0.44,0.53c0.25-0.19,0.51-0.65,0.53-1.3l0.02-0.81
				c0.03-1.56-1.39-0.86-2.39-1.44l-0.07,1.99l1.52-1.13L45.79,150.84z"/>
			<path fill="#6F4C36" d="M284.57,125.5c0.69,0.17,0.95-0.4,0.95-1.11v-6.55c0-0.7-0.26-1.41-0.95-1.58
				c-0.77-0.19-1.03,0.38-1.03,1.09v6.55C283.54,124.6,283.8,125.3,284.57,125.5z"/>
			<path fill="#6F4C36" d="M85.94,111.93c-0.37,0.27-0.55,0.89-0.56,1.48l-0.17,7.67c-0.02,0.97,0.08,1.32,0.51,1.01
				c0.26-0.19,0.47-0.72,0.48-1.15l0.18-8.34C86.39,112.08,86.23,111.72,85.94,111.93z"/>
			<path fill="#6F4C36" d="M315.86,122.59c0.57,0.16,1.03-0.31,1.03-1.02c0-0.71-0.46-1.39-1.03-1.53l0,0
				c-0.57-0.14-1.04,0.31-1.04,1.02C314.82,121.77,315.29,122.45,315.86,122.59z M315.39,120.38c0.12,0.01,0.23,0.02,0.41,0.06
				c0.22,0.05,0.36,0.14,0.45,0.24c0.09,0.1,0.13,0.22,0.13,0.38c0,0.22-0.13,0.32-0.28,0.34v0.01c0.13,0.06,0.21,0.22,0.24,0.47
				c0.03,0.27,0.07,0.38,0.09,0.44l-0.24-0.06c-0.04-0.06-0.07-0.23-0.1-0.45c-0.03-0.23-0.12-0.33-0.31-0.38l-0.16-0.04v0.73
				l-0.23-0.06V120.38z"/>
			<path fill="#6F4C36" d="M316.13,121.03c0-0.15-0.09-0.32-0.35-0.38c-0.07-0.02-0.12-0.02-0.16-0.03v0.57l0.16,0.04
				C315.97,121.28,316.13,121.24,316.13,121.03z"/>
			<path fill="#6F4C36" d="M105.83,97.19c-0.43,0.32-0.58,0.94-0.59,1.5l-0.11,5.27c-0.01,0.57,0.12,0.97,0.55,0.65
				c0.38-0.28,0.54-0.9,0.55-1.47l0.12-5.27C106.34,97.32,106.21,96.91,105.83,97.19z"/>
			<path fill="#6F4C36" d="M248.6,119.95c0.46,0.12,0.83-0.26,0.83-0.8v-10.38c0-0.64-0.32-1.32-0.83-1.45
				c-0.66-0.16-0.98,0.36-0.98,1.1v9.54C247.62,119.17,247.82,119.76,248.6,119.95z"/>
			<path fill="#6F4C36" d="M113.23,91.23c-0.35,0.26-0.44,0.72-0.45,1.34l-0.04,2.02l0.92-0.68l0.04-1.95
				C113.71,91.38,113.62,90.94,113.23,91.23z"/>
			<path fill="#6F4C36" d="M209.24,110.27c0.63,0.16,0.89-0.35,0.89-0.79v-5.14c-1.06,0.51-1.64,1.21-1.64,2.58v2.05
				C208.49,109.55,208.78,110.16,209.24,110.27z"/>
			<polygon fill="#6F4C36" points="134.49,26.25 334.86,87.71 335.32,87.25 335.99,75.91 134.66,8.58 39.66,98.91 39.99,109.91 
				41.98,112.24 39.99,109.75 			"/>
			<path fill="#6F4C36" d="M473.49,189.75l-145.25-29.54l-1.92-58.29l0.43-0.38l-0.26,0.21l-190-56l-90.5,75.5l-3-1.5l93.5-78
				l192.36,57.96l0.14-0.12l2.33-8.33l0.54-0.54L135.99,30.75l-94,81.5l0.33,7.33l3,1.67l-0.66,18.65c0.47-0.78,1.12-1.53,2.01-2.19
				c1.19-0.88,2.97-1.43,2.9,1.81L49.54,141l-2.62,1.94l0.03-1.49c0.01-0.67-0.14-0.83-0.41-0.63c-0.27,0.2-0.46,0.56-0.48,1.28
				l-0.01,0.62c-0.02,0.97,0.92,0.81,2.12,1.09c1.26,0.31,1.39,1.47,1.34,3.63c-0.08,3.51-1.44,5.58-3.45,7.08
				c-0.79,0.58-1.45,0.89-1.93,0.76l-1.13,31.95l8.67-9.33l69.66-37.66l0,0l0.33,0.33l-3.27,69.7l-39.39-5.03l-67.33,26.33
				l41.33,2.67l-3.5,102.5l56.84,31.5l367.16-34.5V189.75z M315.86,119.8L315.86,119.8c0.71,0.18,1.27,0.98,1.27,1.82
				c0,0.85-0.56,1.38-1.27,1.2c-0.71-0.18-1.28-0.98-1.28-1.84C314.58,120.14,315.15,119.62,315.86,119.8z M305.1,117.63l4.95,1.23
				v2.52l0.06,0.01c0.49-1.76,2.01-2.39,3.16-2.24v7.16c-0.29-0.11-0.57-0.21-0.86-0.28c-1.38-0.34-2.18,0.5-2.18,2.04v10.51
				l-5.11-1.27V117.63z M292.05,120.4c0-5.11,3.22-5.72,6.04-5.02c2.47,0.61,5.69,2.99,5.69,7.93v4.13l-6.61-1.64v5.14
				c0,0.78,0.14,1.32,0.78,1.47c0.72,0.18,0.89-0.42,0.89-1.16v-3.53l4.95,1.23v2.02c0,5.1-2.99,5.77-5.69,5.1
				c-2.82-0.7-6.04-2.91-6.04-8.01V120.4z M278.6,115.85c0-2.79,1.06-5.05,3.73-4.38c1.41,0.35,2.36,1.12,3.31,2.91l0.06,0.01v-1.58
				l4.94,1.23v15.96c0,4.83-2.53,5.99-6.41,5.02c-2.82-0.7-5.46-2.27-5.46-6.19l4.95,1.23v0.64c0,0.43,0.2,1.22,0.77,1.37
				c0.6,0.15,1.03,0.12,1.03-1.12v-2.72c-0.86,0.8-1.98,1.06-3.19,0.76c-2.62-0.65-3.73-3.45-3.73-6.2V115.85z M269.55,108.8
				l4.94,1.23v2.52l0.06,0.02c0.49-1.76,2.01-2.39,3.16-2.24v7.16c-0.29-0.11-0.58-0.21-0.86-0.28c-1.38-0.34-2.18,0.5-2.18,2.04
				v10.51l-5.11-1.27V108.8z M256.1,105.46l5.12,1.27v14.74c0,0.61,0.14,1.45,0.8,1.62c0.69,0.17,0.72-0.66,0.72-1.27v-14.71
				l5.12,1.27v19.68l-5.12-1.27v-1.51l-0.06-0.01c-0.46,1.16-2.01,1.52-3.1,1.25c-2.16-0.54-3.48-2.51-3.48-6.1V105.46z
				 M242.5,97.78l5.12,1.27v6.01l0.06,0.01c0.75-0.99,1.87-1.76,3.19-1.43c2.12,0.53,3.68,2.69,3.68,6.86v9.5
				c0,2.58-0.81,5.04-3.53,4.36c-1.59-0.39-2.42-1.44-3.45-2.98l-0.23,1.56l-4.83-1.2V97.78z M228.9,94.4l5.12,1.27v5.81l0.06,0.01
				c0.46-1.16,2.02-1.51,3.11-1.24c2.16,0.54,3.48,2.51,3.48,6.11v14.94l-5.11-1.27v-14.75c0-0.6-0.14-1.44-0.81-1.61
				c-0.69-0.17-0.71,0.66-0.71,1.26v14.71l-5.12-1.27V94.4z M216.28,108.16l4.74,1.18v2.69c0,0.57,0.29,1.15,0.84,1.29
				c0.46,0.11,0.92-0.11,0.92-0.92v-1.01c0-3.03-6.35-4-6.35-10.14c0-2.62,0.52-6.02,5.69-4.73c2.16,0.54,5.4,2.31,5.4,6.35v1.85
				l-4.74-1.18v-1.85c0-0.84-0.29-1.25-0.78-1.37c-0.49-0.12-0.83,0.06-0.83,0.97v0.77c0,1.21,1.73,2.31,3.94,4.34
				c2.33,2.16,2.62,3.8,2.62,6.5c0,4.37-2.41,5.11-6.07,4.2c-3.27-0.81-5.37-2.58-5.37-6.78V108.16z M203.75,105.78
				c0-2.25,0.12-3.03,3.25-3.6c2.88-0.56,3.13-0.83,3.13-1.97v-2.49c0-0.56-0.29-1.24-0.86-1.38c-0.57-0.14-0.78,0.38-0.78,0.98v3.9
				l-4.74-1.18v-2.08c0-4.33,1.78-5.57,5.63-4.61c3.63,0.9,5.86,2.7,5.86,7.27v14.38l-4.94-1.23v-1.11
				c-0.75,0.72-1.92,1.13-3.22,0.81c-2.18-0.54-3.33-2.54-3.33-5.02V105.78z M184.18,87.59l5.12,1.27v1.51l0.06,0.02
				c0.23-0.58,0.74-0.96,1.32-1.15c0.58-0.23,1.24-0.23,1.78-0.1c1.61,0.4,2.59,1.89,3.05,3.01c0.89-0.95,1.93-1.77,3.36-1.42
				c2.16,0.54,3.48,2.51,3.48,6.11v14.94l-5.12-1.27V95.77c0-0.6-0.14-1.44-0.8-1.61c-0.66-0.16-0.69,0.67-0.69,1.27v14.71
				l-4.95-1.23V94.17c0-0.6-0.14-1.44-0.77-1.6c-0.69-0.17-0.72,0.66-0.72,1.27v14.71l-5.12-1.27V87.59z M171.57,97.05l4.74,1.18
				v2.68c0,0.58,0.29,1.15,0.83,1.29c0.46,0.11,0.92-0.11,0.92-0.92v-1.01c0-3.03-6.35-4-6.35-10.14c0-2.62,0.52-6.02,5.69-4.73
				c2.15,0.54,5.4,2.31,5.4,6.35v1.84l-4.74-1.18v-1.85c0-0.84-0.29-1.25-0.78-1.37c-0.49-0.12-0.83,0.06-0.83,0.97v0.77
				c0,1.21,1.72,2.31,3.93,4.34c2.33,2.16,2.62,3.8,2.62,6.5c0,4.37-2.42,5.11-6.06,4.2c-3.28-0.81-5.37-2.58-5.37-6.78V97.05z
				 M165.56,137.75l0.01,0.01l-0.91-0.19L165.56,137.75z M123.19,80.97L123.19,80.97c0.39-0.29,0.69,0.01,0.68,0.69
				c-0.01,0.69-0.34,1.45-0.73,1.74c-0.39,0.29-0.7-0.01-0.68-0.7C122.47,82.03,122.8,81.26,123.19,80.97z M60.1,143.71l-2.83,2.1
				l0.26-11.86c0.01-0.48-0.05-1.07-0.42-0.8c-0.37,0.27-0.4,0.96-0.41,1.44l-0.26,11.83l-2.73,2.03l0.26-11.86
				c0.01-0.48-0.05-1.07-0.4-0.81c-0.38,0.28-0.41,0.97-0.42,1.45l-0.26,11.83l-2.83,2.1l0.34-15.83l2.83-2.1l-0.03,1.21l0.03-0.02
				c0.14-0.61,0.43-1.22,0.76-1.73c0.32-0.53,0.69-0.94,0.99-1.16c0.89-0.66,1.41-0.06,1.65,0.56c0.51-1.31,1.1-2.6,1.9-3.19
				c1.19-0.88,1.89-0.1,1.83,2.79L60.1,143.71z M67.23,138.43l-2.73,2.02l0.02-0.89c-0.43,1.04-1.09,2.08-1.81,2.62
				c-1.21,0.89-1.81-0.01-1.77-2.01l0.05-2.14c0.04-1.81,0.12-2.5,1.87-4.87c1.61-2.2,1.76-2.58,1.78-3.5l0.04-2
				c0.01-0.45-0.14-0.82-0.46-0.59c-0.32,0.24-0.44,0.78-0.45,1.26l-0.07,3.14l-2.62,1.94l0.04-1.68c0.08-3.48,1.09-5.57,3.22-7.14
				c2-1.49,3.22-1.4,3.14,2.27L67.23,138.43z M74.25,122.68l-2.62,1.94l0.03-1.49c0.02-0.67-0.14-0.83-0.41-0.63
				c-0.27,0.2-0.46,0.56-0.48,1.29l-0.01,0.62c-0.02,0.97,0.92,0.81,2.12,1.09c1.26,0.32,1.39,1.46,1.34,3.63
				c-0.08,3.51-1.43,5.58-3.45,7.08c-1.81,1.34-2.95,1.2-2.87-2.18l0.04-1.73l2.62-1.94l-0.05,2.16c-0.01,0.46,0.14,0.75,0.44,0.53
				c0.25-0.19,0.51-0.65,0.53-1.3l0.02-0.81c0.05-2.43-3.47,0.66-3.36-4.28c0.05-2.11,0.4-5.16,3.25-7.28
				c1.19-0.88,2.97-1.43,2.9,1.81L74.25,122.68z M81.27,128.02l-2.83,2.1l0.26-11.86c0.01-0.48-0.05-1.07-0.42-0.8
				c-0.38,0.28-0.41,0.97-0.42,1.45l-0.26,11.83l-2.83,2.1l0.42-19.28l2.83-2.1l-0.1,4.67l0.03-0.02c0.28-1.21,1.15-2.45,1.75-2.89
				c1.19-0.88,1.89-0.1,1.83,2.79L81.27,128.02z M89.2,110.88l-0.17,7.64c-0.04,2.08-0.54,4.54-2.04,5.66
				c-0.88,0.65-1.32,0.31-1.87-0.29l-0.16,1.39l-2.67,1.98l0.42-19.28l2.83-2.1l-0.11,4.83l0.03-0.02c0.43-1.25,1.07-2.55,1.8-3.09
				C88.45,106.73,89.27,107.52,89.2,110.88z M96.31,116.87l-2.83,2.1l0.03-1.21l-0.03,0.02c-0.27,1.22-1.15,2.45-1.75,2.89
				c-1.19,0.88-1.89,0.1-1.83-2.79l0.26-12.02l2.83-2.1l-0.26,11.85c-0.01,0.49,0.05,1.08,0.42,0.81c0.38-0.28,0.41-0.97,0.42-1.46
				l0.26-11.83l2.83-2.1L96.31,116.87z M101.98,102.35c-0.16,0.09-0.32,0.18-0.48,0.3c-0.76,0.56-1.23,1.73-1.25,2.98l-0.18,8.45
				l-2.83,2.09l0.35-15.83l2.73-2.03l-0.04,2.03l0.03-0.02c0.3-1.71,1.16-3.15,1.8-3.73L101.98,102.35z M108.97,104.54
				c-0.08,3.89-1.52,6.36-3.66,7.95c-1.56,1.15-3,1.51-2.93-1.65l2.73-2.03l-0.01,0.51c-0.01,0.35,0.09,0.86,0.41,0.63
				c0.33-0.25,0.57-0.53,0.6-1.53l0.05-2.19c-0.49,1.16-1.12,2.06-1.79,2.55c-1.44,1.07-2.02-0.5-1.97-2.71l0.12-5.56
				c0.05-2.24,0.68-4.7,2.16-5.8c0.78-0.58,1.29-0.53,1.79,0.32l0.03-0.02l0.03-1.27l2.73-2.03L108.97,104.54z M116.33,94.48
				l-3.65,2.71l-0.09,4.13c-0.01,0.63,0.06,0.97,0.41,0.71c0.4-0.29,0.5-0.88,0.51-1.47l0.06-2.84l2.73-2.03l-0.04,1.63
				c-0.09,4.1-1.77,6.46-3.26,7.57c-1.56,1.16-3.31,1.34-3.22-2.76l0.13-6.16c0.09-4.11,1.89-6.56,3.45-7.71
				c1.37-1.01,3.12-1.06,3.03,2.91L116.33,94.48z M121.63,87.79c-0.16,0.08-0.32,0.18-0.47,0.3c-0.76,0.57-1.23,1.73-1.25,2.98
				l-0.18,8.45l-2.83,2.1l0.35-15.83l2.73-2.03l-0.04,2.02l0.03-0.02c0.3-1.71,1.16-3.15,1.8-3.73L121.63,87.79z"/>
			<path fill="#6F4C36" d="M63.58,137.71c-0.01,0.46,0.14,0.77,0.4,0.58c0.35-0.26,0.5-0.82,0.51-1.18l0.09-4.13
				c-0.6,1.06-0.94,1.97-0.96,3.07L63.58,137.71z"/>
			<path fill="#6F4C36" d="M298.83,120.57c0-0.74-0.17-1.42-0.89-1.59c-0.63-0.16-0.78,0.3-0.78,1.08v2.52l1.67,0.41V120.57z"/>
			<path fill="#6F4C36" d="M123.13,81.7c-0.04,0.03-0.07,0.06-0.09,0.08l-0.01,0.46l0.09-0.07c0.1-0.08,0.2-0.21,0.2-0.38
				C123.33,81.67,123.28,81.59,123.13,81.7z"/>
			<path fill="#6F4C36" d="M123.19,81.15L123.19,81.15c-0.32,0.24-0.58,0.89-0.6,1.45c-0.01,0.58,0.23,0.84,0.55,0.61
				c0.32-0.22,0.58-0.88,0.59-1.45C123.75,81.19,123.51,80.92,123.19,81.15z M123.33,82.75c-0.02-0.03-0.04-0.14-0.05-0.3
				c-0.01-0.16-0.06-0.19-0.17-0.12l-0.09,0.07l-0.01,0.58l-0.13,0.09l0.03-1.36c0.07-0.07,0.13-0.13,0.23-0.2
				c0.12-0.09,0.2-0.11,0.25-0.08c0.05,0.02,0.07,0.1,0.07,0.23c0,0.18-0.08,0.34-0.16,0.45v0.01c0.07-0.03,0.11,0.04,0.13,0.23
				c0.01,0.2,0.03,0.27,0.04,0.3L123.33,82.75z"/>
			<polygon fill="#6F4C36" points="328.99,99.75 328.85,99.71 326.75,101.54 			"/>
			<polygon fill="#6F4C36" points="331.99,90.75 334.99,87.75 334.86,87.71 331.86,90.71 			"/>
			<polygon fill="#6F4C36" points="41.98,112.24 41.99,112.25 41.99,112.25 			"/>
			<path fill="#6F4C36" d="M44.66,139.9"/>
			<path fill="#6F4C36" d="M44.38,147.82"/>
		</g>
	</g>
</g>
</svg>
