<?xml version="1.0" encoding="utf-8"?>
<!-- Generator: Adobe Illustrator 18.1.0, SVG Export Plug-In . SVG Version: 6.00 Build 0)  -->
<svg version="1.1" id="Isolation_Mode" xmlns="http://www.w3.org/2000/svg" xmlns:xlink="http://www.w3.org/1999/xlink" x="0px"
	 y="0px" viewBox="0 0 284 244" enable-background="new 0 0 284 244" xml:space="preserve">
<path fill="#EAE7DE" d="M33.27,51.7c-0.19-6.01,3.21-6.94,8.09-6.65c5.64,0.34,11.35,0.38,16.98-0.01c5.22-0.36,8.9,0.6,8.72,6.82
	c8.33,0,16.28,0,24.85,0c0-4.45-0.06-8.73,0.01-12.99c0.22-12.67,8.11-21.29,20.76-21.53c19.65-0.36,39.32-0.31,58.98,0.01
	c11.93,0.19,20.15,8.97,20.4,20.88c0.09,4.33,0.01,8.65,0.01,13.41c8.21,0,16.27,0,24.74,0c-0.15-6.28,3.95-6.94,9.2-6.61
	c5.31,0.34,10.67,0.35,15.99,0.03c5.1-0.3,9.18,0.17,8.71,6.75c2.58,0.21,4.75,0.21,6.86,0.6c9.92,1.8,16.58,9.82,16.64,20.71
	c0.16,28.82,0.09,57.65,0.09,86.47c0,15,0.03,29.99-0.05,44.99c-0.08,14.05-8.4,22.32-22.48,22.33c-73.15,0.03-146.29,0.02-219.44,0
	c-14.12,0-22.58-8.13-22.61-22.2c-0.1-43.82-0.08-87.64,0.04-131.46C9.81,60,17.19,53.31,33.27,51.7z M176.73,51.88
	c1.49-16.22-2.66-20.95-18.22-21.07c-11.49-0.09-22.98-0.14-34.47,0c-14.06,0.16-19.35,7-16.36,21.07
	C130.56,51.88,153.48,51.88,176.73,51.88z"/>
</svg>
