<?xml version="1.0" encoding="utf-8"?>
<!-- Generator: Adobe Illustrator 18.1.0, SVG Export Plug-In . SVG Version: 6.00 Build 0)  -->
<svg version="1.1" id="Layer_1" xmlns="http://www.w3.org/2000/svg" xmlns:xlink="http://www.w3.org/1999/xlink" x="0px" y="0px"
	 viewBox="0 60 560 672" enable-background="new 0 60 560 672" xml:space="preserve">
<g id="B7remq.tif" display="none">
</g>
<g display="none">
	<g id="rpHOm2.tif" display="inline">
		<g>
			<g>
				<path fill="#FFFFFF" d="M485.34,205.27l0.33-0.83C456.54,115.9,370.73,65.25,281.68,66.41c-28.14,0.41-56.6,5.88-83.66,17.05
					c-58.01,24-99.8,68.69-120.08,121.81c-19.03,49.98-19.03,107.42,4.55,162.2c36.99,85.65,92.85,158.23,162.61,220.29
					c0.17,0.17,0.33,0.33,0.5,0.5c12.5,11.09,24.25,16.72,36,16.8c11.92,0.08,23.75-5.54,36.33-16.8l0.17-0.41
					c69.84-62.07,125.62-134.64,162.61-220.38C504.46,312.61,504.38,255.17,485.34,205.27z M280.52,355.22
					c-44.69-0.83-79.53-37.9-78.53-83.42c0.99-43.36,36-78.29,79.03-78.78c44.52-0.5,80.77,36,80.6,81.26
					C361.38,319.47,324.72,356.05,280.52,355.22z"/>
			</g>
		</g>
	</g>
	<g display="inline">
		<path fill="#FFFFFF" d="M36.04,639.93h23.28v63.6H100v20.4H36.04V639.93z"/>
		<path fill="#FFFFFF" d="M102.52,682.17v-0.24c0-24.12,19.44-43.68,45.36-43.68S193,657.57,193,681.69v0.24
			c0,24.12-19.44,43.68-45.36,43.68S102.52,706.29,102.52,682.17z M169.12,682.17v-0.24c0-12.24-8.64-22.68-21.48-22.68
			c-12.84,0-21.36,10.32-21.36,22.44v0.24c0,12.12,8.76,22.68,21.6,22.68C160.6,704.61,169.12,694.29,169.12,682.17z"/>
		<path fill="#FFFFFF" d="M202.24,682.17v-0.24c0-24.48,18.72-43.68,44.16-43.68c17.16,0,28.2,7.2,35.64,17.4l-17.52,13.56
			c-4.8-5.88-10.32-9.84-18.36-9.84c-11.76,0-20.04,10.08-20.04,22.32v0.24c0,12.6,8.28,22.44,20.04,22.44
			c8.76,0,13.92-4.08,18.96-10.2l17.52,12.48c-7.92,10.92-18.6,18.96-37.08,18.96C221.56,725.61,202.24,707.25,202.24,682.17z"/>
		<path fill="#FFFFFF" d="M321.04,639.33h22.44l35.76,84.6h-24.96l-6-15.12h-32.52l-6,15.12H285.4L321.04,639.33z M341.44,690.69
			l-9.36-23.76l-9.48,23.76H341.44z"/>
		<path fill="#FFFFFF" d="M397.12,660.33h-25.08v-20.4h73.56v20.4h-25.2v63.6h-23.28V660.33z"/>
		<path fill="#FFFFFF" d="M455.8,639.93h67.56v19.68h-44.52v12.84h40.32v18.36h-40.32v13.32h45.12v19.8H455.8V639.93z"/>
	</g>
</g>
<g>
	<g>
		<path fill="#FFFFFF" d="M329.01,332.67c-0.02,0-0.05,0-0.07,0c0,55.92-0.01,111.84,0,167.76c0.01,24.54-0.24,49.08,0.21,73.61
			c0.37,20.04,17.57,35.33,36.39,33.2c20.18-2.3,32.36-19.52,30.01-40.95c-3.35-30.58-6.01-61.25-8.91-91.88
			c-2.62-27.61-4.83-55.26-7.91-82.81c-1.64-14.64-0.3-27.55,10.19-39.24c4.03-4.5,6.54-12.05,6.55-18.2
			c0.13-58.19,0.34-116.41-1.24-174.56c-0.51-18.92-5.65-37.84-9.87-56.49c-2.38-10.55-7.48-20.44-15.95-27.83
			c-7.57-6.61-16.3-9.11-25.86-4.74c-9.23,4.21-13.53,11.85-13.54,21.91C329,172.51,329.01,252.59,329.01,332.67z M209.52,148.68
			c0-24.36-0.02-48.71,0.02-73.07c0.01-4.02-0.78-7.58-5.6-7.56c-4.56,0.03-5.16,3.56-5.23,7.3c-0.14,8.37-0.47,16.74-0.59,25.11
			c-0.61,39.76-1.15,79.52-1.77,119.29c-0.03,2.07,0.18,4.54-0.85,6.08c-1.2,1.79-3.78,3.95-5.5,3.76
			c-2.06-0.24-4.21-2.55-5.61-4.48c-0.85-1.16-0.47-3.31-0.46-5.01c0.19-33.1,0.38-66.22,0.64-99.33
			c0.11-15.03,0.39-30.06,0.58-45.1c0.05-3.71-0.69-7.19-5.06-7.62c-4.56-0.43-5.53,3.14-6.1,6.71c-0.06,0.38-0.1,0.75-0.14,1.13
			c-2.33,25.93-4.65,51.87-6.98,77.8c-2.2,24.41-4.1,48.87-6.74,73.24c-1.72,15.95-0.7,31.09,8.19,44.99
			c6.66,10.41,13.24,20.87,19.77,31.38c5.42,8.74,8.9,18.19,8.42,28.57c-1.07,23.17-2.35,46.34-3.76,69.49
			c-1.67,27.51-3.65,55.01-5.33,82.53c-1.79,29.42-3.19,58.86-5.14,88.26c-1.19,17.88,13.33,34.65,31.31,35.3
			c19.65,0.71,36.29-14.8,35.47-33.54c-0.85-19.37-2.12-38.72-3.33-58.07c-2.09-33.58-4.32-67.17-6.42-100.76
			c-1.51-24.09-2.6-48.21-4.45-72.28c-1.2-15.55,1.4-29.79,10.25-42.88c6.29-9.28,11.93-19.01,18.02-28.45
			c6.41-9.93,9.54-20.99,8.84-32.52c-1.31-21.62-3.65-43.17-5.62-64.74c-2.16-23.65-4.4-47.3-6.58-70.95
			c-0.89-9.65-1.66-19.31-2.57-28.96c-0.33-3.51-1.69-6.51-5.87-6.28c-3.88,0.22-4.89,3.05-4.86,6.45
			c0.03,4.94,0.08,9.88,0.11,14.82c0.23,39.96,0.45,79.92,0.7,119.88c0.02,4.56,0.39,9.12,0.27,13.68c-0.1,3.78-1.82,6.83-6,7.05
			c-4.25,0.22-5.86-2.88-6.61-6.51c-0.19-0.91-0.13-1.9-0.14-2.84c-0.43-34.43-0.81-68.87-1.3-103.3
			c-0.21-14.46-0.49-28.91-1.24-43.35c-0.1-2.04-2.73-5.14-4.73-5.66c-3.6-0.95-5.29,2.07-5.72,5.46c-0.14,1.13-0.1,2.28-0.1,3.43
			c-0.01,33.3-0.02,66.6-0.05,99.91c-0.01,15.22-0.06,30.44,0,45.67c0.01,4.02-1.56,7-5.63,7.14c-4.24,0.15-6.52-2.57-6.53-6.93
			c0-1.52-0.02-3.05-0.02-4.57C209.52,195.11,209.52,171.89,209.52,148.68z"/>
		<path fill="#FFFFFF" d="M329.01,332.67c0-80.08-0.01-160.16,0.01-240.24c0-10.06,4.31-17.7,13.54-21.91
			c9.56-4.37,18.29-1.86,25.86,4.74c8.46,7.39,13.57,17.28,15.95,27.83c4.21,18.65,9.35,37.57,9.87,56.49
			c1.59,58.16,1.37,116.37,1.24,174.56c-0.01,6.17-2.52,13.71-6.55,18.2c-10.48,11.68-11.82,24.6-10.19,39.24
			c3.08,27.55,5.29,55.2,7.91,82.81c2.91,30.64,5.56,61.3,8.91,91.88c2.35,21.43-9.83,38.67-30.01,40.95
			c-18.82,2.14-36.02-13.16-36.39-33.2c-0.46-24.53-0.21-49.07-0.21-73.61c-0.01-55.92,0-111.84,0-167.76
			C328.97,332.67,328.99,332.67,329.01,332.67z"/>
		<path fill="#FFFFFF" d="M209.52,148.68c0,23.22,0,46.43,0,69.65c0,1.52,0.01,3.05,0.02,4.57c0.01,4.36,2.31,7.08,6.53,6.93
			c4.07-0.15,5.65-3.12,5.63-7.14c-0.07-15.22-0.01-30.44,0-45.67c0.01-33.3,0.02-66.6,0.05-99.91c0-1.14-0.03-2.3,0.1-3.43
			c0.42-3.39,2.11-6.41,5.72-5.46c2,0.53,4.62,3.62,4.73,5.66c0.74,14.43,1.03,28.89,1.24,43.35c0.5,34.43,0.88,68.87,1.3,103.3
			c0.01,0.95-0.06,1.93,0.14,2.84c0.75,3.62,2.36,6.73,6.61,6.51c4.18-0.22,5.89-3.27,6-7.05c0.11-4.56-0.25-9.11-0.27-13.68
			c-0.25-39.96-0.47-79.92-0.7-119.88c-0.02-4.94-0.07-9.88-0.11-14.82c-0.02-3.4,0.98-6.23,4.86-6.45
			c4.19-0.23,5.54,2.77,5.87,6.28c0.92,9.65,1.69,19.31,2.57,28.96c2.18,23.65,4.42,47.3,6.58,70.95
			c1.96,21.57,4.31,43.13,5.62,64.74c0.71,11.53-2.43,22.59-8.84,32.52c-6.09,9.43-11.73,19.15-18.02,28.45
			c-8.85,13.08-11.45,27.33-10.25,42.88c1.85,24.06,2.95,48.19,4.45,72.28c2.1,33.58,4.32,67.17,6.42,100.76
			c1.21,19.36,2.48,38.7,3.33,58.07c0.82,18.75-15.82,34.26-35.47,33.54c-17.99-0.65-32.5-17.41-31.31-35.3
			c1.96-29.4,3.35-58.84,5.14-88.26c1.68-27.51,3.67-55.01,5.33-82.53c1.4-23.16,2.68-46.32,3.76-69.49
			c0.48-10.38-2.98-19.84-8.42-28.57c-6.53-10.49-13.11-20.97-19.77-31.38c-8.9-13.91-9.91-29.04-8.19-44.99
			c2.63-24.37,4.53-48.83,6.74-73.24c2.33-25.93,4.66-51.87,6.98-77.8c0.03-0.38,0.07-0.75,0.14-1.13c0.58-3.57,1.54-7.14,6.1-6.71
			c4.39,0.41,5.12,3.91,5.06,7.62c-0.19,15.03-0.47,30.06-0.58,45.1c-0.26,33.1-0.45,66.22-0.64,99.33c-0.01,1.7-0.4,3.85,0.46,5.01
			c1.4,1.93,3.55,4.24,5.61,4.48c1.72,0.19,4.31-1.96,5.5-3.76c1.03-1.53,0.81-4.01,0.85-6.08c0.62-39.76,1.16-79.52,1.77-119.29
			c0.13-8.37,0.46-16.74,0.59-25.11c0.06-3.73,0.66-7.26,5.23-7.3c4.82-0.03,5.6,3.53,5.6,7.56
			C209.5,99.96,209.52,124.32,209.52,148.68z"/>
	</g>
	<g>
		<path fill="#FFFFFF" d="M106.16,639.6h24.6l20.04,32.52l20.04-32.52h24.6v84h-23.16v-48.24l-21.48,32.88h-0.48l-21.36-32.76v48.12
			h-22.8V639.6z"/>
		<path fill="#FFFFFF" d="M210.32,639.6h67.56v19.68h-44.52v12.84h40.32v18.36h-40.32v13.32h45.12v19.8h-68.16V639.6z"/>
		<path fill="#FFFFFF" d="M290.48,639.6h21.72l34.56,44.4v-44.4h23.04v84h-20.28l-36-46.08v46.08h-23.04V639.6z"/>
		<path fill="#FFFFFF" d="M383.72,686.76V639.6h23.52v46.68c0,12.12,6.12,17.88,15.48,17.88c9.48,0,15.6-5.52,15.6-17.28V639.6
			h23.52v46.56c0,27-15.48,39-39.36,39C398.72,725.16,383.72,713.04,383.72,686.76z"/>
	</g>
</g>
</svg>
