<?xml version="1.0" encoding="utf-8"?>
<!-- Generator: Adobe Illustrator 18.1.0, SVG Export Plug-In . SVG Version: 6.00 Build 0)  -->
<svg version="1.1" id="Layer_1" xmlns="http://www.w3.org/2000/svg" xmlns:xlink="http://www.w3.org/1999/xlink" x="0px" y="0px"
	 viewBox="0 0 219 486" enable-background="new 0 0 219 486" xml:space="preserve">
<g>
	<path fill="#FFFFFF" d="M154.81,239.62c-0.02,0-0.04,0-0.06,0c0,48.97-0.01,97.94,0,146.91c0.01,21.49-0.21,42.98,0.18,64.46
		c0.32,17.55,15.39,30.94,31.87,29.07c17.67-2.01,28.34-17.09,26.28-35.86c-2.93-26.78-5.26-53.64-7.8-80.46
		c-2.29-24.18-4.23-48.39-6.93-72.52c-1.44-12.82-0.26-24.13,8.92-34.36c3.53-3.94,5.73-10.55,5.74-15.94
		c0.11-50.96,0.3-101.94-1.09-152.86c-0.45-16.57-4.95-33.14-8.64-49.47c-2.08-9.24-6.55-17.9-13.97-24.37
		c-6.63-5.79-14.27-7.98-22.65-4.15c-8.08,3.69-11.85,10.38-11.86,19.19C154.8,99.37,154.81,169.5,154.81,239.62z M50.17,78.5
		c0-21.33-0.02-42.66,0.02-63.99c0.01-3.52-0.68-6.64-4.9-6.62c-3.99,0.03-4.52,3.12-4.58,6.39c-0.12,7.33-0.41,14.66-0.52,21.99
		c-0.53,34.82-1.01,69.64-1.55,104.46c-0.03,1.81,0.16,3.98-0.74,5.32c-1.05,1.57-3.31,3.46-4.82,3.29
		c-1.8-0.21-3.69-2.23-4.91-3.92c-0.74-1.02-0.41-2.9-0.4-4.39c0.17-28.99,0.33-57.99,0.56-86.98c0.1-13.16,0.34-26.32,0.51-39.49
		c0.04-3.25-0.6-6.3-4.43-6.67c-3.99-0.38-4.84,2.75-5.34,5.88c-0.05,0.33-0.09,0.66-0.12,0.99c-2.04,22.71-4.07,45.42-6.11,68.13
		c-1.93,21.38-3.59,42.8-5.9,64.14c-1.51,13.97-0.61,27.23,7.17,39.4c5.83,9.12,11.59,18.28,17.31,27.48
		c4.75,7.65,7.79,15.93,7.37,25.02c-0.94,20.29-2.06,40.58-3.29,60.85c-1.46,24.09-3.2,48.17-4.67,72.27
		c-1.57,25.76-2.79,51.54-4.5,77.29c-1.04,15.66,11.67,30.34,27.42,30.91c17.21,0.62,31.78-12.96,31.06-29.37
		c-0.74-16.96-1.86-33.91-2.92-50.85c-1.83-29.41-3.78-58.82-5.62-88.24c-1.32-21.1-2.28-42.22-3.9-63.3
		c-1.05-13.62,1.23-26.09,8.98-37.55c5.51-8.13,10.45-16.65,15.78-24.91c5.61-8.7,8.35-18.38,7.74-28.48
		c-1.15-18.93-3.2-37.8-4.92-56.69c-1.89-20.71-3.85-41.42-5.76-62.13c-0.78-8.45-1.45-16.91-2.25-25.36
		c-0.29-3.07-1.48-5.7-5.14-5.5c-3.4,0.19-4.28,2.67-4.26,5.65c0.03,4.33,0.07,8.65,0.1,12.98c0.2,34.99,0.39,69.99,0.61,104.98
		c0.02,3.99,0.34,7.99,0.24,11.98c-0.09,3.31-1.59,5.98-5.25,6.17c-3.72,0.19-5.13-2.52-5.79-5.7c-0.17-0.8-0.11-1.66-0.12-2.49
		c-0.38-30.15-0.71-60.31-1.14-90.46c-0.18-12.66-0.43-25.32-1.09-37.96c-0.09-1.79-2.39-4.5-4.14-4.96
		c-3.15-0.83-4.63,1.81-5.01,4.78c-0.12,0.99-0.09,2-0.09,3c-0.01,29.16-0.02,58.32-0.04,87.49c-0.01,13.33-0.05,26.66,0,39.99
		c0.01,3.52-1.37,6.13-4.93,6.25c-3.71,0.13-5.71-2.25-5.72-6.07c0-1.33-0.02-2.67-0.02-4C50.17,119.16,50.17,98.83,50.17,78.5z"/>
	<path fill="#FFFFFF" d="M154.81,239.62c0-70.13-0.01-140.25,0.01-210.38c0-8.81,3.77-15.5,11.86-19.19
		c8.37-3.83,16.02-1.63,22.65,4.15c7.41,6.47,11.88,15.13,13.97,24.37c3.69,16.33,8.19,32.9,8.64,49.47
		c1.39,50.93,1.2,101.91,1.09,152.86c-0.01,5.4-2.21,12.01-5.74,15.94c-9.18,10.23-10.35,21.54-8.92,34.36
		c2.7,24.13,4.63,48.34,6.93,72.52c2.55,26.83,4.87,53.68,7.8,80.46c2.06,18.77-8.61,33.86-26.28,35.86
		c-16.48,1.87-31.54-11.52-31.87-29.07c-0.4-21.48-0.18-42.97-0.18-64.46c-0.01-48.97,0-97.94,0-146.91
		C154.77,239.62,154.79,239.62,154.81,239.62z"/>
	<path fill="#FFFFFF" d="M50.17,78.5c0,20.33,0,40.66,0,60.99c0,1.33,0.01,2.67,0.02,4c0.01,3.82,2.02,6.2,5.72,6.07
		c3.56-0.13,4.95-2.73,4.93-6.25c-0.06-13.33-0.01-26.66,0-39.99c0.01-29.16,0.02-58.32,0.04-87.49c0-1-0.03-2.01,0.09-3
		c0.37-2.97,1.85-5.61,5.01-4.78c1.75,0.46,4.05,3.17,4.14,4.96c0.65,12.64,0.9,25.3,1.09,37.96c0.44,30.15,0.77,60.31,1.14,90.46
		c0.01,0.83-0.05,1.69,0.12,2.49c0.66,3.17,2.07,5.89,5.79,5.7c3.66-0.19,5.16-2.86,5.25-6.17c0.1-3.99-0.22-7.98-0.24-11.98
		c-0.22-34.99-0.41-69.99-0.61-104.98c-0.02-4.33-0.06-8.65-0.1-12.98c-0.02-2.98,0.86-5.46,4.26-5.65c3.67-0.2,4.85,2.43,5.14,5.5
		c0.81,8.45,1.48,16.91,2.25,25.36c1.91,20.71,3.87,41.42,5.76,62.13c1.72,18.89,3.77,37.77,4.92,56.69
		c0.62,10.1-2.13,19.78-7.74,28.48c-5.33,8.26-10.27,16.77-15.78,24.91c-7.75,11.45-10.03,23.93-8.98,37.55
		c1.62,21.07,2.58,42.2,3.9,63.3c1.84,29.41,3.78,58.82,5.62,88.24c1.06,16.95,2.17,33.89,2.92,50.85
		c0.72,16.42-13.85,30-31.06,29.37c-15.75-0.57-28.46-15.25-27.42-30.91c1.72-25.75,2.93-51.53,4.5-77.29
		c1.47-24.09,3.21-48.17,4.67-72.27c1.23-20.28,2.35-40.56,3.29-60.85c0.42-9.09-2.61-17.37-7.37-25.02
		c-5.72-9.19-11.48-18.36-17.31-27.48c-7.79-12.18-8.68-25.43-7.17-39.4c2.3-21.34,3.97-42.76,5.9-64.14
		c2.04-22.71,4.08-45.42,6.11-68.13c0.03-0.33,0.06-0.66,0.12-0.99c0.51-3.13,1.35-6.25,5.34-5.88c3.84,0.36,4.48,3.42,4.43,6.67
		c-0.17,13.16-0.41,26.32-0.51,39.49c-0.23,28.99-0.39,57.99-0.56,86.98c-0.01,1.49-0.35,3.37,0.4,4.39
		c1.23,1.69,3.11,3.71,4.91,3.92c1.51,0.17,3.77-1.72,4.82-3.29c0.9-1.34,0.71-3.51,0.74-5.32c0.54-34.82,1.02-69.64,1.55-104.46
		c0.11-7.33,0.4-14.66,0.52-21.99c0.05-3.27,0.58-6.36,4.58-6.39c4.22-0.03,4.9,3.09,4.9,6.62C50.15,35.84,50.17,57.17,50.17,78.5z"
		/>
</g>
</svg>
